%TF.GenerationSoftware,KiCad,Pcbnew,8.0.8*%
%TF.CreationDate,2025-11-27T10:04:54+01:00*%
%TF.ProjectId,CartridgeMk3.1,43617274-7269-4646-9765-4d6b332e312e,rev?*%
%TF.SameCoordinates,Original*%
%TF.FileFunction,Soldermask,Top*%
%TF.FilePolarity,Negative*%
%FSLAX46Y46*%
G04 Gerber Fmt 4.6, Leading zero omitted, Abs format (unit mm)*
G04 Created by KiCad (PCBNEW 8.0.8) date 2025-11-27 10:04:54*
%MOMM*%
%LPD*%
G01*
G04 APERTURE LIST*
G04 Aperture macros list*
%AMRoundRect*
0 Rectangle with rounded corners*
0 $1 Rounding radius*
0 $2 $3 $4 $5 $6 $7 $8 $9 X,Y pos of 4 corners*
0 Add a 4 corners polygon primitive as box body*
4,1,4,$2,$3,$4,$5,$6,$7,$8,$9,$2,$3,0*
0 Add four circle primitives for the rounded corners*
1,1,$1+$1,$2,$3*
1,1,$1+$1,$4,$5*
1,1,$1+$1,$6,$7*
1,1,$1+$1,$8,$9*
0 Add four rect primitives between the rounded corners*
20,1,$1+$1,$2,$3,$4,$5,0*
20,1,$1+$1,$4,$5,$6,$7,0*
20,1,$1+$1,$6,$7,$8,$9,0*
20,1,$1+$1,$8,$9,$2,$3,0*%
G04 Aperture macros list end*
%ADD10C,0.100000*%
%ADD11C,1.500000*%
%ADD12RoundRect,0.100000X-0.100000X0.130000X-0.100000X-0.130000X0.100000X-0.130000X0.100000X0.130000X0*%
%ADD13R,0.700000X1.100000*%
%ADD14R,0.900000X0.930000*%
%ADD15R,1.050000X0.780000*%
%ADD16R,0.700000X3.330000*%
%ADD17R,1.140000X1.830000*%
%ADD18R,0.860000X2.800000*%
%ADD19R,0.700000X3.200000*%
%ADD20R,0.700000X4.300000*%
G04 APERTURE END LIST*
D10*
X187600000Y-77900000D02*
X187100000Y-78400000D01*
X177000000Y-78400000D01*
X176500000Y-77900000D01*
X176500000Y-72850000D01*
X187600000Y-72850000D01*
X187600000Y-77900000D01*
G36*
X187600000Y-77900000D02*
G01*
X187100000Y-78400000D01*
X177000000Y-78400000D01*
X176500000Y-77900000D01*
X176500000Y-72850000D01*
X187600000Y-72850000D01*
X187600000Y-77900000D01*
G37*
X174500000Y-77900000D02*
X174000000Y-78400000D01*
X167900000Y-78400000D01*
X167400000Y-77900000D01*
X167400000Y-72850000D01*
X174500000Y-72850000D01*
X174500000Y-77900000D01*
G36*
X174500000Y-77900000D02*
G01*
X174000000Y-78400000D01*
X167900000Y-78400000D01*
X167400000Y-77900000D01*
X167400000Y-72850000D01*
X174500000Y-72850000D01*
X174500000Y-77900000D01*
G37*
D11*
%TO.C,FD1*%
X167000000Y-61500000D03*
%TD*%
D12*
%TO.C,R1*%
X182650000Y-49235000D03*
X182650000Y-49875000D03*
%TD*%
%TO.C,R3*%
X174950000Y-48680000D03*
X174950000Y-49320000D03*
%TD*%
D11*
%TO.C,FD2*%
X189500000Y-53500000D03*
%TD*%
%TO.C,FD3*%
X189500000Y-61500000D03*
%TD*%
D12*
%TO.C,R5*%
X175995000Y-49230000D03*
X175995000Y-49870000D03*
%TD*%
%TO.C,R2*%
X181500000Y-49230000D03*
X181500000Y-49870000D03*
%TD*%
D13*
%TO.C,J2*%
X174880000Y-51985000D03*
X175980000Y-51985000D03*
X177080000Y-51985000D03*
X178180000Y-51985000D03*
X179280000Y-51985000D03*
X180380000Y-51985000D03*
X181480000Y-51985000D03*
X182580000Y-51985000D03*
D14*
X173090000Y-64450000D03*
D15*
X177355000Y-64525000D03*
D16*
X170780000Y-63250000D03*
D17*
X171000000Y-52000000D03*
D18*
X183660000Y-52485000D03*
D16*
X183740000Y-63250000D03*
%TD*%
D12*
%TO.C,R4*%
X177100000Y-49235000D03*
X177100000Y-49875000D03*
%TD*%
D19*
%TO.C,J1*%
X187000000Y-74450000D03*
D20*
X186000000Y-75000000D03*
X185000000Y-75000000D03*
X184000000Y-75000000D03*
X183000000Y-75000000D03*
X182000000Y-75000000D03*
X181000000Y-75000000D03*
X180000000Y-75000000D03*
X179000000Y-75000000D03*
X178000000Y-75000000D03*
X177000000Y-75000000D03*
X174000000Y-75000000D03*
X173000000Y-75000000D03*
X172000000Y-75000000D03*
X171000000Y-75000000D03*
X170000000Y-75000000D03*
X169000000Y-75000000D03*
X168000000Y-75000000D03*
%TD*%
M02*
