%TF.GenerationSoftware,KiCad,Pcbnew,8.0.8*%
%TF.CreationDate,2025-11-27T10:04:54+01:00*%
%TF.ProjectId,CartridgeMk3.1,43617274-7269-4646-9765-4d6b332e312e,rev?*%
%TF.SameCoordinates,Original*%
%TF.FileFunction,Legend,Bot*%
%TF.FilePolarity,Positive*%
%FSLAX46Y46*%
G04 Gerber Fmt 4.6, Leading zero omitted, Abs format (unit mm)*
G04 Created by KiCad (PCBNEW 8.0.8) date 2025-11-27 10:04:54*
%MOMM*%
%LPD*%
G01*
G04 APERTURE LIST*
%ADD10C,0.100000*%
%ADD11C,0.150000*%
G04 APERTURE END LIST*
D10*
X182124687Y-56762475D02*
X182458020Y-56286284D01*
X182696115Y-56762475D02*
X182696115Y-55762475D01*
X182696115Y-55762475D02*
X182315163Y-55762475D01*
X182315163Y-55762475D02*
X182219925Y-55810094D01*
X182219925Y-55810094D02*
X182172306Y-55857713D01*
X182172306Y-55857713D02*
X182124687Y-55952951D01*
X182124687Y-55952951D02*
X182124687Y-56095808D01*
X182124687Y-56095808D02*
X182172306Y-56191046D01*
X182172306Y-56191046D02*
X182219925Y-56238665D01*
X182219925Y-56238665D02*
X182315163Y-56286284D01*
X182315163Y-56286284D02*
X182696115Y-56286284D01*
X181553258Y-56762475D02*
X181648496Y-56714856D01*
X181648496Y-56714856D02*
X181696115Y-56667236D01*
X181696115Y-56667236D02*
X181743734Y-56571998D01*
X181743734Y-56571998D02*
X181743734Y-56286284D01*
X181743734Y-56286284D02*
X181696115Y-56191046D01*
X181696115Y-56191046D02*
X181648496Y-56143427D01*
X181648496Y-56143427D02*
X181553258Y-56095808D01*
X181553258Y-56095808D02*
X181410401Y-56095808D01*
X181410401Y-56095808D02*
X181315163Y-56143427D01*
X181315163Y-56143427D02*
X181267544Y-56191046D01*
X181267544Y-56191046D02*
X181219925Y-56286284D01*
X181219925Y-56286284D02*
X181219925Y-56571998D01*
X181219925Y-56571998D02*
X181267544Y-56667236D01*
X181267544Y-56667236D02*
X181315163Y-56714856D01*
X181315163Y-56714856D02*
X181410401Y-56762475D01*
X181410401Y-56762475D02*
X181553258Y-56762475D01*
X180648496Y-56762475D02*
X180743734Y-56714856D01*
X180743734Y-56714856D02*
X180791353Y-56667236D01*
X180791353Y-56667236D02*
X180838972Y-56571998D01*
X180838972Y-56571998D02*
X180838972Y-56286284D01*
X180838972Y-56286284D02*
X180791353Y-56191046D01*
X180791353Y-56191046D02*
X180743734Y-56143427D01*
X180743734Y-56143427D02*
X180648496Y-56095808D01*
X180648496Y-56095808D02*
X180505639Y-56095808D01*
X180505639Y-56095808D02*
X180410401Y-56143427D01*
X180410401Y-56143427D02*
X180362782Y-56191046D01*
X180362782Y-56191046D02*
X180315163Y-56286284D01*
X180315163Y-56286284D02*
X180315163Y-56571998D01*
X180315163Y-56571998D02*
X180362782Y-56667236D01*
X180362782Y-56667236D02*
X180410401Y-56714856D01*
X180410401Y-56714856D02*
X180505639Y-56762475D01*
X180505639Y-56762475D02*
X180648496Y-56762475D01*
X179886591Y-56762475D02*
X179886591Y-55762475D01*
X179315163Y-56762475D02*
X179743734Y-56191046D01*
X179315163Y-55762475D02*
X179886591Y-56333903D01*
X182124687Y-58277180D02*
X182172306Y-58324800D01*
X182172306Y-58324800D02*
X182315163Y-58372419D01*
X182315163Y-58372419D02*
X182410401Y-58372419D01*
X182410401Y-58372419D02*
X182553258Y-58324800D01*
X182553258Y-58324800D02*
X182648496Y-58229561D01*
X182648496Y-58229561D02*
X182696115Y-58134323D01*
X182696115Y-58134323D02*
X182743734Y-57943847D01*
X182743734Y-57943847D02*
X182743734Y-57800990D01*
X182743734Y-57800990D02*
X182696115Y-57610514D01*
X182696115Y-57610514D02*
X182648496Y-57515276D01*
X182648496Y-57515276D02*
X182553258Y-57420038D01*
X182553258Y-57420038D02*
X182410401Y-57372419D01*
X182410401Y-57372419D02*
X182315163Y-57372419D01*
X182315163Y-57372419D02*
X182172306Y-57420038D01*
X182172306Y-57420038D02*
X182124687Y-57467657D01*
X181267544Y-58372419D02*
X181267544Y-57848609D01*
X181267544Y-57848609D02*
X181315163Y-57753371D01*
X181315163Y-57753371D02*
X181410401Y-57705752D01*
X181410401Y-57705752D02*
X181600877Y-57705752D01*
X181600877Y-57705752D02*
X181696115Y-57753371D01*
X181267544Y-58324800D02*
X181362782Y-58372419D01*
X181362782Y-58372419D02*
X181600877Y-58372419D01*
X181600877Y-58372419D02*
X181696115Y-58324800D01*
X181696115Y-58324800D02*
X181743734Y-58229561D01*
X181743734Y-58229561D02*
X181743734Y-58134323D01*
X181743734Y-58134323D02*
X181696115Y-58039085D01*
X181696115Y-58039085D02*
X181600877Y-57991466D01*
X181600877Y-57991466D02*
X181362782Y-57991466D01*
X181362782Y-57991466D02*
X181267544Y-57943847D01*
X180791353Y-58372419D02*
X180791353Y-57705752D01*
X180791353Y-57896228D02*
X180743734Y-57800990D01*
X180743734Y-57800990D02*
X180696115Y-57753371D01*
X180696115Y-57753371D02*
X180600877Y-57705752D01*
X180600877Y-57705752D02*
X180505639Y-57705752D01*
X180315162Y-57705752D02*
X179934210Y-57705752D01*
X180172305Y-57372419D02*
X180172305Y-58229561D01*
X180172305Y-58229561D02*
X180124686Y-58324800D01*
X180124686Y-58324800D02*
X180029448Y-58372419D01*
X180029448Y-58372419D02*
X179934210Y-58372419D01*
X179600876Y-58372419D02*
X179600876Y-57705752D01*
X179600876Y-57896228D02*
X179553257Y-57800990D01*
X179553257Y-57800990D02*
X179505638Y-57753371D01*
X179505638Y-57753371D02*
X179410400Y-57705752D01*
X179410400Y-57705752D02*
X179315162Y-57705752D01*
X178981828Y-58372419D02*
X178981828Y-57705752D01*
X178981828Y-57372419D02*
X179029447Y-57420038D01*
X179029447Y-57420038D02*
X178981828Y-57467657D01*
X178981828Y-57467657D02*
X178934209Y-57420038D01*
X178934209Y-57420038D02*
X178981828Y-57372419D01*
X178981828Y-57372419D02*
X178981828Y-57467657D01*
X178077067Y-58372419D02*
X178077067Y-57372419D01*
X178077067Y-58324800D02*
X178172305Y-58372419D01*
X178172305Y-58372419D02*
X178362781Y-58372419D01*
X178362781Y-58372419D02*
X178458019Y-58324800D01*
X178458019Y-58324800D02*
X178505638Y-58277180D01*
X178505638Y-58277180D02*
X178553257Y-58181942D01*
X178553257Y-58181942D02*
X178553257Y-57896228D01*
X178553257Y-57896228D02*
X178505638Y-57800990D01*
X178505638Y-57800990D02*
X178458019Y-57753371D01*
X178458019Y-57753371D02*
X178362781Y-57705752D01*
X178362781Y-57705752D02*
X178172305Y-57705752D01*
X178172305Y-57705752D02*
X178077067Y-57753371D01*
X177172305Y-57705752D02*
X177172305Y-58515276D01*
X177172305Y-58515276D02*
X177219924Y-58610514D01*
X177219924Y-58610514D02*
X177267543Y-58658133D01*
X177267543Y-58658133D02*
X177362781Y-58705752D01*
X177362781Y-58705752D02*
X177505638Y-58705752D01*
X177505638Y-58705752D02*
X177600876Y-58658133D01*
X177172305Y-58324800D02*
X177267543Y-58372419D01*
X177267543Y-58372419D02*
X177458019Y-58372419D01*
X177458019Y-58372419D02*
X177553257Y-58324800D01*
X177553257Y-58324800D02*
X177600876Y-58277180D01*
X177600876Y-58277180D02*
X177648495Y-58181942D01*
X177648495Y-58181942D02*
X177648495Y-57896228D01*
X177648495Y-57896228D02*
X177600876Y-57800990D01*
X177600876Y-57800990D02*
X177553257Y-57753371D01*
X177553257Y-57753371D02*
X177458019Y-57705752D01*
X177458019Y-57705752D02*
X177267543Y-57705752D01*
X177267543Y-57705752D02*
X177172305Y-57753371D01*
X176315162Y-58324800D02*
X176410400Y-58372419D01*
X176410400Y-58372419D02*
X176600876Y-58372419D01*
X176600876Y-58372419D02*
X176696114Y-58324800D01*
X176696114Y-58324800D02*
X176743733Y-58229561D01*
X176743733Y-58229561D02*
X176743733Y-57848609D01*
X176743733Y-57848609D02*
X176696114Y-57753371D01*
X176696114Y-57753371D02*
X176600876Y-57705752D01*
X176600876Y-57705752D02*
X176410400Y-57705752D01*
X176410400Y-57705752D02*
X176315162Y-57753371D01*
X176315162Y-57753371D02*
X176267543Y-57848609D01*
X176267543Y-57848609D02*
X176267543Y-57943847D01*
X176267543Y-57943847D02*
X176743733Y-58039085D01*
X175077066Y-58372419D02*
X175077066Y-57372419D01*
X175077066Y-57372419D02*
X174743733Y-58086704D01*
X174743733Y-58086704D02*
X174410400Y-57372419D01*
X174410400Y-57372419D02*
X174410400Y-58372419D01*
X173934209Y-58372419D02*
X173934209Y-57372419D01*
X173838971Y-57991466D02*
X173553257Y-58372419D01*
X173553257Y-57705752D02*
X173934209Y-58086704D01*
X173219923Y-57372419D02*
X172600876Y-57372419D01*
X172600876Y-57372419D02*
X172934209Y-57753371D01*
X172934209Y-57753371D02*
X172791352Y-57753371D01*
X172791352Y-57753371D02*
X172696114Y-57800990D01*
X172696114Y-57800990D02*
X172648495Y-57848609D01*
X172648495Y-57848609D02*
X172600876Y-57943847D01*
X172600876Y-57943847D02*
X172600876Y-58181942D01*
X172600876Y-58181942D02*
X172648495Y-58277180D01*
X172648495Y-58277180D02*
X172696114Y-58324800D01*
X172696114Y-58324800D02*
X172791352Y-58372419D01*
X172791352Y-58372419D02*
X173077066Y-58372419D01*
X173077066Y-58372419D02*
X173172304Y-58324800D01*
X173172304Y-58324800D02*
X173219923Y-58277180D01*
X172172304Y-58277180D02*
X172124685Y-58324800D01*
X172124685Y-58324800D02*
X172172304Y-58372419D01*
X172172304Y-58372419D02*
X172219923Y-58324800D01*
X172219923Y-58324800D02*
X172172304Y-58277180D01*
X172172304Y-58277180D02*
X172172304Y-58372419D01*
X171172305Y-58372419D02*
X171743733Y-58372419D01*
X171458019Y-58372419D02*
X171458019Y-57372419D01*
X171458019Y-57372419D02*
X171553257Y-57515276D01*
X171553257Y-57515276D02*
X171648495Y-57610514D01*
X171648495Y-57610514D02*
X171743733Y-57658133D01*
D11*
X182333333Y-70954819D02*
X182333333Y-71669104D01*
X182333333Y-71669104D02*
X182380952Y-71811961D01*
X182380952Y-71811961D02*
X182476190Y-71907200D01*
X182476190Y-71907200D02*
X182619047Y-71954819D01*
X182619047Y-71954819D02*
X182714285Y-71954819D01*
X181333333Y-71954819D02*
X181904761Y-71954819D01*
X181619047Y-71954819D02*
X181619047Y-70954819D01*
X181619047Y-70954819D02*
X181714285Y-71097676D01*
X181714285Y-71097676D02*
X181809523Y-71192914D01*
X181809523Y-71192914D02*
X181904761Y-71240533D01*
M02*
