%TF.GenerationSoftware,KiCad,Pcbnew,8.0.8*%
%TF.CreationDate,2025-11-27T10:04:54+01:00*%
%TF.ProjectId,CartridgeMk3.1,43617274-7269-4646-9765-4d6b332e312e,rev?*%
%TF.SameCoordinates,Original*%
%TF.FileFunction,Copper,L1,Top*%
%TF.FilePolarity,Positive*%
%FSLAX46Y46*%
G04 Gerber Fmt 4.6, Leading zero omitted, Abs format (unit mm)*
G04 Created by KiCad (PCBNEW 8.0.8) date 2025-11-27 10:04:54*
%MOMM*%
%LPD*%
G01*
G04 APERTURE LIST*
G04 Aperture macros list*
%AMRoundRect*
0 Rectangle with rounded corners*
0 $1 Rounding radius*
0 $2 $3 $4 $5 $6 $7 $8 $9 X,Y pos of 4 corners*
0 Add a 4 corners polygon primitive as box body*
4,1,4,$2,$3,$4,$5,$6,$7,$8,$9,$2,$3,0*
0 Add four circle primitives for the rounded corners*
1,1,$1+$1,$2,$3*
1,1,$1+$1,$4,$5*
1,1,$1+$1,$6,$7*
1,1,$1+$1,$8,$9*
0 Add four rect primitives between the rounded corners*
20,1,$1+$1,$2,$3,$4,$5,0*
20,1,$1+$1,$4,$5,$6,$7,0*
20,1,$1+$1,$6,$7,$8,$9,0*
20,1,$1+$1,$8,$9,$2,$3,0*%
G04 Aperture macros list end*
%TA.AperFunction,SMDPad,CuDef*%
%ADD10C,0.500000*%
%TD*%
%TA.AperFunction,SMDPad,CuDef*%
%ADD11RoundRect,0.100000X-0.100000X0.130000X-0.100000X-0.130000X0.100000X-0.130000X0.100000X0.130000X0*%
%TD*%
%TA.AperFunction,SMDPad,CuDef*%
%ADD12R,0.700000X1.100000*%
%TD*%
%TA.AperFunction,SMDPad,CuDef*%
%ADD13R,0.900000X0.930000*%
%TD*%
%TA.AperFunction,SMDPad,CuDef*%
%ADD14R,1.050000X0.780000*%
%TD*%
%TA.AperFunction,SMDPad,CuDef*%
%ADD15R,0.700000X3.330000*%
%TD*%
%TA.AperFunction,SMDPad,CuDef*%
%ADD16R,1.140000X1.830000*%
%TD*%
%TA.AperFunction,SMDPad,CuDef*%
%ADD17R,0.860000X2.800000*%
%TD*%
%TA.AperFunction,ConnectorPad*%
%ADD18R,0.700000X3.200000*%
%TD*%
%TA.AperFunction,ConnectorPad*%
%ADD19R,0.700000X4.300000*%
%TD*%
%TA.AperFunction,ViaPad*%
%ADD20C,0.600000*%
%TD*%
%TA.AperFunction,Conductor*%
%ADD21C,0.200000*%
%TD*%
G04 APERTURE END LIST*
D10*
%TO.P,FD1,*%
%TO.N,*%
X167000000Y-61500000D03*
%TD*%
D11*
%TO.P,R1,1*%
%TO.N,3V3*%
X182650000Y-49235000D03*
%TO.P,R1,2*%
%TO.N,SD_DAT1*%
X182650000Y-49875000D03*
%TD*%
%TO.P,R3,1*%
%TO.N,3V3*%
X174950000Y-48680000D03*
%TO.P,R3,2*%
%TO.N,SD_DAT2*%
X174950000Y-49320000D03*
%TD*%
D10*
%TO.P,FD2,*%
%TO.N,*%
X189500000Y-53500000D03*
%TD*%
%TO.P,FD3,*%
%TO.N,*%
X189500000Y-61500000D03*
%TD*%
D11*
%TO.P,R5,1*%
%TO.N,3V3*%
X175995000Y-49230000D03*
%TO.P,R5,2*%
%TO.N,SD_DAT3*%
X175995000Y-49870000D03*
%TD*%
%TO.P,R2,1*%
%TO.N,3V3*%
X181500000Y-49230000D03*
%TO.P,R2,2*%
%TO.N,SD_DAT0*%
X181500000Y-49870000D03*
%TD*%
D12*
%TO.P,J2,1,DAT2*%
%TO.N,SD_DAT2*%
X174880000Y-51985000D03*
%TO.P,J2,2,DAT3/CD*%
%TO.N,SD_DAT3*%
X175980000Y-51985000D03*
%TO.P,J2,3,CMD*%
%TO.N,SD_CMD*%
X177080000Y-51985000D03*
%TO.P,J2,4,VDD*%
%TO.N,3V3*%
X178180000Y-51985000D03*
%TO.P,J2,5,CLK*%
%TO.N,SD_CLK*%
X179280000Y-51985000D03*
%TO.P,J2,6,VSS*%
%TO.N,GND*%
X180380000Y-51985000D03*
%TO.P,J2,7,DAT0*%
%TO.N,SD_DAT0*%
X181480000Y-51985000D03*
%TO.P,J2,8,DAT1*%
%TO.N,SD_DAT1*%
X182580000Y-51985000D03*
D13*
%TO.P,J2,9,SHIELD*%
%TO.N,GND*%
X173090000Y-64450000D03*
D14*
%TO.P,J2,10*%
%TO.N,N/C*%
X177355000Y-64525000D03*
D15*
%TO.P,J2,11*%
X170780000Y-63250000D03*
D16*
X171000000Y-52000000D03*
D17*
X183660000Y-52485000D03*
D15*
X183740000Y-63250000D03*
%TD*%
D11*
%TO.P,R4,1*%
%TO.N,3V3*%
X177100000Y-49235000D03*
%TO.P,R4,2*%
%TO.N,SD_CMD*%
X177100000Y-49875000D03*
%TD*%
D18*
%TO.P,J1,A1,SUPPLY*%
%TO.N,Net-(J1-CARD_PRESENT)*%
X187000000Y-74450000D03*
D19*
%TO.P,J1,A2,+5V*%
%TO.N,unconnected-(J1-+5V-PadA2)*%
X186000000Y-75000000D03*
%TO.P,J1,A3,+3.3V*%
%TO.N,3V3*%
X185000000Y-75000000D03*
%TO.P,J1,A4,GND*%
%TO.N,GND*%
X184000000Y-75000000D03*
%TO.P,J1,A5,SD_CLK*%
%TO.N,SD_CLK*%
X183000000Y-75000000D03*
%TO.P,J1,A6,SD_CMD*%
%TO.N,SD_CMD*%
X182000000Y-75000000D03*
%TO.P,J1,A7,SD_DAT0*%
%TO.N,SD_DAT0*%
X181000000Y-75000000D03*
%TO.P,J1,A8,SD_DAT1*%
%TO.N,SD_DAT1*%
X180000000Y-75000000D03*
%TO.P,J1,A9,SD_DAT2*%
%TO.N,SD_DAT2*%
X179000000Y-75000000D03*
%TO.P,J1,A10,SD_DAT3*%
%TO.N,SD_DAT3*%
X178000000Y-75000000D03*
%TO.P,J1,A11*%
%TO.N,unconnected-(J1-PadA11)*%
X177000000Y-75000000D03*
%TO.P,J1,A12*%
%TO.N,unconnected-(J1-PadA12)*%
X174000000Y-75000000D03*
%TO.P,J1,A13*%
%TO.N,unconnected-(J1-PadA13)*%
X173000000Y-75000000D03*
%TO.P,J1,A14*%
%TO.N,unconnected-(J1-PadA14)*%
X172000000Y-75000000D03*
%TO.P,J1,A15*%
%TO.N,unconnected-(J1-PadA15)*%
X171000000Y-75000000D03*
%TO.P,J1,A16*%
%TO.N,unconnected-(J1-PadA16)*%
X170000000Y-75000000D03*
%TO.P,J1,A17,CARD_PRESENT*%
%TO.N,Net-(J1-CARD_PRESENT)*%
X169000000Y-75000000D03*
%TO.P,J1,A18*%
%TO.N,unconnected-(J1-PadA18)*%
X168000000Y-75000000D03*
%TD*%
D20*
%TO.N,SD_DAT1*%
X182580000Y-51985000D03*
X180000000Y-66000000D03*
%TO.N,GND*%
X173090000Y-64450000D03*
X180350000Y-50850000D03*
X183950000Y-68650000D03*
%TO.N,SD_DAT0*%
X181480000Y-51985000D03*
X181000000Y-66000000D03*
%TO.N,SD_DAT2*%
X173875000Y-49325000D03*
X174880000Y-51985000D03*
%TD*%
D21*
%TO.N,SD_DAT3*%
X175995000Y-51970000D02*
X175980000Y-51985000D01*
X173480000Y-62480000D02*
X173480000Y-54273241D01*
X175995000Y-49870000D02*
X175995000Y-51970000D01*
X173550000Y-54203241D02*
X173550000Y-50500000D01*
X173480000Y-54273241D02*
X173550000Y-54203241D01*
X175980000Y-51235000D02*
X175980000Y-51985000D01*
X178000000Y-74750000D02*
X178000000Y-67000000D01*
X178000000Y-67000000D02*
X173480000Y-62480000D01*
X173550000Y-50500000D02*
X175245000Y-50500000D01*
X175245000Y-50500000D02*
X175980000Y-51235000D01*
%TO.N,Net-(J1-CARD_PRESENT)*%
X175834315Y-47650000D02*
X175884315Y-47600000D01*
X186500000Y-50434314D02*
X186500000Y-67600000D01*
X183665686Y-47600000D02*
X186500000Y-50434314D01*
X175884315Y-47600000D02*
X183665686Y-47600000D01*
X187000000Y-68100000D02*
X187000000Y-74200000D01*
X186500000Y-67600000D02*
X187000000Y-68100000D01*
X173265000Y-47650000D02*
X175834315Y-47650000D01*
X169000000Y-74750000D02*
X169000000Y-72400000D01*
X169000000Y-72400000D02*
X170050000Y-71350000D01*
X170050000Y-50865000D02*
X173265000Y-47650000D01*
X170050000Y-71350000D02*
X170050000Y-50865000D01*
%TO.N,SD_DAT1*%
X182650000Y-51915000D02*
X182580000Y-51985000D01*
X180000000Y-74750000D02*
X180000000Y-66000000D01*
X182650000Y-49875000D02*
X182650000Y-51915000D01*
%TO.N,GND*%
X173000000Y-64540000D02*
X173090000Y-64450000D01*
X180380000Y-51985000D02*
X180380000Y-50880000D01*
X183950000Y-71650000D02*
X184000000Y-71700000D01*
X184000000Y-71700000D02*
X184000000Y-74750000D01*
X183950000Y-68650000D02*
X183950000Y-71650000D01*
X180380000Y-50880000D02*
X180350000Y-50850000D01*
%TO.N,SD_DAT0*%
X181500000Y-51965000D02*
X181480000Y-51985000D01*
X181000000Y-74750000D02*
X181000000Y-66000000D01*
X181500000Y-49870000D02*
X181500000Y-51965000D01*
%TO.N,3V3*%
X185000000Y-74750000D02*
X185000000Y-72400000D01*
X182650000Y-48000000D02*
X181415000Y-48000000D01*
X175995000Y-49155000D02*
X176500000Y-48650000D01*
X186100000Y-50600000D02*
X183500000Y-48000000D01*
X176500000Y-48650000D02*
X180765000Y-48650000D01*
X174950000Y-48680000D02*
X176470000Y-48680000D01*
X176470000Y-48680000D02*
X176500000Y-48650000D01*
X181500000Y-49230000D02*
X181500000Y-48085000D01*
X186100000Y-71300000D02*
X186100000Y-50600000D01*
X181500000Y-48085000D02*
X181415000Y-48000000D01*
X185000000Y-72400000D02*
X186100000Y-71300000D01*
X180782500Y-48632500D02*
X180182500Y-49232500D01*
X182650000Y-49235000D02*
X182650000Y-48000000D01*
X175995000Y-49230000D02*
X175995000Y-49155000D01*
X181415000Y-48000000D02*
X180782500Y-48632500D01*
X178180000Y-51235000D02*
X178180000Y-51985000D01*
X183500000Y-48000000D02*
X182650000Y-48000000D01*
X180765000Y-48650000D02*
X180782500Y-48632500D01*
X177100000Y-49235000D02*
X180180000Y-49235000D01*
X180180000Y-49235000D02*
X180182500Y-49232500D01*
X180182500Y-49232500D02*
X178180000Y-51235000D01*
%TO.N,SD_DAT2*%
X174880000Y-56613418D02*
X174880000Y-60535000D01*
X175120000Y-54274589D02*
X174880000Y-54274589D01*
X174880000Y-54874589D02*
X175120000Y-54874589D01*
X173880000Y-49320000D02*
X173875000Y-49325000D01*
X175640000Y-54274589D02*
X175120000Y-54274589D01*
X174950000Y-49320000D02*
X173880000Y-49320000D01*
X175120000Y-54874589D02*
X175640000Y-54874589D01*
X174880000Y-55714589D02*
X174880000Y-55834589D01*
X174880000Y-55834589D02*
X174880000Y-56613418D01*
X174120000Y-54874589D02*
X174880000Y-54874589D01*
X175880000Y-53914589D02*
X175880000Y-54034589D01*
X175120000Y-53674589D02*
X175640000Y-53674589D01*
X173875000Y-49325000D02*
X173850000Y-49350000D01*
X175880000Y-55114589D02*
X175880000Y-55234589D01*
X174880000Y-54274589D02*
X174120000Y-54274589D01*
X173880000Y-54514589D02*
X173880000Y-54634589D01*
X174880000Y-51985000D02*
X174880000Y-53434589D01*
X174880000Y-60535000D02*
X179000000Y-64655000D01*
X175640000Y-55474589D02*
X175120000Y-55474589D01*
X179000000Y-64655000D02*
X179000000Y-74750000D01*
X175880000Y-54034589D02*
G75*
G02*
X175640000Y-54274600I-240000J-11D01*
G01*
X174120000Y-54274589D02*
G75*
G03*
X173879989Y-54514589I0J-240011D01*
G01*
X175120000Y-55474589D02*
G75*
G03*
X174879989Y-55714589I0J-240011D01*
G01*
X173880000Y-54634589D02*
G75*
G03*
X174120000Y-54874600I240000J-11D01*
G01*
X175640000Y-53674589D02*
G75*
G02*
X175880011Y-53914589I0J-240011D01*
G01*
X175880000Y-55234589D02*
G75*
G02*
X175640000Y-55474600I-240000J-11D01*
G01*
X174880000Y-53434589D02*
G75*
G03*
X175120000Y-53674600I240000J-11D01*
G01*
X175640000Y-54874589D02*
G75*
G02*
X175880011Y-55114589I0J-240011D01*
G01*
%TO.N,SD_CLK*%
X183000000Y-56105000D02*
X179280000Y-52385000D01*
X183000000Y-57668353D02*
X183000000Y-56105000D01*
X183000000Y-58352137D02*
X183000000Y-57668353D01*
X183240000Y-59312137D02*
X183760000Y-59312137D01*
X179280000Y-52385000D02*
X179280000Y-51985000D01*
X183000000Y-59312137D02*
X183240000Y-59312137D01*
X183000000Y-59912137D02*
X182640000Y-59912137D01*
X184000000Y-60272137D02*
X184000000Y-60152137D01*
X183760000Y-58712137D02*
X183240000Y-58712137D01*
X183000000Y-58472137D02*
X183000000Y-58352137D01*
X184000000Y-59072137D02*
X184000000Y-58952137D01*
X182640000Y-59312137D02*
X183000000Y-59312137D01*
X182640000Y-60512137D02*
X182760000Y-60512137D01*
X183760000Y-59912137D02*
X183000000Y-59912137D01*
X182400000Y-60872137D02*
X182400000Y-60752137D01*
X182400000Y-59672137D02*
X182400000Y-59552137D01*
X183000000Y-74750000D02*
X183000000Y-61352137D01*
X182760000Y-60512137D02*
X183000000Y-60512137D01*
X183000000Y-60512137D02*
X183760000Y-60512137D01*
X182760000Y-61112137D02*
X182640000Y-61112137D01*
X183760000Y-60512137D02*
G75*
G03*
X184000037Y-60272137I0J240037D01*
G01*
X183760000Y-59312137D02*
G75*
G03*
X184000037Y-59072137I0J240037D01*
G01*
X182400000Y-59552137D02*
G75*
G02*
X182640000Y-59312100I240000J37D01*
G01*
X182640000Y-59912137D02*
G75*
G02*
X182399963Y-59672137I0J240037D01*
G01*
X183000000Y-61352137D02*
G75*
G03*
X182760000Y-61112100I-240000J37D01*
G01*
X182400000Y-60752137D02*
G75*
G02*
X182640000Y-60512100I240000J37D01*
G01*
X184000000Y-60152137D02*
G75*
G03*
X183760000Y-59912100I-240000J37D01*
G01*
X184000000Y-58952137D02*
G75*
G03*
X183760000Y-58712100I-240000J37D01*
G01*
X182640000Y-61112137D02*
G75*
G02*
X182399963Y-60872137I0J240037D01*
G01*
X183240000Y-58712137D02*
G75*
G02*
X182999963Y-58472137I0J240037D01*
G01*
%TO.N,SD_CMD*%
X177100000Y-49875000D02*
X177100000Y-51965000D01*
X178848843Y-54153842D02*
X178848843Y-54153843D01*
X177100000Y-51965000D02*
X177080000Y-51985000D01*
X182000000Y-57305000D02*
X182000000Y-74750000D01*
X180031403Y-55336403D02*
X182000000Y-57305000D01*
X178170024Y-53135613D02*
X178396297Y-52909337D01*
X178735709Y-52909338D02*
X178820561Y-52994190D01*
X178594285Y-53559875D02*
X178424580Y-53729580D01*
X179725655Y-53616441D02*
X179810507Y-53701293D01*
X178424580Y-53729580D02*
X177887178Y-54266981D01*
X178848843Y-54153843D02*
X179018547Y-53984136D01*
X178820561Y-53333602D02*
X178594285Y-53559875D01*
X179527665Y-54832665D02*
X180031403Y-55336403D01*
X179810507Y-54040705D02*
X179442812Y-54408401D01*
X178311442Y-54691244D02*
X178848843Y-54153842D01*
X179442811Y-54747811D02*
X179527665Y-54832665D01*
X177080000Y-51985000D02*
X177080000Y-52385000D01*
X177887178Y-54606392D02*
X177972030Y-54691244D01*
X179018547Y-53984136D02*
X179386243Y-53616440D01*
X177080000Y-52385000D02*
X177830612Y-53135612D01*
X177887178Y-54266981D02*
G75*
G03*
X177887164Y-54606405I169722J-169719D01*
G01*
X177830612Y-53135612D02*
G75*
G03*
X178170005Y-53135595I169688J169712D01*
G01*
X179386243Y-53616440D02*
G75*
G02*
X179725607Y-53616489I169657J-169760D01*
G01*
X179810507Y-53701293D02*
G75*
G02*
X179810508Y-54040706I-169707J-169707D01*
G01*
X177972030Y-54691244D02*
G75*
G03*
X178311442Y-54691244I169706J169704D01*
G01*
X178820561Y-52994190D02*
G75*
G02*
X178820565Y-53333606I-169661J-169710D01*
G01*
X179442812Y-54408401D02*
G75*
G03*
X179442817Y-54747804I169688J-169699D01*
G01*
X178396297Y-52909337D02*
G75*
G02*
X178735706Y-52909341I169703J-169663D01*
G01*
%TD*%
M02*
