%TF.GenerationSoftware,KiCad,Pcbnew,8.0.8*%
%TF.CreationDate,2025-11-27T10:04:54+01:00*%
%TF.ProjectId,CartridgeMk3.1,43617274-7269-4646-9765-4d6b332e312e,rev?*%
%TF.SameCoordinates,Original*%
%TF.FileFunction,Soldermask,Bot*%
%TF.FilePolarity,Negative*%
%FSLAX46Y46*%
G04 Gerber Fmt 4.6, Leading zero omitted, Abs format (unit mm)*
G04 Created by KiCad (PCBNEW 8.0.8) date 2025-11-27 10:04:54*
%MOMM*%
%LPD*%
G01*
G04 APERTURE LIST*
%ADD10C,0.100000*%
%ADD11R,0.700000X4.300000*%
%ADD12R,0.700000X3.200000*%
G04 APERTURE END LIST*
D10*
X187600000Y-77900000D02*
X187100000Y-78400000D01*
X177000000Y-78400000D01*
X176500000Y-77900000D01*
X176500000Y-72850000D01*
X187600000Y-72850000D01*
X187600000Y-77900000D01*
G36*
X187600000Y-77900000D02*
G01*
X187100000Y-78400000D01*
X177000000Y-78400000D01*
X176500000Y-77900000D01*
X176500000Y-72850000D01*
X187600000Y-72850000D01*
X187600000Y-77900000D01*
G37*
X174500000Y-77900000D02*
X174000000Y-78400000D01*
X167900000Y-78400000D01*
X167400000Y-77900000D01*
X167400000Y-72850000D01*
X174500000Y-72850000D01*
X174500000Y-77900000D01*
G36*
X174500000Y-77900000D02*
G01*
X174000000Y-78400000D01*
X167900000Y-78400000D01*
X167400000Y-77900000D01*
X167400000Y-72850000D01*
X174500000Y-72850000D01*
X174500000Y-77900000D01*
G37*
D11*
%TO.C,J1*%
X187000000Y-75000000D03*
X186000000Y-75000000D03*
X185000000Y-75000000D03*
X184000000Y-75000000D03*
X183000000Y-75000000D03*
X182000000Y-75000000D03*
X181000000Y-75000000D03*
X180000000Y-75000000D03*
X179000000Y-75000000D03*
X178000000Y-75000000D03*
X177000000Y-75000000D03*
X174000000Y-75000000D03*
X173000000Y-75000000D03*
X172000000Y-75000000D03*
X171000000Y-75000000D03*
X170000000Y-75000000D03*
D12*
X169000000Y-74450000D03*
D11*
X168000000Y-75000000D03*
%TD*%
M02*
