%TF.GenerationSoftware,KiCad,Pcbnew,8.0.8*%
%TF.CreationDate,2025-11-27T10:04:54+01:00*%
%TF.ProjectId,CartridgeMk3.1,43617274-7269-4646-9765-4d6b332e312e,rev?*%
%TF.SameCoordinates,Original*%
%TF.FileFunction,Profile,NP*%
%FSLAX46Y46*%
G04 Gerber Fmt 4.6, Leading zero omitted, Abs format (unit mm)*
G04 Created by KiCad (PCBNEW 8.0.8) date 2025-11-27 10:04:54*
%MOMM*%
%LPD*%
G01*
G04 APERTURE LIST*
%TA.AperFunction,Profile*%
%ADD10C,0.050000*%
%TD*%
%TA.AperFunction,Profile*%
%ADD11C,0.100000*%
%TD*%
G04 APERTURE END LIST*
D10*
X192000000Y-69000000D02*
X192000000Y-70050000D01*
X190580000Y-65500000D02*
G75*
G02*
X187420000Y-65500000I-1580000J0D01*
G01*
X187420000Y-65500000D02*
G75*
G02*
X190580000Y-65500000I1580000J0D01*
G01*
X169080000Y-65500000D02*
G75*
G02*
X165920000Y-65500000I-1580000J0D01*
G01*
X165920000Y-65500000D02*
G75*
G02*
X169080000Y-65500000I1580000J0D01*
G01*
X192000000Y-46000000D02*
X164500000Y-46000000D01*
X164500000Y-46000000D02*
X164499561Y-70050000D01*
X190580000Y-49000000D02*
G75*
G02*
X187420000Y-49000000I-1580000J0D01*
G01*
X187420000Y-49000000D02*
G75*
G02*
X190580000Y-49000000I1580000J0D01*
G01*
X169080000Y-49000000D02*
G75*
G02*
X165920000Y-49000000I-1580000J0D01*
G01*
X165920000Y-49000000D02*
G75*
G02*
X169080000Y-49000000I1580000J0D01*
G01*
X192000000Y-69000000D02*
X192000000Y-46000000D01*
X187650000Y-70050000D02*
X192000000Y-70050000D01*
X167350000Y-70050000D02*
X164499561Y-70050000D01*
D11*
%TO.C,J1*%
X167350000Y-77950000D02*
X167350000Y-70050000D01*
X167850000Y-78450000D02*
X167350000Y-77950000D01*
X167850000Y-78450000D02*
X174050000Y-78450000D01*
X174050000Y-78450000D02*
X174550000Y-77950000D01*
X174550000Y-77950000D02*
X174550000Y-71000000D01*
X176450000Y-77950000D02*
X176450000Y-71000000D01*
X176950000Y-78450000D02*
X176450000Y-77950000D01*
X176950000Y-78450000D02*
X187150000Y-78450000D01*
X187150000Y-78450000D02*
X187650000Y-77950000D01*
X187650000Y-77950000D02*
X187650000Y-70050000D01*
X174550000Y-71000000D02*
G75*
G02*
X176450000Y-71000000I950000J0D01*
G01*
%TD*%
M02*
