%TF.GenerationSoftware,KiCad,Pcbnew,8.0.8*%
%TF.CreationDate,2025-11-27T10:04:54+01:00*%
%TF.ProjectId,CartridgeMk3.1,43617274-7269-4646-9765-4d6b332e312e,rev?*%
%TF.SameCoordinates,Original*%
%TF.FileFunction,Legend,Top*%
%TF.FilePolarity,Positive*%
%FSLAX46Y46*%
G04 Gerber Fmt 4.6, Leading zero omitted, Abs format (unit mm)*
G04 Created by KiCad (PCBNEW 8.0.8) date 2025-11-27 10:04:54*
%MOMM*%
%LPD*%
G01*
G04 APERTURE LIST*
%ADD10C,0.100000*%
%ADD11C,0.150000*%
%ADD12C,0.127000*%
%ADD13C,0.200000*%
G04 APERTURE END LIST*
D10*
X165703884Y-52922419D02*
X165703884Y-51922419D01*
X165703884Y-51922419D02*
X166037217Y-52636704D01*
X166037217Y-52636704D02*
X166370550Y-51922419D01*
X166370550Y-51922419D02*
X166370550Y-52922419D01*
X166846741Y-52922419D02*
X166846741Y-51922419D01*
X166941979Y-52541466D02*
X167227693Y-52922419D01*
X167227693Y-52255752D02*
X166846741Y-52636704D01*
X167561027Y-51922419D02*
X168180074Y-51922419D01*
X168180074Y-51922419D02*
X167846741Y-52303371D01*
X167846741Y-52303371D02*
X167989598Y-52303371D01*
X167989598Y-52303371D02*
X168084836Y-52350990D01*
X168084836Y-52350990D02*
X168132455Y-52398609D01*
X168132455Y-52398609D02*
X168180074Y-52493847D01*
X168180074Y-52493847D02*
X168180074Y-52731942D01*
X168180074Y-52731942D02*
X168132455Y-52827180D01*
X168132455Y-52827180D02*
X168084836Y-52874800D01*
X168084836Y-52874800D02*
X167989598Y-52922419D01*
X167989598Y-52922419D02*
X167703884Y-52922419D01*
X167703884Y-52922419D02*
X167608646Y-52874800D01*
X167608646Y-52874800D02*
X167561027Y-52827180D01*
X168608646Y-52827180D02*
X168656265Y-52874800D01*
X168656265Y-52874800D02*
X168608646Y-52922419D01*
X168608646Y-52922419D02*
X168561027Y-52874800D01*
X168561027Y-52874800D02*
X168608646Y-52827180D01*
X168608646Y-52827180D02*
X168608646Y-52922419D01*
X169608645Y-52922419D02*
X169037217Y-52922419D01*
X169322931Y-52922419D02*
X169322931Y-51922419D01*
X169322931Y-51922419D02*
X169227693Y-52065276D01*
X169227693Y-52065276D02*
X169132455Y-52160514D01*
X169132455Y-52160514D02*
X169037217Y-52208133D01*
D11*
X166166666Y-59716509D02*
X165833333Y-59716509D01*
X165833333Y-60240319D02*
X165833333Y-59240319D01*
X165833333Y-59240319D02*
X166309523Y-59240319D01*
X166690476Y-60240319D02*
X166690476Y-59240319D01*
X166690476Y-59240319D02*
X166928571Y-59240319D01*
X166928571Y-59240319D02*
X167071428Y-59287938D01*
X167071428Y-59287938D02*
X167166666Y-59383176D01*
X167166666Y-59383176D02*
X167214285Y-59478414D01*
X167214285Y-59478414D02*
X167261904Y-59668890D01*
X167261904Y-59668890D02*
X167261904Y-59811747D01*
X167261904Y-59811747D02*
X167214285Y-60002223D01*
X167214285Y-60002223D02*
X167166666Y-60097461D01*
X167166666Y-60097461D02*
X167071428Y-60192700D01*
X167071428Y-60192700D02*
X166928571Y-60240319D01*
X166928571Y-60240319D02*
X166690476Y-60240319D01*
X168214285Y-60240319D02*
X167642857Y-60240319D01*
X167928571Y-60240319D02*
X167928571Y-59240319D01*
X167928571Y-59240319D02*
X167833333Y-59383176D01*
X167833333Y-59383176D02*
X167738095Y-59478414D01*
X167738095Y-59478414D02*
X167642857Y-59526033D01*
X188666666Y-51716509D02*
X188333333Y-51716509D01*
X188333333Y-52240319D02*
X188333333Y-51240319D01*
X188333333Y-51240319D02*
X188809523Y-51240319D01*
X189190476Y-52240319D02*
X189190476Y-51240319D01*
X189190476Y-51240319D02*
X189428571Y-51240319D01*
X189428571Y-51240319D02*
X189571428Y-51287938D01*
X189571428Y-51287938D02*
X189666666Y-51383176D01*
X189666666Y-51383176D02*
X189714285Y-51478414D01*
X189714285Y-51478414D02*
X189761904Y-51668890D01*
X189761904Y-51668890D02*
X189761904Y-51811747D01*
X189761904Y-51811747D02*
X189714285Y-52002223D01*
X189714285Y-52002223D02*
X189666666Y-52097461D01*
X189666666Y-52097461D02*
X189571428Y-52192700D01*
X189571428Y-52192700D02*
X189428571Y-52240319D01*
X189428571Y-52240319D02*
X189190476Y-52240319D01*
X190142857Y-51335557D02*
X190190476Y-51287938D01*
X190190476Y-51287938D02*
X190285714Y-51240319D01*
X190285714Y-51240319D02*
X190523809Y-51240319D01*
X190523809Y-51240319D02*
X190619047Y-51287938D01*
X190619047Y-51287938D02*
X190666666Y-51335557D01*
X190666666Y-51335557D02*
X190714285Y-51430795D01*
X190714285Y-51430795D02*
X190714285Y-51526033D01*
X190714285Y-51526033D02*
X190666666Y-51668890D01*
X190666666Y-51668890D02*
X190095238Y-52240319D01*
X190095238Y-52240319D02*
X190714285Y-52240319D01*
X188666666Y-59716509D02*
X188333333Y-59716509D01*
X188333333Y-60240319D02*
X188333333Y-59240319D01*
X188333333Y-59240319D02*
X188809523Y-59240319D01*
X189190476Y-60240319D02*
X189190476Y-59240319D01*
X189190476Y-59240319D02*
X189428571Y-59240319D01*
X189428571Y-59240319D02*
X189571428Y-59287938D01*
X189571428Y-59287938D02*
X189666666Y-59383176D01*
X189666666Y-59383176D02*
X189714285Y-59478414D01*
X189714285Y-59478414D02*
X189761904Y-59668890D01*
X189761904Y-59668890D02*
X189761904Y-59811747D01*
X189761904Y-59811747D02*
X189714285Y-60002223D01*
X189714285Y-60002223D02*
X189666666Y-60097461D01*
X189666666Y-60097461D02*
X189571428Y-60192700D01*
X189571428Y-60192700D02*
X189428571Y-60240319D01*
X189428571Y-60240319D02*
X189190476Y-60240319D01*
X190095238Y-59240319D02*
X190714285Y-59240319D01*
X190714285Y-59240319D02*
X190380952Y-59621271D01*
X190380952Y-59621271D02*
X190523809Y-59621271D01*
X190523809Y-59621271D02*
X190619047Y-59668890D01*
X190619047Y-59668890D02*
X190666666Y-59716509D01*
X190666666Y-59716509D02*
X190714285Y-59811747D01*
X190714285Y-59811747D02*
X190714285Y-60049842D01*
X190714285Y-60049842D02*
X190666666Y-60145080D01*
X190666666Y-60145080D02*
X190619047Y-60192700D01*
X190619047Y-60192700D02*
X190523809Y-60240319D01*
X190523809Y-60240319D02*
X190238095Y-60240319D01*
X190238095Y-60240319D02*
X190142857Y-60192700D01*
X190142857Y-60192700D02*
X190095238Y-60145080D01*
D10*
X173018773Y-48651306D02*
X173018773Y-49366081D01*
X173018773Y-49366081D02*
X172971121Y-49509036D01*
X172971121Y-49509036D02*
X172875818Y-49604340D01*
X172875818Y-49604340D02*
X172732863Y-49651991D01*
X172732863Y-49651991D02*
X172637560Y-49651991D01*
X173447638Y-48746610D02*
X173495290Y-48698958D01*
X173495290Y-48698958D02*
X173590593Y-48651306D01*
X173590593Y-48651306D02*
X173828852Y-48651306D01*
X173828852Y-48651306D02*
X173924155Y-48698958D01*
X173924155Y-48698958D02*
X173971807Y-48746610D01*
X173971807Y-48746610D02*
X174019458Y-48841913D01*
X174019458Y-48841913D02*
X174019458Y-48937216D01*
X174019458Y-48937216D02*
X173971807Y-49080171D01*
X173971807Y-49080171D02*
X173399987Y-49651991D01*
X173399987Y-49651991D02*
X174019458Y-49651991D01*
D12*
%TO.C,J2*%
X170710000Y-50585000D02*
X183810000Y-50585000D01*
X170710000Y-53285000D02*
X170710000Y-56185000D01*
X170710000Y-59185000D02*
X170710000Y-61285000D01*
X171384000Y-64635000D02*
X172386000Y-64635000D01*
X178134000Y-64635000D02*
X183136000Y-64635000D01*
D13*
X174980000Y-50135000D02*
G75*
G02*
X174780000Y-50135000I-100000J0D01*
G01*
X174780000Y-50135000D02*
G75*
G02*
X174980000Y-50135000I100000J0D01*
G01*
%TD*%
M02*
