%TF.GenerationSoftware,KiCad,Pcbnew,8.0.8*%
%TF.CreationDate,2025-11-24T21:21:31+01:00*%
%TF.ProjectId,RetroConsoleMk3.1,52657472-6f43-46f6-9e73-6f6c654d6b33,rev?*%
%TF.SameCoordinates,PX237a085PY9f06730*%
%TF.FileFunction,Soldermask,Top*%
%TF.FilePolarity,Negative*%
%FSLAX46Y46*%
G04 Gerber Fmt 4.6, Leading zero omitted, Abs format (unit mm)*
G04 Created by KiCad (PCBNEW 8.0.8) date 2025-11-24 21:21:31*
%MOMM*%
%LPD*%
G01*
G04 APERTURE LIST*
G04 Aperture macros list*
%AMRoundRect*
0 Rectangle with rounded corners*
0 $1 Rounding radius*
0 $2 $3 $4 $5 $6 $7 $8 $9 X,Y pos of 4 corners*
0 Add a 4 corners polygon primitive as box body*
4,1,4,$2,$3,$4,$5,$6,$7,$8,$9,$2,$3,0*
0 Add four circle primitives for the rounded corners*
1,1,$1+$1,$2,$3*
1,1,$1+$1,$4,$5*
1,1,$1+$1,$6,$7*
1,1,$1+$1,$8,$9*
0 Add four rect primitives between the rounded corners*
20,1,$1+$1,$2,$3,$4,$5,0*
20,1,$1+$1,$4,$5,$6,$7,0*
20,1,$1+$1,$6,$7,$8,$9,0*
20,1,$1+$1,$8,$9,$2,$3,0*%
G04 Aperture macros list end*
%ADD10RoundRect,0.100000X-0.100000X0.130000X-0.100000X-0.130000X0.100000X-0.130000X0.100000X0.130000X0*%
%ADD11C,3.000000*%
%ADD12RoundRect,0.100000X0.100000X-0.130000X0.100000X0.130000X-0.100000X0.130000X-0.100000X-0.130000X0*%
%ADD13R,1.600000X1.500000*%
%ADD14C,1.600000*%
%ADD15R,1.700000X1.700000*%
%ADD16O,1.700000X1.700000*%
%ADD17RoundRect,0.250000X-0.350000X-0.625000X0.350000X-0.625000X0.350000X0.625000X-0.350000X0.625000X0*%
%ADD18O,1.200000X1.750000*%
%ADD19RoundRect,0.250000X-0.650000X0.325000X-0.650000X-0.325000X0.650000X-0.325000X0.650000X0.325000X0*%
%ADD20C,1.800000*%
%ADD21R,2.415000X2.415000*%
%ADD22C,3.225000*%
%ADD23C,2.685000*%
%ADD24R,1.600000X1.600000*%
%ADD25C,2.150000*%
%ADD26R,2.000000X2.000000*%
%ADD27RoundRect,0.100000X0.130000X0.100000X-0.130000X0.100000X-0.130000X-0.100000X0.130000X-0.100000X0*%
%ADD28RoundRect,0.100000X-0.130000X-0.100000X0.130000X-0.100000X0.130000X0.100000X-0.130000X0.100000X0*%
%ADD29R,1.000000X0.900000*%
%ADD30R,0.400000X1.200000*%
%ADD31C,6.100000*%
%ADD32R,0.200000X0.700000*%
%ADD33C,2.350000*%
%ADD34R,1.200000X1.200000*%
%ADD35C,1.200000*%
%ADD36R,0.300000X2.600000*%
%ADD37O,1.500000X3.300000*%
%ADD38O,1.500000X2.300000*%
%ADD39R,2.080000X3.810000*%
%ADD40R,11.430000X8.890000*%
%ADD41RoundRect,0.250000X0.625000X-0.350000X0.625000X0.350000X-0.625000X0.350000X-0.625000X-0.350000X0*%
%ADD42O,1.750000X1.200000*%
%ADD43RoundRect,0.150000X0.625000X-0.150000X0.625000X0.150000X-0.625000X0.150000X-0.625000X-0.150000X0*%
%ADD44RoundRect,0.250000X0.650000X-0.350000X0.650000X0.350000X-0.650000X0.350000X-0.650000X-0.350000X0*%
%ADD45R,1.100000X0.300000*%
%ADD46R,0.300000X1.100000*%
%ADD47R,3.800000X3.800000*%
G04 APERTURE END LIST*
D10*
%TO.C,R13*%
X73449995Y19120000D03*
X73449995Y18480000D03*
%TD*%
D11*
%TO.C,TP3*%
X12799995Y53600000D03*
%TD*%
D12*
%TO.C,C3*%
X78549995Y105430000D03*
X78549995Y106070000D03*
%TD*%
D13*
%TO.C,J7*%
X106049995Y9360000D03*
D14*
X108549995Y9360000D03*
X110549995Y9360000D03*
X113049995Y9360000D03*
D11*
X102979995Y6650000D03*
X116119995Y6650000D03*
%TD*%
D15*
%TO.C,J16*%
X40824995Y110700000D03*
D16*
X43364995Y110700000D03*
X45904995Y110700000D03*
%TD*%
D17*
%TO.C,J11*%
X108299995Y65750000D03*
D18*
X110299995Y65750000D03*
%TD*%
D19*
%TO.C,C7*%
X81699995Y118575000D03*
X81699995Y115625000D03*
%TD*%
D20*
%TO.C,J10*%
X65574495Y129156500D03*
X65574495Y122156500D03*
D21*
X63034495Y130256500D03*
D22*
X63254495Y120856500D03*
X66324495Y117956500D03*
D23*
X68114495Y128356500D03*
%TD*%
D24*
%TO.C,J15*%
X54299995Y123295000D03*
D14*
X54299995Y121295000D03*
X54299995Y119295000D03*
X54299995Y117295000D03*
D25*
X57019995Y124025000D03*
X51579995Y124025000D03*
X57019995Y117025000D03*
X51579995Y117025000D03*
%TD*%
D14*
%TO.C,J8*%
X25299995Y130100000D03*
D20*
X25299995Y125600000D03*
D26*
X19799995Y130100000D03*
X19799995Y123900000D03*
X30799995Y130100000D03*
X30799995Y123900000D03*
%TD*%
D27*
%TO.C,R7*%
X81649995Y106945000D03*
X81009995Y106945000D03*
%TD*%
D28*
%TO.C,R12*%
X87634995Y14150000D03*
X88274995Y14150000D03*
%TD*%
D29*
%TO.C,Y1*%
X25949995Y28476000D03*
X24299995Y28476000D03*
X24299995Y27250000D03*
X25949995Y27250000D03*
%TD*%
D10*
%TO.C,R1*%
X35849995Y128120000D03*
X35849995Y127480000D03*
%TD*%
D13*
%TO.C,J5*%
X42049995Y9360000D03*
D14*
X44549995Y9360000D03*
X46549995Y9360000D03*
X49049995Y9360000D03*
D11*
X38979995Y6650000D03*
X52119995Y6650000D03*
%TD*%
D17*
%TO.C,J13*%
X108299995Y89050000D03*
D18*
X110299995Y89050000D03*
%TD*%
D11*
%TO.C,TP4*%
X12799995Y46500000D03*
%TD*%
D28*
%TO.C,R5*%
X76274995Y113600000D03*
X76914995Y113600000D03*
%TD*%
D30*
%TO.C,IC2*%
X77449995Y100600000D03*
X78099995Y100600000D03*
X78749995Y100600000D03*
X78749995Y102500000D03*
X78099995Y102500000D03*
X77449995Y102500000D03*
%TD*%
D28*
%TO.C,R6*%
X76209995Y120400000D03*
X76849995Y120400000D03*
%TD*%
D31*
%TO.C,Module1*%
X64049995Y19000000D03*
X112049995Y19000000D03*
X64049995Y52000000D03*
X112049995Y52000000D03*
D32*
X80749995Y17000000D03*
X80749995Y20080000D03*
X81149995Y17000000D03*
X81149995Y20080000D03*
X81549995Y17000000D03*
X81549995Y20080000D03*
X81949995Y17000000D03*
X81949995Y20080000D03*
X82349995Y17000000D03*
X82349995Y20080000D03*
X82749995Y17000000D03*
X82749995Y20080000D03*
X83149995Y17000000D03*
X83149995Y20080000D03*
X83549995Y17000000D03*
X83549995Y20080000D03*
X83949995Y17000000D03*
X83949995Y20080000D03*
X84349995Y17000000D03*
X84349995Y20080000D03*
X84749995Y17000000D03*
X84749995Y20080000D03*
X85149995Y17000000D03*
X85149995Y20080000D03*
X85549995Y17000000D03*
X85549995Y20080000D03*
X85949995Y17000000D03*
X85949995Y20080000D03*
X86349995Y17000000D03*
X86349995Y20080000D03*
X86749995Y17000000D03*
X86749995Y20080000D03*
X87149995Y17000000D03*
X87149995Y20080000D03*
X87549995Y17000000D03*
X87549995Y20080000D03*
X87949995Y17000000D03*
X87949995Y20080000D03*
X88349995Y17000000D03*
X88349995Y20080000D03*
X88749995Y17000000D03*
X88749995Y20080000D03*
X89149995Y17000000D03*
X89149995Y20080000D03*
X89549995Y17000000D03*
X89549995Y20080000D03*
X89949995Y17000000D03*
X89949995Y20080000D03*
X90349995Y17000000D03*
X90349995Y20080000D03*
X90749995Y17000000D03*
X90749995Y20080000D03*
X91149995Y17000000D03*
X91149995Y20080000D03*
X91549995Y17000000D03*
X91549995Y20080000D03*
X91949995Y17000000D03*
X91949995Y20080000D03*
X92349995Y17000000D03*
X92349995Y20080000D03*
X92749995Y17000000D03*
X92749995Y20080000D03*
X93149995Y17000000D03*
X93149995Y20080000D03*
X93549995Y17000000D03*
X93549995Y20080000D03*
X93949995Y17000000D03*
X93949995Y20080000D03*
X94349995Y17000000D03*
X94349995Y20080000D03*
X94749995Y17000000D03*
X94749995Y20080000D03*
X95149995Y17000000D03*
X95149995Y20080000D03*
X95549995Y17000000D03*
X95549995Y20080000D03*
X95949995Y17000000D03*
X95949995Y20080000D03*
X96349995Y17000000D03*
X96349995Y20080000D03*
X96749995Y17000000D03*
X96749995Y20080000D03*
X97149995Y17000000D03*
X97149995Y20080000D03*
X97549995Y17000000D03*
X97549995Y20080000D03*
X97949995Y17000000D03*
X97949995Y20080000D03*
X98349995Y17000000D03*
X98349995Y20080000D03*
X98749995Y17000000D03*
X98749995Y20080000D03*
X99149995Y17000000D03*
X99149995Y20080000D03*
X99549995Y17000000D03*
X99549995Y20080000D03*
X99949995Y17000000D03*
X99949995Y20080000D03*
X100349995Y17000000D03*
X100349995Y20080000D03*
X80749995Y50920000D03*
X80749995Y54000000D03*
X81149995Y50920000D03*
X81149995Y54000000D03*
X81549995Y50920000D03*
X81549995Y54000000D03*
X81949995Y50920000D03*
X81949995Y54000000D03*
X82349995Y50920000D03*
X82349995Y54000000D03*
X82749995Y50920000D03*
X82749995Y54000000D03*
X83149995Y50920000D03*
X83149995Y54000000D03*
X83549995Y50920000D03*
X83549995Y54000000D03*
X83949995Y50920000D03*
X83949995Y54000000D03*
X84349995Y50920000D03*
X84349995Y54000000D03*
X84749995Y50920000D03*
X84749995Y54000000D03*
X85149995Y50920000D03*
X85149995Y54000000D03*
X85549995Y50920000D03*
X85549995Y54000000D03*
X85949995Y50920000D03*
X85949995Y54000000D03*
X86349995Y50920000D03*
X86349995Y54000000D03*
X86749995Y50920000D03*
X86749995Y54000000D03*
X87149995Y50920000D03*
X87149995Y54000000D03*
X87549995Y50920000D03*
X87549995Y54000000D03*
X87949995Y50920000D03*
X87949995Y54000000D03*
X88349995Y50920000D03*
X88349995Y54000000D03*
X88749995Y50920000D03*
X88749995Y54000000D03*
X89149995Y50920000D03*
X89149995Y54000000D03*
X89549995Y50920000D03*
X89549995Y54000000D03*
X89949995Y50920000D03*
X89949995Y54000000D03*
X90349995Y50920000D03*
X90349995Y54000000D03*
X90749995Y50920000D03*
X90749995Y54000000D03*
X91149995Y50920000D03*
X91149995Y54000000D03*
X91549995Y50920000D03*
X91549995Y54000000D03*
X91949995Y50920000D03*
X91949995Y54000000D03*
X92349995Y50920000D03*
X92349995Y54000000D03*
X92749995Y50920000D03*
X92749995Y54000000D03*
X93149995Y50920000D03*
X93149995Y54000000D03*
X93549995Y50920000D03*
X93549995Y54000000D03*
X93949995Y50920000D03*
X93949995Y54000000D03*
X94349995Y50920000D03*
X94349995Y54000000D03*
X94749995Y50920000D03*
X94749995Y54000000D03*
X95149995Y50920000D03*
X95149995Y54000000D03*
X95549995Y50920000D03*
X95549995Y54000000D03*
X95949995Y50920000D03*
X95949995Y54000000D03*
X96349995Y50920000D03*
X96349995Y54000000D03*
X96749995Y50920000D03*
X96749995Y54000000D03*
X97149995Y50920000D03*
X97149995Y54000000D03*
X97549995Y50920000D03*
X97549995Y54000000D03*
X97949995Y50920000D03*
X97949995Y54000000D03*
X98349995Y50920000D03*
X98349995Y54000000D03*
X98749995Y50920000D03*
X98749995Y54000000D03*
X99149995Y50920000D03*
X99149995Y54000000D03*
X99549995Y50920000D03*
X99549995Y54000000D03*
X99949995Y50920000D03*
X99949995Y54000000D03*
X100349995Y50920000D03*
X100349995Y54000000D03*
%TD*%
D28*
%TO.C,D1*%
X35859995Y129950000D03*
X36499995Y129950000D03*
%TD*%
D27*
%TO.C,C6*%
X81614995Y110100000D03*
X80974995Y110100000D03*
%TD*%
%TO.C,R8*%
X81614995Y113600000D03*
X80974995Y113600000D03*
%TD*%
D28*
%TO.C,R15*%
X89959995Y13550000D03*
X90599995Y13550000D03*
%TD*%
D11*
%TO.C,TP1*%
X35899995Y21200000D03*
%TD*%
D27*
%TO.C,R9*%
X81669995Y120400000D03*
X81029995Y120400000D03*
%TD*%
D28*
%TO.C,R11*%
X89079995Y14800000D03*
X89719995Y14800000D03*
%TD*%
D24*
%TO.C,J2*%
X43349995Y123295000D03*
D14*
X43349995Y121295000D03*
X43349995Y119295000D03*
X43349995Y117295000D03*
D25*
X46069995Y124025000D03*
X40629995Y124025000D03*
X46069995Y117025000D03*
X40629995Y117025000D03*
%TD*%
D27*
%TO.C,R10*%
X16674995Y111750000D03*
X16034995Y111750000D03*
%TD*%
D17*
%TO.C,J12*%
X108399995Y77300000D03*
D18*
X110399995Y77300000D03*
%TD*%
D10*
%TO.C,C1*%
X26449995Y32115000D03*
X26449995Y31475000D03*
%TD*%
D11*
%TO.C,TP5*%
X21749995Y112800000D03*
%TD*%
D13*
%TO.C,J6*%
X74049995Y9360000D03*
D14*
X76549995Y9360000D03*
X78549995Y9360000D03*
X81049995Y9360000D03*
D11*
X70979995Y6650000D03*
X84119995Y6650000D03*
%TD*%
D15*
%TO.C,J17*%
X51759995Y110700000D03*
D16*
X54299995Y110700000D03*
X56839995Y110700000D03*
%TD*%
D28*
%TO.C,C4*%
X76084995Y110100000D03*
X76724995Y110100000D03*
%TD*%
D33*
%TO.C,J9*%
X58599995Y78050003D03*
X49449995Y78050003D03*
D34*
X70249995Y76800003D03*
D35*
X69249995Y74800003D03*
X68249995Y76800003D03*
X67249995Y74800003D03*
X66249995Y76800003D03*
X65249995Y74800003D03*
X64249995Y76800003D03*
X63249995Y74800003D03*
X62249995Y76800003D03*
X61249995Y74800003D03*
X60249995Y76800003D03*
X57249995Y74800003D03*
X56249995Y76800003D03*
X55249995Y74800003D03*
X54249995Y76800003D03*
X53249995Y74800003D03*
X52249995Y76800003D03*
X51249995Y74800003D03*
X70249995Y79300003D03*
X69249995Y81300003D03*
X68249995Y79300003D03*
X67249995Y81300003D03*
X66249995Y79300003D03*
X65249995Y81300003D03*
X64249995Y79300003D03*
X63249995Y81300003D03*
X62249995Y79300003D03*
X61249995Y81300003D03*
X60249995Y79300003D03*
X57249995Y81300003D03*
X56249995Y79300003D03*
X55249995Y81300003D03*
X54249995Y79300003D03*
X53249995Y81300003D03*
X52249995Y79300003D03*
X51249995Y81300003D03*
%TD*%
D36*
%TO.C,J4*%
X91799995Y122280000D03*
X92299995Y122280000D03*
X92799995Y122280000D03*
X93299995Y122280000D03*
X93799995Y122280000D03*
X94299995Y122280000D03*
X94799995Y122280000D03*
X95299995Y122280000D03*
X95799995Y122280000D03*
X96299995Y122280000D03*
X96799995Y122280000D03*
X97299995Y122280000D03*
X97799995Y122280000D03*
X98299995Y122280000D03*
X98799995Y122280000D03*
X99299995Y122280000D03*
X99799995Y122280000D03*
X100299995Y122280000D03*
X100799995Y122280000D03*
D37*
X89049995Y123040000D03*
X103549995Y123040000D03*
D38*
X89049995Y129000000D03*
X103549995Y129000000D03*
%TD*%
D39*
%TO.C,Q1*%
X18129995Y103400000D03*
D40*
X15589995Y91970000D03*
D39*
X13049995Y103400000D03*
%TD*%
D41*
%TO.C,J14*%
X54649995Y39850000D03*
D42*
X54649995Y41850000D03*
X54649995Y43850000D03*
X54649995Y45850000D03*
%TD*%
D11*
%TO.C,TP2*%
X12849995Y60600000D03*
%TD*%
D10*
%TO.C,R14*%
X74249995Y19470000D03*
X74249995Y18830000D03*
%TD*%
D28*
%TO.C,R4*%
X76149995Y106945000D03*
X76789995Y106945000D03*
%TD*%
D13*
%TO.C,J3*%
X10049995Y9360000D03*
D14*
X12549995Y9360000D03*
X14549995Y9360000D03*
X17049995Y9360000D03*
D11*
X6979995Y6650000D03*
X20119995Y6650000D03*
%TD*%
D43*
%TO.C,J1*%
X56074995Y19150000D03*
X56074995Y20150000D03*
X56074995Y21150000D03*
X56074995Y22150000D03*
D44*
X53549995Y17850000D03*
X53549995Y23450000D03*
%TD*%
D27*
%TO.C,R16*%
X78419995Y22500000D03*
X77779995Y22500000D03*
%TD*%
D15*
%TO.C,J18*%
X87299995Y105330000D03*
D16*
X87299995Y102790000D03*
X87299995Y100250000D03*
%TD*%
D12*
%TO.C,R2*%
X32299995Y23025000D03*
X32299995Y23665000D03*
%TD*%
D19*
%TO.C,C5*%
X76049995Y118475000D03*
X76049995Y115525000D03*
%TD*%
D12*
%TO.C,C2*%
X20799995Y27750000D03*
X20799995Y28390000D03*
%TD*%
%TO.C,R3*%
X19799995Y23680000D03*
X19799995Y24320000D03*
%TD*%
D45*
%TO.C,IC1*%
X22949995Y21750000D03*
X22949995Y21250000D03*
X22949995Y20750000D03*
X22949995Y20250000D03*
X22949995Y19750000D03*
X22949995Y19250000D03*
X22949995Y18750000D03*
X22949995Y18250000D03*
X22949995Y17750000D03*
D46*
X23749995Y16950000D03*
X24249995Y16950000D03*
X24749995Y16950000D03*
X25249995Y16950000D03*
X25749995Y16950000D03*
X26249995Y16950000D03*
X26749995Y16950000D03*
X27249995Y16950000D03*
X27749995Y16950000D03*
D45*
X28549995Y17750000D03*
X28549995Y18250000D03*
X28549995Y18750000D03*
X28549995Y19250000D03*
X28549995Y19750000D03*
X28549995Y20250000D03*
X28549995Y20750000D03*
X28549995Y21250000D03*
X28549995Y21750000D03*
D46*
X27749995Y22550000D03*
X27249995Y22550000D03*
X26749995Y22550000D03*
X26249995Y22550000D03*
X25749995Y22550000D03*
X25249995Y22550000D03*
X24749995Y22550000D03*
X24249995Y22550000D03*
X23749995Y22550000D03*
D47*
X25749995Y19750000D03*
%TD*%
M02*
