%TF.GenerationSoftware,KiCad,Pcbnew,8.0.8*%
%TF.CreationDate,2025-11-24T21:21:31+01:00*%
%TF.ProjectId,RetroConsoleMk3.1,52657472-6f43-46f6-9e73-6f6c654d6b33,rev?*%
%TF.SameCoordinates,PX237a085PY9f06730*%
%TF.FileFunction,Paste,Top*%
%TF.FilePolarity,Positive*%
%FSLAX46Y46*%
G04 Gerber Fmt 4.6, Leading zero omitted, Abs format (unit mm)*
G04 Created by KiCad (PCBNEW 8.0.8) date 2025-11-24 21:21:31*
%MOMM*%
%LPD*%
G01*
G04 APERTURE LIST*
G04 Aperture macros list*
%AMRoundRect*
0 Rectangle with rounded corners*
0 $1 Rounding radius*
0 $2 $3 $4 $5 $6 $7 $8 $9 X,Y pos of 4 corners*
0 Add a 4 corners polygon primitive as box body*
4,1,4,$2,$3,$4,$5,$6,$7,$8,$9,$2,$3,0*
0 Add four circle primitives for the rounded corners*
1,1,$1+$1,$2,$3*
1,1,$1+$1,$4,$5*
1,1,$1+$1,$6,$7*
1,1,$1+$1,$8,$9*
0 Add four rect primitives between the rounded corners*
20,1,$1+$1,$2,$3,$4,$5,0*
20,1,$1+$1,$4,$5,$6,$7,0*
20,1,$1+$1,$6,$7,$8,$9,0*
20,1,$1+$1,$8,$9,$2,$3,0*%
G04 Aperture macros list end*
%ADD10RoundRect,0.079500X-0.100500X0.079500X-0.100500X-0.079500X0.100500X-0.079500X0.100500X0.079500X0*%
%ADD11RoundRect,0.079500X0.100500X-0.079500X0.100500X0.079500X-0.100500X0.079500X-0.100500X-0.079500X0*%
%ADD12RoundRect,0.250000X-0.650000X0.325000X-0.650000X-0.325000X0.650000X-0.325000X0.650000X0.325000X0*%
%ADD13R,2.000000X2.000000*%
%ADD14RoundRect,0.079500X0.079500X0.100500X-0.079500X0.100500X-0.079500X-0.100500X0.079500X-0.100500X0*%
%ADD15RoundRect,0.079500X-0.079500X-0.100500X0.079500X-0.100500X0.079500X0.100500X-0.079500X0.100500X0*%
%ADD16R,1.000000X0.900000*%
%ADD17R,0.400000X1.200000*%
%ADD18R,0.200000X0.700000*%
%ADD19R,0.300000X2.600000*%
%ADD20R,2.080000X3.810000*%
%ADD21R,11.430000X8.890000*%
%ADD22RoundRect,0.150000X0.625000X-0.150000X0.625000X0.150000X-0.625000X0.150000X-0.625000X-0.150000X0*%
%ADD23RoundRect,0.250000X0.650000X-0.350000X0.650000X0.350000X-0.650000X0.350000X-0.650000X-0.350000X0*%
%ADD24R,1.100000X0.300000*%
%ADD25R,0.300000X1.100000*%
%ADD26R,3.800000X3.800000*%
G04 APERTURE END LIST*
D10*
%TO.C,R13*%
X73449995Y19145000D03*
X73449995Y18455000D03*
%TD*%
D11*
%TO.C,C3*%
X78549995Y105405000D03*
X78549995Y106095000D03*
%TD*%
D12*
%TO.C,C7*%
X81699995Y118575000D03*
X81699995Y115625000D03*
%TD*%
D13*
%TO.C,J8*%
X19799995Y130100000D03*
X19799995Y123900000D03*
X30799995Y130100000D03*
X30799995Y123900000D03*
%TD*%
D14*
%TO.C,R7*%
X81674995Y106945000D03*
X80984995Y106945000D03*
%TD*%
D15*
%TO.C,R12*%
X87609995Y14150000D03*
X88299995Y14150000D03*
%TD*%
D16*
%TO.C,Y1*%
X25949995Y28476000D03*
X24299995Y28476000D03*
X24299995Y27250000D03*
X25949995Y27250000D03*
%TD*%
D10*
%TO.C,R1*%
X35849995Y128145000D03*
X35849995Y127455000D03*
%TD*%
D15*
%TO.C,R5*%
X76249995Y113600000D03*
X76939995Y113600000D03*
%TD*%
D17*
%TO.C,IC2*%
X77449995Y100600000D03*
X78099995Y100600000D03*
X78749995Y100600000D03*
X78749995Y102500000D03*
X78099995Y102500000D03*
X77449995Y102500000D03*
%TD*%
D15*
%TO.C,R6*%
X76184995Y120400000D03*
X76874995Y120400000D03*
%TD*%
D18*
%TO.C,Module1*%
X80749995Y17000000D03*
X80749995Y20080000D03*
X81149995Y17000000D03*
X81149995Y20080000D03*
X81549995Y17000000D03*
X81549995Y20080000D03*
X81949995Y17000000D03*
X81949995Y20080000D03*
X82349995Y17000000D03*
X82349995Y20080000D03*
X82749995Y17000000D03*
X82749995Y20080000D03*
X83149995Y17000000D03*
X83149995Y20080000D03*
X83549995Y17000000D03*
X83549995Y20080000D03*
X83949995Y17000000D03*
X83949995Y20080000D03*
X84349995Y17000000D03*
X84349995Y20080000D03*
X84749995Y17000000D03*
X84749995Y20080000D03*
X85149995Y17000000D03*
X85149995Y20080000D03*
X85549995Y17000000D03*
X85549995Y20080000D03*
X85949995Y17000000D03*
X85949995Y20080000D03*
X86349995Y17000000D03*
X86349995Y20080000D03*
X86749995Y17000000D03*
X86749995Y20080000D03*
X87149995Y17000000D03*
X87149995Y20080000D03*
X87549995Y17000000D03*
X87549995Y20080000D03*
X87949995Y17000000D03*
X87949995Y20080000D03*
X88349995Y17000000D03*
X88349995Y20080000D03*
X88749995Y17000000D03*
X88749995Y20080000D03*
X89149995Y17000000D03*
X89149995Y20080000D03*
X89549995Y17000000D03*
X89549995Y20080000D03*
X89949995Y17000000D03*
X89949995Y20080000D03*
X90349995Y17000000D03*
X90349995Y20080000D03*
X90749995Y17000000D03*
X90749995Y20080000D03*
X91149995Y17000000D03*
X91149995Y20080000D03*
X91549995Y17000000D03*
X91549995Y20080000D03*
X91949995Y17000000D03*
X91949995Y20080000D03*
X92349995Y17000000D03*
X92349995Y20080000D03*
X92749995Y17000000D03*
X92749995Y20080000D03*
X93149995Y17000000D03*
X93149995Y20080000D03*
X93549995Y17000000D03*
X93549995Y20080000D03*
X93949995Y17000000D03*
X93949995Y20080000D03*
X94349995Y17000000D03*
X94349995Y20080000D03*
X94749995Y17000000D03*
X94749995Y20080000D03*
X95149995Y17000000D03*
X95149995Y20080000D03*
X95549995Y17000000D03*
X95549995Y20080000D03*
X95949995Y17000000D03*
X95949995Y20080000D03*
X96349995Y17000000D03*
X96349995Y20080000D03*
X96749995Y17000000D03*
X96749995Y20080000D03*
X97149995Y17000000D03*
X97149995Y20080000D03*
X97549995Y17000000D03*
X97549995Y20080000D03*
X97949995Y17000000D03*
X97949995Y20080000D03*
X98349995Y17000000D03*
X98349995Y20080000D03*
X98749995Y17000000D03*
X98749995Y20080000D03*
X99149995Y17000000D03*
X99149995Y20080000D03*
X99549995Y17000000D03*
X99549995Y20080000D03*
X99949995Y17000000D03*
X99949995Y20080000D03*
X100349995Y17000000D03*
X100349995Y20080000D03*
X80749995Y50920000D03*
X80749995Y54000000D03*
X81149995Y50920000D03*
X81149995Y54000000D03*
X81549995Y50920000D03*
X81549995Y54000000D03*
X81949995Y50920000D03*
X81949995Y54000000D03*
X82349995Y50920000D03*
X82349995Y54000000D03*
X82749995Y50920000D03*
X82749995Y54000000D03*
X83149995Y50920000D03*
X83149995Y54000000D03*
X83549995Y50920000D03*
X83549995Y54000000D03*
X83949995Y50920000D03*
X83949995Y54000000D03*
X84349995Y50920000D03*
X84349995Y54000000D03*
X84749995Y50920000D03*
X84749995Y54000000D03*
X85149995Y50920000D03*
X85149995Y54000000D03*
X85549995Y50920000D03*
X85549995Y54000000D03*
X85949995Y50920000D03*
X85949995Y54000000D03*
X86349995Y50920000D03*
X86349995Y54000000D03*
X86749995Y50920000D03*
X86749995Y54000000D03*
X87149995Y50920000D03*
X87149995Y54000000D03*
X87549995Y50920000D03*
X87549995Y54000000D03*
X87949995Y50920000D03*
X87949995Y54000000D03*
X88349995Y50920000D03*
X88349995Y54000000D03*
X88749995Y50920000D03*
X88749995Y54000000D03*
X89149995Y50920000D03*
X89149995Y54000000D03*
X89549995Y50920000D03*
X89549995Y54000000D03*
X89949995Y50920000D03*
X89949995Y54000000D03*
X90349995Y50920000D03*
X90349995Y54000000D03*
X90749995Y50920000D03*
X90749995Y54000000D03*
X91149995Y50920000D03*
X91149995Y54000000D03*
X91549995Y50920000D03*
X91549995Y54000000D03*
X91949995Y50920000D03*
X91949995Y54000000D03*
X92349995Y50920000D03*
X92349995Y54000000D03*
X92749995Y50920000D03*
X92749995Y54000000D03*
X93149995Y50920000D03*
X93149995Y54000000D03*
X93549995Y50920000D03*
X93549995Y54000000D03*
X93949995Y50920000D03*
X93949995Y54000000D03*
X94349995Y50920000D03*
X94349995Y54000000D03*
X94749995Y50920000D03*
X94749995Y54000000D03*
X95149995Y50920000D03*
X95149995Y54000000D03*
X95549995Y50920000D03*
X95549995Y54000000D03*
X95949995Y50920000D03*
X95949995Y54000000D03*
X96349995Y50920000D03*
X96349995Y54000000D03*
X96749995Y50920000D03*
X96749995Y54000000D03*
X97149995Y50920000D03*
X97149995Y54000000D03*
X97549995Y50920000D03*
X97549995Y54000000D03*
X97949995Y50920000D03*
X97949995Y54000000D03*
X98349995Y50920000D03*
X98349995Y54000000D03*
X98749995Y50920000D03*
X98749995Y54000000D03*
X99149995Y50920000D03*
X99149995Y54000000D03*
X99549995Y50920000D03*
X99549995Y54000000D03*
X99949995Y50920000D03*
X99949995Y54000000D03*
X100349995Y50920000D03*
X100349995Y54000000D03*
%TD*%
D15*
%TO.C,D1*%
X35834995Y129950000D03*
X36524995Y129950000D03*
%TD*%
D14*
%TO.C,C6*%
X81639995Y110100000D03*
X80949995Y110100000D03*
%TD*%
%TO.C,R8*%
X81639995Y113600000D03*
X80949995Y113600000D03*
%TD*%
D15*
%TO.C,R15*%
X89934995Y13550000D03*
X90624995Y13550000D03*
%TD*%
D14*
%TO.C,R9*%
X81694995Y120400000D03*
X81004995Y120400000D03*
%TD*%
D15*
%TO.C,R11*%
X89054995Y14800000D03*
X89744995Y14800000D03*
%TD*%
D14*
%TO.C,R10*%
X16699995Y111750000D03*
X16009995Y111750000D03*
%TD*%
D10*
%TO.C,C1*%
X26449995Y32140000D03*
X26449995Y31450000D03*
%TD*%
D15*
%TO.C,C4*%
X76059995Y110100000D03*
X76749995Y110100000D03*
%TD*%
D19*
%TO.C,J4*%
X91799995Y122280000D03*
X92299995Y122280000D03*
X92799995Y122280000D03*
X93299995Y122280000D03*
X93799995Y122280000D03*
X94299995Y122280000D03*
X94799995Y122280000D03*
X95299995Y122280000D03*
X95799995Y122280000D03*
X96299995Y122280000D03*
X96799995Y122280000D03*
X97299995Y122280000D03*
X97799995Y122280000D03*
X98299995Y122280000D03*
X98799995Y122280000D03*
X99299995Y122280000D03*
X99799995Y122280000D03*
X100299995Y122280000D03*
X100799995Y122280000D03*
%TD*%
D20*
%TO.C,Q1*%
X18129995Y103400000D03*
D21*
X15589995Y91970000D03*
D20*
X13049995Y103400000D03*
%TD*%
D10*
%TO.C,R14*%
X74249995Y19495000D03*
X74249995Y18805000D03*
%TD*%
D15*
%TO.C,R4*%
X76124995Y106945000D03*
X76814995Y106945000D03*
%TD*%
D22*
%TO.C,J1*%
X56074995Y19150000D03*
X56074995Y20150000D03*
X56074995Y21150000D03*
X56074995Y22150000D03*
D23*
X53549995Y17850000D03*
X53549995Y23450000D03*
%TD*%
D14*
%TO.C,R16*%
X78444995Y22500000D03*
X77754995Y22500000D03*
%TD*%
D11*
%TO.C,R2*%
X32299995Y23000000D03*
X32299995Y23690000D03*
%TD*%
D12*
%TO.C,C5*%
X76049995Y118475000D03*
X76049995Y115525000D03*
%TD*%
D11*
%TO.C,C2*%
X20799995Y27725000D03*
X20799995Y28415000D03*
%TD*%
%TO.C,R3*%
X19799995Y23655000D03*
X19799995Y24345000D03*
%TD*%
D24*
%TO.C,IC1*%
X22949995Y21750000D03*
X22949995Y21250000D03*
X22949995Y20750000D03*
X22949995Y20250000D03*
X22949995Y19750000D03*
X22949995Y19250000D03*
X22949995Y18750000D03*
X22949995Y18250000D03*
X22949995Y17750000D03*
D25*
X23749995Y16950000D03*
X24249995Y16950000D03*
X24749995Y16950000D03*
X25249995Y16950000D03*
X25749995Y16950000D03*
X26249995Y16950000D03*
X26749995Y16950000D03*
X27249995Y16950000D03*
X27749995Y16950000D03*
D24*
X28549995Y17750000D03*
X28549995Y18250000D03*
X28549995Y18750000D03*
X28549995Y19250000D03*
X28549995Y19750000D03*
X28549995Y20250000D03*
X28549995Y20750000D03*
X28549995Y21250000D03*
X28549995Y21750000D03*
D25*
X27749995Y22550000D03*
X27249995Y22550000D03*
X26749995Y22550000D03*
X26249995Y22550000D03*
X25749995Y22550000D03*
X25249995Y22550000D03*
X24749995Y22550000D03*
X24249995Y22550000D03*
X23749995Y22550000D03*
D26*
X25749995Y19750000D03*
%TD*%
M02*
