%TF.GenerationSoftware,KiCad,Pcbnew,8.0.8*%
%TF.CreationDate,2025-11-24T21:21:31+01:00*%
%TF.ProjectId,RetroConsoleMk3.1,52657472-6f43-46f6-9e73-6f6c654d6b33,rev?*%
%TF.SameCoordinates,PX237a085PY9f06730*%
%TF.FileFunction,Soldermask,Bot*%
%TF.FilePolarity,Negative*%
%FSLAX46Y46*%
G04 Gerber Fmt 4.6, Leading zero omitted, Abs format (unit mm)*
G04 Created by KiCad (PCBNEW 8.0.8) date 2025-11-24 21:21:31*
%MOMM*%
%LPD*%
G01*
G04 APERTURE LIST*
G04 Aperture macros list*
%AMRoundRect*
0 Rectangle with rounded corners*
0 $1 Rounding radius*
0 $2 $3 $4 $5 $6 $7 $8 $9 X,Y pos of 4 corners*
0 Add a 4 corners polygon primitive as box body*
4,1,4,$2,$3,$4,$5,$6,$7,$8,$9,$2,$3,0*
0 Add four circle primitives for the rounded corners*
1,1,$1+$1,$2,$3*
1,1,$1+$1,$4,$5*
1,1,$1+$1,$6,$7*
1,1,$1+$1,$8,$9*
0 Add four rect primitives between the rounded corners*
20,1,$1+$1,$2,$3,$4,$5,0*
20,1,$1+$1,$4,$5,$6,$7,0*
20,1,$1+$1,$6,$7,$8,$9,0*
20,1,$1+$1,$8,$9,$2,$3,0*%
G04 Aperture macros list end*
%ADD10R,1.600000X1.500000*%
%ADD11C,1.600000*%
%ADD12C,3.000000*%
%ADD13R,1.700000X1.700000*%
%ADD14O,1.700000X1.700000*%
%ADD15RoundRect,0.250000X-0.350000X-0.625000X0.350000X-0.625000X0.350000X0.625000X-0.350000X0.625000X0*%
%ADD16O,1.200000X1.750000*%
%ADD17C,1.800000*%
%ADD18R,2.415000X2.415000*%
%ADD19C,3.225000*%
%ADD20C,2.685000*%
%ADD21R,1.600000X1.600000*%
%ADD22C,2.150000*%
%ADD23C,6.100000*%
%ADD24C,2.350000*%
%ADD25R,1.200000X1.200000*%
%ADD26C,1.200000*%
%ADD27O,1.500000X3.300000*%
%ADD28O,1.500000X2.300000*%
%ADD29RoundRect,0.250000X0.625000X-0.350000X0.625000X0.350000X-0.625000X0.350000X-0.625000X-0.350000X0*%
%ADD30O,1.750000X1.200000*%
G04 APERTURE END LIST*
D10*
%TO.C,J7*%
X106049995Y9360000D03*
D11*
X108549995Y9360000D03*
X110549995Y9360000D03*
X113049995Y9360000D03*
D12*
X102979995Y6650000D03*
X116119995Y6650000D03*
%TD*%
D13*
%TO.C,J16*%
X40824995Y110700000D03*
D14*
X43364995Y110700000D03*
X45904995Y110700000D03*
%TD*%
D15*
%TO.C,J11*%
X108299995Y65750000D03*
D16*
X110299995Y65750000D03*
%TD*%
D17*
%TO.C,J10*%
X65574495Y129156500D03*
X65574495Y122156500D03*
D18*
X63034495Y130256500D03*
D19*
X63254495Y120856500D03*
X66324495Y117956500D03*
D20*
X68114495Y128356500D03*
%TD*%
D21*
%TO.C,J15*%
X54299995Y123295000D03*
D11*
X54299995Y121295000D03*
X54299995Y119295000D03*
X54299995Y117295000D03*
D22*
X57019995Y124025000D03*
X51579995Y124025000D03*
X57019995Y117025000D03*
X51579995Y117025000D03*
%TD*%
D11*
%TO.C,J8*%
X25299995Y130100000D03*
D17*
X25299995Y125600000D03*
%TD*%
D10*
%TO.C,J5*%
X42049995Y9360000D03*
D11*
X44549995Y9360000D03*
X46549995Y9360000D03*
X49049995Y9360000D03*
D12*
X38979995Y6650000D03*
X52119995Y6650000D03*
%TD*%
D15*
%TO.C,J13*%
X108299995Y89050000D03*
D16*
X110299995Y89050000D03*
%TD*%
D23*
%TO.C,Module1*%
X64049995Y19000000D03*
X112049995Y19000000D03*
X64049995Y52000000D03*
X112049995Y52000000D03*
%TD*%
D21*
%TO.C,J2*%
X43349995Y123295000D03*
D11*
X43349995Y121295000D03*
X43349995Y119295000D03*
X43349995Y117295000D03*
D22*
X46069995Y124025000D03*
X40629995Y124025000D03*
X46069995Y117025000D03*
X40629995Y117025000D03*
%TD*%
D15*
%TO.C,J12*%
X108399995Y77300000D03*
D16*
X110399995Y77300000D03*
%TD*%
D10*
%TO.C,J6*%
X74049995Y9360000D03*
D11*
X76549995Y9360000D03*
X78549995Y9360000D03*
X81049995Y9360000D03*
D12*
X70979995Y6650000D03*
X84119995Y6650000D03*
%TD*%
D13*
%TO.C,J17*%
X51759995Y110700000D03*
D14*
X54299995Y110700000D03*
X56839995Y110700000D03*
%TD*%
D24*
%TO.C,J9*%
X58599995Y78050003D03*
X49449995Y78050003D03*
D25*
X70249995Y76800003D03*
D26*
X69249995Y74800003D03*
X68249995Y76800003D03*
X67249995Y74800003D03*
X66249995Y76800003D03*
X65249995Y74800003D03*
X64249995Y76800003D03*
X63249995Y74800003D03*
X62249995Y76800003D03*
X61249995Y74800003D03*
X60249995Y76800003D03*
X57249995Y74800003D03*
X56249995Y76800003D03*
X55249995Y74800003D03*
X54249995Y76800003D03*
X53249995Y74800003D03*
X52249995Y76800003D03*
X51249995Y74800003D03*
X70249995Y79300003D03*
X69249995Y81300003D03*
X68249995Y79300003D03*
X67249995Y81300003D03*
X66249995Y79300003D03*
X65249995Y81300003D03*
X64249995Y79300003D03*
X63249995Y81300003D03*
X62249995Y79300003D03*
X61249995Y81300003D03*
X60249995Y79300003D03*
X57249995Y81300003D03*
X56249995Y79300003D03*
X55249995Y81300003D03*
X54249995Y79300003D03*
X53249995Y81300003D03*
X52249995Y79300003D03*
X51249995Y81300003D03*
%TD*%
D27*
%TO.C,J4*%
X89049995Y123040000D03*
X103549995Y123040000D03*
D28*
X89049995Y129000000D03*
X103549995Y129000000D03*
%TD*%
D29*
%TO.C,J14*%
X54649995Y39850000D03*
D30*
X54649995Y41850000D03*
X54649995Y43850000D03*
X54649995Y45850000D03*
%TD*%
D10*
%TO.C,J3*%
X10049995Y9360000D03*
D11*
X12549995Y9360000D03*
X14549995Y9360000D03*
X17049995Y9360000D03*
D12*
X6979995Y6650000D03*
X20119995Y6650000D03*
%TD*%
D13*
%TO.C,J18*%
X87299995Y105330000D03*
D14*
X87299995Y102790000D03*
X87299995Y100250000D03*
%TD*%
M02*
