M48
; DRILL file {KiCad 8.0.8} date 2025-11-24T21:21:38+0100
; FORMAT={-:-/ absolute / inch / decimal}
; #@! TF.CreationDate,2025-11-24T21:21:38+01:00
; #@! TF.GenerationSoftware,Kicad,Pcbnew,8.0.8
; #@! TF.FileFunction,Plated,1,2,PTH
FMAT,2
INCH
; #@! TA.AperFunction,Plated,PTH,ViaDrill
T1C0.0079
; #@! TA.AperFunction,Plated,PTH,ViaDrill
T2C0.0118
; #@! TA.AperFunction,Plated,PTH,ViaDrill
T3C0.0157
; #@! TA.AperFunction,Plated,PTH,ComponentDrill
T4C0.0276
; #@! TA.AperFunction,Plated,PTH,ComponentDrill
T5C0.0295
; #@! TA.AperFunction,Plated,PTH,ComponentDrill
T6C0.0354
; #@! TA.AperFunction,Plated,PTH,ComponentDrill
T7C0.0362
; #@! TA.AperFunction,Plated,PTH,ComponentDrill
T8C0.0374
; #@! TA.AperFunction,Plated,PTH,ComponentDrill
T9C0.0394
; #@! TA.AperFunction,Plated,PTH,ComponentDrill
T10C0.0591
; #@! TA.AperFunction,Plated,PTH,ComponentDrill
T11C0.0634
; #@! TA.AperFunction,Plated,PTH,ComponentDrill
T12C0.0705
; #@! TA.AperFunction,Plated,PTH,ComponentDrill
T13C0.0846
; #@! TA.AperFunction,Plated,PTH,ComponentDrill
T14C0.0906
%
G90
G05
T1
X0.5039Y1.8307
X0.7795Y0.9575
X0.8189Y1.1181
X0.9567Y1.1201
X1.0138Y0.7776
X1.0217Y1.0709
X1.0413Y1.2644
X1.2717Y0.9331
X3.0748Y3.9606
X3.1909Y0.6299
X3.2736Y0.6299
X3.3524Y0.6299
X3.4567Y0.6299
X3.4941Y0.6299
X3.6673Y0.6299
X3.6791Y2.1693
X3.7402Y2.1693
X3.7933Y2.1693
X3.8465Y2.1693
X3.9114Y2.1693
X3.9488Y4.8142
T2
X0.4469Y3.5512
X0.4508Y3.7362
X0.4508Y3.6575
X0.7776Y3.7402
X0.7776Y3.6457
X0.7815Y3.5276
X0.8228Y0.878
X0.8307Y0.7736
X0.935Y0.6122
X1.0079Y4.6181
X1.124Y2.7992
X1.1417Y1.4449
X1.1428Y1.374
X1.1929Y0.7776
X1.1929Y0.7028
X1.1949Y0.8661
X1.2126Y4.876
X1.252Y2.7165
X1.2854Y2.6831
X1.3366Y2.7618
X1.6437Y1.9567
X1.6437Y1.8465
X1.685Y1.9587
X1.685Y1.8465
X1.8287Y1.944
X1.8287Y1.8445
X2.2077Y0.8327
X2.7835Y1.9311
X2.7854Y1.8917
X2.815Y0.8651
X2.815Y0.5335
X2.8445Y0.5571
X2.8504Y0.8651
X2.8917Y0.8651
X2.8917Y0.7539
X2.9213Y0.7677
X2.9252Y0.8642
X2.939Y3.2224
X2.998Y0.8651
X2.998Y0.5827
X3.0207Y4.3346
X3.0256Y4.7402
X3.0281Y4.4724
X3.0925Y4.176
X3.0965Y1.9311
X3.0965Y1.8917
X3.126Y0.8858
X3.1417Y3.4843
X3.1791Y0.8346
X3.188Y4.4724
X3.188Y4.3346
X3.1902Y4.7402
X3.2264Y2.1693
X3.248Y1.9331
X3.2736Y0.8307
X3.3366Y0.8307
X3.378Y0.8563
X3.4154Y0.6319
X3.4272Y0.8465
X3.4941Y0.8307
X3.6535Y0.8366
X3.6673Y5.0394
X3.7461Y5.0394
X3.7461Y0.8307
X3.8484Y5.0394
X3.8957Y4.6063
X3.9193Y4.6555
X3.9193Y2.2146
X3.935Y0.8307
X3.9587Y1.9587
X3.9744Y4.6555
X3.9744Y4.6063
T3
X4.0295Y1.189
X4.0453Y1.2047
X4.0807Y1.2087
T4
X2.0177Y3.2008
X2.0177Y2.9449
X2.0571Y3.122
X2.0571Y3.0236
X2.0965Y3.2008
X2.0965Y2.9449
X2.1358Y3.122
X2.1358Y3.0236
X2.1752Y3.2008
X2.1752Y2.9449
X2.2146Y3.122
X2.2146Y3.0236
X2.2539Y3.2008
X2.2539Y2.9449
X2.372Y3.122
X2.372Y3.0236
X2.4114Y3.2008
X2.4114Y2.9449
X2.4508Y3.122
X2.4508Y3.0236
X2.4902Y3.2008
X2.4902Y2.9449
X2.5295Y3.122
X2.5295Y3.0236
X2.5689Y3.2008
X2.5689Y2.9449
X2.6083Y3.122
X2.6083Y3.0236
X2.6476Y3.2008
X2.6476Y2.9449
X2.687Y3.122
X2.687Y3.0236
X2.7264Y3.2008
X2.7264Y2.9449
X2.7657Y3.122
X2.7657Y3.0236
T5
X2.1516Y1.8051
X2.1516Y1.7264
X2.1516Y1.6476
X2.1516Y1.5689
X4.2638Y3.5059
X4.2638Y2.5886
X4.2677Y3.0433
X4.3425Y3.5059
X4.3425Y2.5886
X4.3465Y3.0433
T7
X1.7067Y4.8541
X1.7067Y4.7754
X1.7067Y4.6967
X1.7067Y4.6179
X2.1378Y4.8541
X2.1378Y4.7754
X2.1378Y4.6967
X2.1378Y4.6179
T8
X0.3957Y0.3685
X0.4941Y0.3685
X0.5728Y0.3685
X0.6713Y0.3685
X1.6555Y0.3685
X1.7539Y0.3685
X1.8327Y0.3685
X1.9311Y0.3685
X2.9154Y0.3685
X3.0138Y0.3685
X3.0925Y0.3685
X3.1909Y0.3685
X4.1752Y0.3685
X4.2736Y0.3685
X4.3524Y0.3685
X4.4508Y0.3685
T9
X1.6073Y4.3583
X1.7073Y4.3583
X1.8073Y4.3583
X2.0378Y4.3583
X2.1378Y4.3583
X2.2378Y4.3583
X3.437Y4.1469
X3.437Y4.0469
X3.437Y3.9469
T10
X1.5996Y4.8829
X1.5996Y4.6073
X1.8138Y4.8829
X1.8138Y4.6073
X2.0307Y4.8829
X2.0307Y4.6073
X2.2449Y4.8829
X2.2449Y4.6073
T11
X2.4817Y5.1282
T12
X2.6817Y5.0534
T13
X2.4903Y4.7581
X2.6112Y4.644
T14
X0.2748Y0.2618
X0.7921Y0.2618
X1.5346Y0.2618
X2.052Y0.2618
X2.7945Y0.2618
X3.3118Y0.2618
X4.0543Y0.2618
X4.5717Y0.2618
T6
G00X3.5059Y5.063
M15
G01X3.5059Y5.0945
M16
G05
G00X3.5059Y4.8087
M15
G01X3.5059Y4.8795
M16
G05
G00X4.0768Y5.063
M15
G01X4.0768Y5.0945
M16
G05
G00X4.0768Y4.8087
M15
G01X4.0768Y4.8795
M16
G05
M30
