%TF.GenerationSoftware,KiCad,Pcbnew,8.0.8*%
%TF.CreationDate,2025-11-24T21:21:31+01:00*%
%TF.ProjectId,RetroConsoleMk3.1,52657472-6f43-46f6-9e73-6f6c654d6b33,rev?*%
%TF.SameCoordinates,PX237a085PY9f06730*%
%TF.FileFunction,Copper,L1,Top*%
%TF.FilePolarity,Positive*%
%FSLAX46Y46*%
G04 Gerber Fmt 4.6, Leading zero omitted, Abs format (unit mm)*
G04 Created by KiCad (PCBNEW 8.0.8) date 2025-11-24 21:21:31*
%MOMM*%
%LPD*%
G01*
G04 APERTURE LIST*
G04 Aperture macros list*
%AMRoundRect*
0 Rectangle with rounded corners*
0 $1 Rounding radius*
0 $2 $3 $4 $5 $6 $7 $8 $9 X,Y pos of 4 corners*
0 Add a 4 corners polygon primitive as box body*
4,1,4,$2,$3,$4,$5,$6,$7,$8,$9,$2,$3,0*
0 Add four circle primitives for the rounded corners*
1,1,$1+$1,$2,$3*
1,1,$1+$1,$4,$5*
1,1,$1+$1,$6,$7*
1,1,$1+$1,$8,$9*
0 Add four rect primitives between the rounded corners*
20,1,$1+$1,$2,$3,$4,$5,0*
20,1,$1+$1,$4,$5,$6,$7,0*
20,1,$1+$1,$6,$7,$8,$9,0*
20,1,$1+$1,$8,$9,$2,$3,0*%
G04 Aperture macros list end*
%TA.AperFunction,SMDPad,CuDef*%
%ADD10RoundRect,0.100000X-0.100000X0.130000X-0.100000X-0.130000X0.100000X-0.130000X0.100000X0.130000X0*%
%TD*%
%TA.AperFunction,SMDPad,CuDef*%
%ADD11C,3.000000*%
%TD*%
%TA.AperFunction,SMDPad,CuDef*%
%ADD12RoundRect,0.100000X0.100000X-0.130000X0.100000X0.130000X-0.100000X0.130000X-0.100000X-0.130000X0*%
%TD*%
%TA.AperFunction,ComponentPad*%
%ADD13R,1.600000X1.500000*%
%TD*%
%TA.AperFunction,ComponentPad*%
%ADD14C,1.600000*%
%TD*%
%TA.AperFunction,ComponentPad*%
%ADD15C,3.000000*%
%TD*%
%TA.AperFunction,ComponentPad*%
%ADD16R,1.700000X1.700000*%
%TD*%
%TA.AperFunction,ComponentPad*%
%ADD17O,1.700000X1.700000*%
%TD*%
%TA.AperFunction,ComponentPad*%
%ADD18RoundRect,0.250000X-0.350000X-0.625000X0.350000X-0.625000X0.350000X0.625000X-0.350000X0.625000X0*%
%TD*%
%TA.AperFunction,ComponentPad*%
%ADD19O,1.200000X1.750000*%
%TD*%
%TA.AperFunction,SMDPad,CuDef*%
%ADD20RoundRect,0.250000X-0.650000X0.325000X-0.650000X-0.325000X0.650000X-0.325000X0.650000X0.325000X0*%
%TD*%
%TA.AperFunction,ComponentPad*%
%ADD21R,2.415000X2.415000*%
%TD*%
%TA.AperFunction,ComponentPad*%
%ADD22C,3.225000*%
%TD*%
%TA.AperFunction,ComponentPad*%
%ADD23C,2.685000*%
%TD*%
%TA.AperFunction,ComponentPad*%
%ADD24R,1.600000X1.600000*%
%TD*%
%TA.AperFunction,ComponentPad*%
%ADD25C,2.150000*%
%TD*%
%TA.AperFunction,SMDPad,CuDef*%
%ADD26R,2.000000X2.000000*%
%TD*%
%TA.AperFunction,SMDPad,CuDef*%
%ADD27RoundRect,0.100000X0.130000X0.100000X-0.130000X0.100000X-0.130000X-0.100000X0.130000X-0.100000X0*%
%TD*%
%TA.AperFunction,SMDPad,CuDef*%
%ADD28RoundRect,0.100000X-0.130000X-0.100000X0.130000X-0.100000X0.130000X0.100000X-0.130000X0.100000X0*%
%TD*%
%TA.AperFunction,SMDPad,CuDef*%
%ADD29R,1.000000X0.900000*%
%TD*%
%TA.AperFunction,SMDPad,CuDef*%
%ADD30R,0.400000X1.200000*%
%TD*%
%TA.AperFunction,SMDPad,CuDef*%
%ADD31R,0.200000X0.700000*%
%TD*%
%TA.AperFunction,ComponentPad*%
%ADD32R,1.200000X1.200000*%
%TD*%
%TA.AperFunction,ComponentPad*%
%ADD33C,1.200000*%
%TD*%
%TA.AperFunction,SMDPad,CuDef*%
%ADD34R,0.300000X2.600000*%
%TD*%
%TA.AperFunction,ComponentPad*%
%ADD35O,1.500000X3.300000*%
%TD*%
%TA.AperFunction,ComponentPad*%
%ADD36O,1.500000X2.300000*%
%TD*%
%TA.AperFunction,SMDPad,CuDef*%
%ADD37R,2.080000X3.810000*%
%TD*%
%TA.AperFunction,SMDPad,CuDef*%
%ADD38R,11.430000X8.890000*%
%TD*%
%TA.AperFunction,ComponentPad*%
%ADD39RoundRect,0.250000X0.625000X-0.350000X0.625000X0.350000X-0.625000X0.350000X-0.625000X-0.350000X0*%
%TD*%
%TA.AperFunction,ComponentPad*%
%ADD40O,1.750000X1.200000*%
%TD*%
%TA.AperFunction,SMDPad,CuDef*%
%ADD41RoundRect,0.150000X0.625000X-0.150000X0.625000X0.150000X-0.625000X0.150000X-0.625000X-0.150000X0*%
%TD*%
%TA.AperFunction,SMDPad,CuDef*%
%ADD42RoundRect,0.250000X0.650000X-0.350000X0.650000X0.350000X-0.650000X0.350000X-0.650000X-0.350000X0*%
%TD*%
%TA.AperFunction,SMDPad,CuDef*%
%ADD43R,1.100000X0.300000*%
%TD*%
%TA.AperFunction,SMDPad,CuDef*%
%ADD44R,0.300000X1.100000*%
%TD*%
%TA.AperFunction,SMDPad,CuDef*%
%ADD45R,3.800000X3.800000*%
%TD*%
%TA.AperFunction,ViaPad*%
%ADD46C,0.600000*%
%TD*%
%TA.AperFunction,ViaPad*%
%ADD47C,0.500000*%
%TD*%
%TA.AperFunction,ViaPad*%
%ADD48C,0.400000*%
%TD*%
%TA.AperFunction,Conductor*%
%ADD49C,0.200000*%
%TD*%
%TA.AperFunction,Conductor*%
%ADD50C,0.500000*%
%TD*%
G04 APERTURE END LIST*
D10*
%TO.P,R13,1*%
%TO.N,SD_DAT0*%
X73449995Y19120000D03*
%TO.P,R13,2*%
%TO.N,Net-(Module1A-SD_DAT0)*%
X73449995Y18480000D03*
%TD*%
D11*
%TO.P,TP3,1,1*%
%TO.N,3V3*%
X12799995Y53600000D03*
%TD*%
D12*
%TO.P,C3,1*%
%TO.N,3V3*%
X78549995Y105430000D03*
%TO.P,C3,2*%
%TO.N,GND*%
X78549995Y106070000D03*
%TD*%
D13*
%TO.P,J7,1,VBUS*%
%TO.N,VCC*%
X106049995Y9360000D03*
D14*
%TO.P,J7,2,D-*%
%TO.N,Net-(IC1-USBDM_DN4{slash}PRT_DIS_M4)*%
X108549995Y9360000D03*
%TO.P,J7,3,D+*%
%TO.N,Net-(IC1-USBDP_DN4{slash}PRT_DIS_P4)*%
X110549995Y9360000D03*
%TO.P,J7,4,GND*%
%TO.N,GND*%
X113049995Y9360000D03*
D15*
%TO.P,J7,5,Shield*%
X102979995Y6650000D03*
X116119995Y6650000D03*
%TD*%
D16*
%TO.P,J16,1,Pin_1*%
%TO.N,GND*%
X40824995Y110700000D03*
D17*
%TO.P,J16,2,Pin_2*%
%TO.N,Net-(J16-Pin_2)*%
X43364995Y110700000D03*
%TO.P,J16,3,Pin_3*%
%TO.N,GND_SUPPLY*%
X45904995Y110700000D03*
%TD*%
D18*
%TO.P,J11,1,Pin_1*%
%TO.N,GPIO4*%
X108299995Y65750000D03*
D19*
%TO.P,J11,2,Pin_2*%
%TO.N,GND*%
X110299995Y65750000D03*
%TD*%
D20*
%TO.P,C7,1*%
%TO.N,AUDIO_OUT_R*%
X81699995Y118575000D03*
%TO.P,C7,2*%
%TO.N,Net-(C6-Pad1)*%
X81699995Y115625000D03*
%TD*%
D21*
%TO.P,J10,1,SLEEVE*%
%TO.N,GND*%
X63034495Y130256500D03*
D22*
%TO.P,J10,2,TIP*%
%TO.N,AUDIO_OUT_L*%
X63254495Y120856500D03*
%TO.P,J10,3,TIP_SWITCH_*%
%TO.N,unconnected-(J10-TIP_SWITCH_-Pad3)*%
X66324495Y117956500D03*
D23*
%TO.P,J10,5,RING*%
%TO.N,AUDIO_OUT_R*%
X68114495Y128356500D03*
%TD*%
D24*
%TO.P,J15,1,VBUS*%
%TO.N,VCC*%
X54299995Y123295000D03*
D14*
%TO.P,J15,2,D-*%
%TO.N,unconnected-(J15-D--Pad2)*%
X54299995Y121295000D03*
%TO.P,J15,3,D+*%
%TO.N,unconnected-(J15-D+-Pad3)*%
X54299995Y119295000D03*
%TO.P,J15,4,GND*%
%TO.N,Net-(J15-GND)*%
X54299995Y117295000D03*
D25*
%TO.P,J15,5,Shield*%
X57019995Y124025000D03*
X51579995Y124025000D03*
X57019995Y117025000D03*
X51579995Y117025000D03*
%TD*%
D26*
%TO.P,J8,2,2*%
%TO.N,GND_SUPPLY*%
X19799995Y130100000D03*
%TO.P,J8,3,3*%
X19799995Y123900000D03*
%TO.P,J8,A1,A1*%
%TO.N,VCC*%
X30799995Y130100000D03*
%TO.P,J8,B1,B1*%
X30799995Y123900000D03*
%TD*%
D27*
%TO.P,R7,1*%
%TO.N,Net-(C6-Pad1)*%
X81649995Y106945000D03*
%TO.P,R7,2*%
%TO.N,Net-(IC2-Y2)*%
X81009995Y106945000D03*
%TD*%
D28*
%TO.P,R12,1*%
%TO.N,SD_DAT3*%
X87634995Y14150000D03*
%TO.P,R12,2*%
%TO.N,Net-(Module1A-SD_DAT3)*%
X88274995Y14150000D03*
%TD*%
D29*
%TO.P,Y1,1,CRYSTAL_1*%
%TO.N,USB_XTAL_OUT*%
X25949995Y28476000D03*
%TO.P,Y1,2,GND_1*%
%TO.N,GND*%
X24299995Y28476000D03*
%TO.P,Y1,3,CRYSTAL_2*%
%TO.N,USB_XTAL_IN*%
X24299995Y27250000D03*
%TO.P,Y1,4,GND_2*%
%TO.N,GND*%
X25949995Y27250000D03*
%TD*%
D10*
%TO.P,R1,1*%
%TO.N,Net-(D1-K)*%
X35849995Y128120000D03*
%TO.P,R1,2*%
%TO.N,LED_ACTIVITY*%
X35849995Y127480000D03*
%TD*%
D13*
%TO.P,J5,1,VBUS*%
%TO.N,VCC*%
X42049995Y9360000D03*
D14*
%TO.P,J5,2,D-*%
%TO.N,Net-(IC1-USBDM_DN2{slash}PRT_DIS_M2)*%
X44549995Y9360000D03*
%TO.P,J5,3,D+*%
%TO.N,Net-(IC1-USBDP_DN2{slash}PRT_DIS_P2)*%
X46549995Y9360000D03*
%TO.P,J5,4,GND*%
%TO.N,GND*%
X49049995Y9360000D03*
D15*
%TO.P,J5,5,Shield*%
X38979995Y6650000D03*
X52119995Y6650000D03*
%TD*%
D18*
%TO.P,J13,1,Pin_1*%
%TO.N,GPIO6*%
X108299995Y89050000D03*
D19*
%TO.P,J13,2,Pin_2*%
%TO.N,GND*%
X110299995Y89050000D03*
%TD*%
D11*
%TO.P,TP4,1,1*%
%TO.N,GND*%
X12799995Y46500000D03*
%TD*%
D28*
%TO.P,R5,1*%
%TO.N,Net-(C4-Pad1)*%
X76274995Y113600000D03*
%TO.P,R5,2*%
%TO.N,GND*%
X76914995Y113600000D03*
%TD*%
D30*
%TO.P,IC2,1,A1*%
%TO.N,AUDIO_L*%
X77449995Y100600000D03*
%TO.P,IC2,2,GND*%
%TO.N,GND*%
X78099995Y100600000D03*
%TO.P,IC2,3,A2*%
%TO.N,AUDIO_R*%
X78749995Y100600000D03*
%TO.P,IC2,4,Y2*%
%TO.N,Net-(IC2-Y2)*%
X78749995Y102500000D03*
%TO.P,IC2,5,VCC*%
%TO.N,3V3*%
X78099995Y102500000D03*
%TO.P,IC2,6,Y1*%
%TO.N,Net-(IC2-Y1)*%
X77449995Y102500000D03*
%TD*%
D28*
%TO.P,R6,1*%
%TO.N,AUDIO_OUT_L*%
X76209995Y120400000D03*
%TO.P,R6,2*%
%TO.N,GND*%
X76849995Y120400000D03*
%TD*%
D31*
%TO.P,Module1,1,GND*%
%TO.N,GND*%
X80749995Y17000000D03*
%TO.P,Module1,2,GND*%
X80749995Y20080000D03*
%TO.P,Module1,3,Ethernet_Pair3_P*%
%TO.N,unconnected-(Module1A-Ethernet_Pair3_P-Pad3)*%
X81149995Y17000000D03*
%TO.P,Module1,4,Ethernet_Pair1_P*%
%TO.N,unconnected-(Module1A-Ethernet_Pair1_P-Pad4)*%
X81149995Y20080000D03*
%TO.P,Module1,5,Ethernet_Pair3_N*%
%TO.N,unconnected-(Module1A-Ethernet_Pair3_N-Pad5)*%
X81549995Y17000000D03*
%TO.P,Module1,6,Ethernet_Pair1_N*%
%TO.N,unconnected-(Module1A-Ethernet_Pair1_N-Pad6)*%
X81549995Y20080000D03*
%TO.P,Module1,7,GND*%
%TO.N,GND*%
X81949995Y17000000D03*
%TO.P,Module1,8,GND*%
X81949995Y20080000D03*
%TO.P,Module1,9,Ethernet_Pair2_N*%
%TO.N,unconnected-(Module1A-Ethernet_Pair2_N-Pad9)*%
X82349995Y17000000D03*
%TO.P,Module1,10,Ethernet_Pair0_N*%
%TO.N,unconnected-(Module1A-Ethernet_Pair0_N-Pad10)*%
X82349995Y20080000D03*
%TO.P,Module1,11,Ethernet_Pair2_P*%
%TO.N,unconnected-(Module1A-Ethernet_Pair2_P-Pad11)*%
X82749995Y17000000D03*
%TO.P,Module1,12,Ethernet_Pair0_P*%
%TO.N,unconnected-(Module1A-Ethernet_Pair0_P-Pad12)*%
X82749995Y20080000D03*
%TO.P,Module1,13,GND*%
%TO.N,GND*%
X83149995Y17000000D03*
%TO.P,Module1,14,GND*%
X83149995Y20080000D03*
%TO.P,Module1,15,Ethernet_nLED3(3.3v)*%
%TO.N,unconnected-(Module1A-Ethernet_nLED3(3.3v)-Pad15)*%
X83549995Y17000000D03*
%TO.P,Module1,16,Ethernet_SYNC_IN(1.8v)*%
%TO.N,FAN_TACHO*%
X83549995Y20080000D03*
%TO.P,Module1,17,Ethernet_nLED2(3.3v)*%
%TO.N,unconnected-(Module1A-Ethernet_nLED2(3.3v)-Pad17)*%
X83949995Y17000000D03*
%TO.P,Module1,18,Ethernet_SYNC_OUT(1.8v)*%
%TO.N,unconnected-(Module1A-Ethernet_SYNC_OUT(1.8v)-Pad18)*%
X83949995Y20080000D03*
%TO.P,Module1,19,Ethernet_nLED1(3.3v)*%
%TO.N,FAN_PWM*%
X84349995Y17000000D03*
%TO.P,Module1,20,EEPROM_nWP*%
%TO.N,unconnected-(Module1A-EEPROM_nWP-Pad20)*%
X84349995Y20080000D03*
%TO.P,Module1,21,PI_nLED_Activity*%
%TO.N,LED_ACTIVITY*%
X84749995Y17000000D03*
%TO.P,Module1,22,GND*%
%TO.N,GND*%
X84749995Y20080000D03*
%TO.P,Module1,23,GND*%
X85149995Y17000000D03*
%TO.P,Module1,24,GPIO26*%
%TO.N,unconnected-(Module1A-GPIO26-Pad24)*%
X85149995Y20080000D03*
%TO.P,Module1,25,GPIO21*%
%TO.N,unconnected-(Module1A-GPIO21-Pad25)*%
X85549995Y17000000D03*
%TO.P,Module1,26,GPIO19*%
%TO.N,unconnected-(Module1A-GPIO19-Pad26)*%
X85549995Y20080000D03*
%TO.P,Module1,27,GPIO20*%
%TO.N,unconnected-(Module1A-GPIO20-Pad27)*%
X85949995Y17000000D03*
%TO.P,Module1,28,GPIO13*%
%TO.N,AUDIO_L*%
X85949995Y20080000D03*
%TO.P,Module1,29,GPIO16*%
%TO.N,unconnected-(Module1A-GPIO16-Pad29)*%
X86349995Y17000000D03*
%TO.P,Module1,30,GPIO6*%
%TO.N,GPIO6*%
X86349995Y20080000D03*
%TO.P,Module1,31,GPIO12*%
%TO.N,AUDIO_R*%
X86749995Y17000000D03*
%TO.P,Module1,32,GND*%
%TO.N,GND*%
X86749995Y20080000D03*
%TO.P,Module1,33,GND*%
X87149995Y17000000D03*
%TO.P,Module1,34,GPIO5*%
%TO.N,GPIO5*%
X87149995Y20080000D03*
%TO.P,Module1,35,ID_SC*%
%TO.N,unconnected-(Module1A-ID_SC-Pad35)*%
X87549995Y17000000D03*
%TO.P,Module1,36,ID_SD*%
%TO.N,unconnected-(Module1A-ID_SD-Pad36)*%
X87549995Y20080000D03*
%TO.P,Module1,37,GPIO7*%
%TO.N,GPIO7*%
X87949995Y17000000D03*
%TO.P,Module1,38,GPIO11*%
%TO.N,unconnected-(Module1A-GPIO11-Pad38)*%
X87949995Y20080000D03*
%TO.P,Module1,39,GPIO8*%
%TO.N,unconnected-(Module1A-GPIO8-Pad39)*%
X88349995Y17000000D03*
%TO.P,Module1,40,GPIO9*%
%TO.N,unconnected-(Module1A-GPIO9-Pad40)*%
X88349995Y20080000D03*
%TO.P,Module1,41,GPIO25*%
%TO.N,unconnected-(Module1A-GPIO25-Pad41)*%
X88749995Y17000000D03*
%TO.P,Module1,42,GND*%
%TO.N,GND*%
X88749995Y20080000D03*
%TO.P,Module1,43,GND*%
X89149995Y17000000D03*
%TO.P,Module1,44,GPIO10*%
%TO.N,unconnected-(Module1A-GPIO10-Pad44)*%
X89149995Y20080000D03*
%TO.P,Module1,45,GPIO24*%
%TO.N,unconnected-(Module1A-GPIO24-Pad45)*%
X89549995Y17000000D03*
%TO.P,Module1,46,GPIO22*%
%TO.N,unconnected-(Module1A-GPIO22-Pad46)*%
X89549995Y20080000D03*
%TO.P,Module1,47,GPIO23*%
%TO.N,unconnected-(Module1A-GPIO23-Pad47)*%
X89949995Y17000000D03*
%TO.P,Module1,48,GPIO27*%
%TO.N,unconnected-(Module1A-GPIO27-Pad48)*%
X89949995Y20080000D03*
%TO.P,Module1,49,GPIO18*%
%TO.N,unconnected-(Module1A-GPIO18-Pad49)*%
X90349995Y17000000D03*
%TO.P,Module1,50,GPIO17*%
%TO.N,unconnected-(Module1A-GPIO17-Pad50)*%
X90349995Y20080000D03*
%TO.P,Module1,51,GPIO15*%
%TO.N,unconnected-(Module1A-GPIO15-Pad51)*%
X90749995Y17000000D03*
%TO.P,Module1,52,GND*%
%TO.N,GND*%
X90749995Y20080000D03*
%TO.P,Module1,53,GND*%
X91149995Y17000000D03*
%TO.P,Module1,54,GPIO4*%
%TO.N,GPIO4*%
X91149995Y20080000D03*
%TO.P,Module1,55,GPIO14*%
%TO.N,unconnected-(Module1A-GPIO14-Pad55)*%
X91549995Y17000000D03*
%TO.P,Module1,56,GPIO3*%
%TO.N,unconnected-(Module1A-GPIO3-Pad56)*%
X91549995Y20080000D03*
%TO.P,Module1,57,SD_CLK*%
%TO.N,Net-(Module1A-SD_CLK)*%
X91949995Y17000000D03*
%TO.P,Module1,58,GPIO2*%
%TO.N,unconnected-(Module1A-GPIO2-Pad58)*%
X91949995Y20080000D03*
%TO.P,Module1,59,GND*%
%TO.N,GND*%
X92349995Y17000000D03*
%TO.P,Module1,60,GND*%
X92349995Y20080000D03*
%TO.P,Module1,61,SD_DAT3*%
%TO.N,Net-(Module1A-SD_DAT3)*%
X92749995Y17000000D03*
%TO.P,Module1,62,SD_CMD*%
%TO.N,Net-(Module1A-SD_CMD)*%
X92749995Y20080000D03*
%TO.P,Module1,63,SD_DAT0*%
%TO.N,Net-(Module1A-SD_DAT0)*%
X93149995Y17000000D03*
%TO.P,Module1,64,SD_DAT5*%
%TO.N,unconnected-(Module1A-SD_DAT5-Pad64)*%
X93149995Y20080000D03*
%TO.P,Module1,65,GND*%
%TO.N,GND*%
X93549995Y17000000D03*
%TO.P,Module1,66,GND*%
X93549995Y20080000D03*
%TO.P,Module1,67,SD_DAT1*%
%TO.N,Net-(Module1A-SD_DAT1)*%
X93949995Y17000000D03*
%TO.P,Module1,68,SD_DAT4*%
%TO.N,unconnected-(Module1A-SD_DAT4-Pad68)*%
X93949995Y20080000D03*
%TO.P,Module1,69,SD_DAT2*%
%TO.N,Net-(Module1A-SD_DAT2)*%
X94349995Y17000000D03*
%TO.P,Module1,70,SD_DAT7*%
%TO.N,unconnected-(Module1A-SD_DAT7-Pad70)*%
X94349995Y20080000D03*
%TO.P,Module1,71,GND*%
%TO.N,GND*%
X94749995Y17000000D03*
%TO.P,Module1,72,SD_DAT6*%
%TO.N,unconnected-(Module1A-SD_DAT6-Pad72)*%
X94749995Y20080000D03*
%TO.P,Module1,73,SD_VDD_Override*%
%TO.N,unconnected-(Module1A-SD_VDD_Override-Pad73)*%
X95149995Y17000000D03*
%TO.P,Module1,74,GND*%
%TO.N,GND*%
X95149995Y20080000D03*
%TO.P,Module1,75,SD_PWR_ON*%
%TO.N,unconnected-(Module1A-SD_PWR_ON-Pad75)*%
X95549995Y17000000D03*
%TO.P,Module1,76,Reserved*%
%TO.N,unconnected-(Module1A-Reserved-Pad76)*%
X95549995Y20080000D03*
%TO.P,Module1,77,+5v_(Input)*%
%TO.N,VCC*%
X95949995Y17000000D03*
%TO.P,Module1,78,GPIO_VREF(1.8v/3.3v_Input)*%
%TO.N,3V3*%
X95949995Y20080000D03*
%TO.P,Module1,79,+5v_(Input)*%
%TO.N,VCC*%
X96349995Y17000000D03*
%TO.P,Module1,80,SCL0*%
%TO.N,unconnected-(Module1A-SCL0-Pad80)*%
X96349995Y20080000D03*
%TO.P,Module1,81,+5v_(Input)*%
%TO.N,VCC*%
X96749995Y17000000D03*
%TO.P,Module1,82,SDA0*%
%TO.N,unconnected-(Module1A-SDA0-Pad82)*%
X96749995Y20080000D03*
%TO.P,Module1,83,+5v_(Input)*%
%TO.N,VCC*%
X97149995Y17000000D03*
%TO.P,Module1,84,+3.3v_(Output)*%
%TO.N,3V3*%
X97149995Y20080000D03*
%TO.P,Module1,85,+5v_(Input)*%
%TO.N,VCC*%
X97549995Y17000000D03*
%TO.P,Module1,86,+3.3v_(Output)*%
%TO.N,3V3*%
X97549995Y20080000D03*
%TO.P,Module1,87,+5v_(Input)*%
%TO.N,VCC*%
X97949995Y17000000D03*
%TO.P,Module1,88,+1.8v_(Output)*%
%TO.N,unconnected-(Module1A-+1.8v_(Output)-Pad88)*%
X97949995Y20080000D03*
%TO.P,Module1,89,WiFi_nDisable*%
%TO.N,unconnected-(Module1A-WiFi_nDisable-Pad89)*%
X98349995Y17000000D03*
%TO.P,Module1,90,+1.8v_(Output)*%
%TO.N,unconnected-(Module1A-+1.8v_(Output)-Pad90)*%
X98349995Y20080000D03*
%TO.P,Module1,91,BT_nDisable*%
%TO.N,unconnected-(Module1A-BT_nDisable-Pad91)*%
X98749995Y17000000D03*
%TO.P,Module1,92,RUN_PG*%
%TO.N,unconnected-(Module1A-RUN_PG-Pad92)*%
X98749995Y20080000D03*
%TO.P,Module1,93,nRPIBOOT*%
%TO.N,unconnected-(Module1A-nRPIBOOT-Pad93)*%
X99149995Y17000000D03*
%TO.P,Module1,94,AnalogIP1*%
%TO.N,unconnected-(Module1A-AnalogIP1-Pad94)*%
X99149995Y20080000D03*
%TO.P,Module1,95,nPI_LED_PWR*%
%TO.N,unconnected-(Module1A-nPI_LED_PWR-Pad95)*%
X99549995Y17000000D03*
%TO.P,Module1,96,AnalogIP0*%
%TO.N,unconnected-(Module1A-AnalogIP0-Pad96)*%
X99549995Y20080000D03*
%TO.P,Module1,97,Camera_GPIO*%
%TO.N,unconnected-(Module1A-Camera_GPIO-Pad97)*%
X99949995Y17000000D03*
%TO.P,Module1,98,GND*%
%TO.N,GND*%
X99949995Y20080000D03*
%TO.P,Module1,99,Global_EN*%
%TO.N,unconnected-(Module1A-Global_EN-Pad99)*%
X100349995Y17000000D03*
%TO.P,Module1,100,nEXTRST*%
%TO.N,unconnected-(Module1A-nEXTRST-Pad100)*%
X100349995Y20080000D03*
%TO.P,Module1,101,USB_OTG_ID*%
%TO.N,unconnected-(Module1B-USB_OTG_ID-Pad101)*%
X80749995Y50920000D03*
%TO.P,Module1,102,PCIe_CLK_nREQ*%
%TO.N,unconnected-(Module1B-PCIe_CLK_nREQ-Pad102)*%
X80749995Y54000000D03*
%TO.P,Module1,103,USB2_N*%
%TO.N,USB_D-*%
X81149995Y50920000D03*
%TO.P,Module1,104,Reserved*%
%TO.N,unconnected-(Module1B-Reserved-Pad104)*%
X81149995Y54000000D03*
%TO.P,Module1,105,USB2_P*%
%TO.N,USB_D+*%
X81549995Y50920000D03*
%TO.P,Module1,106,Reserved*%
%TO.N,unconnected-(Module1B-Reserved-Pad106)*%
X81549995Y54000000D03*
%TO.P,Module1,107,GND*%
%TO.N,GND*%
X81949995Y50920000D03*
%TO.P,Module1,108,GND*%
X81949995Y54000000D03*
%TO.P,Module1,109,PCIe_nRST*%
%TO.N,unconnected-(Module1B-PCIe_nRST-Pad109)*%
X82349995Y50920000D03*
%TO.P,Module1,110,PCIe_CLK_P*%
%TO.N,unconnected-(Module1B-PCIe_CLK_P-Pad110)*%
X82349995Y54000000D03*
%TO.P,Module1,111,VDAC_COMP*%
%TO.N,unconnected-(Module1B-VDAC_COMP-Pad111)*%
X82749995Y50920000D03*
%TO.P,Module1,112,PCIe_CLK_N*%
%TO.N,unconnected-(Module1B-PCIe_CLK_N-Pad112)*%
X82749995Y54000000D03*
%TO.P,Module1,113,GND*%
%TO.N,GND*%
X83149995Y50920000D03*
%TO.P,Module1,114,GND*%
X83149995Y54000000D03*
%TO.P,Module1,115,CAM1_D0_N*%
%TO.N,unconnected-(Module1B-CAM1_D0_N-Pad115)*%
X83549995Y50920000D03*
%TO.P,Module1,116,PCIe_RX_P*%
%TO.N,unconnected-(Module1B-PCIe_RX_P-Pad116)*%
X83549995Y54000000D03*
%TO.P,Module1,117,CAM1_D0_P*%
%TO.N,unconnected-(Module1B-CAM1_D0_P-Pad117)*%
X83949995Y50920000D03*
%TO.P,Module1,118,PCIe_RX_N*%
%TO.N,unconnected-(Module1B-PCIe_RX_N-Pad118)*%
X83949995Y54000000D03*
%TO.P,Module1,119,GND*%
%TO.N,GND*%
X84349995Y50920000D03*
%TO.P,Module1,120,GND*%
X84349995Y54000000D03*
%TO.P,Module1,121,CAM1_D1_N*%
%TO.N,unconnected-(Module1B-CAM1_D1_N-Pad121)*%
X84749995Y50920000D03*
%TO.P,Module1,122,PCIe_TX_P*%
%TO.N,unconnected-(Module1B-PCIe_TX_P-Pad122)*%
X84749995Y54000000D03*
%TO.P,Module1,123,CAM1_D1_P*%
%TO.N,unconnected-(Module1B-CAM1_D1_P-Pad123)*%
X85149995Y50920000D03*
%TO.P,Module1,124,PCIe_TX_N*%
%TO.N,unconnected-(Module1B-PCIe_TX_N-Pad124)*%
X85149995Y54000000D03*
%TO.P,Module1,125,GND*%
%TO.N,GND*%
X85549995Y50920000D03*
%TO.P,Module1,126,GND*%
X85549995Y54000000D03*
%TO.P,Module1,127,CAM1_C_N*%
%TO.N,unconnected-(Module1B-CAM1_C_N-Pad127)*%
X85949995Y50920000D03*
%TO.P,Module1,128,CAM0_D0_N*%
%TO.N,unconnected-(Module1B-CAM0_D0_N-Pad128)*%
X85949995Y54000000D03*
%TO.P,Module1,129,CAM1_C_P*%
%TO.N,unconnected-(Module1B-CAM1_C_P-Pad129)*%
X86349995Y50920000D03*
%TO.P,Module1,130,CAM0_D0_P*%
%TO.N,unconnected-(Module1B-CAM0_D0_P-Pad130)*%
X86349995Y54000000D03*
%TO.P,Module1,131,GND*%
%TO.N,GND*%
X86749995Y50920000D03*
%TO.P,Module1,132,GND*%
X86749995Y54000000D03*
%TO.P,Module1,133,CAM1_D2_N*%
%TO.N,unconnected-(Module1B-CAM1_D2_N-Pad133)*%
X87149995Y50920000D03*
%TO.P,Module1,134,CAM0_D1_N*%
%TO.N,unconnected-(Module1B-CAM0_D1_N-Pad134)*%
X87149995Y54000000D03*
%TO.P,Module1,135,CAM1_D2_P*%
%TO.N,unconnected-(Module1B-CAM1_D2_P-Pad135)*%
X87549995Y50920000D03*
%TO.P,Module1,136,CAM0_D1_P*%
%TO.N,unconnected-(Module1B-CAM0_D1_P-Pad136)*%
X87549995Y54000000D03*
%TO.P,Module1,137,GND*%
%TO.N,GND*%
X87949995Y50920000D03*
%TO.P,Module1,138,GND*%
X87949995Y54000000D03*
%TO.P,Module1,139,CAM1_D3_N*%
%TO.N,unconnected-(Module1B-CAM1_D3_N-Pad139)*%
X88349995Y50920000D03*
%TO.P,Module1,140,CAM0_C_N*%
%TO.N,unconnected-(Module1B-CAM0_C_N-Pad140)*%
X88349995Y54000000D03*
%TO.P,Module1,141,CAM1_D3_P*%
%TO.N,unconnected-(Module1B-CAM1_D3_P-Pad141)*%
X88749995Y50920000D03*
%TO.P,Module1,142,CAM0_C_P*%
%TO.N,unconnected-(Module1B-CAM0_C_P-Pad142)*%
X88749995Y54000000D03*
%TO.P,Module1,143,HDMI1_HOTPLUG*%
%TO.N,unconnected-(Module1B-HDMI1_HOTPLUG-Pad143)*%
X89149995Y50920000D03*
%TO.P,Module1,144,GND*%
%TO.N,GND*%
X89149995Y54000000D03*
%TO.P,Module1,145,HDMI1_SDA*%
%TO.N,unconnected-(Module1B-HDMI1_SDA-Pad145)*%
X89549995Y50920000D03*
%TO.P,Module1,146,HDMI1_TX2_P*%
%TO.N,unconnected-(Module1B-HDMI1_TX2_P-Pad146)*%
X89549995Y54000000D03*
%TO.P,Module1,147,HDMI1_SCL*%
%TO.N,unconnected-(Module1B-HDMI1_SCL-Pad147)*%
X89949995Y50920000D03*
%TO.P,Module1,148,HDMI1_TX2_N*%
%TO.N,unconnected-(Module1B-HDMI1_TX2_N-Pad148)*%
X89949995Y54000000D03*
%TO.P,Module1,149,HDMI1_CEC*%
%TO.N,unconnected-(Module1B-HDMI1_CEC-Pad149)*%
X90349995Y50920000D03*
%TO.P,Module1,150,GND*%
%TO.N,GND*%
X90349995Y54000000D03*
%TO.P,Module1,151,HDMI0_CEC*%
%TO.N,HDMI_CEC*%
X90749995Y50920000D03*
%TO.P,Module1,152,HDMI1_TX1_P*%
%TO.N,unconnected-(Module1B-HDMI1_TX1_P-Pad152)*%
X90749995Y54000000D03*
%TO.P,Module1,153,HDMI0_HOTPLUG*%
%TO.N,HDMI_HEAC-*%
X91149995Y50920000D03*
%TO.P,Module1,154,HDMI1_TX1_N*%
%TO.N,unconnected-(Module1B-HDMI1_TX1_N-Pad154)*%
X91149995Y54000000D03*
%TO.P,Module1,155,GND*%
%TO.N,GND*%
X91549995Y50920000D03*
%TO.P,Module1,156,GND*%
X91549995Y54000000D03*
%TO.P,Module1,157,DSI0_D0_N*%
%TO.N,unconnected-(Module1B-DSI0_D0_N-Pad157)*%
X91949995Y50920000D03*
%TO.P,Module1,158,HDMI1_TX0_P*%
%TO.N,unconnected-(Module1B-HDMI1_TX0_P-Pad158)*%
X91949995Y54000000D03*
%TO.P,Module1,159,DSI0_D0_P*%
%TO.N,unconnected-(Module1B-DSI0_D0_P-Pad159)*%
X92349995Y50920000D03*
%TO.P,Module1,160,HDMI1_TX0_N*%
%TO.N,unconnected-(Module1B-HDMI1_TX0_N-Pad160)*%
X92349995Y54000000D03*
%TO.P,Module1,161,GND*%
%TO.N,GND*%
X92749995Y50920000D03*
%TO.P,Module1,162,GND*%
X92749995Y54000000D03*
%TO.P,Module1,163,DSI0_D1_N*%
%TO.N,unconnected-(Module1B-DSI0_D1_N-Pad163)*%
X93149995Y50920000D03*
%TO.P,Module1,164,HDMI1_CLK_P*%
%TO.N,unconnected-(Module1B-HDMI1_CLK_P-Pad164)*%
X93149995Y54000000D03*
%TO.P,Module1,165,DSI0_D1_P*%
%TO.N,unconnected-(Module1B-DSI0_D1_P-Pad165)*%
X93549995Y50920000D03*
%TO.P,Module1,166,HDMI1_CLK_N*%
%TO.N,unconnected-(Module1B-HDMI1_CLK_N-Pad166)*%
X93549995Y54000000D03*
%TO.P,Module1,167,GND*%
%TO.N,GND*%
X93949995Y50920000D03*
%TO.P,Module1,168,GND*%
X93949995Y54000000D03*
%TO.P,Module1,169,DSI0_C_N*%
%TO.N,unconnected-(Module1B-DSI0_C_N-Pad169)*%
X94349995Y50920000D03*
%TO.P,Module1,170,HDMI0_TX2_P*%
%TO.N,HDMI_D2+*%
X94349995Y54000000D03*
%TO.P,Module1,171,DSI0_C_P*%
%TO.N,unconnected-(Module1B-DSI0_C_P-Pad171)*%
X94749995Y50920000D03*
%TO.P,Module1,172,HDMI0_TX2_N*%
%TO.N,HDMI_D2-*%
X94749995Y54000000D03*
%TO.P,Module1,173,GND*%
%TO.N,GND*%
X95149995Y50920000D03*
%TO.P,Module1,174,GND*%
X95149995Y54000000D03*
%TO.P,Module1,175,DSI1_D0_N*%
%TO.N,unconnected-(Module1B-DSI1_D0_N-Pad175)*%
X95549995Y50920000D03*
%TO.P,Module1,176,HDMI0_TX1_P*%
%TO.N,HDMI_D1+*%
X95549995Y54000000D03*
%TO.P,Module1,177,DSI1_D0_P*%
%TO.N,unconnected-(Module1B-DSI1_D0_P-Pad177)*%
X95949995Y50920000D03*
%TO.P,Module1,178,HDMI0_TX1_N*%
%TO.N,HDMI_D1-*%
X95949995Y54000000D03*
%TO.P,Module1,179,GND*%
%TO.N,GND*%
X96349995Y50920000D03*
%TO.P,Module1,180,GND*%
X96349995Y54000000D03*
%TO.P,Module1,181,DSI1_D1_N*%
%TO.N,unconnected-(Module1B-DSI1_D1_N-Pad181)*%
X96749995Y50920000D03*
%TO.P,Module1,182,HDMI0_TX0_P*%
%TO.N,HDMI_D0+*%
X96749995Y54000000D03*
%TO.P,Module1,183,DSI1_D1_P*%
%TO.N,unconnected-(Module1B-DSI1_D1_P-Pad183)*%
X97149995Y50920000D03*
%TO.P,Module1,184,HDMI0_TX0_N*%
%TO.N,HDMI_D0-*%
X97149995Y54000000D03*
%TO.P,Module1,185,GND*%
%TO.N,GND*%
X97549995Y50920000D03*
%TO.P,Module1,186,GND*%
X97549995Y54000000D03*
%TO.P,Module1,187,DSI1_C_N*%
%TO.N,unconnected-(Module1B-DSI1_C_N-Pad187)*%
X97949995Y50920000D03*
%TO.P,Module1,188,HDMI0_CLK_P*%
%TO.N,HDMI_CK+*%
X97949995Y54000000D03*
%TO.P,Module1,189,DSI1_C_P*%
%TO.N,unconnected-(Module1B-DSI1_C_P-Pad189)*%
X98349995Y50920000D03*
%TO.P,Module1,190,HDMI0_CLK_N*%
%TO.N,HDMI_CK-*%
X98349995Y54000000D03*
%TO.P,Module1,191,GND*%
%TO.N,GND*%
X98749995Y50920000D03*
%TO.P,Module1,192,GND*%
X98749995Y54000000D03*
%TO.P,Module1,193,DSI1_D2_N*%
%TO.N,unconnected-(Module1B-DSI1_D2_N-Pad193)*%
X99149995Y50920000D03*
%TO.P,Module1,194,DSI1_D3_N*%
%TO.N,unconnected-(Module1B-DSI1_D3_N-Pad194)*%
X99149995Y54000000D03*
%TO.P,Module1,195,DSI1_D2_P*%
%TO.N,unconnected-(Module1B-DSI1_D2_P-Pad195)*%
X99549995Y50920000D03*
%TO.P,Module1,196,DSI1_D3_P*%
%TO.N,unconnected-(Module1B-DSI1_D3_P-Pad196)*%
X99549995Y54000000D03*
%TO.P,Module1,197,GND*%
%TO.N,GND*%
X99949995Y50920000D03*
%TO.P,Module1,198,GND*%
X99949995Y54000000D03*
%TO.P,Module1,199,HDMI0_SDA*%
%TO.N,HDMI_SDA*%
X100349995Y50920000D03*
%TO.P,Module1,200,HDMI0_SCL*%
%TO.N,HDMI_SCL*%
X100349995Y54000000D03*
%TD*%
D28*
%TO.P,D1,1,K*%
%TO.N,Net-(D1-K)*%
X35859995Y129950000D03*
%TO.P,D1,2,A*%
%TO.N,3V3*%
X36499995Y129950000D03*
%TD*%
D27*
%TO.P,C6,1*%
%TO.N,Net-(C6-Pad1)*%
X81614995Y110100000D03*
%TO.P,C6,2*%
%TO.N,GND*%
X80974995Y110100000D03*
%TD*%
%TO.P,R8,1*%
%TO.N,Net-(C6-Pad1)*%
X81614995Y113600000D03*
%TO.P,R8,2*%
%TO.N,GND*%
X80974995Y113600000D03*
%TD*%
D28*
%TO.P,R15,1*%
%TO.N,SD_DAT2*%
X89959995Y13550000D03*
%TO.P,R15,2*%
%TO.N,Net-(Module1A-SD_DAT2)*%
X90599995Y13550000D03*
%TD*%
D11*
%TO.P,TP1,1,1*%
%TO.N,Net-(IC1-RESET_N)*%
X35899995Y21200000D03*
%TD*%
D27*
%TO.P,R9,1*%
%TO.N,AUDIO_OUT_R*%
X81669995Y120400000D03*
%TO.P,R9,2*%
%TO.N,GND*%
X81029995Y120400000D03*
%TD*%
D28*
%TO.P,R11,1*%
%TO.N,SD_CLK*%
X89079995Y14800000D03*
%TO.P,R11,2*%
%TO.N,Net-(Module1A-SD_CLK)*%
X89719995Y14800000D03*
%TD*%
D24*
%TO.P,J2,1,VBUS*%
%TO.N,VCC*%
X43349995Y123295000D03*
D14*
%TO.P,J2,2,D-*%
%TO.N,unconnected-(J2-D--Pad2)*%
X43349995Y121295000D03*
%TO.P,J2,3,D+*%
%TO.N,unconnected-(J2-D+-Pad3)*%
X43349995Y119295000D03*
%TO.P,J2,4,GND*%
%TO.N,Net-(J16-Pin_2)*%
X43349995Y117295000D03*
D25*
%TO.P,J2,5,Shield*%
X46069995Y124025000D03*
X40629995Y124025000D03*
X46069995Y117025000D03*
X40629995Y117025000D03*
%TD*%
D27*
%TO.P,R10,1*%
%TO.N,CARD_PRESENT*%
X16674995Y111750000D03*
%TO.P,R10,2*%
%TO.N,GND_SUPPLY*%
X16034995Y111750000D03*
%TD*%
D18*
%TO.P,J12,1,Pin_1*%
%TO.N,GPIO5*%
X108399995Y77300000D03*
D19*
%TO.P,J12,2,Pin_2*%
%TO.N,GND*%
X110399995Y77300000D03*
%TD*%
D10*
%TO.P,C1,1*%
%TO.N,GND*%
X26449995Y32115000D03*
%TO.P,C1,2*%
%TO.N,USB_XTAL_OUT*%
X26449995Y31475000D03*
%TD*%
D11*
%TO.P,TP5,1,1*%
%TO.N,GND_SUPPLY*%
X21749995Y112800000D03*
%TD*%
D13*
%TO.P,J6,1,VBUS*%
%TO.N,VCC*%
X74049995Y9360000D03*
D14*
%TO.P,J6,2,D-*%
%TO.N,Net-(IC1-USBDM_DN3{slash}PRT_DIS_M3)*%
X76549995Y9360000D03*
%TO.P,J6,3,D+*%
%TO.N,Net-(IC1-USBDP_DN3{slash}PRT_DIS_P3)*%
X78549995Y9360000D03*
%TO.P,J6,4,GND*%
%TO.N,GND*%
X81049995Y9360000D03*
D15*
%TO.P,J6,5,Shield*%
X70979995Y6650000D03*
X84119995Y6650000D03*
%TD*%
D16*
%TO.P,J17,1,Pin_1*%
%TO.N,GND*%
X51759995Y110700000D03*
D17*
%TO.P,J17,2,Pin_2*%
%TO.N,Net-(J15-GND)*%
X54299995Y110700000D03*
%TO.P,J17,3,Pin_3*%
%TO.N,GND_SUPPLY*%
X56839995Y110700000D03*
%TD*%
D28*
%TO.P,C4,1*%
%TO.N,Net-(C4-Pad1)*%
X76084995Y110100000D03*
%TO.P,C4,2*%
%TO.N,GND*%
X76724995Y110100000D03*
%TD*%
D32*
%TO.P,J9,A1,A1*%
%TO.N,VCC*%
X70249995Y76800003D03*
D33*
%TO.P,J9,A2,A2*%
X69249995Y74800003D03*
%TO.P,J9,A3,A3*%
%TO.N,3V3*%
X68249995Y76800003D03*
%TO.P,J9,A4,A4*%
%TO.N,GND*%
X67249995Y74800003D03*
%TO.P,J9,A5,A5*%
%TO.N,SD_CLK*%
X66249995Y76800003D03*
%TO.P,J9,A6,A6*%
%TO.N,SD_CMD*%
X65249995Y74800003D03*
%TO.P,J9,A7,A7*%
%TO.N,SD_DAT0*%
X64249995Y76800003D03*
%TO.P,J9,A8,A8*%
%TO.N,SD_DAT1*%
X63249995Y74800003D03*
%TO.P,J9,A9,A9*%
%TO.N,SD_DAT2*%
X62249995Y76800003D03*
%TO.P,J9,A10,A10*%
%TO.N,SD_DAT3*%
X61249995Y74800003D03*
%TO.P,J9,A11,A11*%
%TO.N,unconnected-(J9-PadA11)*%
X60249995Y76800003D03*
%TO.P,J9,A12,A12*%
%TO.N,unconnected-(J9-PadA12)*%
X57249995Y74800003D03*
%TO.P,J9,A13,A13*%
%TO.N,unconnected-(J9-PadA13)*%
X56249995Y76800003D03*
%TO.P,J9,A14,A14*%
%TO.N,unconnected-(J9-PadA14)*%
X55249995Y74800003D03*
%TO.P,J9,A15,A15*%
%TO.N,unconnected-(J9-PadA15)*%
X54249995Y76800003D03*
%TO.P,J9,A16,A16*%
%TO.N,unconnected-(J9-PadA16)*%
X53249995Y74800003D03*
%TO.P,J9,A17,A17*%
%TO.N,CARD_PRESENT*%
X52249995Y76800003D03*
%TO.P,J9,A18,A18*%
%TO.N,unconnected-(J9-PadA18)*%
X51249995Y74800003D03*
%TO.P,J9,B1,B1*%
%TO.N,GND*%
X70249995Y79300003D03*
%TO.P,J9,B2,B2*%
X69249995Y81300003D03*
%TO.P,J9,B3,B3*%
X68249995Y79300003D03*
%TO.P,J9,B4,B4*%
X67249995Y81300003D03*
%TO.P,J9,B5,B5*%
X66249995Y79300003D03*
%TO.P,J9,B6,B6*%
X65249995Y81300003D03*
%TO.P,J9,B7,B7*%
X64249995Y79300003D03*
%TO.P,J9,B8,B8*%
X63249995Y81300003D03*
%TO.P,J9,B9,B9*%
X62249995Y79300003D03*
%TO.P,J9,B10,B10*%
X61249995Y81300003D03*
%TO.P,J9,B11,B11*%
%TO.N,unconnected-(J9-PadB11)*%
X60249995Y79300003D03*
%TO.P,J9,B12,B12*%
%TO.N,unconnected-(J9-PadB12)*%
X57249995Y81300003D03*
%TO.P,J9,B13,B13*%
%TO.N,unconnected-(J9-PadB13)*%
X56249995Y79300003D03*
%TO.P,J9,B14,B14*%
%TO.N,unconnected-(J9-PadB14)*%
X55249995Y81300003D03*
%TO.P,J9,B15,B15*%
%TO.N,unconnected-(J9-PadB15)*%
X54249995Y79300003D03*
%TO.P,J9,B16,B16*%
%TO.N,unconnected-(J9-PadB16)*%
X53249995Y81300003D03*
%TO.P,J9,B17,B17*%
%TO.N,unconnected-(J9-PadB17)*%
X52249995Y79300003D03*
%TO.P,J9,B18,B18*%
%TO.N,unconnected-(J9-PadB18)*%
X51249995Y81300003D03*
%TD*%
D34*
%TO.P,J4,1,D2+*%
%TO.N,HDMI_D2+*%
X91799995Y122280000D03*
%TO.P,J4,2,D2S*%
%TO.N,GND*%
X92299995Y122280000D03*
%TO.P,J4,3,D2-*%
%TO.N,HDMI_D2-*%
X92799995Y122280000D03*
%TO.P,J4,4,D1+*%
%TO.N,HDMI_D1+*%
X93299995Y122280000D03*
%TO.P,J4,5,D1S*%
%TO.N,GND*%
X93799995Y122280000D03*
%TO.P,J4,6,D1-*%
%TO.N,HDMI_D1-*%
X94299995Y122280000D03*
%TO.P,J4,7,D0+*%
%TO.N,HDMI_D0+*%
X94799995Y122280000D03*
%TO.P,J4,8,D0S*%
%TO.N,GND*%
X95299995Y122280000D03*
%TO.P,J4,9,D0-*%
%TO.N,HDMI_D0-*%
X95799995Y122280000D03*
%TO.P,J4,10,CK+*%
%TO.N,HDMI_CK+*%
X96299995Y122280000D03*
%TO.P,J4,11,CKS*%
%TO.N,GND*%
X96799995Y122280000D03*
%TO.P,J4,12,CK-*%
%TO.N,HDMI_CK-*%
X97299995Y122280000D03*
%TO.P,J4,13,CEC*%
%TO.N,HDMI_CEC*%
X97799995Y122280000D03*
%TO.P,J4,14,UTILITY/HEAC+*%
%TO.N,unconnected-(J4-UTILITY{slash}HEAC+-Pad14)*%
X98299995Y122280000D03*
%TO.P,J4,15,SCL*%
%TO.N,HDMI_SCL*%
X98799995Y122280000D03*
%TO.P,J4,16,SDA*%
%TO.N,HDMI_SDA*%
X99299995Y122280000D03*
%TO.P,J4,17,GND*%
%TO.N,GND*%
X99799995Y122280000D03*
%TO.P,J4,18,+5V*%
%TO.N,VCC*%
X100299995Y122280000D03*
%TO.P,J4,19,HPD/HEAC-*%
%TO.N,HDMI_HEAC-*%
X100799995Y122280000D03*
D35*
%TO.P,J4,SH*%
%TO.N,N/C*%
X89049995Y123040000D03*
X103549995Y123040000D03*
D36*
X89049995Y129000000D03*
X103549995Y129000000D03*
%TD*%
D37*
%TO.P,Q1,1,G*%
%TO.N,CARD_PRESENT*%
X18129995Y103400000D03*
D38*
%TO.P,Q1,2,D*%
%TO.N,GND*%
X15589995Y91970000D03*
D37*
%TO.P,Q1,3,S*%
%TO.N,GND_SUPPLY*%
X13049995Y103400000D03*
%TD*%
D39*
%TO.P,J14,1,Pin_1*%
%TO.N,GPIO5*%
X54649995Y39850000D03*
D40*
%TO.P,J14,2,Pin_2*%
%TO.N,GPIO4*%
X54649995Y41850000D03*
%TO.P,J14,3,Pin_3*%
%TO.N,GPIO6*%
X54649995Y43850000D03*
%TO.P,J14,4,Pin_4*%
%TO.N,GND*%
X54649995Y45850000D03*
%TD*%
D11*
%TO.P,TP2,1,1*%
%TO.N,VCC*%
X12849995Y60600000D03*
%TD*%
D10*
%TO.P,R14,1*%
%TO.N,SD_DAT1*%
X74249995Y19470000D03*
%TO.P,R14,2*%
%TO.N,Net-(Module1A-SD_DAT1)*%
X74249995Y18830000D03*
%TD*%
D28*
%TO.P,R4,1*%
%TO.N,Net-(C4-Pad1)*%
X76149995Y106945000D03*
%TO.P,R4,2*%
%TO.N,Net-(IC2-Y1)*%
X76789995Y106945000D03*
%TD*%
D13*
%TO.P,J3,1,VBUS*%
%TO.N,VCC*%
X10049995Y9360000D03*
D14*
%TO.P,J3,2,D-*%
%TO.N,Net-(IC1-USBDM_DN1{slash}PRT_DIS_M1)*%
X12549995Y9360000D03*
%TO.P,J3,3,D+*%
%TO.N,Net-(IC1-USBDP_DN1{slash}PRT_DIS_P1)*%
X14549995Y9360000D03*
%TO.P,J3,4,GND*%
%TO.N,GND*%
X17049995Y9360000D03*
D15*
%TO.P,J3,5,Shield*%
X6979995Y6650000D03*
X20119995Y6650000D03*
%TD*%
D41*
%TO.P,J1,1,Pin_1*%
%TO.N,VCC*%
X56074995Y19150000D03*
%TO.P,J1,2,Pin_2*%
%TO.N,FAN_PWM*%
X56074995Y20150000D03*
%TO.P,J1,3,Pin_3*%
%TO.N,GND*%
X56074995Y21150000D03*
%TO.P,J1,4,Pin_4*%
%TO.N,FAN_TACHO*%
X56074995Y22150000D03*
D42*
%TO.P,J1,MP*%
%TO.N,N/C*%
X53549995Y17850000D03*
X53549995Y23450000D03*
%TD*%
D27*
%TO.P,R16,1*%
%TO.N,Net-(Module1A-SD_CMD)*%
X78419995Y22500000D03*
%TO.P,R16,2*%
%TO.N,SD_CMD*%
X77779995Y22500000D03*
%TD*%
D16*
%TO.P,J18,1,Pin_1*%
%TO.N,GPIO7*%
X87299995Y105330000D03*
D17*
%TO.P,J18,2,Pin_2*%
%TO.N,VCC*%
X87299995Y102790000D03*
%TO.P,J18,3,Pin_3*%
%TO.N,GND*%
X87299995Y100250000D03*
%TD*%
D12*
%TO.P,R2,1*%
%TO.N,USB_CFG_SEL0*%
X32299995Y23025000D03*
%TO.P,R2,2*%
%TO.N,GND*%
X32299995Y23665000D03*
%TD*%
D20*
%TO.P,C5,1*%
%TO.N,AUDIO_OUT_L*%
X76049995Y118475000D03*
%TO.P,C5,2*%
%TO.N,Net-(C4-Pad1)*%
X76049995Y115525000D03*
%TD*%
D12*
%TO.P,C2,1*%
%TO.N,USB_XTAL_IN*%
X20799995Y27750000D03*
%TO.P,C2,2*%
%TO.N,GND*%
X20799995Y28390000D03*
%TD*%
%TO.P,R3,1*%
%TO.N,USB_RBIAS*%
X19799995Y23680000D03*
%TO.P,R3,2*%
%TO.N,GND*%
X19799995Y24320000D03*
%TD*%
D43*
%TO.P,IC1,1,USBDM_DN1/PRT_DIS_M1*%
%TO.N,Net-(IC1-USBDM_DN1{slash}PRT_DIS_M1)*%
X22949995Y21750000D03*
%TO.P,IC1,2,USBDP_DN1/PRT_DIS_P1*%
%TO.N,Net-(IC1-USBDP_DN1{slash}PRT_DIS_P1)*%
X22949995Y21250000D03*
%TO.P,IC1,3,USBDM_DN2/PRT_DIS_M2*%
%TO.N,Net-(IC1-USBDM_DN2{slash}PRT_DIS_M2)*%
X22949995Y20750000D03*
%TO.P,IC1,4,USBDP_DN2/PRT_DIS_P2*%
%TO.N,Net-(IC1-USBDP_DN2{slash}PRT_DIS_P2)*%
X22949995Y20250000D03*
%TO.P,IC1,5,VDDA33_1*%
%TO.N,3V3*%
X22949995Y19750000D03*
%TO.P,IC1,6,USBDM_DN3/PRT_DIS_M3*%
%TO.N,Net-(IC1-USBDM_DN3{slash}PRT_DIS_M3)*%
X22949995Y19250000D03*
%TO.P,IC1,7,USBDP_DN3/PRT_DIS_P3*%
%TO.N,Net-(IC1-USBDP_DN3{slash}PRT_DIS_P3)*%
X22949995Y18750000D03*
%TO.P,IC1,8,USBDM_DN4/PRT_DIS_M4*%
%TO.N,Net-(IC1-USBDM_DN4{slash}PRT_DIS_M4)*%
X22949995Y18250000D03*
%TO.P,IC1,9,USBDP_DN4/PRT_DIS_P4*%
%TO.N,Net-(IC1-USBDP_DN4{slash}PRT_DIS_P4)*%
X22949995Y17750000D03*
D44*
%TO.P,IC1,10,VDDA33_2*%
%TO.N,3V3*%
X23749995Y16950000D03*
%TO.P,IC1,11,TEST*%
%TO.N,unconnected-(IC1-TEST-Pad11)*%
X24249995Y16950000D03*
%TO.P,IC1,12,PRTPWR1/BC_EN1*%
%TO.N,unconnected-(IC1-PRTPWR1{slash}BC_EN1-Pad12)*%
X24749995Y16950000D03*
%TO.P,IC1,13,OCSN1*%
%TO.N,unconnected-(IC1-OCSN1-Pad13)*%
X25249995Y16950000D03*
%TO.P,IC1,14,CRFILT*%
%TO.N,unconnected-(IC1-CRFILT-Pad14)*%
X25749995Y16950000D03*
%TO.P,IC1,15,VDD33_1*%
%TO.N,3V3*%
X26249995Y16950000D03*
%TO.P,IC1,16,PRTPWR2/BC_EN2*%
%TO.N,unconnected-(IC1-PRTPWR2{slash}BC_EN2-Pad16)*%
X26749995Y16950000D03*
%TO.P,IC1,17,OCS_N2*%
%TO.N,unconnected-(IC1-OCS_N2-Pad17)*%
X27249995Y16950000D03*
%TO.P,IC1,18,PRTPWR3/BC_EN3*%
%TO.N,unconnected-(IC1-PRTPWR3{slash}BC_EN3-Pad18)*%
X27749995Y16950000D03*
D43*
%TO.P,IC1,19,OCS_N3*%
%TO.N,unconnected-(IC1-OCS_N3-Pad19)*%
X28549995Y17750000D03*
%TO.P,IC1,20,PRTPWR4/BC_EN4*%
%TO.N,unconnected-(IC1-PRTPWR4{slash}BC_EN4-Pad20)*%
X28549995Y18250000D03*
%TO.P,IC1,21,OCS_N4*%
%TO.N,unconnected-(IC1-OCS_N4-Pad21)*%
X28549995Y18750000D03*
%TO.P,IC1,22,SDA/SMBDATA/NONREM1*%
%TO.N,USB_CFG_SEL0*%
X28549995Y19250000D03*
%TO.P,IC1,23,VDD33_2*%
%TO.N,3V3*%
X28549995Y19750000D03*
%TO.P,IC1,24,SCL/SMBCLK/CFG_SEL0*%
%TO.N,USB_CFG_SEL0*%
X28549995Y20250000D03*
%TO.P,IC1,25,HS_IND/CFG_SEL1*%
X28549995Y20750000D03*
%TO.P,IC1,26,RESET_N*%
%TO.N,Net-(IC1-RESET_N)*%
X28549995Y21250000D03*
%TO.P,IC1,27,VBUS_DET*%
%TO.N,3V3*%
X28549995Y21750000D03*
D44*
%TO.P,IC1,28,SUSP_IND/LOCAL_PWR/NON_REM0*%
%TO.N,USB_CFG_SEL0*%
X27749995Y22550000D03*
%TO.P,IC1,29,VDDA33_3*%
%TO.N,3V3*%
X27249995Y22550000D03*
%TO.P,IC1,30,USBDM_UP*%
%TO.N,USB_D-*%
X26749995Y22550000D03*
%TO.P,IC1,31,USBDP_UP*%
%TO.N,USB_D+*%
X26249995Y22550000D03*
%TO.P,IC1,32,XTALOUT*%
%TO.N,USB_XTAL_OUT*%
X25749995Y22550000D03*
%TO.P,IC1,33,XTALIN/CLKIN*%
%TO.N,USB_XTAL_IN*%
X25249995Y22550000D03*
%TO.P,IC1,34,PLLFILT*%
%TO.N,unconnected-(IC1-PLLFILT-Pad34)*%
X24749995Y22550000D03*
%TO.P,IC1,35,RBIAS*%
%TO.N,USB_RBIAS*%
X24249995Y22550000D03*
%TO.P,IC1,36,VDDA33_4*%
%TO.N,3V3*%
X23749995Y22550000D03*
D45*
%TO.P,IC1,37,EP*%
%TO.N,GND*%
X25749995Y19750000D03*
%TD*%
D46*
%TO.N,3V3*%
X30299995Y17850000D03*
D47*
X30349995Y22000000D03*
X20899995Y22300000D03*
D46*
X21099995Y19650000D03*
X23749995Y15550000D03*
X30299995Y19750000D03*
%TO.N,GND*%
X84749995Y21100000D03*
D47*
X78549995Y106070000D03*
D46*
X80749995Y21200000D03*
D47*
X80974995Y113600000D03*
D48*
X96349995Y55100000D03*
D46*
X88749995Y21100000D03*
D48*
X12799995Y46500000D03*
X81049995Y16000000D03*
X99349995Y55100000D03*
X32299995Y23700000D03*
D47*
X76914995Y113600000D03*
D48*
X24299995Y28450000D03*
X93149995Y16000000D03*
D46*
X19849995Y89600000D03*
D48*
X26449995Y32115000D03*
D46*
X97749995Y128000000D03*
X87049995Y21500000D03*
X81949995Y55100000D03*
D48*
X87799995Y16000000D03*
X20799995Y28400000D03*
X85149995Y16000000D03*
X19799995Y24320000D03*
D47*
X80974995Y110100000D03*
D46*
X82499995Y49100000D03*
X19749995Y95000000D03*
D48*
X97699995Y55100000D03*
D46*
X11449995Y94900000D03*
D47*
X76849995Y120400000D03*
D46*
X11349995Y90200000D03*
D48*
X94999995Y55100000D03*
X25749995Y19750000D03*
D47*
X81029995Y120400000D03*
D46*
X93149995Y128000000D03*
X19749995Y92600000D03*
D48*
X93449995Y55100000D03*
D46*
X56074995Y21150000D03*
X83149995Y21100000D03*
D48*
X83149995Y16000000D03*
D47*
X76724995Y110100000D03*
D48*
X25949995Y27200000D03*
D46*
X11449995Y92900000D03*
X95149995Y21100000D03*
X99949995Y21100000D03*
D48*
X88749995Y16000000D03*
X78099995Y100600000D03*
D46*
X95149995Y128000000D03*
%TO.N,VCC*%
X33949995Y70150000D03*
X42799995Y49750000D03*
X102749995Y30600000D03*
D48*
X100299995Y122280000D03*
D46*
X102349995Y30200000D03*
X30799995Y123850000D03*
X103649995Y30700000D03*
X42799995Y46900000D03*
X28549995Y71100000D03*
X74649995Y81850000D03*
%TO.N,SD_DAT1*%
X74199995Y19500000D03*
X74299995Y21950000D03*
%TO.N,SD_DAT2*%
X71499995Y13550000D03*
X71499995Y21973000D03*
%TO.N,SD_DAT3*%
X72399995Y21973000D03*
X72249995Y14150000D03*
%TO.N,SD_DAT0*%
X73449995Y21973000D03*
X73449995Y19150000D03*
%TO.N,SD_CLK*%
X76149995Y21973000D03*
X76149995Y14800000D03*
%TO.N,USB_D+*%
X70749995Y48050000D03*
X78649995Y48050000D03*
%TO.N,USB_D-*%
X29026995Y34900000D03*
X78649995Y49050000D03*
X28999995Y36700000D03*
X70699995Y49050000D03*
%TO.N,HDMI_CEC*%
X100949995Y117000000D03*
X98949995Y117000000D03*
%TO.N,HDMI_SDA*%
X99549995Y118250000D03*
X100949995Y118250000D03*
X100549995Y49750000D03*
X99549995Y56250000D03*
%TO.N,GPIO7*%
X41749995Y49700000D03*
X79799995Y88500000D03*
X31799995Y69000000D03*
X41749995Y46900000D03*
%TO.N,LED_ACTIVITY*%
X25599995Y117300000D03*
X46449995Y46850000D03*
X32649995Y68150000D03*
X46449995Y49377000D03*
%TO.N,AUDIO_R*%
X86749995Y16050000D03*
X85799995Y21750000D03*
%TO.N,Net-(Module1A-SD_CMD)*%
X92799995Y21250000D03*
X79399995Y22500000D03*
%TD*%
D49*
%TO.N,Net-(D1-K)*%
X35859995Y128130000D02*
X35849995Y128120000D01*
X35859995Y129950000D02*
X35859995Y128130000D01*
%TO.N,3V3*%
X28549995Y19750000D02*
X30299995Y19750000D01*
X55746550Y77627003D02*
X53826998Y77627003D01*
X78099995Y101700000D02*
X77899995Y101500000D01*
X60569553Y80150000D02*
X58269547Y80150000D01*
X9022995Y22504544D02*
X14599995Y28081544D01*
X61907440Y78473003D02*
X61076995Y79303448D01*
X37953995Y20291552D02*
X37953995Y22146000D01*
X69172998Y78473003D02*
X61907440Y78473003D01*
X95949995Y20080000D02*
X95949995Y19000000D01*
X34699995Y17850000D02*
X30299995Y17850000D01*
X27249995Y23350000D02*
X27749995Y23850000D01*
X76549995Y101500000D02*
X76549995Y93050000D01*
X78099995Y102500000D02*
X78099995Y101700000D01*
X69249995Y77800003D02*
X68249995Y76800003D01*
X20381539Y22300000D02*
X20899995Y22300000D01*
X30299995Y16750000D02*
X30299995Y17850000D01*
X76549995Y93050000D02*
X76549995Y86900000D01*
X27749995Y23850000D02*
X28399995Y23850000D01*
X69249995Y78550000D02*
X69172998Y78473003D01*
X78549995Y105430000D02*
X78099995Y104980000D01*
X21199995Y22550000D02*
X21149995Y22550000D01*
X103868286Y31227000D02*
X105399995Y29695291D01*
X97549995Y19000000D02*
X100173995Y19000000D01*
X97149995Y20080000D02*
X97149995Y19000000D01*
X23749995Y22550000D02*
X21199995Y22550000D01*
X101149995Y29745291D02*
X102631704Y31227000D01*
X21149995Y22550000D02*
X20999995Y22400000D01*
X77899995Y101500000D02*
X76549995Y101500000D01*
X61076995Y79642558D02*
X60569553Y80150000D01*
X110547476Y4397481D02*
X13052514Y4397481D01*
X101149995Y19976000D02*
X101149995Y29745291D01*
X53099995Y76480448D02*
X52246550Y75627003D01*
X100173995Y19000000D02*
X101149995Y19976000D01*
X53826998Y77627003D02*
X53099995Y76900000D01*
X20999995Y22400000D02*
X20899995Y22300000D01*
X21199995Y19750000D02*
X21099995Y19650000D01*
X69249995Y79600000D02*
X69249995Y78550000D01*
X23749995Y16950000D02*
X23749995Y15550000D01*
X69249995Y78550000D02*
X69249995Y77800003D01*
X105399995Y21195227D02*
X114703995Y11891227D01*
X12799995Y53600000D02*
X14524995Y51875000D01*
X102631704Y31227000D02*
X103868286Y31227000D01*
X14524995Y51875000D02*
X14599995Y51800000D01*
X61076995Y79303448D02*
X61076995Y79642558D01*
X97549995Y20080000D02*
X97549995Y19000000D01*
X30099995Y21750000D02*
X30349995Y22000000D01*
X37953995Y22146000D02*
X32324995Y27775000D01*
X76549995Y86900000D02*
X69249995Y79600000D01*
X53099995Y76900000D02*
X53099995Y76480448D01*
X9022995Y8427000D02*
X9022995Y22504544D01*
X14599995Y28081544D02*
X20381539Y22300000D01*
X34699995Y17850000D02*
X35512443Y17850000D01*
X22949995Y19750000D02*
X21199995Y19750000D01*
X60899995Y117150000D02*
X76549995Y101500000D01*
X114703995Y8554000D02*
X110547476Y4397481D01*
X32324995Y27775000D02*
X28399995Y23850000D01*
X28549995Y21750000D02*
X30099995Y21750000D01*
X36499995Y129950000D02*
X52936302Y129950000D01*
X26249995Y16950000D02*
X26249995Y15550000D01*
X26249995Y15550000D02*
X29099995Y15550000D01*
X105399995Y29695291D02*
X105399995Y21195227D01*
X96749995Y19000000D02*
X95949995Y19000000D01*
X14524995Y52925000D02*
X14524995Y51875000D01*
X14599995Y51800000D02*
X14599995Y28081544D01*
X60899995Y121986307D02*
X60899995Y117150000D01*
X23799995Y15500000D02*
X26199995Y15500000D01*
X52936302Y129950000D02*
X60899995Y121986307D01*
X58269547Y80150000D02*
X55746550Y77627003D01*
X29099995Y15550000D02*
X30299995Y16750000D01*
X37226998Y75627003D02*
X14524995Y52925000D01*
X13052514Y4397481D02*
X9022995Y8427000D01*
X52246550Y75627003D02*
X37226998Y75627003D01*
X35512443Y17850000D02*
X37953995Y20291552D01*
X97549995Y19000000D02*
X96749995Y19000000D01*
X27249995Y22550000D02*
X27249995Y23350000D01*
X114703995Y11891227D02*
X114703995Y8554000D01*
X78099995Y104980000D02*
X78099995Y102500000D01*
%TO.N,GND*%
X85149995Y17000000D02*
X85149995Y16000000D01*
X83149995Y17000000D02*
X83149995Y16000000D01*
X87949995Y50920000D02*
X87949995Y49100000D01*
X95149995Y125600000D02*
X95049995Y125500000D01*
X81049995Y16000000D02*
X81949995Y16000000D01*
X93549995Y19500000D02*
X93549995Y20080000D01*
X99349995Y55100000D02*
X99949995Y54500000D01*
X98749995Y54500000D02*
X99349995Y55100000D01*
X89149995Y17000000D02*
X89149995Y16000000D01*
X93149995Y128000000D02*
X93149995Y125500000D01*
X90749995Y20080000D02*
X90749995Y21100000D01*
X99799995Y125500000D02*
X97749995Y125500000D01*
X87349995Y16000000D02*
X87799995Y16000000D01*
X93799995Y122280000D02*
X93799995Y125500000D01*
X84349995Y54000000D02*
X84349995Y55100000D01*
X92349995Y17000000D02*
X92349995Y17650000D01*
X92299995Y122280000D02*
X92299995Y125500000D01*
X99949995Y54500000D02*
X99949995Y54000000D01*
X86749995Y50920000D02*
X86749995Y49100000D01*
X91549995Y54000000D02*
X91549995Y55100000D01*
X91149995Y17600000D02*
X91149995Y17000000D01*
X95149995Y54950000D02*
X94999995Y55100000D01*
X92949995Y18900000D02*
X93549995Y19500000D01*
X99949995Y20080000D02*
X99949995Y21100000D01*
X93149995Y125500000D02*
X92299995Y125500000D01*
X90749995Y21100000D02*
X88749995Y21100000D01*
X81949995Y21100000D02*
X83149995Y21100000D01*
X95049995Y125500000D02*
X93799995Y125500000D01*
X95149995Y50920000D02*
X95149995Y49100000D01*
X97749995Y128000000D02*
X97749995Y125500000D01*
X81949995Y50920000D02*
X81949995Y49100000D01*
X92349995Y20080000D02*
X92349995Y19500000D01*
X97749995Y125500000D02*
X96799995Y125500000D01*
X97549995Y54950000D02*
X97699995Y55100000D01*
X87949995Y54000000D02*
X87949995Y55100000D01*
X86749995Y21100000D02*
X87049995Y21400000D01*
D50*
X82499995Y49100000D02*
X82099995Y49100000D01*
D49*
X86749995Y20080000D02*
X86749995Y21100000D01*
X98749995Y50920000D02*
X98749995Y49100000D01*
X85549995Y50920000D02*
X85549995Y49100000D01*
X94749995Y18300000D02*
X93549995Y19500000D01*
X93949995Y54000000D02*
X93949995Y54600000D01*
X92349995Y19500000D02*
X92949995Y18900000D01*
X99799995Y122280000D02*
X99799995Y125500000D01*
X89157838Y16007843D02*
X89149995Y16000000D01*
X83149995Y20080000D02*
X83149995Y21100000D01*
X81949995Y20080000D02*
X81949995Y21100000D01*
X81949995Y16000000D02*
X83149995Y16000000D01*
X97549995Y54000000D02*
X97549995Y54950000D01*
X80849995Y21100000D02*
X80749995Y21200000D01*
X93949995Y54600000D02*
X93449995Y55100000D01*
X84349995Y50920000D02*
X84349995Y49100000D01*
X96799995Y125500000D02*
X95299995Y125500000D01*
X81949995Y54000000D02*
X81949995Y55100000D01*
X85549995Y54000000D02*
X85549995Y55100000D01*
X80749995Y16000000D02*
X81049995Y16000000D01*
X84749995Y20080000D02*
X84749995Y21100000D01*
X93799995Y125500000D02*
X93149995Y125500000D01*
X87049995Y21400000D02*
X87049995Y21500000D01*
X95299995Y125500000D02*
X95049995Y125500000D01*
X81949995Y21100000D02*
X80849995Y21100000D01*
X93549995Y16400000D02*
X93149995Y16000000D01*
X87349995Y16000000D02*
X87349995Y16298529D01*
D50*
X99949995Y49100000D02*
X82499995Y49100000D01*
D49*
X99949995Y21100000D02*
X95149995Y21100000D01*
X63034495Y129928733D02*
X63034495Y130256500D01*
X83149995Y50920000D02*
X83149995Y49100000D01*
X87149995Y16498529D02*
X87149995Y17000000D01*
X83149995Y54000000D02*
X83149995Y55100000D01*
X89749995Y55100000D02*
X81949995Y55100000D01*
X92349995Y17650000D02*
X91199995Y17650000D01*
X90349995Y54000000D02*
X90349995Y55100000D01*
X97549995Y50920000D02*
X97549995Y49100000D01*
X93549995Y17000000D02*
X93549995Y16400000D01*
X94749995Y17000000D02*
X94749995Y18300000D01*
X96349995Y50920000D02*
X96349995Y49100000D01*
X91149995Y16115686D02*
X91042152Y16007843D01*
X91149995Y17000000D02*
X91149995Y16115686D01*
X99949995Y50920000D02*
X99949995Y49100000D01*
X91042152Y16007843D02*
X89157838Y16007843D01*
X24213995Y28390000D02*
X24299995Y28476000D01*
X91199995Y17650000D02*
X91149995Y17600000D01*
X95149995Y128000000D02*
X95149995Y125600000D01*
X92749995Y54000000D02*
X92749995Y55100000D01*
X95149995Y54000000D02*
X95149995Y54950000D01*
X89149995Y16000000D02*
X88749995Y16000000D01*
X80749995Y20080000D02*
X80749995Y21200000D01*
X95149995Y20080000D02*
X95149995Y21100000D01*
X96799995Y122280000D02*
X96799995Y125500000D01*
X80749995Y17000000D02*
X80749995Y16000000D01*
X88749995Y20080000D02*
X88749995Y21100000D01*
X89149995Y54000000D02*
X89149995Y55100000D01*
X93449995Y55100000D02*
X89749995Y55100000D01*
X93949995Y50920000D02*
X93949995Y49100000D01*
X98749995Y54000000D02*
X98749995Y54500000D01*
X92749995Y50920000D02*
X92749995Y49100000D01*
X86749995Y54000000D02*
X86749995Y55100000D01*
X81949995Y17000000D02*
X81949995Y16000000D01*
X96349995Y54000000D02*
X96349995Y55100000D01*
X93549995Y20080000D02*
X93549995Y21100000D01*
X95299995Y122280000D02*
X95299995Y125500000D01*
X91549995Y50920000D02*
X91549995Y49100000D01*
X95149995Y21100000D02*
X93549995Y21100000D01*
X87349995Y16298529D02*
X87149995Y16498529D01*
D50*
%TO.N,VCC*%
X114226995Y10223000D02*
X114226995Y8777000D01*
D49*
X33949995Y70150000D02*
X33904704Y70150000D01*
D50*
X18714525Y9360000D02*
X17537525Y8183000D01*
X104749995Y29600000D02*
X103649995Y30700000D01*
X97949995Y18100000D02*
X103149995Y18100000D01*
X107226995Y8183000D02*
X106049995Y9360000D01*
X42049995Y9360000D02*
X18714525Y9360000D01*
X113632995Y8183000D02*
X107226995Y8183000D01*
X75226995Y8183000D02*
X74049995Y9360000D01*
X11226995Y8183000D02*
X10049995Y9360000D01*
X102349995Y30200000D02*
X104749995Y27800000D01*
X104749995Y19700000D02*
X104749995Y27800000D01*
D49*
X97949995Y17000000D02*
X97949995Y18100000D01*
X97549995Y17000000D02*
X97549995Y18100000D01*
D50*
X104749995Y27800000D02*
X104749995Y28400000D01*
X43226995Y8183000D02*
X42049995Y9360000D01*
D49*
X96349995Y17000000D02*
X96349995Y18100000D01*
D50*
X104749995Y19700000D02*
X114226995Y10223000D01*
X96349995Y18100000D02*
X97949995Y18100000D01*
D49*
X69249995Y74800003D02*
X69249995Y75800003D01*
X95949995Y17000000D02*
X95949995Y17700000D01*
D50*
X103199995Y18150000D02*
X104749995Y19700000D01*
D49*
X69249995Y75800003D02*
X70249995Y76800003D01*
X97149995Y17000000D02*
X97149995Y18100000D01*
X32122995Y60427000D02*
X42799995Y49750000D01*
D50*
X82714525Y9360000D02*
X81537525Y8183000D01*
D49*
X96749995Y17000000D02*
X96749995Y18100000D01*
X95949995Y17700000D02*
X96349995Y18100000D01*
D50*
X102749995Y30600000D02*
X104749995Y28600000D01*
D49*
X42799995Y46900000D02*
X42799995Y31650001D01*
D50*
X114226995Y8777000D02*
X113632995Y8183000D01*
X30799995Y123900000D02*
X30799995Y123850000D01*
X103149995Y18100000D02*
X103199995Y18150000D01*
X104749995Y28600000D02*
X104749995Y28400000D01*
D49*
X18049995Y60600000D02*
X28549995Y71100000D01*
D50*
X17537525Y8183000D02*
X11226995Y8183000D01*
D49*
X70249995Y77450000D02*
X74649995Y81850000D01*
D50*
X81537525Y8183000D02*
X75226995Y8183000D01*
X106049995Y9360000D02*
X82714525Y9360000D01*
D49*
X33904704Y70150000D02*
X32122995Y68368291D01*
X70249995Y76800003D02*
X70249995Y77450000D01*
X12849995Y60600000D02*
X18049995Y60600000D01*
D50*
X51459995Y9360000D02*
X50282995Y8183000D01*
D49*
X55299996Y19150000D02*
X56074995Y19150000D01*
X42799995Y31650001D02*
X55299996Y19150000D01*
D50*
X30799995Y130100000D02*
X30799995Y123900000D01*
X104749995Y28400000D02*
X104749995Y29600000D01*
X74049995Y9360000D02*
X51459995Y9360000D01*
D49*
X32122995Y68368291D02*
X32122995Y60427000D01*
D50*
X50282995Y8183000D02*
X43226995Y8183000D01*
D49*
%TO.N,SD_DAT1*%
X75159995Y45546440D02*
X75159995Y45428440D01*
X74299995Y41298440D02*
X74299995Y41050000D01*
X74923995Y44012440D02*
X74299995Y44012440D01*
X74099995Y19500000D02*
X74199995Y19500000D01*
X74923995Y41652440D02*
X74535995Y41652440D01*
X63249995Y74761524D02*
X63249995Y74800003D01*
X74299995Y44012440D02*
X74025995Y44012440D01*
X75159995Y44366440D02*
X75159995Y44248440D01*
X74299995Y45192440D02*
X74025995Y45192440D01*
X63249995Y74800003D02*
X63249995Y61350000D01*
X74025995Y43422440D02*
X74299995Y43422440D01*
X74535995Y46372440D02*
X74299995Y46372440D01*
X74299995Y41050000D02*
X74299995Y21950000D01*
X74923995Y42832440D02*
X74299995Y42832440D01*
X74923995Y46372440D02*
X74535995Y46372440D01*
X75159995Y43186440D02*
X75159995Y43068440D01*
X74299995Y42832440D02*
X74025995Y42832440D01*
X74299995Y55400000D02*
X74299995Y47198440D01*
X75159995Y46726440D02*
X75159995Y46608440D01*
X74535995Y42242440D02*
X74923995Y42242440D01*
X74025995Y45782440D02*
X74299995Y45782440D01*
X67949995Y56650000D02*
X73049995Y56650000D01*
X73789995Y42596440D02*
X73789995Y42478440D01*
X74025995Y44602440D02*
X74299995Y44602440D01*
X73049995Y56650000D02*
X74299995Y55400000D01*
X74299995Y44602440D02*
X74923995Y44602440D01*
X73789995Y46136440D02*
X73789995Y46018440D01*
X74535995Y46962440D02*
X74923995Y46962440D01*
X63249995Y61350000D02*
X67949995Y56650000D01*
X74299995Y41416440D02*
X74299995Y41298440D01*
X74025995Y42242440D02*
X74299995Y42242440D01*
X74299995Y42242440D02*
X74535995Y42242440D01*
X74299995Y46372440D02*
X74025995Y46372440D01*
X73789995Y43776440D02*
X73789995Y43658440D01*
X74299995Y45782440D02*
X74923995Y45782440D01*
X73789995Y44956440D02*
X73789995Y44838440D01*
X74299995Y43422440D02*
X74923995Y43422440D01*
X74923995Y45192440D02*
X74299995Y45192440D01*
X75159995Y42006440D02*
X75159995Y41888440D01*
X75159995Y43068440D02*
G75*
G02*
X74923995Y42832400I-236000J-40D01*
G01*
X75159995Y46608440D02*
G75*
G02*
X74923995Y46372400I-236000J-40D01*
G01*
X74025995Y45192440D02*
G75*
G03*
X73789955Y44956440I0J-236040D01*
G01*
X74025995Y44012440D02*
G75*
G03*
X73789955Y43776440I0J-236040D01*
G01*
X74025995Y42832440D02*
G75*
G03*
X73789955Y42596440I0J-236040D01*
G01*
X73789995Y44838440D02*
G75*
G03*
X74025995Y44602400I236000J-40D01*
G01*
X73789995Y43658440D02*
G75*
G03*
X74025995Y43422400I236000J-40D01*
G01*
X74923995Y44602440D02*
G75*
G02*
X75160035Y44366440I0J-236040D01*
G01*
X74025995Y46372440D02*
G75*
G03*
X73789955Y46136440I0J-236040D01*
G01*
X74923995Y46962440D02*
G75*
G02*
X75160035Y46726440I0J-236040D01*
G01*
X75159995Y44248440D02*
G75*
G02*
X74923995Y44012400I-236000J-40D01*
G01*
X75159995Y45428440D02*
G75*
G02*
X74923995Y45192400I-236000J-40D01*
G01*
X74923995Y43422440D02*
G75*
G02*
X75160035Y43186440I0J-236040D01*
G01*
X73789995Y46018440D02*
G75*
G03*
X74025995Y45782400I236000J-40D01*
G01*
X75159995Y41888440D02*
G75*
G02*
X74923995Y41652400I-236000J-40D01*
G01*
X73789995Y42478440D02*
G75*
G03*
X74025995Y42242400I236000J-40D01*
G01*
X74535995Y41652440D02*
G75*
G03*
X74299955Y41416440I0J-236040D01*
G01*
X74923995Y42242440D02*
G75*
G02*
X75160035Y42006440I0J-236040D01*
G01*
X74299995Y47198440D02*
G75*
G03*
X74535995Y46962400I236000J-40D01*
G01*
X74923995Y45782440D02*
G75*
G02*
X75160035Y45546440I0J-236040D01*
G01*
%TO.N,SD_DAT2*%
X61977202Y76800003D02*
X62249995Y76800003D01*
X60149995Y74869558D02*
X60149995Y61250000D01*
X71499995Y13550000D02*
X71399995Y13550000D01*
X71499995Y38698385D02*
X71499995Y38578385D01*
X71789995Y38938385D02*
X71739995Y38938385D01*
X71499995Y38045194D02*
X71499995Y21973000D01*
X89959995Y13550000D02*
X71499995Y13550000D01*
X71499995Y38578385D02*
X71499995Y38045194D01*
X72029995Y39298385D02*
X72029995Y39178385D01*
X66199995Y55200000D02*
X70599995Y55200000D01*
X71739995Y39538385D02*
X71789995Y39538385D01*
X62080440Y76800003D02*
X60149995Y74869558D01*
X60149995Y61250000D02*
X66199995Y55200000D01*
X71499995Y54300000D02*
X71499995Y39778385D01*
X62249995Y76800003D02*
X62080440Y76800003D01*
X70599995Y55200000D02*
X71499995Y54300000D01*
X71789995Y39538385D02*
G75*
G02*
X72029980Y39298385I0J-239985D01*
G01*
X71499995Y39778385D02*
G75*
G03*
X71739995Y39538400I240000J15D01*
G01*
X71739995Y38938385D02*
G75*
G03*
X71500010Y38698385I0J-239985D01*
G01*
X72029995Y39178385D02*
G75*
G02*
X71789995Y38938400I-240000J15D01*
G01*
%TO.N,SD_DAT3*%
X72735995Y33196000D02*
X72643995Y33196000D01*
X72399995Y41247188D02*
X72399995Y40650000D01*
X72399995Y42372188D02*
X72534995Y42372188D01*
X72979995Y31122000D02*
X72979995Y31000000D01*
X61249995Y74800003D02*
X61249995Y61400000D01*
X66799995Y55850000D02*
X71199995Y55850000D01*
X72399995Y40650000D02*
X72399995Y39753357D01*
X61249995Y61400000D02*
X66799995Y55850000D01*
X87634995Y14150000D02*
X72249995Y14150000D01*
X72399995Y29902000D02*
X72399995Y29780000D01*
X72113995Y31366000D02*
X72399995Y31366000D01*
X71869995Y30512000D02*
X71869995Y30390000D01*
X72759995Y39393357D02*
X72759995Y38803357D01*
X72399995Y29350000D02*
X72399995Y21973000D01*
X72979995Y32342000D02*
X72979995Y32220000D01*
X72155995Y30756000D02*
X72113995Y30756000D01*
X72399995Y41607188D02*
X72399995Y41247188D01*
X72399995Y38443357D02*
X72399995Y37853357D01*
X72399995Y37611072D02*
X72399995Y34050000D01*
X72979995Y33562000D02*
X72979995Y33440000D01*
X72113995Y30146000D02*
X72155995Y30146000D01*
X72399995Y32586000D02*
X72735995Y32586000D01*
X72669995Y43497188D02*
X72669995Y43137188D01*
X72129995Y42867188D02*
X72129995Y42507188D01*
X72399995Y30756000D02*
X72155995Y30756000D01*
X72735995Y30756000D02*
X72399995Y30756000D01*
X72399995Y31976000D02*
X72113995Y31976000D01*
X71199995Y55850000D02*
X72399995Y54650000D01*
X71869995Y31732000D02*
X71869995Y31610000D01*
X72669995Y42237188D02*
X72669995Y41877188D01*
X72643995Y33196000D02*
X72399995Y33196000D01*
X72399995Y29780000D02*
X72399995Y29350000D01*
X72113995Y32586000D02*
X72399995Y32586000D01*
X72399995Y31366000D02*
X72735995Y31366000D01*
X72643995Y33806000D02*
X72735995Y33806000D01*
X72399995Y54650000D02*
X72399995Y43767188D01*
X72399995Y33196000D02*
X72113995Y33196000D01*
X72264995Y42372188D02*
X72399995Y42372188D01*
X72534995Y43002188D02*
X72399995Y43002188D01*
X72399995Y43002188D02*
X72264995Y43002188D01*
X71869995Y32952000D02*
X71869995Y32830000D01*
X72735995Y31976000D02*
X72399995Y31976000D01*
X72399995Y37853357D02*
X72399995Y37611072D01*
X72113995Y33196000D02*
G75*
G03*
X71869995Y32952000I0J-244000D01*
G01*
X72735995Y33806000D02*
G75*
G02*
X72979995Y33562000I0J-244000D01*
G01*
X71869995Y31610000D02*
G75*
G03*
X72113995Y31366000I244000J0D01*
G01*
X72264995Y43002188D02*
G75*
G03*
X72130007Y42867188I0J-134988D01*
G01*
X72979995Y31000000D02*
G75*
G02*
X72735995Y30756000I-244000J0D01*
G01*
X71869995Y30390000D02*
G75*
G03*
X72113995Y30146000I244000J0D01*
G01*
X72399995Y43767188D02*
G75*
G03*
X72534995Y43632200I135000J12D01*
G01*
X72735995Y31366000D02*
G75*
G02*
X72979995Y31122000I0J-244000D01*
G01*
X72759995Y38803357D02*
G75*
G02*
X72579995Y38623400I-180000J43D01*
G01*
X72399995Y34050000D02*
G75*
G03*
X72643995Y33806000I244000J0D01*
G01*
X72979995Y33440000D02*
G75*
G02*
X72735995Y33196000I-244000J0D01*
G01*
X72113995Y31976000D02*
G75*
G03*
X71869995Y31732000I0J-244000D01*
G01*
X72399995Y39753357D02*
G75*
G03*
X72579995Y39573400I180000J43D01*
G01*
X72534995Y41742188D02*
G75*
G03*
X72400007Y41607188I0J-134988D01*
G01*
X72129995Y42507188D02*
G75*
G03*
X72264995Y42372200I135000J12D01*
G01*
X72735995Y32586000D02*
G75*
G02*
X72979995Y32342000I0J-244000D01*
G01*
X72113995Y30756000D02*
G75*
G03*
X71869995Y30512000I0J-244000D01*
G01*
X72579995Y38623357D02*
G75*
G03*
X72400038Y38443357I0J-179957D01*
G01*
X72534995Y42372188D02*
G75*
G02*
X72669983Y42237188I0J-134988D01*
G01*
X72669995Y43137188D02*
G75*
G02*
X72534995Y43002200I-135000J12D01*
G01*
X72979995Y32220000D02*
G75*
G02*
X72735995Y31976000I-244000J0D01*
G01*
X72669995Y41877188D02*
G75*
G02*
X72534995Y41742200I-135000J12D01*
G01*
X72155995Y30146000D02*
G75*
G02*
X72399995Y29902000I0J-244000D01*
G01*
X72579995Y39573357D02*
G75*
G02*
X72759952Y39393357I0J-179957D01*
G01*
X71869995Y32830000D02*
G75*
G03*
X72113995Y32586000I244000J0D01*
G01*
X72534995Y43632188D02*
G75*
G02*
X72669983Y43497188I0J-134988D01*
G01*
%TO.N,SD_CMD*%
X77359995Y40298000D02*
X77359995Y40220000D01*
X76749995Y44744000D02*
X76619995Y44744000D01*
X76749995Y22500000D02*
X77779995Y22500000D01*
X76619995Y43574000D02*
X76749995Y43574000D01*
X76619995Y42014000D02*
X76749995Y42014000D01*
X76749995Y37568000D02*
X76749995Y37490000D01*
X77359995Y36398000D02*
X77359995Y36320000D01*
X76619995Y44354000D02*
X76749995Y44354000D01*
X76905995Y39674000D02*
X77203995Y39674000D01*
X76749995Y42794000D02*
X77203995Y42794000D01*
X76749995Y42404000D02*
X76619995Y42404000D01*
X72999995Y57700000D02*
X76749995Y53950000D01*
X65249995Y74800003D02*
X65249995Y61400000D01*
X77359995Y43418000D02*
X77359995Y43340000D01*
X76905995Y38114000D02*
X77203995Y38114000D01*
X76619995Y42794000D02*
X76749995Y42794000D01*
X77203995Y36164000D02*
X76905995Y36164000D01*
X76905995Y40454000D02*
X77203995Y40454000D01*
X76749995Y45524000D02*
X76619995Y45524000D01*
X76905995Y38894000D02*
X77203995Y38894000D01*
X76749995Y43964000D02*
X76619995Y43964000D01*
X76619995Y41234000D02*
X76749995Y41234000D01*
X77203995Y42404000D02*
X76749995Y42404000D01*
X76489995Y41494000D02*
X76489995Y41364000D01*
X76489995Y43054000D02*
X76489995Y42924000D01*
X76905995Y35774000D02*
X77203995Y35774000D01*
X76749995Y45914000D02*
X77203995Y45914000D01*
X76749995Y42014000D02*
X77203995Y42014000D01*
X76749995Y38348000D02*
X76749995Y38270000D01*
X77203995Y44744000D02*
X76749995Y44744000D01*
X76489995Y45394000D02*
X76489995Y45264000D01*
X76749995Y35228000D02*
X76749995Y35150000D01*
X77359995Y39518000D02*
X77359995Y39440000D01*
X77203995Y46304000D02*
X76905995Y46304000D01*
X77359995Y35618000D02*
X77359995Y35540000D01*
X76749995Y41234000D02*
X76905995Y41234000D01*
X77203995Y38504000D02*
X76905995Y38504000D01*
X77203995Y36944000D02*
X76905995Y36944000D01*
X76905995Y36554000D02*
X77203995Y36554000D01*
X76749995Y44354000D02*
X77203995Y44354000D01*
X76619995Y45914000D02*
X76749995Y45914000D01*
X76489995Y43834000D02*
X76489995Y43704000D01*
X77359995Y41858000D02*
X77359995Y41780000D01*
X77359995Y44198000D02*
X77359995Y44120000D01*
X77203995Y45524000D02*
X76749995Y45524000D01*
X77359995Y45758000D02*
X77359995Y45680000D01*
X77203995Y39284000D02*
X76905995Y39284000D01*
X77359995Y41078000D02*
X77359995Y41000000D01*
X76749995Y41624000D02*
X76619995Y41624000D01*
X76749995Y36788000D02*
X76749995Y36710000D01*
X77359995Y46538000D02*
X77359995Y46460000D01*
X77203995Y43964000D02*
X76749995Y43964000D01*
X76749995Y34800000D02*
X76749995Y22500000D01*
X77203995Y43184000D02*
X76749995Y43184000D01*
X76749995Y46304000D02*
X76619995Y46304000D01*
X76489995Y44614000D02*
X76489995Y44484000D01*
X77203995Y35384000D02*
X76905995Y35384000D01*
X76749995Y39908000D02*
X76749995Y39830000D01*
X76905995Y46694000D02*
X77203995Y46694000D01*
X76749995Y45134000D02*
X77203995Y45134000D01*
X77203995Y37724000D02*
X76905995Y37724000D01*
X76749995Y53950000D02*
X76749995Y46850000D01*
X76749995Y43184000D02*
X76619995Y43184000D01*
X77359995Y44978000D02*
X77359995Y44900000D01*
X76749995Y43574000D02*
X77203995Y43574000D01*
X76489995Y42274000D02*
X76489995Y42144000D01*
X76749995Y39128000D02*
X76749995Y39050000D01*
X77203995Y40844000D02*
X76905995Y40844000D01*
X68949995Y57700000D02*
X72999995Y57700000D01*
X77359995Y37178000D02*
X77359995Y37100000D01*
X76749995Y35150000D02*
X76749995Y34800000D01*
X76905995Y37334000D02*
X77203995Y37334000D01*
X76749995Y40688000D02*
X76749995Y40610000D01*
X76749995Y36008000D02*
X76749995Y35930000D01*
X65249995Y61400000D02*
X68949995Y57700000D01*
X76905995Y41234000D02*
X77203995Y41234000D01*
X77203995Y40064000D02*
X76905995Y40064000D01*
X77203995Y41624000D02*
X76749995Y41624000D01*
X76489995Y46174000D02*
X76489995Y46044000D01*
X77359995Y37958000D02*
X77359995Y37880000D01*
X76619995Y45134000D02*
X76749995Y45134000D01*
X77359995Y42638000D02*
X77359995Y42560000D01*
X77359995Y38738000D02*
X77359995Y38660000D01*
X76905995Y46304000D02*
X76749995Y46304000D01*
X76905995Y36944000D02*
G75*
G03*
X76749995Y36788000I0J-156000D01*
G01*
X76619995Y41624000D02*
G75*
G03*
X76489995Y41494000I0J-130000D01*
G01*
X77359995Y40220000D02*
G75*
G02*
X77203995Y40064000I-156000J0D01*
G01*
X77203995Y38114000D02*
G75*
G02*
X77359995Y37958000I0J-156000D01*
G01*
X76749995Y39830000D02*
G75*
G03*
X76905995Y39674000I156000J0D01*
G01*
X76905995Y40844000D02*
G75*
G03*
X76749995Y40688000I0J-156000D01*
G01*
X77203995Y40454000D02*
G75*
G02*
X77359995Y40298000I0J-156000D01*
G01*
X77359995Y39440000D02*
G75*
G02*
X77203995Y39284000I-156000J0D01*
G01*
X77359995Y36320000D02*
G75*
G02*
X77203995Y36164000I-156000J0D01*
G01*
X76749995Y46850000D02*
G75*
G03*
X76905995Y46694000I156000J0D01*
G01*
X76905995Y39284000D02*
G75*
G03*
X76749995Y39128000I0J-156000D01*
G01*
X77359995Y42560000D02*
G75*
G02*
X77203995Y42404000I-156000J0D01*
G01*
X76749995Y36710000D02*
G75*
G03*
X76905995Y36554000I156000J0D01*
G01*
X76905995Y37724000D02*
G75*
G03*
X76749995Y37568000I0J-156000D01*
G01*
X77359995Y37100000D02*
G75*
G02*
X77203995Y36944000I-156000J0D01*
G01*
X76489995Y46044000D02*
G75*
G03*
X76619995Y45914000I130000J0D01*
G01*
X76489995Y45264000D02*
G75*
G03*
X76619995Y45134000I130000J0D01*
G01*
X77359995Y44900000D02*
G75*
G02*
X77203995Y44744000I-156000J0D01*
G01*
X77359995Y43340000D02*
G75*
G02*
X77203995Y43184000I-156000J0D01*
G01*
X76619995Y43964000D02*
G75*
G03*
X76489995Y43834000I0J-130000D01*
G01*
X77359995Y41000000D02*
G75*
G02*
X77203995Y40844000I-156000J0D01*
G01*
X77203995Y41234000D02*
G75*
G02*
X77359995Y41078000I0J-156000D01*
G01*
X76489995Y43704000D02*
G75*
G03*
X76619995Y43574000I130000J0D01*
G01*
X76619995Y42404000D02*
G75*
G03*
X76489995Y42274000I0J-130000D01*
G01*
X76905995Y35384000D02*
G75*
G03*
X76749995Y35228000I0J-156000D01*
G01*
X77203995Y46694000D02*
G75*
G02*
X77359995Y46538000I0J-156000D01*
G01*
X77359995Y38660000D02*
G75*
G02*
X77203995Y38504000I-156000J0D01*
G01*
X76619995Y45524000D02*
G75*
G03*
X76489995Y45394000I0J-130000D01*
G01*
X76905995Y36164000D02*
G75*
G03*
X76749995Y36008000I0J-156000D01*
G01*
X76489995Y41364000D02*
G75*
G03*
X76619995Y41234000I130000J0D01*
G01*
X77203995Y39674000D02*
G75*
G02*
X77359995Y39518000I0J-156000D01*
G01*
X77359995Y37880000D02*
G75*
G02*
X77203995Y37724000I-156000J0D01*
G01*
X77359995Y46460000D02*
G75*
G02*
X77203995Y46304000I-156000J0D01*
G01*
X76905995Y40064000D02*
G75*
G03*
X76749995Y39908000I0J-156000D01*
G01*
X77203995Y43574000D02*
G75*
G02*
X77359995Y43418000I0J-156000D01*
G01*
X77359995Y35540000D02*
G75*
G02*
X77203995Y35384000I-156000J0D01*
G01*
X77203995Y36554000D02*
G75*
G02*
X77359995Y36398000I0J-156000D01*
G01*
X77359995Y41780000D02*
G75*
G02*
X77203995Y41624000I-156000J0D01*
G01*
X76619995Y44744000D02*
G75*
G03*
X76489995Y44614000I0J-130000D01*
G01*
X76749995Y38270000D02*
G75*
G03*
X76905995Y38114000I156000J0D01*
G01*
X76749995Y39050000D02*
G75*
G03*
X76905995Y38894000I156000J0D01*
G01*
X77203995Y38894000D02*
G75*
G02*
X77359995Y38738000I0J-156000D01*
G01*
X76489995Y42144000D02*
G75*
G03*
X76619995Y42014000I130000J0D01*
G01*
X77203995Y42794000D02*
G75*
G02*
X77359995Y42638000I0J-156000D01*
G01*
X76619995Y43184000D02*
G75*
G03*
X76489995Y43054000I0J-130000D01*
G01*
X76749995Y37490000D02*
G75*
G03*
X76905995Y37334000I156000J0D01*
G01*
X76749995Y40610000D02*
G75*
G03*
X76905995Y40454000I156000J0D01*
G01*
X76749995Y35930000D02*
G75*
G03*
X76905995Y35774000I156000J0D01*
G01*
X77203995Y42014000D02*
G75*
G02*
X77359995Y41858000I0J-156000D01*
G01*
X76489995Y42924000D02*
G75*
G03*
X76619995Y42794000I130000J0D01*
G01*
X77203995Y45914000D02*
G75*
G02*
X77359995Y45758000I0J-156000D01*
G01*
X77203995Y35774000D02*
G75*
G02*
X77359995Y35618000I0J-156000D01*
G01*
X77203995Y37334000D02*
G75*
G02*
X77359995Y37178000I0J-156000D01*
G01*
X76489995Y44484000D02*
G75*
G03*
X76619995Y44354000I130000J0D01*
G01*
X76905995Y38504000D02*
G75*
G03*
X76749995Y38348000I0J-156000D01*
G01*
X77203995Y44354000D02*
G75*
G02*
X77359995Y44198000I0J-156000D01*
G01*
X77203995Y45134000D02*
G75*
G02*
X77359995Y44978000I0J-156000D01*
G01*
X76619995Y46304000D02*
G75*
G03*
X76489995Y46174000I0J-130000D01*
G01*
X77359995Y45680000D02*
G75*
G02*
X77203995Y45524000I-156000J0D01*
G01*
X77359995Y44120000D02*
G75*
G02*
X77203995Y43964000I-156000J0D01*
G01*
%TO.N,SD_DAT0*%
X73709995Y25236150D02*
X73449995Y25236150D01*
X73449995Y23676150D02*
X73449995Y22950000D01*
X73449995Y25836150D02*
X73709995Y25836150D01*
X73449995Y27636150D02*
X72989995Y27636150D01*
X73449995Y26436150D02*
X72989995Y26436150D01*
X73949995Y29196150D02*
X73949995Y29076150D01*
X73689995Y28836150D02*
X73449995Y28836150D01*
X73709995Y28836150D02*
X73689995Y28836150D01*
X73449995Y23796150D02*
X73449995Y23676150D01*
X72989995Y24636150D02*
X73449995Y24636150D01*
X73949995Y24396150D02*
X73949995Y24276150D01*
X72749995Y26196150D02*
X72749995Y26076150D01*
X64249995Y76800003D02*
X64080440Y76800003D01*
X73689995Y24636150D02*
X73709995Y24636150D01*
X72989995Y28236150D02*
X73449995Y28236150D01*
X64080440Y76800003D02*
X62349995Y75069558D01*
X73949995Y26796150D02*
X73949995Y26676150D01*
X73709995Y27636150D02*
X73449995Y27636150D01*
X62349995Y61350000D02*
X67376995Y56323000D01*
X63977202Y76800003D02*
X64249995Y76800003D01*
X67376995Y56323000D02*
X72914547Y56323000D01*
X72749995Y24996150D02*
X72749995Y24876150D01*
X73709995Y26436150D02*
X73449995Y26436150D01*
X72914547Y56323000D02*
X73449995Y55787552D01*
X73449995Y28236150D02*
X73709995Y28236150D01*
X73449995Y25236150D02*
X72989995Y25236150D01*
X62349995Y75069558D02*
X62349995Y61350000D01*
X73949995Y25596150D02*
X73949995Y25476150D01*
X72749995Y28596150D02*
X72749995Y28476150D01*
X73709995Y24036150D02*
X73689995Y24036150D01*
X73949995Y27996150D02*
X73949995Y27876150D01*
X72989995Y25836150D02*
X73449995Y25836150D01*
X73449995Y55787552D02*
X73449995Y29676150D01*
X73449995Y24636150D02*
X73689995Y24636150D01*
X73689995Y29436150D02*
X73709995Y29436150D01*
X73449995Y27036150D02*
X73709995Y27036150D01*
X73449995Y28836150D02*
X72989995Y28836150D01*
X72749995Y27396150D02*
X72749995Y27276150D01*
X72989995Y27036150D02*
X73449995Y27036150D01*
X73449995Y22950000D02*
X73449995Y21973000D01*
X72749995Y27276150D02*
G75*
G03*
X72989995Y27036100I240000J-50D01*
G01*
X73949995Y25476150D02*
G75*
G02*
X73709995Y25236100I-240000J-50D01*
G01*
X72989995Y27636150D02*
G75*
G03*
X72750045Y27396150I0J-239950D01*
G01*
X72989995Y28836150D02*
G75*
G03*
X72750045Y28596150I0J-239950D01*
G01*
X73709995Y27036150D02*
G75*
G02*
X73949945Y26796150I0J-239950D01*
G01*
X72749995Y26076150D02*
G75*
G03*
X72989995Y25836100I240000J-50D01*
G01*
X73709995Y25836150D02*
G75*
G02*
X73949945Y25596150I0J-239950D01*
G01*
X73949995Y29076150D02*
G75*
G02*
X73709995Y28836100I-240000J-50D01*
G01*
X72749995Y28476150D02*
G75*
G03*
X72989995Y28236100I240000J-50D01*
G01*
X73949995Y27876150D02*
G75*
G02*
X73709995Y27636100I-240000J-50D01*
G01*
X72989995Y25236150D02*
G75*
G03*
X72750045Y24996150I0J-239950D01*
G01*
X73949995Y24276150D02*
G75*
G02*
X73709995Y24036100I-240000J-50D01*
G01*
X73449995Y29676150D02*
G75*
G03*
X73689995Y29436100I240000J-50D01*
G01*
X73709995Y29436150D02*
G75*
G02*
X73949945Y29196150I0J-239950D01*
G01*
X72989995Y26436150D02*
G75*
G03*
X72750045Y26196150I0J-239950D01*
G01*
X73689995Y24036150D02*
G75*
G03*
X73450045Y23796150I0J-239950D01*
G01*
X73709995Y28236150D02*
G75*
G02*
X73949945Y27996150I0J-239950D01*
G01*
X72749995Y24876150D02*
G75*
G03*
X72989995Y24636100I240000J-50D01*
G01*
X73949995Y26676150D02*
G75*
G02*
X73709995Y26436100I-240000J-50D01*
G01*
X73709995Y24636150D02*
G75*
G02*
X73949945Y24396150I0J-239950D01*
G01*
%TO.N,SD_CLK*%
X75439995Y30276900D02*
X75439995Y30160900D01*
X76149995Y29696900D02*
X76149995Y29580900D01*
X72912443Y57250000D02*
X74626995Y55535448D01*
X76279995Y30508900D02*
X76149995Y30508900D01*
X75561995Y39538313D02*
X76149995Y39538313D01*
X76149995Y34050000D02*
X76149995Y31218900D01*
X76269995Y37648313D02*
X76149995Y37648313D01*
X76149995Y35758313D02*
X76269995Y35758313D01*
X64249995Y74969558D02*
X64249995Y61300000D01*
X76389995Y40678313D02*
X76389995Y40288313D01*
X76149995Y38278313D02*
X76269995Y38278313D01*
X76149995Y37018313D02*
X76269995Y37018313D01*
X76149995Y29200000D02*
X76149995Y21973000D01*
X75917995Y30508900D02*
X75671995Y30508900D01*
X76269995Y38908313D02*
X76149995Y38908313D01*
X76389995Y36898313D02*
X76389995Y36508313D01*
X76149995Y36388313D02*
X75561995Y36388313D01*
X76149995Y35008313D02*
X76149995Y34618313D01*
X76149995Y40168313D02*
X75561995Y40168313D01*
X75309995Y38656313D02*
X75309995Y38530313D01*
X76389995Y38158313D02*
X76389995Y37768313D01*
X66249995Y76800003D02*
X66080440Y76800003D01*
X76269995Y40168313D02*
X76149995Y40168313D01*
X76149995Y34618313D02*
X76149995Y34050000D01*
X76149995Y38908313D02*
X75561995Y38908313D01*
X76269995Y36388313D02*
X76149995Y36388313D01*
X76149995Y29580900D02*
X76149995Y29200000D01*
X75561995Y37018313D02*
X76149995Y37018313D01*
X76389995Y35638313D02*
X76389995Y35248313D01*
X75561995Y35758313D02*
X76149995Y35758313D01*
X64249995Y61300000D02*
X68299995Y57250000D01*
X68299995Y57250000D02*
X72912443Y57250000D01*
X76149995Y30508900D02*
X75917995Y30508900D01*
X66080440Y76800003D02*
X64249995Y74969558D01*
X74626995Y55535448D02*
X74626995Y53773000D01*
X75309995Y37396313D02*
X75309995Y37270313D01*
X76389995Y39418313D02*
X76389995Y39028313D01*
X75561995Y38278313D02*
X76149995Y38278313D01*
X76149995Y39538313D02*
X76269995Y39538313D01*
X76409995Y30958900D02*
X76409995Y30638900D01*
X75671995Y29928900D02*
X75917995Y29928900D01*
X89079995Y14800000D02*
X76149995Y14800000D01*
X74626995Y53773000D02*
X76149995Y52250000D01*
X75309995Y39916313D02*
X75309995Y39790313D01*
X75309995Y36136313D02*
X75309995Y36010313D01*
X76149995Y52250000D02*
X76149995Y40918313D01*
X76149995Y37648313D02*
X75561995Y37648313D01*
X76389995Y35248313D02*
G75*
G02*
X76269995Y35128300I-120000J-13D01*
G01*
X76389995Y40288313D02*
G75*
G02*
X76269995Y40168300I-120000J-13D01*
G01*
X76389995Y37768313D02*
G75*
G02*
X76269995Y37648300I-120000J-13D01*
G01*
X76269995Y38278313D02*
G75*
G02*
X76390008Y38158313I0J-120013D01*
G01*
X76269995Y37018313D02*
G75*
G02*
X76390008Y36898313I0J-120013D01*
G01*
X75561995Y40168313D02*
G75*
G03*
X75309982Y39916313I0J-252013D01*
G01*
X75561995Y36388313D02*
G75*
G03*
X75309982Y36136313I0J-252013D01*
G01*
X76269995Y35128313D02*
G75*
G03*
X76149982Y35008313I0J-120013D01*
G01*
X76269995Y40798313D02*
G75*
G02*
X76390008Y40678313I0J-120013D01*
G01*
X75439995Y30160900D02*
G75*
G03*
X75671995Y29928900I232000J0D01*
G01*
X76269995Y39538313D02*
G75*
G02*
X76390008Y39418313I0J-120013D01*
G01*
X76389995Y39028313D02*
G75*
G02*
X76269995Y38908300I-120000J-13D01*
G01*
X75309995Y36010313D02*
G75*
G03*
X75561995Y35758300I252000J-13D01*
G01*
X76149995Y40918313D02*
G75*
G03*
X76269995Y40798300I120000J-13D01*
G01*
X76389995Y36508313D02*
G75*
G02*
X76269995Y36388300I-120000J-13D01*
G01*
X75561995Y38908313D02*
G75*
G03*
X75309982Y38656313I0J-252013D01*
G01*
X75561995Y37648313D02*
G75*
G03*
X75309982Y37396313I0J-252013D01*
G01*
X75309995Y39790313D02*
G75*
G03*
X75561995Y39538300I252000J-13D01*
G01*
X75309995Y37270313D02*
G75*
G03*
X75561995Y37018300I252000J-13D01*
G01*
X76279995Y31088900D02*
G75*
G02*
X76409995Y30958900I0J-130000D01*
G01*
X75917995Y29928900D02*
G75*
G02*
X76149995Y29696900I0J-232000D01*
G01*
X76409995Y30638900D02*
G75*
G02*
X76279995Y30508900I-130000J0D01*
G01*
X76269995Y35758313D02*
G75*
G02*
X76390008Y35638313I0J-120013D01*
G01*
X75671995Y30508900D02*
G75*
G03*
X75439995Y30276900I0J-232000D01*
G01*
X75309995Y38530313D02*
G75*
G03*
X75561995Y38278300I252000J-13D01*
G01*
X76149995Y31218900D02*
G75*
G03*
X76279995Y31088900I130000J0D01*
G01*
%TO.N,USB_D+*%
X41349995Y48050000D02*
X70749995Y48050000D01*
X28499995Y35200000D02*
X41349995Y48050000D01*
X78649995Y48050000D02*
X79246443Y48050000D01*
X28499995Y35200000D02*
X27949995Y34650000D01*
X27949995Y34650000D02*
X27949995Y26300000D01*
X26249995Y24600000D02*
X26249995Y22550000D01*
X27949995Y26300000D02*
X26249995Y24600000D01*
X79246443Y48050000D02*
X81549995Y50353552D01*
X81549995Y50353552D02*
X81549995Y50920000D01*
%TO.N,USB_D-*%
X81149995Y50416000D02*
X81149995Y50920000D01*
X70499995Y48850000D02*
X70699995Y49050000D01*
X29026995Y34900000D02*
X29026995Y25727000D01*
X41149995Y48850000D02*
X70499995Y48850000D01*
X29026995Y25727000D02*
X26749995Y23450000D01*
X26749995Y23450000D02*
X26749995Y22550000D01*
X78649995Y49050000D02*
X79783995Y49050000D01*
X79783995Y49050000D02*
X81149995Y50416000D01*
X28999995Y36700000D02*
X41149995Y48850000D01*
%TO.N,HDMI_D2+*%
X91799995Y120730000D02*
X91799995Y122280000D01*
X94349995Y54662448D02*
X93999995Y55012448D01*
X93999995Y55012448D02*
X93999995Y118530000D01*
X94349995Y54000000D02*
X94349995Y54662448D01*
X93999995Y118530000D02*
X91799995Y120730000D01*
%TO.N,HDMI_CEC*%
X100799995Y116850000D02*
X100799995Y53400000D01*
X97799995Y120795686D02*
X97799995Y122280000D01*
X90749995Y53350000D02*
X90749995Y50920000D01*
X100749995Y53350000D02*
X90749995Y53350000D01*
X100949995Y117000000D02*
X100799995Y116850000D01*
X100799995Y53400000D02*
X100749995Y53350000D01*
X98949995Y117000000D02*
X98949995Y119645686D01*
X98949995Y119645686D02*
X97799995Y120795686D01*
%TO.N,CARD_PRESENT*%
X49143319Y76200003D02*
X21943322Y103400000D01*
X52249995Y76800003D02*
X51649995Y76200003D01*
X21943322Y103400000D02*
X18129995Y103400000D01*
X16674995Y111750000D02*
X16649995Y111725000D01*
X16649995Y104880000D02*
X18129995Y103400000D01*
X16649995Y111725000D02*
X16649995Y104880000D01*
X51649995Y76200003D02*
X49143319Y76200003D01*
X18569995Y103840000D02*
X18129995Y103400000D01*
%TO.N,HDMI_D0+*%
X96749995Y54700000D02*
X96799995Y54750000D01*
X96749995Y54000000D02*
X96749995Y54700000D01*
X96799995Y118795686D02*
X94799995Y120795686D01*
X96799995Y54750000D02*
X96799995Y118795686D01*
X94799995Y120795686D02*
X94799995Y122280000D01*
%TO.N,HDMI_SCL*%
X100349995Y54000000D02*
X100349995Y119180000D01*
X100349995Y119180000D02*
X98799995Y120730000D01*
X98799995Y120730000D02*
X98799995Y122280000D01*
%TO.N,HDMI_D1+*%
X93299995Y120730000D02*
X93299995Y122280000D01*
X95549995Y118480000D02*
X93299995Y120730000D01*
X95549995Y54000000D02*
X95549995Y118480000D01*
%TO.N,HDMI_D1-*%
X95949995Y54000000D02*
X95949995Y54650000D01*
X94299995Y120730000D02*
X94299995Y122280000D01*
X95899995Y119130000D02*
X94299995Y120730000D01*
X95899995Y54700000D02*
X95899995Y119130000D01*
X95949995Y54650000D02*
X95899995Y54700000D01*
%TO.N,HDMI_SDA*%
X100349995Y49950000D02*
X100549995Y49750000D01*
X100949995Y119145686D02*
X99299995Y120795686D01*
X100349995Y50920000D02*
X100349995Y49950000D01*
X99299995Y120795686D02*
X99299995Y122280000D01*
X99549995Y56250000D02*
X99549995Y118250000D01*
X100949995Y118250000D02*
X100949995Y119145686D01*
%TO.N,HDMI_CK-*%
X98422995Y116781709D02*
X98422995Y119607000D01*
X97299995Y120730000D02*
X97299995Y122280000D01*
X98422995Y119607000D02*
X97299995Y120730000D01*
X98499995Y116704709D02*
X98422995Y116781709D01*
X98349995Y54000000D02*
X98349995Y54562448D01*
X98499995Y54712448D02*
X98499995Y116704709D01*
X98349995Y54562448D02*
X98499995Y54712448D01*
%TO.N,HDMI_CK+*%
X98095995Y116646261D02*
X98095995Y118999685D01*
X98172995Y54847896D02*
X98172995Y116569261D01*
X96299995Y120795685D02*
X96299995Y122280000D01*
X97949995Y54000000D02*
X97949995Y54624896D01*
X97949995Y54624896D02*
X98172995Y54847896D01*
X98172995Y116569261D02*
X98095995Y116646261D01*
X98095995Y118999685D02*
X96299995Y120795685D01*
%TO.N,HDMI_D0-*%
X97149995Y119380000D02*
X95799995Y120730000D01*
X95799995Y120730000D02*
X95799995Y122280000D01*
X97149995Y54000000D02*
X97149995Y119380000D01*
%TO.N,HDMI_D2-*%
X92799995Y120295686D02*
X92799995Y122280000D01*
X94349995Y55124896D02*
X94349995Y118745686D01*
X94749995Y54724896D02*
X94349995Y55124896D01*
X94349995Y118745686D02*
X92799995Y120295686D01*
X94749995Y54000000D02*
X94749995Y54724896D01*
%TO.N,HDMI_HEAC-*%
X101549995Y53584314D02*
X101549995Y121530000D01*
X91149995Y52950000D02*
X100915681Y52950000D01*
X101549995Y121530000D02*
X100799995Y122280000D01*
X100915681Y52950000D02*
X101549995Y53584314D01*
X91149995Y50920000D02*
X91149995Y52950000D01*
%TO.N,GPIO4*%
X104899995Y34480000D02*
X104899995Y62350000D01*
X53199995Y40400000D02*
X54649995Y41850000D01*
X91149995Y20730000D02*
X91149995Y20080000D01*
X90422995Y18849000D02*
X75842995Y18849000D01*
X93319995Y22900000D02*
X104899995Y34480000D01*
X74249995Y20442000D02*
X70132891Y20442000D01*
X55272995Y35301896D02*
X55272995Y37477000D01*
X91149995Y20080000D02*
X91149995Y19576000D01*
X104899995Y62350000D02*
X108299995Y65750000D01*
X70132891Y20442000D02*
X55272995Y35301896D01*
X75842995Y18849000D02*
X74249995Y20442000D01*
X93319995Y22900000D02*
X91149995Y20730000D01*
X53199995Y39550000D02*
X53199995Y40400000D01*
X91149995Y19576000D02*
X90422995Y18849000D01*
X55272995Y37477000D02*
X53199995Y39550000D01*
%TO.N,GPIO7*%
X87949995Y16496000D02*
X87949995Y17000000D01*
X80399995Y15400000D02*
X80599995Y15200000D01*
X31799995Y69000000D02*
X31795995Y68996000D01*
X88049995Y15200000D02*
X88249995Y15400000D01*
X87299995Y105330000D02*
X86249995Y105330000D01*
X88249995Y15400000D02*
X88249995Y16196000D01*
X80599995Y15200000D02*
X88049995Y15200000D01*
X86249995Y105330000D02*
X79799995Y98880000D01*
X41749995Y31900000D02*
X58249995Y15400000D01*
X58249995Y15400000D02*
X80399995Y15400000D01*
X31795995Y68996000D02*
X31795995Y59654000D01*
X88249995Y16196000D02*
X87949995Y16496000D01*
X31795995Y59654000D02*
X41749995Y49700000D01*
X41749995Y46900000D02*
X41749995Y31900000D01*
X79799995Y98880000D02*
X79799995Y88500000D01*
%TO.N,FAN_PWM*%
X80714547Y15573000D02*
X80287547Y16000000D01*
X84349995Y16450000D02*
X83472995Y15573000D01*
X83472995Y15573000D02*
X80714547Y15573000D01*
X65504768Y16000000D02*
X65354768Y15850000D01*
X84349995Y17000000D02*
X84349995Y16450000D01*
X61149994Y15850000D02*
X56849994Y20150000D01*
X65354768Y15850000D02*
X61149994Y15850000D01*
X80287547Y16000000D02*
X65504768Y16000000D01*
X56849994Y20150000D02*
X56074995Y20150000D01*
%TO.N,GPIO5*%
X70268339Y20769000D02*
X55599995Y35437344D01*
X106199995Y77250000D02*
X106199995Y77300000D01*
X86775995Y19176000D02*
X77605219Y19176000D01*
X87149995Y20730000D02*
X101419995Y35000000D01*
X104149995Y36600000D02*
X104149995Y75200000D01*
X55599995Y35437344D02*
X55599995Y38900000D01*
X55599995Y38900000D02*
X54649995Y39850000D01*
X76012219Y20769000D02*
X70268339Y20769000D01*
X106199995Y77300000D02*
X108399995Y77300000D01*
X101419995Y35000000D02*
X102549995Y35000000D01*
X87149995Y19550000D02*
X86775995Y19176000D01*
X77605219Y19176000D02*
X76012219Y20769000D01*
X87149995Y20080000D02*
X87149995Y19550000D01*
X87149995Y20080000D02*
X87149995Y20730000D01*
X102549995Y35000000D02*
X104149995Y36600000D01*
X104149995Y75200000D02*
X106199995Y77250000D01*
%TO.N,GPIO6*%
X103549995Y39400000D02*
X103549995Y84300000D01*
X55926995Y35572792D02*
X55926995Y42573000D01*
X73923256Y21119000D02*
X70380787Y21119000D01*
X86399995Y21501471D02*
X86399995Y22250000D01*
X86349995Y19530000D02*
X86322995Y19503000D01*
X77996995Y19503000D02*
X76403995Y21096000D01*
X86349995Y21451471D02*
X86399995Y21501471D01*
X86399995Y22250000D02*
X103549995Y39400000D01*
X70380787Y21119000D02*
X55926995Y35572792D01*
X103549995Y84300000D02*
X108299995Y89050000D01*
X76403995Y21096000D02*
X73946256Y21096000D01*
X86322995Y19503000D02*
X77996995Y19503000D01*
X55926995Y42573000D02*
X54649995Y43850000D01*
X86349995Y20080000D02*
X86349995Y21451471D01*
X73946256Y21096000D02*
X73923256Y21119000D01*
X86349995Y20080000D02*
X86349995Y19530000D01*
%TO.N,FAN_TACHO*%
X56074995Y22625000D02*
X56074995Y22150000D01*
X45249995Y33450000D02*
X56074995Y22625000D01*
X74058704Y21446000D02*
X71153995Y21446000D01*
X79068286Y21423000D02*
X74081704Y21423000D01*
X74081704Y21423000D02*
X74058704Y21446000D01*
X79926995Y22281709D02*
X79068286Y21423000D01*
X83876995Y22281709D02*
X79926995Y22281709D01*
X71153995Y21446000D02*
X67949995Y24650000D01*
X67614417Y47377000D02*
X46231704Y47377000D01*
X67949995Y24650000D02*
X67949995Y47041422D01*
X84531704Y21627000D02*
X83876995Y22281709D01*
X67949995Y47041422D02*
X67614417Y47377000D01*
X83549995Y20080000D02*
X83549995Y20645291D01*
X83549995Y20645291D02*
X84531704Y21627000D01*
X46231704Y47377000D02*
X45249995Y46395291D01*
X45249995Y46395291D02*
X45249995Y33450000D01*
%TO.N,LED_ACTIVITY*%
X35849995Y121500000D02*
X35849995Y127480000D01*
X31649995Y117300000D02*
X35849995Y121500000D01*
X46449995Y49377000D02*
X46449995Y52450000D01*
X46449995Y52450000D02*
X32649995Y66250000D01*
X84749995Y17550000D02*
X84749995Y17000000D01*
X72272995Y17577000D02*
X84722995Y17577000D01*
X25599995Y117300000D02*
X31649995Y117300000D01*
X84722995Y17577000D02*
X84749995Y17550000D01*
X46449995Y46850000D02*
X46449995Y43400000D01*
X46449995Y43400000D02*
X72272995Y17577000D01*
X32649995Y66250000D02*
X32649995Y68150000D01*
%TO.N,USB_XTAL_OUT*%
X26749995Y28000000D02*
X26273995Y28476000D01*
X26749995Y28000000D02*
X26749995Y26500000D01*
X26273995Y28476000D02*
X25949995Y28476000D01*
X25749995Y26500000D02*
X25749995Y22550000D01*
X25949995Y28550000D02*
X26449995Y29050000D01*
X26749995Y26500000D02*
X25749995Y26500000D01*
X26449995Y29050000D02*
X26449995Y31475000D01*
X25949995Y28476000D02*
X25949995Y28550000D01*
%TO.N,USB_XTAL_IN*%
X25249995Y26300000D02*
X25249995Y22550000D01*
X24299995Y27250000D02*
X25249995Y26300000D01*
X20799995Y27750000D02*
X21299995Y27250000D01*
X21299995Y27250000D02*
X24299995Y27250000D01*
%TO.N,Net-(IC1-USBDM_DN2{slash}PRT_DIS_M2)*%
X21549995Y12000000D02*
X41909995Y12000000D01*
X17799995Y20750000D02*
X15299995Y18250000D01*
X15299995Y18250000D02*
X21549995Y12000000D01*
X41909995Y12000000D02*
X44549995Y9360000D01*
X22949995Y20750000D02*
X17799995Y20750000D01*
%TO.N,USB_RBIAS*%
X19799995Y23680000D02*
X23919995Y23680000D01*
X24249995Y23350000D02*
X24249995Y22550000D01*
X23919995Y23680000D02*
X24249995Y23350000D01*
%TO.N,USB_CFG_SEL0*%
X29951466Y19250000D02*
X30051466Y19150000D01*
X32299995Y20050000D02*
X32299995Y20250000D01*
X32299995Y23025000D02*
X28224995Y23025000D01*
X32099995Y19150000D02*
X32299995Y19350000D01*
X28549995Y19250000D02*
X29951466Y19250000D01*
X32299995Y23025000D02*
X36517342Y23025000D01*
X28576995Y20277000D02*
X32272995Y20277000D01*
X32299995Y20250000D02*
X32299995Y20750000D01*
X28224995Y23025000D02*
X27749995Y22550000D01*
X36517342Y23025000D02*
X37626995Y21915347D01*
X28549995Y20750000D02*
X32299995Y20750000D01*
X37626995Y21915347D02*
X37626995Y20427000D01*
X30051466Y19150000D02*
X32099995Y19150000D01*
X28549995Y20250000D02*
X28576995Y20277000D01*
X36349995Y19150000D02*
X32099995Y19150000D01*
X37626995Y20427000D02*
X36349995Y19150000D01*
X32272995Y20277000D02*
X32299995Y20250000D01*
X32299995Y19350000D02*
X32299995Y20050000D01*
%TO.N,Net-(IC1-RESET_N)*%
X28549995Y21250000D02*
X28599995Y21250000D01*
X28599995Y21250000D02*
X28649995Y21200000D01*
X28649995Y21200000D02*
X35899995Y21200000D01*
%TO.N,Net-(IC1-USBDP_DN4{slash}PRT_DIS_P4)*%
X19499995Y17500000D02*
X19499995Y17062744D01*
X22064210Y14498529D02*
X56951466Y14498529D01*
X58549995Y12900000D02*
X107009995Y12900000D01*
X19499995Y17062744D02*
X22064210Y14498529D01*
X22949995Y17750000D02*
X22699995Y17500000D01*
X107009995Y12900000D02*
X110549995Y9360000D01*
X56951466Y14498529D02*
X58549995Y12900000D01*
X22699995Y17500000D02*
X19499995Y17500000D01*
%TO.N,Net-(IC1-USBDP_DN3{slash}PRT_DIS_P3)*%
X18699995Y16731372D02*
X21740681Y13690686D01*
X22949995Y18750000D02*
X22215681Y18750000D01*
X21965681Y18500000D02*
X18699995Y18500000D01*
X18699995Y18500000D02*
X18699995Y16731372D01*
X76859995Y11050000D02*
X78549995Y9360000D01*
X22215681Y18750000D02*
X21965681Y18500000D01*
X56609309Y13690686D02*
X59249995Y11050000D01*
X21740681Y13690686D02*
X56609309Y13690686D01*
X59249995Y11050000D02*
X76859995Y11050000D01*
%TO.N,Net-(IC1-USBDM_DN3{slash}PRT_DIS_M3)*%
X21832838Y13032843D02*
X56267152Y13032843D01*
X58674995Y10625000D02*
X75284995Y10625000D01*
X56267152Y13032843D02*
X58674995Y10625000D01*
X18299995Y18750000D02*
X18299995Y16565686D01*
X18549995Y19000000D02*
X18299995Y18750000D01*
X75284995Y10625000D02*
X76549995Y9360000D01*
X18299995Y16565686D02*
X21832838Y13032843D01*
X22949995Y19250000D02*
X22149995Y19250000D01*
X21899995Y19000000D02*
X18549995Y19000000D01*
X22149995Y19250000D02*
X21899995Y19000000D01*
%TO.N,Net-(IC1-USBDP_DN2{slash}PRT_DIS_P2)*%
X22949995Y20250000D02*
X18049995Y20250000D01*
X21649995Y12650000D02*
X43259995Y12650000D01*
X16049995Y18250000D02*
X21649995Y12650000D01*
X18049995Y20250000D02*
X16049995Y18250000D01*
X43259995Y12650000D02*
X46549995Y9360000D01*
%TO.N,Net-(IC1-USBDM_DN4{slash}PRT_DIS_M4)*%
X105409995Y12500000D02*
X108549995Y9360000D01*
X58365680Y12500000D02*
X105409995Y12500000D01*
X22949995Y18250000D02*
X22281367Y18250000D01*
X56767151Y14098529D02*
X56774994Y14090686D01*
X22031367Y18000000D02*
X19099995Y18000000D01*
X56774995Y14090686D02*
X57299995Y13565685D01*
X19099995Y16897058D02*
X21898524Y14098529D01*
X22281367Y18250000D02*
X22031367Y18000000D01*
X57299995Y13565685D02*
X58365680Y12500000D01*
X56774994Y14090686D02*
X56774995Y14090686D01*
X21898524Y14098529D02*
X56767151Y14098529D01*
X19099995Y18000000D02*
X19099995Y16897058D01*
%TO.N,Net-(IC1-USBDM_DN1{slash}PRT_DIS_M1)*%
X22949995Y21750000D02*
X17299995Y21750000D01*
X17299995Y21750000D02*
X12549995Y17000000D01*
X12549995Y17000000D02*
X12549995Y9360000D01*
%TO.N,Net-(IC1-USBDP_DN1{slash}PRT_DIS_P1)*%
X17599995Y21300000D02*
X14549995Y18250000D01*
X22899995Y21300000D02*
X17599995Y21300000D01*
X22949995Y21250000D02*
X22899995Y21300000D01*
X14549995Y18250000D02*
X14549995Y9360000D01*
D50*
%TO.N,GND_SUPPLY*%
X43204995Y108000000D02*
X54139995Y108000000D01*
X26549995Y108000000D02*
X43204995Y108000000D01*
D49*
X13049995Y103400000D02*
X16034995Y106385000D01*
D50*
X13049995Y120150000D02*
X13049995Y103400000D01*
X54139995Y108000000D02*
X56839995Y110700000D01*
X19799995Y123900000D02*
X16799995Y123900000D01*
X13049995Y120150000D02*
X14399995Y120150000D01*
X21749995Y112800000D02*
X26549995Y108000000D01*
X16799995Y123900000D02*
X13049995Y120150000D01*
X14399995Y120150000D02*
X21749995Y112800000D01*
D49*
X16034995Y106385000D02*
X16034995Y111750000D01*
D50*
X19799995Y130100000D02*
X19799995Y123900000D01*
X43204995Y108000000D02*
X45904995Y110700000D01*
D49*
%TO.N,Net-(C4-Pad1)*%
X76274995Y115300000D02*
X76049995Y115525000D01*
X76084995Y113410000D02*
X76274995Y113600000D01*
X76274995Y113600000D02*
X76274995Y115300000D01*
X76149995Y106945000D02*
X76149995Y110035000D01*
X76084995Y110100000D02*
X76084995Y113410000D01*
X76149995Y110035000D02*
X76084995Y110100000D01*
%TO.N,AUDIO_OUT_L*%
X75243495Y120856500D02*
X63254495Y120856500D01*
X75699995Y120400000D02*
X75243495Y120856500D01*
X76209995Y120400000D02*
X75699995Y120400000D01*
X76049995Y120240000D02*
X76209995Y120400000D01*
X76249995Y120360000D02*
X76209995Y120400000D01*
X76049995Y118475000D02*
X76049995Y120240000D01*
%TO.N,Net-(C6-Pad1)*%
X81649995Y110065000D02*
X81614995Y110100000D01*
X81699995Y114020000D02*
X81699995Y115625000D01*
X81614995Y113935000D02*
X81699995Y114020000D01*
X81614995Y110100000D02*
X81614995Y113600000D01*
X81614995Y113600000D02*
X81614995Y113935000D01*
X81649995Y106945000D02*
X81649995Y110065000D01*
%TO.N,AUDIO_OUT_R*%
X81699995Y120370000D02*
X81669995Y120400000D01*
X81649995Y120380000D02*
X81669995Y120400000D01*
X81669995Y120599999D02*
X73913494Y128356500D01*
X81699995Y118575000D02*
X81699995Y120370000D01*
X73913494Y128356500D02*
X68114495Y128356500D01*
X81669995Y120400000D02*
X81669995Y120599999D01*
%TO.N,AUDIO_L*%
X85949995Y20850000D02*
X80049995Y26750000D01*
X80049995Y26750000D02*
X80049995Y45442261D01*
X77449995Y48042261D02*
X77449995Y100600000D01*
X85949995Y20080000D02*
X85949995Y20850000D01*
X80049995Y45442261D02*
X77449995Y48042261D01*
%TO.N,AUDIO_R*%
X78122995Y94673000D02*
X78749995Y95300000D01*
X80399995Y45554709D02*
X78122995Y47831709D01*
X85799995Y21750000D02*
X80399995Y27150000D01*
X86749995Y17000000D02*
X86749995Y16050000D01*
X80399995Y27150000D02*
X80399995Y45554709D01*
X78122995Y47831709D02*
X78122995Y94673000D01*
X78749995Y95300000D02*
X78749995Y100600000D01*
%TO.N,Net-(IC2-Y2)*%
X81009995Y104760000D02*
X78749995Y102500000D01*
X81009995Y106945000D02*
X81009995Y104760000D01*
%TO.N,Net-(IC2-Y1)*%
X76789995Y103160000D02*
X77449995Y102500000D01*
X76789995Y106945000D02*
X76789995Y103160000D01*
%TO.N,Net-(Module1A-SD_DAT0)*%
X73819995Y18480000D02*
X74322995Y17977000D01*
X93149995Y17550000D02*
X93149995Y17000000D01*
X74322995Y17977000D02*
X92722995Y17977000D01*
X73449995Y18480000D02*
X73819995Y18480000D01*
X92722995Y17977000D02*
X93149995Y17550000D01*
%TO.N,Net-(Module1A-SD_CMD)*%
X92749995Y20080000D02*
X92749995Y21200000D01*
X78419995Y22500000D02*
X79399995Y22500000D01*
X92749995Y21200000D02*
X92799995Y21250000D01*
%TO.N,Net-(Module1A-SD_CLK)*%
X90399995Y14800000D02*
X91949995Y16350000D01*
X90399995Y14800000D02*
X89719995Y14800000D01*
X91949995Y16350000D02*
X91949995Y17000000D01*
%TO.N,Net-(Module1A-SD_DAT3)*%
X90549995Y14150000D02*
X92749995Y16350000D01*
X90549995Y14150000D02*
X88274995Y14150000D01*
X92749995Y16350000D02*
X92749995Y17000000D01*
%TO.N,Net-(Module1A-SD_DAT2)*%
X94349995Y16450000D02*
X91449995Y13550000D01*
X91449995Y13550000D02*
X90599995Y13550000D01*
X94349995Y17000000D02*
X94349995Y16450000D01*
%TO.N,Net-(Module1A-SD_DAT1)*%
X93949995Y17750000D02*
X93949995Y17000000D01*
X74869995Y18830000D02*
X75395995Y18304000D01*
X92858443Y18304000D02*
X93412443Y17750000D01*
X93412443Y17750000D02*
X93949995Y17750000D01*
X74249995Y18830000D02*
X74869995Y18830000D01*
X75395995Y18304000D02*
X92858443Y18304000D01*
D50*
%TO.N,Net-(J16-Pin_2)*%
X40629995Y117025000D02*
X40629995Y124025000D01*
X43364995Y110700000D02*
X43364995Y117280000D01*
X43349995Y117295000D02*
X45799995Y117295000D01*
D49*
X43364995Y117280000D02*
X43349995Y117295000D01*
D50*
X46069995Y117025000D02*
X46069995Y124025000D01*
D49*
X40899995Y117295000D02*
X40629995Y117025000D01*
X45799995Y117295000D02*
X46069995Y117025000D01*
D50*
X43349995Y117295000D02*
X40899995Y117295000D01*
%TO.N,Net-(J15-GND)*%
X54299995Y117295000D02*
X54299995Y110700000D01*
D49*
X54569995Y117025000D02*
X54299995Y117295000D01*
D50*
X57019995Y117025000D02*
X57019995Y124025000D01*
X51579995Y117025000D02*
X54029995Y117025000D01*
X57019995Y117025000D02*
X54569995Y117025000D01*
D49*
X54029995Y117025000D02*
X54299995Y117295000D01*
D50*
X51579995Y117025000D02*
X51579995Y124025000D01*
%TD*%
M02*
