%TF.GenerationSoftware,KiCad,Pcbnew,8.0.8*%
%TF.CreationDate,2025-11-24T21:21:31+01:00*%
%TF.ProjectId,RetroConsoleMk3.1,52657472-6f43-46f6-9e73-6f6c654d6b33,rev?*%
%TF.SameCoordinates,PX237a085PY9f06730*%
%TF.FileFunction,Copper,L2,Bot*%
%TF.FilePolarity,Positive*%
%FSLAX46Y46*%
G04 Gerber Fmt 4.6, Leading zero omitted, Abs format (unit mm)*
G04 Created by KiCad (PCBNEW 8.0.8) date 2025-11-24 21:21:31*
%MOMM*%
%LPD*%
G01*
G04 APERTURE LIST*
G04 Aperture macros list*
%AMRoundRect*
0 Rectangle with rounded corners*
0 $1 Rounding radius*
0 $2 $3 $4 $5 $6 $7 $8 $9 X,Y pos of 4 corners*
0 Add a 4 corners polygon primitive as box body*
4,1,4,$2,$3,$4,$5,$6,$7,$8,$9,$2,$3,0*
0 Add four circle primitives for the rounded corners*
1,1,$1+$1,$2,$3*
1,1,$1+$1,$4,$5*
1,1,$1+$1,$6,$7*
1,1,$1+$1,$8,$9*
0 Add four rect primitives between the rounded corners*
20,1,$1+$1,$2,$3,$4,$5,0*
20,1,$1+$1,$4,$5,$6,$7,0*
20,1,$1+$1,$6,$7,$8,$9,0*
20,1,$1+$1,$8,$9,$2,$3,0*%
G04 Aperture macros list end*
%TA.AperFunction,ComponentPad*%
%ADD10R,1.600000X1.500000*%
%TD*%
%TA.AperFunction,ComponentPad*%
%ADD11C,1.600000*%
%TD*%
%TA.AperFunction,ComponentPad*%
%ADD12C,3.000000*%
%TD*%
%TA.AperFunction,ComponentPad*%
%ADD13R,1.700000X1.700000*%
%TD*%
%TA.AperFunction,ComponentPad*%
%ADD14O,1.700000X1.700000*%
%TD*%
%TA.AperFunction,ComponentPad*%
%ADD15RoundRect,0.250000X-0.350000X-0.625000X0.350000X-0.625000X0.350000X0.625000X-0.350000X0.625000X0*%
%TD*%
%TA.AperFunction,ComponentPad*%
%ADD16O,1.200000X1.750000*%
%TD*%
%TA.AperFunction,ComponentPad*%
%ADD17R,2.415000X2.415000*%
%TD*%
%TA.AperFunction,ComponentPad*%
%ADD18C,3.225000*%
%TD*%
%TA.AperFunction,ComponentPad*%
%ADD19C,2.685000*%
%TD*%
%TA.AperFunction,ComponentPad*%
%ADD20R,1.600000X1.600000*%
%TD*%
%TA.AperFunction,ComponentPad*%
%ADD21C,2.150000*%
%TD*%
%TA.AperFunction,ComponentPad*%
%ADD22R,1.200000X1.200000*%
%TD*%
%TA.AperFunction,ComponentPad*%
%ADD23C,1.200000*%
%TD*%
%TA.AperFunction,ComponentPad*%
%ADD24O,1.500000X3.300000*%
%TD*%
%TA.AperFunction,ComponentPad*%
%ADD25O,1.500000X2.300000*%
%TD*%
%TA.AperFunction,ComponentPad*%
%ADD26RoundRect,0.250000X0.625000X-0.350000X0.625000X0.350000X-0.625000X0.350000X-0.625000X-0.350000X0*%
%TD*%
%TA.AperFunction,ComponentPad*%
%ADD27O,1.750000X1.200000*%
%TD*%
%TA.AperFunction,ViaPad*%
%ADD28C,0.600000*%
%TD*%
%TA.AperFunction,ViaPad*%
%ADD29C,0.500000*%
%TD*%
%TA.AperFunction,ViaPad*%
%ADD30C,0.400000*%
%TD*%
%TA.AperFunction,Conductor*%
%ADD31C,0.200000*%
%TD*%
%TA.AperFunction,Conductor*%
%ADD32C,0.500000*%
%TD*%
%TA.AperFunction,Conductor*%
%ADD33C,0.127000*%
%TD*%
G04 APERTURE END LIST*
D10*
%TO.P,J7,1,VBUS*%
%TO.N,VCC*%
X106049995Y9360000D03*
D11*
%TO.P,J7,2,D-*%
%TO.N,Net-(IC1-USBDM_DN4{slash}PRT_DIS_M4)*%
X108549995Y9360000D03*
%TO.P,J7,3,D+*%
%TO.N,Net-(IC1-USBDP_DN4{slash}PRT_DIS_P4)*%
X110549995Y9360000D03*
%TO.P,J7,4,GND*%
%TO.N,GND*%
X113049995Y9360000D03*
D12*
%TO.P,J7,5,Shield*%
X102979995Y6650000D03*
X116119995Y6650000D03*
%TD*%
D13*
%TO.P,J16,1,Pin_1*%
%TO.N,GND*%
X40824995Y110700000D03*
D14*
%TO.P,J16,2,Pin_2*%
%TO.N,Net-(J16-Pin_2)*%
X43364995Y110700000D03*
%TO.P,J16,3,Pin_3*%
%TO.N,GND_SUPPLY*%
X45904995Y110700000D03*
%TD*%
D15*
%TO.P,J11,1,Pin_1*%
%TO.N,GPIO4*%
X108299995Y65750000D03*
D16*
%TO.P,J11,2,Pin_2*%
%TO.N,GND*%
X110299995Y65750000D03*
%TD*%
D17*
%TO.P,J10,1,SLEEVE*%
%TO.N,GND*%
X63034495Y130256500D03*
D18*
%TO.P,J10,2,TIP*%
%TO.N,AUDIO_OUT_L*%
X63254495Y120856500D03*
%TO.P,J10,3,TIP_SWITCH_*%
%TO.N,unconnected-(J10-TIP_SWITCH_-Pad3)*%
X66324495Y117956500D03*
D19*
%TO.P,J10,5,RING*%
%TO.N,AUDIO_OUT_R*%
X68114495Y128356500D03*
%TD*%
D20*
%TO.P,J15,1,VBUS*%
%TO.N,VCC*%
X54299995Y123295000D03*
D11*
%TO.P,J15,2,D-*%
%TO.N,unconnected-(J15-D--Pad2)*%
X54299995Y121295000D03*
%TO.P,J15,3,D+*%
%TO.N,unconnected-(J15-D+-Pad3)*%
X54299995Y119295000D03*
%TO.P,J15,4,GND*%
%TO.N,Net-(J15-GND)*%
X54299995Y117295000D03*
D21*
%TO.P,J15,5,Shield*%
X57019995Y124025000D03*
X51579995Y124025000D03*
X57019995Y117025000D03*
X51579995Y117025000D03*
%TD*%
D10*
%TO.P,J5,1,VBUS*%
%TO.N,VCC*%
X42049995Y9360000D03*
D11*
%TO.P,J5,2,D-*%
%TO.N,Net-(IC1-USBDM_DN2{slash}PRT_DIS_M2)*%
X44549995Y9360000D03*
%TO.P,J5,3,D+*%
%TO.N,Net-(IC1-USBDP_DN2{slash}PRT_DIS_P2)*%
X46549995Y9360000D03*
%TO.P,J5,4,GND*%
%TO.N,GND*%
X49049995Y9360000D03*
D12*
%TO.P,J5,5,Shield*%
X38979995Y6650000D03*
X52119995Y6650000D03*
%TD*%
D15*
%TO.P,J13,1,Pin_1*%
%TO.N,GPIO6*%
X108299995Y89050000D03*
D16*
%TO.P,J13,2,Pin_2*%
%TO.N,GND*%
X110299995Y89050000D03*
%TD*%
D20*
%TO.P,J2,1,VBUS*%
%TO.N,VCC*%
X43349995Y123295000D03*
D11*
%TO.P,J2,2,D-*%
%TO.N,unconnected-(J2-D--Pad2)*%
X43349995Y121295000D03*
%TO.P,J2,3,D+*%
%TO.N,unconnected-(J2-D+-Pad3)*%
X43349995Y119295000D03*
%TO.P,J2,4,GND*%
%TO.N,Net-(J16-Pin_2)*%
X43349995Y117295000D03*
D21*
%TO.P,J2,5,Shield*%
X46069995Y124025000D03*
X40629995Y124025000D03*
X46069995Y117025000D03*
X40629995Y117025000D03*
%TD*%
D15*
%TO.P,J12,1,Pin_1*%
%TO.N,GPIO5*%
X108399995Y77300000D03*
D16*
%TO.P,J12,2,Pin_2*%
%TO.N,GND*%
X110399995Y77300000D03*
%TD*%
D10*
%TO.P,J6,1,VBUS*%
%TO.N,VCC*%
X74049995Y9360000D03*
D11*
%TO.P,J6,2,D-*%
%TO.N,Net-(IC1-USBDM_DN3{slash}PRT_DIS_M3)*%
X76549995Y9360000D03*
%TO.P,J6,3,D+*%
%TO.N,Net-(IC1-USBDP_DN3{slash}PRT_DIS_P3)*%
X78549995Y9360000D03*
%TO.P,J6,4,GND*%
%TO.N,GND*%
X81049995Y9360000D03*
D12*
%TO.P,J6,5,Shield*%
X70979995Y6650000D03*
X84119995Y6650000D03*
%TD*%
D13*
%TO.P,J17,1,Pin_1*%
%TO.N,GND*%
X51759995Y110700000D03*
D14*
%TO.P,J17,2,Pin_2*%
%TO.N,Net-(J15-GND)*%
X54299995Y110700000D03*
%TO.P,J17,3,Pin_3*%
%TO.N,GND_SUPPLY*%
X56839995Y110700000D03*
%TD*%
D22*
%TO.P,J9,A1,A1*%
%TO.N,VCC*%
X70249995Y76800003D03*
D23*
%TO.P,J9,A2,A2*%
X69249995Y74800003D03*
%TO.P,J9,A3,A3*%
%TO.N,3V3*%
X68249995Y76800003D03*
%TO.P,J9,A4,A4*%
%TO.N,GND*%
X67249995Y74800003D03*
%TO.P,J9,A5,A5*%
%TO.N,SD_CLK*%
X66249995Y76800003D03*
%TO.P,J9,A6,A6*%
%TO.N,SD_CMD*%
X65249995Y74800003D03*
%TO.P,J9,A7,A7*%
%TO.N,SD_DAT0*%
X64249995Y76800003D03*
%TO.P,J9,A8,A8*%
%TO.N,SD_DAT1*%
X63249995Y74800003D03*
%TO.P,J9,A9,A9*%
%TO.N,SD_DAT2*%
X62249995Y76800003D03*
%TO.P,J9,A10,A10*%
%TO.N,SD_DAT3*%
X61249995Y74800003D03*
%TO.P,J9,A11,A11*%
%TO.N,unconnected-(J9-PadA11)*%
X60249995Y76800003D03*
%TO.P,J9,A12,A12*%
%TO.N,unconnected-(J9-PadA12)*%
X57249995Y74800003D03*
%TO.P,J9,A13,A13*%
%TO.N,unconnected-(J9-PadA13)*%
X56249995Y76800003D03*
%TO.P,J9,A14,A14*%
%TO.N,unconnected-(J9-PadA14)*%
X55249995Y74800003D03*
%TO.P,J9,A15,A15*%
%TO.N,unconnected-(J9-PadA15)*%
X54249995Y76800003D03*
%TO.P,J9,A16,A16*%
%TO.N,unconnected-(J9-PadA16)*%
X53249995Y74800003D03*
%TO.P,J9,A17,A17*%
%TO.N,CARD_PRESENT*%
X52249995Y76800003D03*
%TO.P,J9,A18,A18*%
%TO.N,unconnected-(J9-PadA18)*%
X51249995Y74800003D03*
%TO.P,J9,B1,B1*%
%TO.N,GND*%
X70249995Y79300003D03*
%TO.P,J9,B2,B2*%
X69249995Y81300003D03*
%TO.P,J9,B3,B3*%
X68249995Y79300003D03*
%TO.P,J9,B4,B4*%
X67249995Y81300003D03*
%TO.P,J9,B5,B5*%
X66249995Y79300003D03*
%TO.P,J9,B6,B6*%
X65249995Y81300003D03*
%TO.P,J9,B7,B7*%
X64249995Y79300003D03*
%TO.P,J9,B8,B8*%
X63249995Y81300003D03*
%TO.P,J9,B9,B9*%
X62249995Y79300003D03*
%TO.P,J9,B10,B10*%
X61249995Y81300003D03*
%TO.P,J9,B11,B11*%
%TO.N,unconnected-(J9-PadB11)*%
X60249995Y79300003D03*
%TO.P,J9,B12,B12*%
%TO.N,unconnected-(J9-PadB12)*%
X57249995Y81300003D03*
%TO.P,J9,B13,B13*%
%TO.N,unconnected-(J9-PadB13)*%
X56249995Y79300003D03*
%TO.P,J9,B14,B14*%
%TO.N,unconnected-(J9-PadB14)*%
X55249995Y81300003D03*
%TO.P,J9,B15,B15*%
%TO.N,unconnected-(J9-PadB15)*%
X54249995Y79300003D03*
%TO.P,J9,B16,B16*%
%TO.N,unconnected-(J9-PadB16)*%
X53249995Y81300003D03*
%TO.P,J9,B17,B17*%
%TO.N,unconnected-(J9-PadB17)*%
X52249995Y79300003D03*
%TO.P,J9,B18,B18*%
%TO.N,unconnected-(J9-PadB18)*%
X51249995Y81300003D03*
%TD*%
D24*
%TO.P,J4,SH*%
%TO.N,N/C*%
X89049995Y123040000D03*
X103549995Y123040000D03*
D25*
X89049995Y129000000D03*
X103549995Y129000000D03*
%TD*%
D26*
%TO.P,J14,1,Pin_1*%
%TO.N,GPIO5*%
X54649995Y39850000D03*
D27*
%TO.P,J14,2,Pin_2*%
%TO.N,GPIO4*%
X54649995Y41850000D03*
%TO.P,J14,3,Pin_3*%
%TO.N,GPIO6*%
X54649995Y43850000D03*
%TO.P,J14,4,Pin_4*%
%TO.N,GND*%
X54649995Y45850000D03*
%TD*%
D10*
%TO.P,J3,1,VBUS*%
%TO.N,VCC*%
X10049995Y9360000D03*
D11*
%TO.P,J3,2,D-*%
%TO.N,Net-(IC1-USBDM_DN1{slash}PRT_DIS_M1)*%
X12549995Y9360000D03*
%TO.P,J3,3,D+*%
%TO.N,Net-(IC1-USBDP_DN1{slash}PRT_DIS_P1)*%
X14549995Y9360000D03*
%TO.P,J3,4,GND*%
%TO.N,GND*%
X17049995Y9360000D03*
D12*
%TO.P,J3,5,Shield*%
X6979995Y6650000D03*
X20119995Y6650000D03*
%TD*%
D13*
%TO.P,J18,1,Pin_1*%
%TO.N,GPIO7*%
X87299995Y105330000D03*
D14*
%TO.P,J18,2,Pin_2*%
%TO.N,VCC*%
X87299995Y102790000D03*
%TO.P,J18,3,Pin_3*%
%TO.N,GND*%
X87299995Y100250000D03*
%TD*%
D28*
%TO.N,3V3*%
X30299995Y17850000D03*
D29*
X30349995Y22000000D03*
X20899995Y22300000D03*
D28*
X21099995Y19650000D03*
X23749995Y15550000D03*
X30299995Y19750000D03*
%TO.N,GND*%
X84749995Y21100000D03*
D29*
X78549995Y106070000D03*
D28*
X80749995Y21200000D03*
D29*
X80974995Y113600000D03*
D30*
X96349995Y55100000D03*
D28*
X88749995Y21100000D03*
D30*
X12799995Y46500000D03*
X81049995Y16000000D03*
X99349995Y55100000D03*
X32299995Y23700000D03*
D29*
X76914995Y113600000D03*
D30*
X24299995Y28450000D03*
X93149995Y16000000D03*
D28*
X19849995Y89600000D03*
D30*
X26449995Y32115000D03*
D28*
X97749995Y128000000D03*
X87049995Y21500000D03*
X81949995Y55100000D03*
D30*
X87799995Y16000000D03*
X20799995Y28400000D03*
X85149995Y16000000D03*
X19799995Y24320000D03*
D29*
X80974995Y110100000D03*
D28*
X82499995Y49100000D03*
X19749995Y95000000D03*
D30*
X97699995Y55100000D03*
D28*
X11449995Y94900000D03*
D29*
X76849995Y120400000D03*
D28*
X11349995Y90200000D03*
D30*
X94999995Y55100000D03*
X25749995Y19750000D03*
D29*
X81029995Y120400000D03*
D28*
X93149995Y128000000D03*
X19749995Y92600000D03*
D30*
X93449995Y55100000D03*
D28*
X56074995Y21150000D03*
X83149995Y21100000D03*
D30*
X83149995Y16000000D03*
D29*
X76724995Y110100000D03*
D30*
X25949995Y27200000D03*
D28*
X11449995Y92900000D03*
X95149995Y21100000D03*
X99949995Y21100000D03*
D30*
X88749995Y16000000D03*
X78099995Y100600000D03*
D28*
X95149995Y128000000D03*
%TO.N,VCC*%
X33949995Y70150000D03*
X42799995Y49750000D03*
X102749995Y30600000D03*
D30*
X100299995Y122280000D03*
D28*
X102349995Y30200000D03*
X30799995Y123850000D03*
X103649995Y30700000D03*
X42799995Y46900000D03*
X28549995Y71100000D03*
X74649995Y81850000D03*
%TO.N,SD_DAT1*%
X74199995Y19500000D03*
X74299995Y21950000D03*
%TO.N,SD_DAT2*%
X71499995Y13550000D03*
X71499995Y21973000D03*
%TO.N,SD_DAT3*%
X72399995Y21973000D03*
X72249995Y14150000D03*
%TO.N,SD_DAT0*%
X73449995Y21973000D03*
X73449995Y19150000D03*
%TO.N,SD_CLK*%
X76149995Y21973000D03*
X76149995Y14800000D03*
%TO.N,USB_D+*%
X70749995Y48050000D03*
X78649995Y48050000D03*
%TO.N,USB_D-*%
X29026995Y34900000D03*
X78649995Y49050000D03*
X28999995Y36700000D03*
X70699995Y49050000D03*
%TO.N,HDMI_CEC*%
X100949995Y117000000D03*
X98949995Y117000000D03*
%TO.N,HDMI_SDA*%
X99549995Y118250000D03*
X100949995Y118250000D03*
X100549995Y49750000D03*
X99549995Y56250000D03*
%TO.N,GPIO7*%
X41749995Y49700000D03*
X79799995Y88500000D03*
X31799995Y69000000D03*
X41749995Y46900000D03*
%TO.N,LED_ACTIVITY*%
X25599995Y117300000D03*
X46449995Y46850000D03*
X32649995Y68150000D03*
X46449995Y49377000D03*
%TO.N,AUDIO_R*%
X86749995Y16050000D03*
X85799995Y21750000D03*
%TO.N,Net-(Module1A-SD_CMD)*%
X92799995Y21250000D03*
X79399995Y22500000D03*
%TD*%
D31*
%TO.N,3V3*%
X23749995Y15550000D02*
X23799995Y15500000D01*
X30299995Y17850000D02*
X30299995Y19750000D01*
X20899995Y19850000D02*
X21099995Y19650000D01*
X21099995Y19650000D02*
X21099995Y18200000D01*
X30299995Y21950000D02*
X30349995Y22000000D01*
X20899995Y22300000D02*
X20899995Y19850000D01*
X21099995Y18200000D02*
X23749995Y15550000D01*
X30349995Y22000000D02*
X30249995Y22000000D01*
X30299995Y19750000D02*
X30299995Y21950000D01*
D32*
%TO.N,GND*%
X59349995Y116400000D02*
X59349995Y117513693D01*
X44656841Y114531846D02*
X56368149Y114531846D01*
D31*
X51759995Y110700000D02*
X52536302Y110700000D01*
D32*
X40824995Y110700000D02*
X44656841Y114531846D01*
X59349995Y116400000D02*
X57481841Y114531846D01*
D31*
X87299995Y100250000D02*
X87259495Y100209500D01*
D32*
X57481841Y114531846D02*
X56368149Y114531846D01*
D31*
X84149995Y100250000D02*
X84099995Y100300000D01*
X99349995Y55100000D02*
X93449995Y55100000D01*
D32*
X52536302Y110700000D02*
X56368149Y114531846D01*
X59349995Y117513693D02*
X59349995Y126900000D01*
D31*
X87299995Y100250000D02*
X84149995Y100250000D01*
D32*
%TO.N,VCC*%
X36599995Y113950000D02*
X36599995Y96550000D01*
D33*
X101499995Y121080000D02*
X101499995Y121050000D01*
X102149995Y115000000D02*
X102149995Y111350000D01*
D32*
X36599995Y118050000D02*
X38104995Y118050000D01*
X43349995Y123295000D02*
X44071995Y122573000D01*
D33*
X102149995Y120400000D02*
X102149995Y115000000D01*
D32*
X38104995Y118050000D02*
X43349995Y123295000D01*
D31*
X42799995Y49750000D02*
X42799995Y46900000D01*
D32*
X36599995Y96550000D02*
X36549995Y96500000D01*
D31*
X88376995Y101713000D02*
X88376995Y98877000D01*
D33*
X102149995Y111350000D02*
X87549995Y96750000D01*
D32*
X53577995Y122573000D02*
X54299995Y123295000D01*
D31*
X82949995Y90150000D02*
X82949995Y90200000D01*
X74649995Y81850000D02*
X82949995Y90150000D01*
X88376995Y98877000D02*
X86649995Y97150000D01*
X87299995Y102790000D02*
X88376995Y101713000D01*
D32*
X44071995Y122573000D02*
X53577995Y122573000D01*
D33*
X100299995Y122280000D02*
X101499995Y121080000D01*
D32*
X36599995Y118050000D02*
X36599995Y113950000D01*
D33*
X101499995Y121050000D02*
X102149995Y120400000D01*
D32*
X30799995Y123850000D02*
X36599995Y118050000D01*
D31*
%TO.N,SD_DAT1*%
X74299995Y19600000D02*
X74299995Y21950000D01*
X74199995Y19500000D02*
X74299995Y19600000D01*
%TO.N,SD_DAT2*%
X71499995Y13650000D02*
X71399995Y13550000D01*
X71499995Y21973000D02*
X71499995Y13550000D01*
%TO.N,SD_DAT3*%
X72399995Y21973000D02*
X72399995Y14300000D01*
X72399995Y14300000D02*
X72249995Y14150000D01*
%TO.N,SD_DAT0*%
X73449995Y19150000D02*
X73449995Y21973000D01*
%TO.N,SD_CLK*%
X76149995Y14950000D02*
X75999995Y14800000D01*
X76149995Y21973000D02*
X76149995Y14800000D01*
%TO.N,USB_D+*%
X78649995Y48050000D02*
X70749995Y48050000D01*
%TO.N,USB_D-*%
X29026995Y36673000D02*
X28999995Y36700000D01*
X78649995Y49050000D02*
X70699995Y49050000D01*
X29026995Y34900000D02*
X29026995Y36673000D01*
%TO.N,HDMI_CEC*%
X100949995Y117000000D02*
X98949995Y117000000D01*
%TO.N,HDMI_SDA*%
X99799995Y56000000D02*
X99549995Y56250000D01*
X100549995Y49750000D02*
X100549995Y55250000D01*
X99549995Y118250000D02*
X100949995Y118250000D01*
X100949995Y118250000D02*
X101049995Y118250000D01*
X100549995Y55250000D02*
X99799995Y56000000D01*
%TO.N,GPIO7*%
X41849995Y88500000D02*
X40549995Y87200000D01*
X40549995Y87200000D02*
X40549995Y69650000D01*
X79799995Y88500000D02*
X41849995Y88500000D01*
X40549995Y69650000D02*
X39899995Y69000000D01*
X41749995Y49700000D02*
X41749995Y46900000D01*
X39899995Y69000000D02*
X31799995Y69000000D01*
%TO.N,LED_ACTIVITY*%
X46449995Y46850000D02*
X46449995Y49377000D01*
X26949995Y68150000D02*
X25399995Y69700000D01*
X25399995Y69700000D02*
X29699995Y65400000D01*
X32649995Y68150000D02*
X26949995Y68150000D01*
X25599995Y69500000D02*
X25599995Y117300000D01*
X29699995Y65400000D02*
X25599995Y69500000D01*
%TO.N,AUDIO_R*%
X85799995Y17000000D02*
X85799995Y21750000D01*
X86749995Y16050000D02*
X85799995Y17000000D01*
%TO.N,Net-(Module1A-SD_CMD)*%
X91549995Y22500000D02*
X92799995Y21250000D01*
X79399995Y22500000D02*
X91549995Y22500000D01*
%TD*%
%TA.AperFunction,Conductor*%
%TO.N,GND*%
G36*
X116293034Y131680315D02*
G01*
X116338789Y131627511D01*
X116349995Y131576000D01*
X116349995Y125823650D01*
X116330310Y125756611D01*
X116277506Y125710856D01*
X116226347Y125699650D01*
X113113092Y125690823D01*
X113045997Y125710318D01*
X113000092Y125762992D01*
X112989953Y125832122D01*
X113018797Y125895760D01*
X113048309Y125920770D01*
X113253240Y126045390D01*
X113474144Y126225109D01*
X113668519Y126433233D01*
X113832744Y126665887D01*
X113963759Y126918735D01*
X114059125Y127187068D01*
X114117064Y127465888D01*
X114136498Y127750000D01*
X114117064Y128034112D01*
X114059125Y128312932D01*
X114052610Y128331262D01*
X113963760Y128581262D01*
X113963761Y128581262D01*
X113893247Y128717348D01*
X113832744Y128834113D01*
X113668519Y129066767D01*
X113668515Y129066771D01*
X113668514Y129066773D01*
X113536483Y129208142D01*
X113474144Y129274891D01*
X113253240Y129454610D01*
X113253238Y129454611D01*
X113253236Y129454613D01*
X113009920Y129602577D01*
X112748723Y129716030D01*
X112474512Y129792861D01*
X112474508Y129792862D01*
X112474507Y129792862D01*
X112333445Y129812251D01*
X112192384Y129831639D01*
X112192383Y129831639D01*
X111907607Y129831639D01*
X111907606Y129831639D01*
X111625483Y129792862D01*
X111625477Y129792861D01*
X111351266Y129716030D01*
X111090069Y129602577D01*
X110846753Y129454613D01*
X110625849Y129274894D01*
X110431475Y129066773D01*
X110267246Y128834114D01*
X110136229Y128581262D01*
X110040866Y128312938D01*
X110040865Y128312935D01*
X109982925Y128034107D01*
X109963492Y127750000D01*
X109982925Y127465894D01*
X110040865Y127187066D01*
X110040866Y127187063D01*
X110136229Y126918739D01*
X110136228Y126918739D01*
X110196663Y126802106D01*
X110267246Y126665887D01*
X110412143Y126460614D01*
X110431475Y126433228D01*
X110503719Y126355875D01*
X110625846Y126225109D01*
X110846750Y126045390D01*
X111061544Y125914771D01*
X111108595Y125863121D01*
X111120253Y125794231D01*
X111092816Y125729974D01*
X111034994Y125690751D01*
X110997467Y125684824D01*
X84499968Y125609688D01*
X84499993Y100018886D01*
X84499995Y98624000D01*
X84480311Y98556961D01*
X84427507Y98511206D01*
X84375995Y98500000D01*
X74324224Y98500000D01*
X74257185Y98519685D01*
X74211430Y98572489D01*
X74200224Y98624229D01*
X74249908Y125580624D01*
X57502093Y125533136D01*
X57472794Y125536562D01*
X57267216Y125585916D01*
X57267217Y125585916D01*
X57019995Y125605372D01*
X56772772Y125585916D01*
X56555679Y125533797D01*
X56527084Y125530371D01*
X52117889Y125517869D01*
X52073051Y125526721D01*
X52072986Y125526519D01*
X52071308Y125527064D01*
X52070093Y125527304D01*
X52068355Y125528024D01*
X51827223Y125585915D01*
X51579995Y125605372D01*
X51332766Y125585915D01*
X51091633Y125528024D01*
X51091629Y125528023D01*
X51082485Y125524235D01*
X51035392Y125514799D01*
X46645353Y125502351D01*
X46597549Y125511790D01*
X46558359Y125528023D01*
X46317223Y125585915D01*
X46069995Y125605372D01*
X45822766Y125585915D01*
X45581636Y125528025D01*
X45534509Y125508505D01*
X45487412Y125499068D01*
X41242340Y125487031D01*
X41194536Y125496470D01*
X41118359Y125528023D01*
X40877223Y125585915D01*
X40629995Y125605372D01*
X40382766Y125585915D01*
X40141631Y125528023D01*
X40141629Y125528023D01*
X40057016Y125492975D01*
X40009916Y125483536D01*
X26451847Y125445092D01*
X26384752Y125464587D01*
X26338847Y125517261D01*
X26327495Y125569092D01*
X26327495Y125701201D01*
X26327494Y125701205D01*
X26325574Y125710856D01*
X26288009Y125899711D01*
X26210554Y126086704D01*
X26210553Y126086705D01*
X26210550Y126086711D01*
X26098107Y126254993D01*
X26098104Y126254997D01*
X25954991Y126398110D01*
X25954987Y126398113D01*
X25786705Y126510556D01*
X25786696Y126510561D01*
X25599706Y126588014D01*
X25599698Y126588016D01*
X25401199Y126627500D01*
X25401195Y126627500D01*
X25198795Y126627500D01*
X25198790Y126627500D01*
X25000291Y126588016D01*
X25000283Y126588014D01*
X24813293Y126510561D01*
X24813284Y126510556D01*
X24645002Y126398113D01*
X24644998Y126398110D01*
X24501885Y126254997D01*
X24501882Y126254993D01*
X24389439Y126086711D01*
X24389434Y126086702D01*
X24311981Y125899712D01*
X24311979Y125899704D01*
X24272495Y125701205D01*
X24272495Y125562561D01*
X24252810Y125495522D01*
X24200006Y125449767D01*
X24148847Y125438561D01*
X11795496Y125403532D01*
X11728401Y125423027D01*
X11682496Y125475701D01*
X11672357Y125544831D01*
X11701201Y125608469D01*
X11745744Y125641267D01*
X11759922Y125647425D01*
X12003240Y125795390D01*
X12224144Y125975109D01*
X12418519Y126183233D01*
X12582744Y126415887D01*
X12713759Y126668735D01*
X12809125Y126937068D01*
X12867064Y127215888D01*
X12886498Y127500000D01*
X12867064Y127784112D01*
X12809125Y128062932D01*
X12798245Y128093544D01*
X12720275Y128312932D01*
X12713760Y128331262D01*
X12713761Y128331262D01*
X12625510Y128501578D01*
X12582744Y128584113D01*
X12418519Y128816767D01*
X12418515Y128816771D01*
X12418514Y128816773D01*
X12353396Y128886497D01*
X12224144Y129024891D01*
X12003240Y129204610D01*
X12003238Y129204611D01*
X12003236Y129204613D01*
X11759920Y129352577D01*
X11498723Y129466030D01*
X11224512Y129542861D01*
X11224508Y129542862D01*
X11224507Y129542862D01*
X11083445Y129562251D01*
X10942384Y129581639D01*
X10942383Y129581639D01*
X10657607Y129581639D01*
X10657606Y129581639D01*
X10375483Y129542862D01*
X10375477Y129542861D01*
X10101266Y129466030D01*
X9840069Y129352577D01*
X9596753Y129204613D01*
X9375849Y129024894D01*
X9181475Y128816773D01*
X9017246Y128584114D01*
X8886229Y128331262D01*
X8790866Y128062938D01*
X8790865Y128062935D01*
X8732925Y127784107D01*
X8713492Y127500000D01*
X8732925Y127215894D01*
X8732925Y127215890D01*
X8732926Y127215888D01*
X8747341Y127146517D01*
X8790865Y126937066D01*
X8790866Y126937063D01*
X8886229Y126668739D01*
X8886228Y126668739D01*
X8994070Y126460614D01*
X9017246Y126415887D01*
X9151913Y126225107D01*
X9181475Y126183228D01*
X9253719Y126105875D01*
X9375846Y125975109D01*
X9596750Y125795390D01*
X9596752Y125795389D01*
X9596753Y125795388D01*
X9840069Y125647424D01*
X10020409Y125569092D01*
X10101268Y125533970D01*
X10375483Y125457138D01*
X10443176Y125447834D01*
X10506910Y125419204D01*
X10545049Y125360662D01*
X10550290Y125325481D01*
X10649902Y100223027D01*
X10649903Y100223026D01*
X10649995Y100200000D01*
X7149995Y100200000D01*
X7149995Y130191356D01*
X24372495Y130191356D01*
X24372495Y130008645D01*
X24408136Y129829466D01*
X24408138Y129829458D01*
X24478053Y129660667D01*
X24478058Y129660658D01*
X24579558Y129508754D01*
X24579561Y129508750D01*
X24708744Y129379567D01*
X24708748Y129379564D01*
X24860652Y129278064D01*
X24860661Y129278059D01*
X24898898Y129262221D01*
X25029453Y129208143D01*
X25208639Y129172501D01*
X25208643Y129172500D01*
X25208644Y129172500D01*
X25391347Y129172500D01*
X25391348Y129172501D01*
X25570537Y129208143D01*
X25690190Y129257705D01*
X64546995Y129257705D01*
X64546995Y129055296D01*
X64586479Y128856797D01*
X64586481Y128856789D01*
X64663934Y128669799D01*
X64663939Y128669790D01*
X64776382Y128501508D01*
X64776385Y128501504D01*
X64919498Y128358391D01*
X64919502Y128358388D01*
X65087784Y128245945D01*
X65087790Y128245942D01*
X65087791Y128245941D01*
X65274784Y128168486D01*
X65416124Y128140372D01*
X65473290Y128129001D01*
X65473294Y128129000D01*
X65473295Y128129000D01*
X65675696Y128129000D01*
X65675697Y128129001D01*
X65874206Y128168486D01*
X66061199Y128245941D01*
X66087598Y128263580D01*
X66154275Y128284459D01*
X66221655Y128265975D01*
X66268346Y128213997D01*
X66280174Y128169325D01*
X66285594Y128093539D01*
X66329791Y127890372D01*
X66341632Y127835941D01*
X66392870Y127698567D01*
X66433761Y127588933D01*
X66433763Y127588929D01*
X66560100Y127357560D01*
X66560105Y127357552D01*
X66718083Y127146517D01*
X66718099Y127146499D01*
X66904493Y126960105D01*
X66904511Y126960089D01*
X67115546Y126802111D01*
X67115554Y126802106D01*
X67346923Y126675769D01*
X67346927Y126675767D01*
X67346929Y126675766D01*
X67593936Y126583637D01*
X67722737Y126555618D01*
X67851533Y126527600D01*
X67851535Y126527600D01*
X67851539Y126527599D01*
X68085216Y126510887D01*
X68114494Y126508792D01*
X68114495Y126508792D01*
X68114496Y126508792D01*
X68140839Y126510677D01*
X68377451Y126527599D01*
X68635054Y126583637D01*
X68882061Y126675766D01*
X69113441Y126802109D01*
X69324486Y126960095D01*
X69510900Y127146509D01*
X69668886Y127357554D01*
X69795229Y127588934D01*
X69887358Y127835941D01*
X69943396Y128093544D01*
X69962203Y128356500D01*
X69943396Y128619456D01*
X69887358Y128877059D01*
X69795229Y129124066D01*
X69768781Y129172501D01*
X69668889Y129355441D01*
X69668884Y129355449D01*
X69561856Y129498423D01*
X87799495Y129498423D01*
X87799495Y128501578D01*
X87830285Y128307174D01*
X87891112Y128119971D01*
X87978447Y127948567D01*
X87980471Y127944595D01*
X88096167Y127785354D01*
X88235349Y127646172D01*
X88394590Y127530476D01*
X88454403Y127500000D01*
X88569965Y127441118D01*
X88569967Y127441118D01*
X88569970Y127441116D01*
X88670312Y127408513D01*
X88757168Y127380291D01*
X88951573Y127349500D01*
X88951578Y127349500D01*
X89148417Y127349500D01*
X89342821Y127380291D01*
X89530020Y127441116D01*
X89705400Y127530476D01*
X89864641Y127646172D01*
X90003823Y127785354D01*
X90119519Y127944595D01*
X90208879Y128119975D01*
X90269704Y128307174D01*
X90277516Y128356499D01*
X90300495Y128501578D01*
X90300495Y129498423D01*
X102299495Y129498423D01*
X102299495Y128501578D01*
X102330285Y128307174D01*
X102391112Y128119971D01*
X102478447Y127948567D01*
X102480471Y127944595D01*
X102596167Y127785354D01*
X102735349Y127646172D01*
X102894590Y127530476D01*
X102954403Y127500000D01*
X103069965Y127441118D01*
X103069967Y127441118D01*
X103069970Y127441116D01*
X103170312Y127408513D01*
X103257168Y127380291D01*
X103451573Y127349500D01*
X103451578Y127349500D01*
X103648417Y127349500D01*
X103842821Y127380291D01*
X104030020Y127441116D01*
X104205400Y127530476D01*
X104364641Y127646172D01*
X104503823Y127785354D01*
X104619519Y127944595D01*
X104708879Y128119975D01*
X104769704Y128307174D01*
X104777516Y128356499D01*
X104800495Y128501578D01*
X104800495Y129498423D01*
X104769704Y129692827D01*
X104737200Y129792862D01*
X104708879Y129880025D01*
X104708877Y129880028D01*
X104708877Y129880030D01*
X104643342Y130008649D01*
X104619519Y130055405D01*
X104503823Y130214646D01*
X104364641Y130353828D01*
X104205400Y130469524D01*
X104030024Y130558883D01*
X103842821Y130619710D01*
X103648417Y130650500D01*
X103648412Y130650500D01*
X103451578Y130650500D01*
X103451573Y130650500D01*
X103257168Y130619710D01*
X103069965Y130558883D01*
X102894589Y130469524D01*
X102803736Y130403515D01*
X102735349Y130353828D01*
X102735347Y130353826D01*
X102735346Y130353826D01*
X102596169Y130214649D01*
X102596169Y130214648D01*
X102596167Y130214646D01*
X102546480Y130146259D01*
X102480471Y130055406D01*
X102391112Y129880030D01*
X102330285Y129692827D01*
X102299495Y129498423D01*
X90300495Y129498423D01*
X90269704Y129692827D01*
X90237200Y129792862D01*
X90208879Y129880025D01*
X90208877Y129880028D01*
X90208877Y129880030D01*
X90143342Y130008649D01*
X90119519Y130055405D01*
X90003823Y130214646D01*
X89864641Y130353828D01*
X89705400Y130469524D01*
X89530024Y130558883D01*
X89342821Y130619710D01*
X89148417Y130650500D01*
X89148412Y130650500D01*
X88951578Y130650500D01*
X88951573Y130650500D01*
X88757168Y130619710D01*
X88569965Y130558883D01*
X88394589Y130469524D01*
X88303736Y130403515D01*
X88235349Y130353828D01*
X88235347Y130353826D01*
X88235346Y130353826D01*
X88096169Y130214649D01*
X88096169Y130214648D01*
X88096167Y130214646D01*
X88046480Y130146259D01*
X87980471Y130055406D01*
X87891112Y129880030D01*
X87830285Y129692827D01*
X87799495Y129498423D01*
X69561856Y129498423D01*
X69510906Y129566484D01*
X69510890Y129566502D01*
X69324496Y129752896D01*
X69324478Y129752912D01*
X69113443Y129910890D01*
X69113435Y129910895D01*
X68882066Y130037232D01*
X68882062Y130037234D01*
X68788417Y130072162D01*
X68635054Y130129363D01*
X68635050Y130129364D01*
X68635047Y130129365D01*
X68377456Y130185401D01*
X68114496Y130204208D01*
X68114494Y130204208D01*
X67851533Y130185401D01*
X67593942Y130129365D01*
X67593937Y130129364D01*
X67593936Y130129363D01*
X67534215Y130107089D01*
X67346927Y130037234D01*
X67346923Y130037232D01*
X67115554Y129910895D01*
X67115546Y129910890D01*
X66904511Y129752912D01*
X66904493Y129752896D01*
X66718099Y129566502D01*
X66715193Y129563147D01*
X66714134Y129564065D01*
X66663044Y129525846D01*
X66593351Y129520886D01*
X66532039Y129554392D01*
X66505190Y129594590D01*
X66485054Y129643204D01*
X66485050Y129643211D01*
X66372607Y129811493D01*
X66372604Y129811497D01*
X66229491Y129954610D01*
X66229487Y129954613D01*
X66061205Y130067056D01*
X66061196Y130067061D01*
X65874206Y130144514D01*
X65874198Y130144516D01*
X65675699Y130184000D01*
X65675695Y130184000D01*
X65473295Y130184000D01*
X65473290Y130184000D01*
X65274791Y130144516D01*
X65274783Y130144514D01*
X65087793Y130067061D01*
X65087784Y130067056D01*
X64919502Y129954613D01*
X64919498Y129954610D01*
X64776385Y129811497D01*
X64776382Y129811493D01*
X64663939Y129643211D01*
X64663934Y129643202D01*
X64586481Y129456212D01*
X64586479Y129456204D01*
X64546995Y129257705D01*
X25690190Y129257705D01*
X25739331Y129278060D01*
X25891242Y129379564D01*
X26020431Y129508753D01*
X26121935Y129660664D01*
X26191852Y129829458D01*
X26227495Y130008649D01*
X26227495Y130191351D01*
X26191852Y130370542D01*
X26121935Y130539336D01*
X26121934Y130539337D01*
X26121931Y130539343D01*
X26020431Y130691247D01*
X26020428Y130691251D01*
X25891245Y130820434D01*
X25891241Y130820437D01*
X25739337Y130921937D01*
X25739328Y130921942D01*
X25570537Y130991857D01*
X25570529Y130991859D01*
X25391350Y131027500D01*
X25391346Y131027500D01*
X25208644Y131027500D01*
X25208639Y131027500D01*
X25029460Y130991859D01*
X25029452Y130991857D01*
X24860661Y130921942D01*
X24860652Y130921937D01*
X24708748Y130820437D01*
X24708744Y130820434D01*
X24579561Y130691251D01*
X24579558Y130691247D01*
X24478058Y130539343D01*
X24478053Y130539334D01*
X24408138Y130370543D01*
X24408136Y130370535D01*
X24372495Y130191356D01*
X7149995Y130191356D01*
X7149995Y131576000D01*
X7169680Y131643039D01*
X7222484Y131688794D01*
X7273995Y131700000D01*
X116225995Y131700000D01*
X116293034Y131680315D01*
G37*
%TD.AperFunction*%
%TD*%
%TA.AperFunction,Conductor*%
%TO.N,VCC*%
G36*
X72901447Y97699973D02*
G01*
X88428656Y97402326D01*
X88495305Y97381360D01*
X88540040Y97327689D01*
X88550279Y97278639D01*
X88699994Y33350001D01*
X88699995Y33350000D01*
X104625995Y33350000D01*
X104693034Y33330315D01*
X104738789Y33277511D01*
X104749995Y33226000D01*
X104749995Y29923114D01*
X104730310Y29856075D01*
X104677506Y29810320D01*
X104626885Y29799117D01*
X83974572Y29650895D01*
X83907393Y29670098D01*
X83861260Y29722572D01*
X83849682Y29774578D01*
X83699995Y89500000D01*
X83699994Y89500000D01*
X39199995Y89500000D01*
X39199995Y69974504D01*
X39180310Y69907465D01*
X39127506Y69861710D01*
X39075493Y69850505D01*
X26973493Y69899501D01*
X26906534Y69919457D01*
X26860993Y69972446D01*
X26849995Y70023500D01*
X26849995Y97376538D01*
X26869680Y97443577D01*
X26922484Y97489332D01*
X26973452Y97500537D01*
X72898575Y97699994D01*
X72901447Y97699973D01*
G37*
%TD.AperFunction*%
%TD*%
%TA.AperFunction,Conductor*%
%TO.N,GND*%
G36*
X22292347Y100279936D02*
G01*
X22338448Y100227434D01*
X22349995Y100175182D01*
X22349995Y86624000D01*
X22330310Y86556961D01*
X22277506Y86511206D01*
X22225995Y86500000D01*
X9749995Y86500000D01*
X9775329Y67549967D01*
X26675953Y67523639D01*
X26742961Y67503850D01*
X26763440Y67487320D01*
X29331277Y64919482D01*
X29331279Y64919480D01*
X29418090Y64869361D01*
X29418092Y64869359D01*
X29462289Y64843842D01*
X29468210Y64840423D01*
X29509134Y64829458D01*
X29620938Y64799499D01*
X29620939Y64799499D01*
X29779051Y64799499D01*
X29779053Y64799499D01*
X29931780Y64840423D01*
X30068711Y64919480D01*
X30180515Y65031284D01*
X30259572Y65168215D01*
X30300496Y65320942D01*
X30300496Y65479057D01*
X30259572Y65631784D01*
X30259572Y65631785D01*
X30230634Y65681905D01*
X30180515Y65768716D01*
X28640470Y67308761D01*
X28606985Y67370084D01*
X28611969Y67439776D01*
X28653841Y67495709D01*
X28719305Y67520126D01*
X28728326Y67520442D01*
X32120203Y67515158D01*
X32185979Y67496153D01*
X32300473Y67424211D01*
X32455159Y67370084D01*
X32470740Y67364632D01*
X32470745Y67364631D01*
X32649991Y67344435D01*
X32649995Y67344435D01*
X32649999Y67344435D01*
X32829244Y67364631D01*
X32829246Y67364632D01*
X32829250Y67364632D01*
X32829253Y67364634D01*
X32829257Y67364634D01*
X32895835Y67387932D01*
X32999517Y67424211D01*
X33111391Y67494507D01*
X33177545Y67513511D01*
X41842388Y67500012D01*
X41849994Y67500000D01*
X41849994Y67500001D01*
X41849995Y67500000D01*
X41901866Y74208668D01*
X41906438Y74800004D01*
X50144780Y74800004D01*
X50144780Y74800003D01*
X50163597Y74596921D01*
X50219412Y74400756D01*
X50219417Y74400743D01*
X50310322Y74218182D01*
X50433232Y74055422D01*
X50583953Y73918023D01*
X50583955Y73918021D01*
X50683136Y73856611D01*
X50757358Y73810655D01*
X50947539Y73736979D01*
X51148019Y73699503D01*
X51148021Y73699503D01*
X51351969Y73699503D01*
X51351971Y73699503D01*
X51552451Y73736979D01*
X51742632Y73810655D01*
X51916036Y73918022D01*
X52066759Y74055424D01*
X52151041Y74167033D01*
X52207150Y74208668D01*
X52276862Y74213359D01*
X52338044Y74179617D01*
X52348949Y74167032D01*
X52433232Y74055422D01*
X52583953Y73918023D01*
X52583955Y73918021D01*
X52683136Y73856611D01*
X52757358Y73810655D01*
X52947539Y73736979D01*
X53148019Y73699503D01*
X53148021Y73699503D01*
X53351969Y73699503D01*
X53351971Y73699503D01*
X53552451Y73736979D01*
X53742632Y73810655D01*
X53916036Y73918022D01*
X54066759Y74055424D01*
X54151041Y74167033D01*
X54207150Y74208668D01*
X54276862Y74213359D01*
X54338044Y74179617D01*
X54348949Y74167032D01*
X54433232Y74055422D01*
X54583953Y73918023D01*
X54583955Y73918021D01*
X54683136Y73856611D01*
X54757358Y73810655D01*
X54947539Y73736979D01*
X55148019Y73699503D01*
X55148021Y73699503D01*
X55351969Y73699503D01*
X55351971Y73699503D01*
X55552451Y73736979D01*
X55742632Y73810655D01*
X55916036Y73918022D01*
X56066759Y74055424D01*
X56151041Y74167033D01*
X56207150Y74208668D01*
X56276862Y74213359D01*
X56338044Y74179617D01*
X56348949Y74167032D01*
X56433232Y74055422D01*
X56583953Y73918023D01*
X56583955Y73918021D01*
X56683136Y73856611D01*
X56757358Y73810655D01*
X56947539Y73736979D01*
X57148019Y73699503D01*
X57148021Y73699503D01*
X57351969Y73699503D01*
X57351971Y73699503D01*
X57552451Y73736979D01*
X57742632Y73810655D01*
X57916036Y73918022D01*
X58066759Y74055424D01*
X58189668Y74218182D01*
X58280577Y74400753D01*
X58336392Y74596920D01*
X58355210Y74800003D01*
X58336392Y75003086D01*
X58280577Y75199253D01*
X58189668Y75381824D01*
X58066759Y75544582D01*
X58066757Y75544585D01*
X57916036Y75681984D01*
X57916034Y75681986D01*
X57742637Y75789348D01*
X57742630Y75789352D01*
X57605551Y75842456D01*
X57552451Y75863027D01*
X57351971Y75900503D01*
X57198794Y75900503D01*
X57131755Y75920188D01*
X57086000Y75972992D01*
X57076056Y76042150D01*
X57099840Y76099230D01*
X57139788Y76152130D01*
X57189668Y76218182D01*
X57280577Y76400753D01*
X57336392Y76596920D01*
X57355210Y76800003D01*
X57336392Y77003086D01*
X57280577Y77199253D01*
X57279464Y77201488D01*
X57236267Y77288239D01*
X57189668Y77381824D01*
X57066759Y77544582D01*
X57066757Y77544585D01*
X56916036Y77681984D01*
X56916034Y77681986D01*
X56742637Y77789348D01*
X56742630Y77789352D01*
X56647541Y77826189D01*
X56552451Y77863027D01*
X56351971Y77900503D01*
X56148019Y77900503D01*
X55947539Y77863027D01*
X55947536Y77863027D01*
X55947536Y77863026D01*
X55757359Y77789352D01*
X55757352Y77789348D01*
X55583955Y77681986D01*
X55583953Y77681984D01*
X55433232Y77544584D01*
X55348949Y77432975D01*
X55292840Y77391339D01*
X55223128Y77386648D01*
X55161946Y77420390D01*
X55151041Y77432975D01*
X55113181Y77483109D01*
X55066759Y77544582D01*
X55026856Y77580958D01*
X54916036Y77681984D01*
X54916034Y77681986D01*
X54742637Y77789348D01*
X54742630Y77789352D01*
X54647541Y77826189D01*
X54552451Y77863027D01*
X54351971Y77900503D01*
X54148019Y77900503D01*
X53947539Y77863027D01*
X53947536Y77863027D01*
X53947536Y77863026D01*
X53757359Y77789352D01*
X53757352Y77789348D01*
X53583955Y77681986D01*
X53583953Y77681984D01*
X53433232Y77544584D01*
X53348949Y77432975D01*
X53292840Y77391339D01*
X53223128Y77386648D01*
X53161946Y77420390D01*
X53151041Y77432975D01*
X53113181Y77483109D01*
X53066759Y77544582D01*
X53026856Y77580958D01*
X52916036Y77681984D01*
X52916034Y77681986D01*
X52742637Y77789348D01*
X52742630Y77789352D01*
X52647541Y77826189D01*
X52552451Y77863027D01*
X52351971Y77900503D01*
X52148019Y77900503D01*
X51947539Y77863027D01*
X51947536Y77863027D01*
X51947536Y77863026D01*
X51757359Y77789352D01*
X51757352Y77789348D01*
X51583955Y77681986D01*
X51583953Y77681984D01*
X51433232Y77544585D01*
X51310322Y77381825D01*
X51219417Y77199264D01*
X51219412Y77199251D01*
X51163597Y77003086D01*
X51144780Y76800004D01*
X51144780Y76800003D01*
X51163597Y76596921D01*
X51219412Y76400756D01*
X51219417Y76400743D01*
X51310322Y76218182D01*
X51400150Y76099230D01*
X51424842Y76033868D01*
X51410277Y75965534D01*
X51361079Y75915921D01*
X51301196Y75900503D01*
X51148019Y75900503D01*
X50947539Y75863027D01*
X50947536Y75863027D01*
X50947536Y75863026D01*
X50757359Y75789352D01*
X50757352Y75789348D01*
X50583955Y75681986D01*
X50583953Y75681984D01*
X50433232Y75544585D01*
X50310322Y75381825D01*
X50219417Y75199264D01*
X50219412Y75199251D01*
X50163597Y75003086D01*
X50144780Y74800004D01*
X41906438Y74800004D01*
X41932360Y78152517D01*
X48147495Y78152517D01*
X48147495Y77947490D01*
X48172542Y77789351D01*
X48179566Y77745000D01*
X48215062Y77635757D01*
X48242922Y77550012D01*
X48335999Y77367341D01*
X48456497Y77201488D01*
X48456501Y77201483D01*
X48601474Y77056510D01*
X48601479Y77056506D01*
X48746145Y76951402D01*
X48767336Y76936005D01*
X48883733Y76876698D01*
X48950003Y76842931D01*
X48950005Y76842931D01*
X48950008Y76842929D01*
X49144992Y76779574D01*
X49257488Y76761757D01*
X49347482Y76747503D01*
X49347486Y76747503D01*
X49552508Y76747503D01*
X49633501Y76760332D01*
X49754998Y76779574D01*
X49949982Y76842929D01*
X50132654Y76936005D01*
X50298517Y77056511D01*
X50443487Y77201481D01*
X50563993Y77367344D01*
X50657069Y77550016D01*
X50720424Y77745000D01*
X50744038Y77894095D01*
X50752495Y77947490D01*
X50752495Y78152517D01*
X57297495Y78152517D01*
X57297495Y77947490D01*
X57322542Y77789351D01*
X57329566Y77745000D01*
X57365062Y77635757D01*
X57392922Y77550012D01*
X57485999Y77367341D01*
X57606497Y77201488D01*
X57606501Y77201483D01*
X57751474Y77056510D01*
X57751479Y77056506D01*
X57896145Y76951402D01*
X57917336Y76936005D01*
X58033733Y76876698D01*
X58100003Y76842931D01*
X58100005Y76842931D01*
X58100008Y76842929D01*
X58294992Y76779574D01*
X58407488Y76761757D01*
X58497482Y76747503D01*
X58497486Y76747503D01*
X58702508Y76747503D01*
X58818214Y76765830D01*
X58904998Y76779574D01*
X58992129Y76807886D01*
X59061967Y76809882D01*
X59121801Y76773802D01*
X59152630Y76711101D01*
X59153917Y76701396D01*
X59163597Y76596921D01*
X59219412Y76400756D01*
X59219417Y76400743D01*
X59310322Y76218182D01*
X59433232Y76055422D01*
X59583953Y75918023D01*
X59583955Y75918021D01*
X59587347Y75915921D01*
X59757358Y75810655D01*
X59947539Y75736979D01*
X60148019Y75699503D01*
X60148021Y75699503D01*
X60301196Y75699503D01*
X60368235Y75679818D01*
X60413990Y75627014D01*
X60423934Y75557856D01*
X60400150Y75500776D01*
X60310322Y75381825D01*
X60219417Y75199264D01*
X60219412Y75199251D01*
X60163597Y75003086D01*
X60144780Y74800004D01*
X60144780Y74800003D01*
X60163597Y74596921D01*
X60219412Y74400756D01*
X60219417Y74400743D01*
X60310322Y74218182D01*
X60433232Y74055422D01*
X60583953Y73918023D01*
X60583955Y73918021D01*
X60683136Y73856611D01*
X60757358Y73810655D01*
X60947539Y73736979D01*
X61148019Y73699503D01*
X61148021Y73699503D01*
X61351969Y73699503D01*
X61351971Y73699503D01*
X61552451Y73736979D01*
X61742632Y73810655D01*
X61916036Y73918022D01*
X62066759Y74055424D01*
X62151041Y74167033D01*
X62207150Y74208668D01*
X62276862Y74213359D01*
X62338044Y74179617D01*
X62348949Y74167032D01*
X62433232Y74055422D01*
X62583953Y73918023D01*
X62583955Y73918021D01*
X62683136Y73856611D01*
X62757358Y73810655D01*
X62947539Y73736979D01*
X63148019Y73699503D01*
X63148021Y73699503D01*
X63351969Y73699503D01*
X63351971Y73699503D01*
X63552451Y73736979D01*
X63742632Y73810655D01*
X63916036Y73918022D01*
X64066759Y74055424D01*
X64151041Y74167033D01*
X64207150Y74208668D01*
X64276862Y74213359D01*
X64338044Y74179617D01*
X64348949Y74167032D01*
X64433232Y74055422D01*
X64583953Y73918023D01*
X64583955Y73918021D01*
X64683136Y73856611D01*
X64757358Y73810655D01*
X64947539Y73736979D01*
X65148019Y73699503D01*
X65148021Y73699503D01*
X65351969Y73699503D01*
X65351971Y73699503D01*
X65552451Y73736979D01*
X65742632Y73810655D01*
X65916036Y73918022D01*
X66066759Y74055424D01*
X66189668Y74218182D01*
X66280577Y74400753D01*
X66336392Y74596920D01*
X66355210Y74800003D01*
X66336392Y75003086D01*
X66280577Y75199253D01*
X66189668Y75381824D01*
X66099840Y75500776D01*
X66075148Y75566138D01*
X66089713Y75634472D01*
X66138911Y75684085D01*
X66198794Y75699503D01*
X66351969Y75699503D01*
X66351971Y75699503D01*
X66552451Y75736979D01*
X66742632Y75810655D01*
X66916036Y75918022D01*
X67066759Y76055424D01*
X67151041Y76167033D01*
X67207150Y76208668D01*
X67276862Y76213359D01*
X67338044Y76179617D01*
X67348946Y76167036D01*
X67360202Y76152130D01*
X67433232Y76055422D01*
X67583953Y75918023D01*
X67583955Y75918021D01*
X67587347Y75915921D01*
X67757358Y75810655D01*
X67947539Y75736979D01*
X68148019Y75699503D01*
X68148021Y75699503D01*
X68301196Y75699503D01*
X68368235Y75679818D01*
X68413990Y75627014D01*
X68423934Y75557856D01*
X68400150Y75500776D01*
X68310322Y75381825D01*
X68219417Y75199264D01*
X68219412Y75199251D01*
X68163597Y75003086D01*
X68144780Y74800004D01*
X68144780Y74800003D01*
X68163597Y74596921D01*
X68219412Y74400756D01*
X68219417Y74400743D01*
X68310322Y74218182D01*
X68433232Y74055422D01*
X68583953Y73918023D01*
X68583955Y73918021D01*
X68683136Y73856611D01*
X68757358Y73810655D01*
X68947539Y73736979D01*
X69148019Y73699503D01*
X69148021Y73699503D01*
X69351969Y73699503D01*
X69351971Y73699503D01*
X69552451Y73736979D01*
X69742632Y73810655D01*
X69916036Y73918022D01*
X70066759Y74055424D01*
X70189668Y74218182D01*
X70280577Y74400753D01*
X70336392Y74596920D01*
X70355210Y74800003D01*
X70336392Y75003086D01*
X70280577Y75199253D01*
X70189668Y75381824D01*
X70099839Y75500777D01*
X70075147Y75566139D01*
X70089712Y75634473D01*
X70138910Y75684086D01*
X70198793Y75699504D01*
X70897866Y75699504D01*
X70897867Y75699504D01*
X70957478Y75705912D01*
X71092326Y75756207D01*
X71207541Y75842457D01*
X71293791Y75957672D01*
X71344086Y76092520D01*
X71350495Y76152130D01*
X71350494Y77447875D01*
X71344086Y77507486D01*
X71330249Y77544584D01*
X71293792Y77642332D01*
X71293788Y77642339D01*
X71207542Y77757548D01*
X71207539Y77757551D01*
X71092330Y77843797D01*
X71092323Y77843801D01*
X70957477Y77894095D01*
X70957478Y77894095D01*
X70897878Y77900502D01*
X70897876Y77900503D01*
X70897868Y77900503D01*
X70897859Y77900503D01*
X69602124Y77900503D01*
X69602118Y77900502D01*
X69542511Y77894095D01*
X69407666Y77843801D01*
X69407659Y77843797D01*
X69292450Y77757551D01*
X69292447Y77757548D01*
X69206201Y77642339D01*
X69201948Y77634549D01*
X69199736Y77635757D01*
X69165835Y77590492D01*
X69100365Y77566090D01*
X69032096Y77580958D01*
X69008010Y77598139D01*
X68916036Y77681984D01*
X68916034Y77681986D01*
X68742637Y77789348D01*
X68742630Y77789352D01*
X68647541Y77826189D01*
X68552451Y77863027D01*
X68351971Y77900503D01*
X68148019Y77900503D01*
X67947539Y77863027D01*
X67947536Y77863027D01*
X67947536Y77863026D01*
X67757359Y77789352D01*
X67757352Y77789348D01*
X67583955Y77681986D01*
X67583953Y77681984D01*
X67433232Y77544584D01*
X67348949Y77432975D01*
X67292840Y77391339D01*
X67223128Y77386648D01*
X67161946Y77420390D01*
X67151041Y77432975D01*
X67113181Y77483109D01*
X67066759Y77544582D01*
X67026856Y77580958D01*
X66916036Y77681984D01*
X66916034Y77681986D01*
X66742637Y77789348D01*
X66742630Y77789352D01*
X66647541Y77826189D01*
X66552451Y77863027D01*
X66351971Y77900503D01*
X66148019Y77900503D01*
X65947539Y77863027D01*
X65947536Y77863027D01*
X65947536Y77863026D01*
X65757359Y77789352D01*
X65757352Y77789348D01*
X65583955Y77681986D01*
X65583953Y77681984D01*
X65433232Y77544584D01*
X65348949Y77432975D01*
X65292840Y77391339D01*
X65223128Y77386648D01*
X65161946Y77420390D01*
X65151041Y77432975D01*
X65113181Y77483109D01*
X65066759Y77544582D01*
X65026856Y77580958D01*
X64916036Y77681984D01*
X64916034Y77681986D01*
X64742637Y77789348D01*
X64742630Y77789352D01*
X64647541Y77826189D01*
X64552451Y77863027D01*
X64351971Y77900503D01*
X64148019Y77900503D01*
X63947539Y77863027D01*
X63947536Y77863027D01*
X63947536Y77863026D01*
X63757359Y77789352D01*
X63757352Y77789348D01*
X63583955Y77681986D01*
X63583953Y77681984D01*
X63433232Y77544584D01*
X63348949Y77432975D01*
X63292840Y77391339D01*
X63223128Y77386648D01*
X63161946Y77420390D01*
X63151041Y77432975D01*
X63113181Y77483109D01*
X63066759Y77544582D01*
X63026856Y77580958D01*
X62916036Y77681984D01*
X62916034Y77681986D01*
X62742637Y77789348D01*
X62742630Y77789352D01*
X62647541Y77826189D01*
X62552451Y77863027D01*
X62351971Y77900503D01*
X62148019Y77900503D01*
X61947539Y77863027D01*
X61947536Y77863027D01*
X61947536Y77863026D01*
X61757359Y77789352D01*
X61757352Y77789348D01*
X61583955Y77681986D01*
X61583953Y77681984D01*
X61433232Y77544584D01*
X61348949Y77432975D01*
X61292840Y77391339D01*
X61223128Y77386648D01*
X61161946Y77420390D01*
X61151041Y77432975D01*
X61113181Y77483109D01*
X61066759Y77544582D01*
X61026856Y77580958D01*
X60916036Y77681984D01*
X60916034Y77681986D01*
X60742637Y77789348D01*
X60742630Y77789352D01*
X60647541Y77826189D01*
X60552451Y77863027D01*
X60351971Y77900503D01*
X60148019Y77900503D01*
X60124652Y77896136D01*
X60049279Y77882046D01*
X59979764Y77889078D01*
X59925086Y77932576D01*
X59902604Y77998730D01*
X59902495Y78003935D01*
X59902495Y78096072D01*
X59922180Y78163111D01*
X59974984Y78208866D01*
X60044142Y78218810D01*
X60049253Y78217966D01*
X60148019Y78199503D01*
X60148021Y78199503D01*
X60351969Y78199503D01*
X60351971Y78199503D01*
X60552451Y78236979D01*
X60742632Y78310655D01*
X60916036Y78418022D01*
X61066759Y78555424D01*
X61189668Y78718182D01*
X61280577Y78900753D01*
X61336392Y79096920D01*
X61355210Y79300003D01*
X61336392Y79503086D01*
X61280577Y79699253D01*
X61189668Y79881824D01*
X61066759Y80044582D01*
X61066757Y80044585D01*
X60916036Y80181984D01*
X60916034Y80181986D01*
X60742637Y80289348D01*
X60742630Y80289352D01*
X60647541Y80326189D01*
X60552451Y80363027D01*
X60351971Y80400503D01*
X60148019Y80400503D01*
X59947539Y80363027D01*
X59947536Y80363027D01*
X59947536Y80363026D01*
X59757359Y80289352D01*
X59757352Y80289348D01*
X59583955Y80181986D01*
X59583953Y80181984D01*
X59433232Y80044585D01*
X59310322Y79881825D01*
X59219417Y79699264D01*
X59219412Y79699251D01*
X59163597Y79503085D01*
X59153917Y79398611D01*
X59128131Y79333674D01*
X59071330Y79292986D01*
X59001549Y79289466D01*
X58992142Y79292117D01*
X58904998Y79320432D01*
X58904992Y79320433D01*
X58702508Y79352503D01*
X58702504Y79352503D01*
X58497486Y79352503D01*
X58497482Y79352503D01*
X58294997Y79320433D01*
X58294995Y79320433D01*
X58294992Y79320432D01*
X58210523Y79292986D01*
X58100003Y79257076D01*
X57917332Y79163999D01*
X57751479Y79043501D01*
X57751474Y79043497D01*
X57606501Y78898524D01*
X57606497Y78898519D01*
X57485999Y78732666D01*
X57392922Y78549995D01*
X57361243Y78452498D01*
X57329566Y78355006D01*
X57329565Y78355003D01*
X57329565Y78355001D01*
X57297495Y78152517D01*
X50752495Y78152517D01*
X50727448Y78310655D01*
X50720424Y78355006D01*
X50657069Y78549990D01*
X50657067Y78549993D01*
X50657067Y78549995D01*
X50593118Y78675500D01*
X50563993Y78732662D01*
X50548596Y78753853D01*
X50443492Y78898519D01*
X50443488Y78898524D01*
X50298515Y79043497D01*
X50298510Y79043501D01*
X50132657Y79163999D01*
X50132656Y79164000D01*
X50132654Y79164001D01*
X50075608Y79193067D01*
X49949986Y79257076D01*
X49903206Y79272276D01*
X49754998Y79320432D01*
X49754992Y79320433D01*
X49552508Y79352503D01*
X49552504Y79352503D01*
X49347486Y79352503D01*
X49347482Y79352503D01*
X49144997Y79320433D01*
X49144995Y79320433D01*
X49144992Y79320432D01*
X49060523Y79292986D01*
X48950003Y79257076D01*
X48767332Y79163999D01*
X48601479Y79043501D01*
X48601474Y79043497D01*
X48456501Y78898524D01*
X48456497Y78898519D01*
X48335999Y78732666D01*
X48242922Y78549995D01*
X48211243Y78452498D01*
X48179566Y78355006D01*
X48179565Y78355003D01*
X48179565Y78355001D01*
X48147495Y78152517D01*
X41932360Y78152517D01*
X41956696Y81300004D01*
X50144780Y81300004D01*
X50144780Y81300003D01*
X50163597Y81096921D01*
X50219412Y80900756D01*
X50219417Y80900743D01*
X50310322Y80718182D01*
X50433232Y80555422D01*
X50583953Y80418023D01*
X50583955Y80418021D01*
X50612248Y80400503D01*
X50757358Y80310655D01*
X50947539Y80236979D01*
X51148019Y80199503D01*
X51148021Y80199503D01*
X51301196Y80199503D01*
X51368235Y80179818D01*
X51413990Y80127014D01*
X51423934Y80057856D01*
X51400150Y80000776D01*
X51310322Y79881825D01*
X51219417Y79699264D01*
X51219412Y79699251D01*
X51163597Y79503086D01*
X51144780Y79300004D01*
X51144780Y79300003D01*
X51163597Y79096921D01*
X51219412Y78900756D01*
X51219417Y78900743D01*
X51310322Y78718182D01*
X51433232Y78555422D01*
X51583953Y78418023D01*
X51583955Y78418021D01*
X51683136Y78356611D01*
X51757358Y78310655D01*
X51947539Y78236979D01*
X52148019Y78199503D01*
X52148021Y78199503D01*
X52351969Y78199503D01*
X52351971Y78199503D01*
X52552451Y78236979D01*
X52742632Y78310655D01*
X52916036Y78418022D01*
X53066759Y78555424D01*
X53151041Y78667033D01*
X53207150Y78708668D01*
X53276862Y78713359D01*
X53338044Y78679617D01*
X53348949Y78667032D01*
X53433232Y78555422D01*
X53583953Y78418023D01*
X53583955Y78418021D01*
X53683136Y78356611D01*
X53757358Y78310655D01*
X53947539Y78236979D01*
X54148019Y78199503D01*
X54148021Y78199503D01*
X54351969Y78199503D01*
X54351971Y78199503D01*
X54552451Y78236979D01*
X54742632Y78310655D01*
X54916036Y78418022D01*
X55066759Y78555424D01*
X55151041Y78667033D01*
X55207150Y78708668D01*
X55276862Y78713359D01*
X55338044Y78679617D01*
X55348949Y78667032D01*
X55433232Y78555422D01*
X55583953Y78418023D01*
X55583955Y78418021D01*
X55683136Y78356611D01*
X55757358Y78310655D01*
X55947539Y78236979D01*
X56148019Y78199503D01*
X56148021Y78199503D01*
X56351969Y78199503D01*
X56351971Y78199503D01*
X56552451Y78236979D01*
X56742632Y78310655D01*
X56916036Y78418022D01*
X57066759Y78555424D01*
X57189668Y78718182D01*
X57280577Y78900753D01*
X57336392Y79096920D01*
X57355210Y79300003D01*
X57336392Y79503086D01*
X57280577Y79699253D01*
X57189668Y79881824D01*
X57099840Y80000776D01*
X57075148Y80066138D01*
X57089713Y80134472D01*
X57138911Y80184085D01*
X57198794Y80199503D01*
X57351969Y80199503D01*
X57351971Y80199503D01*
X57552451Y80236979D01*
X57742632Y80310655D01*
X57916036Y80418022D01*
X58066759Y80555424D01*
X58189668Y80718182D01*
X58280577Y80900753D01*
X58336392Y81096920D01*
X58355210Y81300003D01*
X58336392Y81503086D01*
X58280577Y81699253D01*
X58251490Y81757667D01*
X58219416Y81822082D01*
X58189668Y81881824D01*
X58078337Y82029250D01*
X58066757Y82044585D01*
X57916036Y82181984D01*
X57916034Y82181986D01*
X57742637Y82289348D01*
X57742630Y82289352D01*
X57647541Y82326189D01*
X57552451Y82363027D01*
X57351971Y82400503D01*
X57148019Y82400503D01*
X56947539Y82363027D01*
X56947536Y82363027D01*
X56947536Y82363026D01*
X56757359Y82289352D01*
X56757352Y82289348D01*
X56583955Y82181986D01*
X56583953Y82181984D01*
X56433232Y82044584D01*
X56348949Y81932975D01*
X56292840Y81891339D01*
X56223128Y81886648D01*
X56161946Y81920390D01*
X56151041Y81932975D01*
X56066757Y82044584D01*
X55916036Y82181984D01*
X55916034Y82181986D01*
X55742637Y82289348D01*
X55742630Y82289352D01*
X55647541Y82326189D01*
X55552451Y82363027D01*
X55351971Y82400503D01*
X55148019Y82400503D01*
X54947539Y82363027D01*
X54947536Y82363027D01*
X54947536Y82363026D01*
X54757359Y82289352D01*
X54757352Y82289348D01*
X54583955Y82181986D01*
X54583953Y82181984D01*
X54433232Y82044584D01*
X54348949Y81932975D01*
X54292840Y81891339D01*
X54223128Y81886648D01*
X54161946Y81920390D01*
X54151041Y81932975D01*
X54066757Y82044584D01*
X53916036Y82181984D01*
X53916034Y82181986D01*
X53742637Y82289348D01*
X53742630Y82289352D01*
X53647541Y82326189D01*
X53552451Y82363027D01*
X53351971Y82400503D01*
X53148019Y82400503D01*
X52947539Y82363027D01*
X52947536Y82363027D01*
X52947536Y82363026D01*
X52757359Y82289352D01*
X52757352Y82289348D01*
X52583955Y82181986D01*
X52583953Y82181984D01*
X52433232Y82044584D01*
X52348949Y81932975D01*
X52292840Y81891339D01*
X52223128Y81886648D01*
X52161946Y81920390D01*
X52151041Y81932975D01*
X52066757Y82044584D01*
X51916036Y82181984D01*
X51916034Y82181986D01*
X51742637Y82289348D01*
X51742630Y82289352D01*
X51647541Y82326189D01*
X51552451Y82363027D01*
X51351971Y82400503D01*
X51148019Y82400503D01*
X50947539Y82363027D01*
X50947536Y82363027D01*
X50947536Y82363026D01*
X50757359Y82289352D01*
X50757352Y82289348D01*
X50583955Y82181986D01*
X50583953Y82181984D01*
X50433232Y82044585D01*
X50310322Y81881825D01*
X50219417Y81699264D01*
X50219412Y81699251D01*
X50163597Y81503086D01*
X50144780Y81300004D01*
X41956696Y81300004D01*
X41999044Y86776959D01*
X42019246Y86843844D01*
X42072402Y86889189D01*
X42123040Y86900000D01*
X78551396Y86900000D01*
X78618435Y86880315D01*
X78664190Y86827511D01*
X78674134Y86758353D01*
X78645109Y86694797D01*
X78639077Y86688319D01*
X74631460Y82680702D01*
X74570137Y82647217D01*
X74557663Y82645163D01*
X74470745Y82635370D01*
X74300473Y82575790D01*
X74147732Y82479816D01*
X74020179Y82352263D01*
X73924206Y82199524D01*
X73864626Y82029255D01*
X73864625Y82029250D01*
X73844430Y81850004D01*
X73844430Y81849997D01*
X73864625Y81670751D01*
X73864626Y81670746D01*
X73924206Y81500477D01*
X74020179Y81347738D01*
X74147733Y81220184D01*
X74300473Y81124211D01*
X74470740Y81064632D01*
X74470745Y81064631D01*
X74649991Y81044435D01*
X74649995Y81044435D01*
X74649999Y81044435D01*
X74829244Y81064631D01*
X74829247Y81064632D01*
X74829250Y81064632D01*
X74999517Y81124211D01*
X75152257Y81220184D01*
X75279811Y81347738D01*
X75375784Y81500478D01*
X75435363Y81670745D01*
X75445156Y81757671D01*
X75472221Y81822082D01*
X75480685Y81831457D01*
X80512911Y86863682D01*
X80574234Y86897166D01*
X80600592Y86900000D01*
X82776411Y86900000D01*
X82843450Y86880315D01*
X82889205Y86827511D01*
X82900410Y86776417D01*
X83077425Y34114632D01*
X83099995Y27400000D01*
X105399995Y27350000D01*
X105345911Y66425017D01*
X107199495Y66425017D01*
X107199495Y65074999D01*
X107199496Y65074982D01*
X107209995Y64972204D01*
X107209996Y64972201D01*
X107244075Y64869359D01*
X107265181Y64805666D01*
X107357283Y64656344D01*
X107481339Y64532288D01*
X107630661Y64440186D01*
X107797198Y64385001D01*
X107899986Y64374500D01*
X108700003Y64374501D01*
X108700011Y64374502D01*
X108700014Y64374502D01*
X108756297Y64380252D01*
X108802792Y64385001D01*
X108969329Y64440186D01*
X109118651Y64532288D01*
X109242707Y64656344D01*
X109334809Y64805666D01*
X109389994Y64972203D01*
X109400495Y65074991D01*
X109400494Y66425008D01*
X109389994Y66527797D01*
X109334809Y66694334D01*
X109242707Y66843656D01*
X109118651Y66967712D01*
X108969329Y67059814D01*
X108802792Y67114999D01*
X108802790Y67115000D01*
X108700005Y67125500D01*
X107899993Y67125500D01*
X107899975Y67125499D01*
X107797198Y67115000D01*
X107797195Y67114999D01*
X107630663Y67059815D01*
X107630658Y67059813D01*
X107481337Y66967711D01*
X107357284Y66843658D01*
X107265182Y66694337D01*
X107265181Y66694334D01*
X107209996Y66527797D01*
X107209996Y66527796D01*
X107209995Y66527796D01*
X107199495Y66425017D01*
X105345911Y66425017D01*
X105329925Y77975017D01*
X107299495Y77975017D01*
X107299495Y76624999D01*
X107299496Y76624982D01*
X107309995Y76522204D01*
X107309996Y76522201D01*
X107350244Y76400743D01*
X107365181Y76355666D01*
X107457283Y76206344D01*
X107581339Y76082288D01*
X107730661Y75990186D01*
X107897198Y75935001D01*
X107999986Y75924500D01*
X108800003Y75924501D01*
X108800011Y75924502D01*
X108800014Y75924502D01*
X108856297Y75930252D01*
X108902792Y75935001D01*
X109069329Y75990186D01*
X109218651Y76082288D01*
X109342707Y76206344D01*
X109434809Y76355666D01*
X109489994Y76522203D01*
X109500495Y76624991D01*
X109500494Y77975008D01*
X109489994Y78077797D01*
X109434809Y78244334D01*
X109342707Y78393656D01*
X109218651Y78517712D01*
X109069329Y78609814D01*
X108902792Y78664999D01*
X108902790Y78665000D01*
X108800005Y78675500D01*
X107999993Y78675500D01*
X107999975Y78675499D01*
X107897198Y78665000D01*
X107897195Y78664999D01*
X107730663Y78609815D01*
X107730658Y78609813D01*
X107581337Y78517711D01*
X107457284Y78393658D01*
X107365182Y78244337D01*
X107365180Y78244332D01*
X107356723Y78218810D01*
X107309996Y78077797D01*
X107309996Y78077796D01*
X107309995Y78077796D01*
X107299495Y77975017D01*
X105329925Y77975017D01*
X105313662Y89725017D01*
X107199495Y89725017D01*
X107199495Y88374999D01*
X107199496Y88374982D01*
X107209995Y88272204D01*
X107209996Y88272201D01*
X107265180Y88105669D01*
X107265181Y88105666D01*
X107357283Y87956344D01*
X107481339Y87832288D01*
X107630661Y87740186D01*
X107797198Y87685001D01*
X107899986Y87674500D01*
X108700003Y87674501D01*
X108700011Y87674502D01*
X108700014Y87674502D01*
X108758945Y87680522D01*
X108802792Y87685001D01*
X108969329Y87740186D01*
X109118651Y87832288D01*
X109242707Y87956344D01*
X109334809Y88105666D01*
X109389994Y88272203D01*
X109400495Y88374991D01*
X109400494Y89725008D01*
X109389994Y89827797D01*
X109334809Y89994334D01*
X109242707Y90143656D01*
X109118651Y90267712D01*
X108969329Y90359814D01*
X108802792Y90414999D01*
X108802790Y90415000D01*
X108700005Y90425500D01*
X107899993Y90425500D01*
X107899975Y90425499D01*
X107797198Y90415000D01*
X107797195Y90414999D01*
X107630663Y90359815D01*
X107630658Y90359813D01*
X107481337Y90267711D01*
X107357284Y90143658D01*
X107265182Y89994337D01*
X107265181Y89994334D01*
X107209996Y89827797D01*
X107209996Y89827796D01*
X107209995Y89827796D01*
X107199495Y89725017D01*
X105313662Y89725017D01*
X105300167Y99475112D01*
X105319759Y99542176D01*
X105372499Y99588004D01*
X105424879Y99599279D01*
X113826713Y99550713D01*
X113893636Y99530641D01*
X113939085Y99477574D01*
X113949995Y99426715D01*
X113949995Y54633221D01*
X113930310Y54566182D01*
X113877506Y54520427D01*
X113808348Y54510483D01*
X113760023Y54528227D01*
X113527902Y54674078D01*
X113219211Y54822736D01*
X112895813Y54935897D01*
X112895811Y54935898D01*
X112638019Y54994738D01*
X112561778Y55012139D01*
X112561775Y55012140D01*
X112561763Y55012142D01*
X112221313Y55050500D01*
X112221307Y55050500D01*
X111878683Y55050500D01*
X111878676Y55050500D01*
X111538226Y55012142D01*
X111538212Y55012139D01*
X111204178Y54935898D01*
X111204176Y54935897D01*
X110880778Y54822736D01*
X110572087Y54674078D01*
X110281978Y54491790D01*
X110014102Y54278167D01*
X109771828Y54035893D01*
X109558205Y53768017D01*
X109375917Y53477908D01*
X109227259Y53169217D01*
X109114098Y52845819D01*
X109114097Y52845817D01*
X109037856Y52511783D01*
X109037853Y52511769D01*
X108999495Y52171319D01*
X108999495Y51828682D01*
X109037853Y51488232D01*
X109037856Y51488218D01*
X109114097Y51154184D01*
X109114098Y51154182D01*
X109227259Y50830784D01*
X109375917Y50522093D01*
X109375919Y50522090D01*
X109558206Y50231982D01*
X109771829Y49964107D01*
X110014102Y49721834D01*
X110281977Y49508211D01*
X110572085Y49325924D01*
X110880780Y49177264D01*
X111204178Y49064103D01*
X111538212Y48987861D01*
X111538221Y48987860D01*
X111538226Y48987859D01*
X111765192Y48962287D01*
X111878677Y48949501D01*
X111878680Y48949500D01*
X111878683Y48949500D01*
X112221310Y48949500D01*
X112221311Y48949501D01*
X112395306Y48969105D01*
X112561763Y48987859D01*
X112561766Y48987860D01*
X112561778Y48987861D01*
X112895812Y49064103D01*
X113219210Y49177264D01*
X113527905Y49325924D01*
X113760024Y49471775D01*
X113827260Y49490774D01*
X113894095Y49470406D01*
X113939309Y49417138D01*
X113949995Y49366780D01*
X113949995Y21633221D01*
X113930310Y21566182D01*
X113877506Y21520427D01*
X113808348Y21510483D01*
X113760023Y21528227D01*
X113527902Y21674078D01*
X113219211Y21822736D01*
X112895813Y21935897D01*
X112895811Y21935898D01*
X112624872Y21997738D01*
X112561778Y22012139D01*
X112561775Y22012140D01*
X112561763Y22012142D01*
X112221313Y22050500D01*
X112221307Y22050500D01*
X111878683Y22050500D01*
X111878676Y22050500D01*
X111538226Y22012142D01*
X111538212Y22012139D01*
X111204178Y21935898D01*
X111204176Y21935897D01*
X110880778Y21822736D01*
X110572087Y21674078D01*
X110281978Y21491790D01*
X110014102Y21278167D01*
X109771828Y21035893D01*
X109558205Y20768017D01*
X109375917Y20477908D01*
X109227259Y20169217D01*
X109114098Y19845819D01*
X109114097Y19845817D01*
X109037856Y19511783D01*
X109037853Y19511769D01*
X108999495Y19171319D01*
X108999495Y18828682D01*
X109037853Y18488232D01*
X109037855Y18488220D01*
X109037856Y18488217D01*
X109041161Y18473739D01*
X109114097Y18154184D01*
X109114098Y18154182D01*
X109227259Y17830784D01*
X109375917Y17522093D01*
X109375919Y17522090D01*
X109558206Y17231982D01*
X109771829Y16964107D01*
X110014102Y16721834D01*
X110281977Y16508211D01*
X110572085Y16325924D01*
X110880780Y16177264D01*
X111204178Y16064103D01*
X111538212Y15987861D01*
X111538221Y15987860D01*
X111538226Y15987859D01*
X111765192Y15962287D01*
X111878677Y15949501D01*
X111878680Y15949500D01*
X111878683Y15949500D01*
X112221310Y15949500D01*
X112221311Y15949501D01*
X112404532Y15970144D01*
X112561763Y15987859D01*
X112561766Y15987860D01*
X112561778Y15987861D01*
X112895812Y16064103D01*
X113219210Y16177264D01*
X113527905Y16325924D01*
X113760024Y16471775D01*
X113827260Y16490774D01*
X113894095Y16470406D01*
X113939309Y16417138D01*
X113949995Y16366780D01*
X113949995Y11600000D01*
X118627289Y11551279D01*
X118694117Y11530898D01*
X118739320Y11477620D01*
X118749995Y11427286D01*
X118749995Y3024000D01*
X118730310Y2956961D01*
X118677506Y2911206D01*
X118625995Y2900000D01*
X3273995Y2900000D01*
X3206956Y2919685D01*
X3161201Y2972489D01*
X3149995Y3024000D01*
X3149995Y6581138D01*
X28213492Y6581138D01*
X28232925Y6297032D01*
X28290865Y6018204D01*
X28290866Y6018201D01*
X28386229Y5749877D01*
X28386228Y5749877D01*
X28517246Y5497025D01*
X28681475Y5264366D01*
X28753719Y5187013D01*
X28875846Y5056247D01*
X29096750Y4876528D01*
X29096752Y4876527D01*
X29096753Y4876526D01*
X29340069Y4728562D01*
X29552064Y4636481D01*
X29601268Y4615108D01*
X29875483Y4538276D01*
X30123514Y4504185D01*
X30157606Y4499499D01*
X30157607Y4499499D01*
X30442384Y4499499D01*
X30472799Y4503680D01*
X30724507Y4538276D01*
X30998722Y4615108D01*
X31259922Y4728563D01*
X31503240Y4876528D01*
X31724144Y5056247D01*
X31918519Y5264371D01*
X32082744Y5497025D01*
X32213759Y5749873D01*
X32309125Y6018206D01*
X32367064Y6297026D01*
X32386498Y6581138D01*
X91713492Y6581138D01*
X91732925Y6297032D01*
X91790865Y6018204D01*
X91790866Y6018201D01*
X91886229Y5749877D01*
X91886228Y5749877D01*
X92017246Y5497025D01*
X92181475Y5264366D01*
X92253719Y5187013D01*
X92375846Y5056247D01*
X92596750Y4876528D01*
X92596752Y4876527D01*
X92596753Y4876526D01*
X92840069Y4728562D01*
X93052064Y4636481D01*
X93101268Y4615108D01*
X93375483Y4538276D01*
X93623514Y4504185D01*
X93657606Y4499499D01*
X93657607Y4499499D01*
X93942384Y4499499D01*
X93972799Y4503680D01*
X94224507Y4538276D01*
X94498722Y4615108D01*
X94759922Y4728563D01*
X95003240Y4876528D01*
X95224144Y5056247D01*
X95418519Y5264371D01*
X95582744Y5497025D01*
X95713759Y5749873D01*
X95809125Y6018206D01*
X95867064Y6297026D01*
X95886498Y6581138D01*
X95867064Y6865250D01*
X95809125Y7144070D01*
X95713760Y7412400D01*
X95713761Y7412400D01*
X95643247Y7548486D01*
X95582744Y7665251D01*
X95418519Y7897905D01*
X95418515Y7897909D01*
X95418514Y7897911D01*
X95353396Y7967635D01*
X95224144Y8106029D01*
X95003240Y8285748D01*
X95003238Y8285749D01*
X95003236Y8285751D01*
X94759920Y8433715D01*
X94498723Y8547168D01*
X94224512Y8623999D01*
X94224508Y8624000D01*
X94224507Y8624000D01*
X94083445Y8643389D01*
X93942384Y8662777D01*
X93942383Y8662777D01*
X93657607Y8662777D01*
X93657606Y8662777D01*
X93375483Y8624000D01*
X93375477Y8623999D01*
X93101266Y8547168D01*
X92840069Y8433715D01*
X92596753Y8285751D01*
X92375849Y8106032D01*
X92181475Y7897911D01*
X92017246Y7665252D01*
X91886229Y7412400D01*
X91790866Y7144076D01*
X91790865Y7144073D01*
X91732925Y6865245D01*
X91713492Y6581138D01*
X32386498Y6581138D01*
X32367064Y6865250D01*
X32309125Y7144070D01*
X32213760Y7412400D01*
X32213761Y7412400D01*
X32143247Y7548486D01*
X32082744Y7665251D01*
X31918519Y7897905D01*
X31918515Y7897909D01*
X31918514Y7897911D01*
X31853396Y7967635D01*
X31724144Y8106029D01*
X31503240Y8285748D01*
X31503238Y8285749D01*
X31503236Y8285751D01*
X31259920Y8433715D01*
X30998723Y8547168D01*
X30724512Y8623999D01*
X30724508Y8624000D01*
X30724507Y8624000D01*
X30583445Y8643389D01*
X30442384Y8662777D01*
X30442383Y8662777D01*
X30157607Y8662777D01*
X30157606Y8662777D01*
X29875483Y8624000D01*
X29875477Y8623999D01*
X29601266Y8547168D01*
X29340069Y8433715D01*
X29096753Y8285751D01*
X28875849Y8106032D01*
X28681475Y7897911D01*
X28517246Y7665252D01*
X28386229Y7412400D01*
X28290866Y7144076D01*
X28290865Y7144073D01*
X28232925Y6865245D01*
X28213492Y6581138D01*
X3149995Y6581138D01*
X3149995Y10157865D01*
X8749495Y10157865D01*
X8749495Y8562130D01*
X8749496Y8562124D01*
X8755903Y8502517D01*
X8806197Y8367672D01*
X8806201Y8367665D01*
X8892447Y8252456D01*
X8892450Y8252453D01*
X9007659Y8166207D01*
X9007666Y8166203D01*
X9142512Y8115909D01*
X9142511Y8115909D01*
X9149439Y8115165D01*
X9202122Y8109500D01*
X10897867Y8109501D01*
X10957478Y8115909D01*
X11092326Y8166204D01*
X11207541Y8252454D01*
X11293791Y8367669D01*
X11318208Y8433133D01*
X11337797Y8485655D01*
X11379668Y8541589D01*
X11445132Y8566007D01*
X11513405Y8551156D01*
X11545938Y8524509D01*
X11546119Y8524689D01*
X11547936Y8522872D01*
X11548976Y8522020D01*
X11549955Y8520853D01*
X11710853Y8359955D01*
X11710856Y8359953D01*
X11897261Y8229432D01*
X12103499Y8133261D01*
X12323303Y8074365D01*
X12485225Y8060199D01*
X12549993Y8054532D01*
X12549995Y8054532D01*
X12549997Y8054532D01*
X12606668Y8059491D01*
X12776687Y8074365D01*
X12996491Y8133261D01*
X13202729Y8229432D01*
X13389134Y8359953D01*
X13462315Y8433135D01*
X13523636Y8466618D01*
X13593328Y8461634D01*
X13637674Y8433135D01*
X13710856Y8359953D01*
X13897261Y8229432D01*
X14103499Y8133261D01*
X14323303Y8074365D01*
X14485225Y8060199D01*
X14549993Y8054532D01*
X14549995Y8054532D01*
X14549997Y8054532D01*
X14606668Y8059491D01*
X14776687Y8074365D01*
X14996491Y8133261D01*
X15202729Y8229432D01*
X15389134Y8359953D01*
X15550042Y8520861D01*
X15680563Y8707266D01*
X15776734Y8913504D01*
X15835630Y9133308D01*
X15855463Y9360000D01*
X15835630Y9586692D01*
X15776734Y9806496D01*
X15680563Y10012734D01*
X15578942Y10157865D01*
X40749495Y10157865D01*
X40749495Y8562130D01*
X40749496Y8562124D01*
X40755903Y8502517D01*
X40806197Y8367672D01*
X40806201Y8367665D01*
X40892447Y8252456D01*
X40892450Y8252453D01*
X41007659Y8166207D01*
X41007666Y8166203D01*
X41142512Y8115909D01*
X41142511Y8115909D01*
X41149439Y8115165D01*
X41202122Y8109500D01*
X42897867Y8109501D01*
X42957478Y8115909D01*
X43092326Y8166204D01*
X43207541Y8252454D01*
X43293791Y8367669D01*
X43318208Y8433133D01*
X43337797Y8485655D01*
X43379668Y8541589D01*
X43445132Y8566007D01*
X43513405Y8551156D01*
X43545938Y8524509D01*
X43546119Y8524689D01*
X43547936Y8522872D01*
X43548976Y8522020D01*
X43549955Y8520853D01*
X43710853Y8359955D01*
X43710856Y8359953D01*
X43897261Y8229432D01*
X44103499Y8133261D01*
X44323303Y8074365D01*
X44485225Y8060199D01*
X44549993Y8054532D01*
X44549995Y8054532D01*
X44549997Y8054532D01*
X44606668Y8059491D01*
X44776687Y8074365D01*
X44996491Y8133261D01*
X45202729Y8229432D01*
X45389134Y8359953D01*
X45462315Y8433135D01*
X45523636Y8466618D01*
X45593328Y8461634D01*
X45637674Y8433135D01*
X45710856Y8359953D01*
X45897261Y8229432D01*
X46103499Y8133261D01*
X46323303Y8074365D01*
X46485225Y8060199D01*
X46549993Y8054532D01*
X46549995Y8054532D01*
X46549997Y8054532D01*
X46606668Y8059491D01*
X46776687Y8074365D01*
X46996491Y8133261D01*
X47202729Y8229432D01*
X47389134Y8359953D01*
X47550042Y8520861D01*
X47680563Y8707266D01*
X47776734Y8913504D01*
X47835630Y9133308D01*
X47855463Y9360000D01*
X47835630Y9586692D01*
X47776734Y9806496D01*
X47680563Y10012734D01*
X47578942Y10157865D01*
X72749495Y10157865D01*
X72749495Y8562130D01*
X72749496Y8562124D01*
X72755903Y8502517D01*
X72806197Y8367672D01*
X72806201Y8367665D01*
X72892447Y8252456D01*
X72892450Y8252453D01*
X73007659Y8166207D01*
X73007666Y8166203D01*
X73142512Y8115909D01*
X73142511Y8115909D01*
X73149439Y8115165D01*
X73202122Y8109500D01*
X74897867Y8109501D01*
X74957478Y8115909D01*
X75092326Y8166204D01*
X75207541Y8252454D01*
X75293791Y8367669D01*
X75318208Y8433133D01*
X75337797Y8485655D01*
X75379668Y8541589D01*
X75445132Y8566007D01*
X75513405Y8551156D01*
X75545938Y8524509D01*
X75546119Y8524689D01*
X75547936Y8522872D01*
X75548976Y8522020D01*
X75549955Y8520853D01*
X75710853Y8359955D01*
X75710856Y8359953D01*
X75897261Y8229432D01*
X76103499Y8133261D01*
X76323303Y8074365D01*
X76485225Y8060199D01*
X76549993Y8054532D01*
X76549995Y8054532D01*
X76549997Y8054532D01*
X76606668Y8059491D01*
X76776687Y8074365D01*
X76996491Y8133261D01*
X77202729Y8229432D01*
X77389134Y8359953D01*
X77462315Y8433135D01*
X77523636Y8466618D01*
X77593328Y8461634D01*
X77637674Y8433135D01*
X77710856Y8359953D01*
X77897261Y8229432D01*
X78103499Y8133261D01*
X78323303Y8074365D01*
X78485225Y8060199D01*
X78549993Y8054532D01*
X78549995Y8054532D01*
X78549997Y8054532D01*
X78606668Y8059491D01*
X78776687Y8074365D01*
X78996491Y8133261D01*
X79202729Y8229432D01*
X79389134Y8359953D01*
X79550042Y8520861D01*
X79680563Y8707266D01*
X79776734Y8913504D01*
X79835630Y9133308D01*
X79855463Y9360000D01*
X79835630Y9586692D01*
X79776734Y9806496D01*
X79680563Y10012734D01*
X79578942Y10157865D01*
X104749495Y10157865D01*
X104749495Y8562130D01*
X104749496Y8562124D01*
X104755903Y8502517D01*
X104806197Y8367672D01*
X104806201Y8367665D01*
X104892447Y8252456D01*
X104892450Y8252453D01*
X105007659Y8166207D01*
X105007666Y8166203D01*
X105142512Y8115909D01*
X105142511Y8115909D01*
X105149439Y8115165D01*
X105202122Y8109500D01*
X106897867Y8109501D01*
X106957478Y8115909D01*
X107092326Y8166204D01*
X107207541Y8252454D01*
X107293791Y8367669D01*
X107318208Y8433133D01*
X107337797Y8485655D01*
X107379668Y8541589D01*
X107445132Y8566007D01*
X107513405Y8551156D01*
X107545938Y8524509D01*
X107546119Y8524689D01*
X107547936Y8522872D01*
X107548976Y8522020D01*
X107549955Y8520853D01*
X107710853Y8359955D01*
X107710856Y8359953D01*
X107897261Y8229432D01*
X108103499Y8133261D01*
X108323303Y8074365D01*
X108485225Y8060199D01*
X108549993Y8054532D01*
X108549995Y8054532D01*
X108549997Y8054532D01*
X108606668Y8059491D01*
X108776687Y8074365D01*
X108996491Y8133261D01*
X109202729Y8229432D01*
X109389134Y8359953D01*
X109462315Y8433135D01*
X109523636Y8466618D01*
X109593328Y8461634D01*
X109637674Y8433135D01*
X109710856Y8359953D01*
X109897261Y8229432D01*
X110103499Y8133261D01*
X110323303Y8074365D01*
X110485225Y8060199D01*
X110549993Y8054532D01*
X110549995Y8054532D01*
X110549997Y8054532D01*
X110606668Y8059491D01*
X110776687Y8074365D01*
X110996491Y8133261D01*
X111202729Y8229432D01*
X111389134Y8359953D01*
X111550042Y8520861D01*
X111680563Y8707266D01*
X111776734Y8913504D01*
X111835630Y9133308D01*
X111855463Y9360000D01*
X111835630Y9586692D01*
X111776734Y9806496D01*
X111680563Y10012734D01*
X111550042Y10199139D01*
X111550040Y10199142D01*
X111389136Y10360046D01*
X111202729Y10490568D01*
X111202727Y10490569D01*
X110996492Y10586739D01*
X110996483Y10586742D01*
X110776692Y10645634D01*
X110776688Y10645635D01*
X110776687Y10645635D01*
X110776686Y10645636D01*
X110776681Y10645636D01*
X110549997Y10665468D01*
X110549993Y10665468D01*
X110323308Y10645636D01*
X110323297Y10645634D01*
X110103506Y10586742D01*
X110103497Y10586739D01*
X109897262Y10490569D01*
X109897260Y10490568D01*
X109710853Y10360046D01*
X109637676Y10286868D01*
X109576353Y10253383D01*
X109506661Y10258367D01*
X109462314Y10286868D01*
X109389136Y10360046D01*
X109202729Y10490568D01*
X109202727Y10490569D01*
X108996492Y10586739D01*
X108996483Y10586742D01*
X108776692Y10645634D01*
X108776688Y10645635D01*
X108776687Y10645635D01*
X108776686Y10645636D01*
X108776681Y10645636D01*
X108549997Y10665468D01*
X108549993Y10665468D01*
X108323308Y10645636D01*
X108323297Y10645634D01*
X108103506Y10586742D01*
X108103497Y10586739D01*
X107897262Y10490569D01*
X107897260Y10490568D01*
X107710853Y10360046D01*
X107549948Y10199141D01*
X107548968Y10197972D01*
X107548406Y10197599D01*
X107546119Y10195311D01*
X107545659Y10195771D01*
X107490797Y10159270D01*
X107420936Y10158162D01*
X107361566Y10194999D01*
X107337797Y10234345D01*
X107293792Y10352329D01*
X107293788Y10352336D01*
X107207542Y10467545D01*
X107207539Y10467548D01*
X107092330Y10553794D01*
X107092323Y10553798D01*
X106957477Y10604092D01*
X106957478Y10604092D01*
X106897878Y10610499D01*
X106897876Y10610500D01*
X106897868Y10610500D01*
X106897859Y10610500D01*
X105202124Y10610500D01*
X105202118Y10610499D01*
X105142511Y10604092D01*
X105007666Y10553798D01*
X105007659Y10553794D01*
X104892450Y10467548D01*
X104892447Y10467545D01*
X104806201Y10352336D01*
X104806197Y10352329D01*
X104755903Y10217483D01*
X104749496Y10157884D01*
X104749495Y10157865D01*
X79578942Y10157865D01*
X79550042Y10199139D01*
X79550040Y10199142D01*
X79389136Y10360046D01*
X79202729Y10490568D01*
X79202727Y10490569D01*
X78996492Y10586739D01*
X78996483Y10586742D01*
X78776692Y10645634D01*
X78776688Y10645635D01*
X78776687Y10645635D01*
X78776686Y10645636D01*
X78776681Y10645636D01*
X78549997Y10665468D01*
X78549993Y10665468D01*
X78323308Y10645636D01*
X78323297Y10645634D01*
X78103506Y10586742D01*
X78103497Y10586739D01*
X77897262Y10490569D01*
X77897260Y10490568D01*
X77710853Y10360046D01*
X77637676Y10286868D01*
X77576353Y10253383D01*
X77506661Y10258367D01*
X77462314Y10286868D01*
X77389136Y10360046D01*
X77202729Y10490568D01*
X77202727Y10490569D01*
X76996492Y10586739D01*
X76996483Y10586742D01*
X76776692Y10645634D01*
X76776688Y10645635D01*
X76776687Y10645635D01*
X76776686Y10645636D01*
X76776681Y10645636D01*
X76549997Y10665468D01*
X76549993Y10665468D01*
X76323308Y10645636D01*
X76323297Y10645634D01*
X76103506Y10586742D01*
X76103497Y10586739D01*
X75897262Y10490569D01*
X75897260Y10490568D01*
X75710853Y10360046D01*
X75549948Y10199141D01*
X75548968Y10197972D01*
X75548406Y10197599D01*
X75546119Y10195311D01*
X75545659Y10195771D01*
X75490797Y10159270D01*
X75420936Y10158162D01*
X75361566Y10194999D01*
X75337797Y10234345D01*
X75293792Y10352329D01*
X75293788Y10352336D01*
X75207542Y10467545D01*
X75207539Y10467548D01*
X75092330Y10553794D01*
X75092323Y10553798D01*
X74957477Y10604092D01*
X74957478Y10604092D01*
X74897878Y10610499D01*
X74897876Y10610500D01*
X74897868Y10610500D01*
X74897859Y10610500D01*
X73202124Y10610500D01*
X73202118Y10610499D01*
X73142511Y10604092D01*
X73007666Y10553798D01*
X73007659Y10553794D01*
X72892450Y10467548D01*
X72892447Y10467545D01*
X72806201Y10352336D01*
X72806197Y10352329D01*
X72755903Y10217483D01*
X72749496Y10157884D01*
X72749495Y10157865D01*
X47578942Y10157865D01*
X47550042Y10199139D01*
X47550040Y10199142D01*
X47389136Y10360046D01*
X47202729Y10490568D01*
X47202727Y10490569D01*
X46996492Y10586739D01*
X46996483Y10586742D01*
X46776692Y10645634D01*
X46776688Y10645635D01*
X46776687Y10645635D01*
X46776686Y10645636D01*
X46776681Y10645636D01*
X46549997Y10665468D01*
X46549993Y10665468D01*
X46323308Y10645636D01*
X46323297Y10645634D01*
X46103506Y10586742D01*
X46103497Y10586739D01*
X45897262Y10490569D01*
X45897260Y10490568D01*
X45710853Y10360046D01*
X45637676Y10286868D01*
X45576353Y10253383D01*
X45506661Y10258367D01*
X45462314Y10286868D01*
X45389136Y10360046D01*
X45202729Y10490568D01*
X45202727Y10490569D01*
X44996492Y10586739D01*
X44996483Y10586742D01*
X44776692Y10645634D01*
X44776688Y10645635D01*
X44776687Y10645635D01*
X44776686Y10645636D01*
X44776681Y10645636D01*
X44549997Y10665468D01*
X44549993Y10665468D01*
X44323308Y10645636D01*
X44323297Y10645634D01*
X44103506Y10586742D01*
X44103497Y10586739D01*
X43897262Y10490569D01*
X43897260Y10490568D01*
X43710853Y10360046D01*
X43549948Y10199141D01*
X43548968Y10197972D01*
X43548406Y10197599D01*
X43546119Y10195311D01*
X43545659Y10195771D01*
X43490797Y10159270D01*
X43420936Y10158162D01*
X43361566Y10194999D01*
X43337797Y10234345D01*
X43293792Y10352329D01*
X43293788Y10352336D01*
X43207542Y10467545D01*
X43207539Y10467548D01*
X43092330Y10553794D01*
X43092323Y10553798D01*
X42957477Y10604092D01*
X42957478Y10604092D01*
X42897878Y10610499D01*
X42897876Y10610500D01*
X42897868Y10610500D01*
X42897859Y10610500D01*
X41202124Y10610500D01*
X41202118Y10610499D01*
X41142511Y10604092D01*
X41007666Y10553798D01*
X41007659Y10553794D01*
X40892450Y10467548D01*
X40892447Y10467545D01*
X40806201Y10352336D01*
X40806197Y10352329D01*
X40755903Y10217483D01*
X40749496Y10157884D01*
X40749495Y10157865D01*
X15578942Y10157865D01*
X15550042Y10199139D01*
X15550040Y10199142D01*
X15389136Y10360046D01*
X15202729Y10490568D01*
X15202727Y10490569D01*
X14996492Y10586739D01*
X14996483Y10586742D01*
X14776692Y10645634D01*
X14776688Y10645635D01*
X14776687Y10645635D01*
X14776686Y10645636D01*
X14776681Y10645636D01*
X14549997Y10665468D01*
X14549993Y10665468D01*
X14323308Y10645636D01*
X14323297Y10645634D01*
X14103506Y10586742D01*
X14103497Y10586739D01*
X13897262Y10490569D01*
X13897260Y10490568D01*
X13710853Y10360046D01*
X13637676Y10286868D01*
X13576353Y10253383D01*
X13506661Y10258367D01*
X13462314Y10286868D01*
X13389136Y10360046D01*
X13202729Y10490568D01*
X13202727Y10490569D01*
X12996492Y10586739D01*
X12996483Y10586742D01*
X12776692Y10645634D01*
X12776688Y10645635D01*
X12776687Y10645635D01*
X12776686Y10645636D01*
X12776681Y10645636D01*
X12549997Y10665468D01*
X12549993Y10665468D01*
X12323308Y10645636D01*
X12323297Y10645634D01*
X12103506Y10586742D01*
X12103497Y10586739D01*
X11897262Y10490569D01*
X11897260Y10490568D01*
X11710853Y10360046D01*
X11549948Y10199141D01*
X11548968Y10197972D01*
X11548406Y10197599D01*
X11546119Y10195311D01*
X11545659Y10195771D01*
X11490797Y10159270D01*
X11420936Y10158162D01*
X11361566Y10194999D01*
X11337797Y10234345D01*
X11293792Y10352329D01*
X11293788Y10352336D01*
X11207542Y10467545D01*
X11207539Y10467548D01*
X11092330Y10553794D01*
X11092323Y10553798D01*
X10957477Y10604092D01*
X10957478Y10604092D01*
X10897878Y10610499D01*
X10897876Y10610500D01*
X10897868Y10610500D01*
X10897859Y10610500D01*
X9202124Y10610500D01*
X9202118Y10610499D01*
X9142511Y10604092D01*
X9007666Y10553798D01*
X9007659Y10553794D01*
X8892450Y10467548D01*
X8892447Y10467545D01*
X8806201Y10352336D01*
X8806197Y10352329D01*
X8755903Y10217483D01*
X8749496Y10157884D01*
X8749495Y10157865D01*
X3149995Y10157865D01*
X3149995Y11176000D01*
X3169680Y11243039D01*
X3222484Y11288794D01*
X3273995Y11300000D01*
X6849994Y11300000D01*
X6849995Y11300000D01*
X6887115Y22300003D01*
X20144746Y22300003D01*
X20144746Y22299998D01*
X20163681Y22131943D01*
X20219539Y21972310D01*
X20280488Y21875311D01*
X20299495Y21809338D01*
X20299495Y19936670D01*
X20299494Y19936652D01*
X20299494Y19770944D01*
X20300555Y19762886D01*
X20300071Y19762823D01*
X20302894Y19725133D01*
X20294430Y19650005D01*
X20294430Y19649997D01*
X20314625Y19470751D01*
X20314626Y19470746D01*
X20374206Y19300477D01*
X20411049Y19241842D01*
X20468457Y19150478D01*
X20470180Y19147737D01*
X20472440Y19144903D01*
X20473329Y19142725D01*
X20473884Y19141842D01*
X20473729Y19141745D01*
X20498850Y19080217D01*
X20499495Y19067588D01*
X20499495Y18286670D01*
X20499494Y18286652D01*
X20499494Y18120946D01*
X20499493Y18120946D01*
X20540418Y17968215D01*
X20569353Y17918100D01*
X20569354Y17918096D01*
X20569355Y17918096D01*
X20619474Y17831286D01*
X20619476Y17831283D01*
X20738344Y17712415D01*
X20738350Y17712410D01*
X22919293Y15531467D01*
X22952778Y15470144D01*
X22954832Y15457670D01*
X22964625Y15370751D01*
X23024205Y15200479D01*
X23056224Y15149522D01*
X23120179Y15047738D01*
X23247733Y14920184D01*
X23400473Y14824211D01*
X23469673Y14799997D01*
X23570740Y14764632D01*
X23570745Y14764631D01*
X23749991Y14744435D01*
X23749995Y14744435D01*
X23749999Y14744435D01*
X23929244Y14764631D01*
X23929247Y14764632D01*
X23929250Y14764632D01*
X24099517Y14824211D01*
X24252257Y14920184D01*
X24379811Y15047738D01*
X24475784Y15200478D01*
X24535363Y15370745D01*
X24536678Y15382413D01*
X24555560Y15549997D01*
X24555560Y15550004D01*
X24535364Y15729250D01*
X24535363Y15729255D01*
X24475784Y15899522D01*
X24379811Y16052262D01*
X24252257Y16179816D01*
X24099516Y16275790D01*
X23929244Y16335370D01*
X23842325Y16345163D01*
X23777911Y16372230D01*
X23768528Y16380702D01*
X21736814Y18412416D01*
X21703329Y18473739D01*
X21700495Y18500097D01*
X21700495Y19067588D01*
X21720180Y19134627D01*
X21727550Y19144903D01*
X21729805Y19147733D01*
X21729811Y19147738D01*
X21825784Y19300478D01*
X21885363Y19470745D01*
X21888659Y19499997D01*
X21905560Y19649997D01*
X21905560Y19650004D01*
X21894293Y19750004D01*
X29494430Y19750004D01*
X29494430Y19749997D01*
X29514625Y19570751D01*
X29514626Y19570746D01*
X29574206Y19400477D01*
X29670180Y19247737D01*
X29672440Y19244903D01*
X29673329Y19242725D01*
X29673884Y19241842D01*
X29673729Y19241745D01*
X29698850Y19180217D01*
X29699495Y19167588D01*
X29699495Y18432413D01*
X29679810Y18365374D01*
X29672445Y18355104D01*
X29670181Y18352266D01*
X29574206Y18199524D01*
X29514626Y18029255D01*
X29514625Y18029250D01*
X29494430Y17850004D01*
X29494430Y17849997D01*
X29514625Y17670751D01*
X29514626Y17670746D01*
X29574206Y17500477D01*
X29670179Y17347738D01*
X29797733Y17220184D01*
X29950473Y17124211D01*
X30079504Y17079061D01*
X30120740Y17064632D01*
X30120745Y17064631D01*
X30299991Y17044435D01*
X30299995Y17044435D01*
X30299999Y17044435D01*
X30479244Y17064631D01*
X30479247Y17064632D01*
X30479250Y17064632D01*
X30649517Y17124211D01*
X30802257Y17220184D01*
X30929811Y17347738D01*
X31025784Y17500478D01*
X31085363Y17670745D01*
X31085364Y17670751D01*
X31105560Y17849997D01*
X31105560Y17850004D01*
X31085364Y18029250D01*
X31085363Y18029255D01*
X31025783Y18199524D01*
X30972431Y18284433D01*
X30929811Y18352262D01*
X30929809Y18352264D01*
X30929808Y18352266D01*
X30927545Y18355104D01*
X30926654Y18357285D01*
X30926106Y18358158D01*
X30926259Y18358255D01*
X30901139Y18419791D01*
X30900495Y18432413D01*
X30900495Y19167588D01*
X30901591Y19171319D01*
X60999495Y19171319D01*
X60999495Y18828682D01*
X61037853Y18488232D01*
X61037855Y18488220D01*
X61037856Y18488217D01*
X61041161Y18473739D01*
X61114097Y18154184D01*
X61114098Y18154182D01*
X61227259Y17830784D01*
X61375917Y17522093D01*
X61375919Y17522090D01*
X61558206Y17231982D01*
X61771829Y16964107D01*
X62014102Y16721834D01*
X62281977Y16508211D01*
X62572085Y16325924D01*
X62880780Y16177264D01*
X63204178Y16064103D01*
X63538212Y15987861D01*
X63538221Y15987860D01*
X63538226Y15987859D01*
X63765192Y15962287D01*
X63878677Y15949501D01*
X63878680Y15949500D01*
X63878683Y15949500D01*
X64221310Y15949500D01*
X64221311Y15949501D01*
X64404532Y15970144D01*
X64561763Y15987859D01*
X64561766Y15987860D01*
X64561778Y15987861D01*
X64895812Y16064103D01*
X65219210Y16177264D01*
X65527905Y16325924D01*
X65818013Y16508211D01*
X66085888Y16721834D01*
X66328161Y16964107D01*
X66541784Y17231982D01*
X66724071Y17522090D01*
X66872731Y17830785D01*
X66985892Y18154183D01*
X67062134Y18488217D01*
X67100495Y18828688D01*
X67100495Y19171312D01*
X67063462Y19500000D01*
X67062136Y19511769D01*
X67062135Y19511774D01*
X67062134Y19511783D01*
X66985892Y19845817D01*
X66872731Y20169215D01*
X66724071Y20477910D01*
X66541784Y20768018D01*
X66328161Y21035893D01*
X66085888Y21278166D01*
X65818013Y21491789D01*
X65527905Y21674076D01*
X65527902Y21674078D01*
X65219211Y21822736D01*
X64895813Y21935897D01*
X64895811Y21935898D01*
X64733239Y21973004D01*
X70694430Y21973004D01*
X70694430Y21972997D01*
X70714625Y21793751D01*
X70714626Y21793746D01*
X70774206Y21623477D01*
X70870180Y21470737D01*
X70872440Y21467903D01*
X70873329Y21465725D01*
X70873884Y21464842D01*
X70873729Y21464745D01*
X70898850Y21403217D01*
X70899495Y21390588D01*
X70899495Y14132413D01*
X70879810Y14065374D01*
X70872445Y14055104D01*
X70870181Y14052266D01*
X70774206Y13899524D01*
X70714626Y13729255D01*
X70714625Y13729250D01*
X70694430Y13550004D01*
X70694430Y13549997D01*
X70714625Y13370751D01*
X70714626Y13370746D01*
X70774206Y13200477D01*
X70870179Y13047738D01*
X70997733Y12920184D01*
X71150473Y12824211D01*
X71320740Y12764632D01*
X71320745Y12764631D01*
X71499991Y12744435D01*
X71499995Y12744435D01*
X71499999Y12744435D01*
X71679244Y12764631D01*
X71679247Y12764632D01*
X71679250Y12764632D01*
X71849517Y12824211D01*
X72002257Y12920184D01*
X72129811Y13047738D01*
X72225784Y13200478D01*
X72251496Y13273963D01*
X72292217Y13330738D01*
X72354652Y13356228D01*
X72429250Y13364632D01*
X72599517Y13424211D01*
X72752257Y13520184D01*
X72879811Y13647738D01*
X72975784Y13800478D01*
X73035363Y13970745D01*
X73035364Y13970751D01*
X73055560Y14149997D01*
X73055560Y14150004D01*
X73035363Y14329253D01*
X73035363Y14329255D01*
X73007453Y14409018D01*
X73000495Y14449972D01*
X73000495Y18284433D01*
X73020180Y18351472D01*
X73072984Y18397227D01*
X73142142Y18407171D01*
X73165450Y18401474D01*
X73270732Y18364634D01*
X73270738Y18364633D01*
X73270740Y18364632D01*
X73270741Y18364632D01*
X73270745Y18364631D01*
X73449991Y18344435D01*
X73449995Y18344435D01*
X73449999Y18344435D01*
X73629244Y18364631D01*
X73629247Y18364632D01*
X73629250Y18364632D01*
X73799517Y18424211D01*
X73952257Y18520184D01*
X74079811Y18647738D01*
X74079813Y18647741D01*
X74081155Y18649423D01*
X74082299Y18650227D01*
X74084736Y18652663D01*
X74085162Y18652237D01*
X74138341Y18689568D01*
X74191991Y18695337D01*
X74199995Y18694435D01*
X74199996Y18694436D01*
X74199997Y18694435D01*
X74199999Y18694435D01*
X74379244Y18714631D01*
X74379247Y18714632D01*
X74379250Y18714632D01*
X74549517Y18774211D01*
X74702257Y18870184D01*
X74829811Y18997738D01*
X74925784Y19150478D01*
X74985363Y19320745D01*
X75002264Y19470746D01*
X75005560Y19499997D01*
X75005560Y19500004D01*
X74985364Y19679250D01*
X74985361Y19679263D01*
X74925785Y19849521D01*
X74919501Y19859522D01*
X74900495Y19925493D01*
X74900495Y21367588D01*
X74920180Y21434627D01*
X74927550Y21444903D01*
X74929805Y21447733D01*
X74929811Y21447738D01*
X75025784Y21600478D01*
X75085363Y21770745D01*
X75087955Y21793745D01*
X75103070Y21927903D01*
X75115929Y21958508D01*
X75112971Y21964493D01*
X75334059Y21964493D01*
X75348430Y21935415D01*
X75349510Y21927904D01*
X75364625Y21793750D01*
X75364626Y21793746D01*
X75424206Y21623477D01*
X75520180Y21470737D01*
X75522440Y21467903D01*
X75523329Y21465725D01*
X75523884Y21464842D01*
X75523729Y21464745D01*
X75548850Y21403217D01*
X75549495Y21390588D01*
X75549495Y15382413D01*
X75529810Y15315374D01*
X75522445Y15305104D01*
X75520181Y15302266D01*
X75424206Y15149524D01*
X75364626Y14979255D01*
X75364625Y14979250D01*
X75344430Y14800004D01*
X75344430Y14799997D01*
X75364625Y14620751D01*
X75364626Y14620746D01*
X75424206Y14450477D01*
X75500377Y14329253D01*
X75520179Y14297738D01*
X75647733Y14170184D01*
X75800473Y14074211D01*
X75863200Y14052262D01*
X75970740Y14014632D01*
X75970745Y14014631D01*
X76149991Y13994435D01*
X76149995Y13994435D01*
X76149999Y13994435D01*
X76329244Y14014631D01*
X76329247Y14014632D01*
X76329250Y14014632D01*
X76499517Y14074211D01*
X76652257Y14170184D01*
X76779811Y14297738D01*
X76875784Y14450478D01*
X76935363Y14620745D01*
X76935364Y14620751D01*
X76955560Y14799997D01*
X76955560Y14800004D01*
X76935364Y14979250D01*
X76935363Y14979255D01*
X76875783Y15149524D01*
X76803456Y15264631D01*
X76779811Y15302262D01*
X76779809Y15302264D01*
X76779808Y15302266D01*
X76777545Y15305104D01*
X76776654Y15307285D01*
X76776106Y15308158D01*
X76776259Y15308255D01*
X76751139Y15369791D01*
X76750495Y15382413D01*
X76750495Y21390588D01*
X76770180Y21457627D01*
X76777550Y21467903D01*
X76779805Y21470733D01*
X76779811Y21470738D01*
X76875784Y21623478D01*
X76935363Y21793745D01*
X76937120Y21809338D01*
X76955560Y21972997D01*
X76955560Y21973004D01*
X76935364Y22152250D01*
X76935363Y22152255D01*
X76883665Y22300000D01*
X76875784Y22322522D01*
X76779811Y22475262D01*
X76755069Y22500004D01*
X78594430Y22500004D01*
X78594430Y22499997D01*
X78614625Y22320751D01*
X78614626Y22320746D01*
X78674206Y22150477D01*
X78737026Y22050500D01*
X78770179Y21997738D01*
X78897733Y21870184D01*
X79050473Y21774211D01*
X79119667Y21749999D01*
X79220740Y21714632D01*
X79220745Y21714631D01*
X79399991Y21694435D01*
X79399995Y21694435D01*
X79399999Y21694435D01*
X79579244Y21714631D01*
X79579247Y21714632D01*
X79579250Y21714632D01*
X79749517Y21774211D01*
X79902257Y21870184D01*
X79902262Y21870190D01*
X79905092Y21872445D01*
X79907270Y21873335D01*
X79908153Y21873889D01*
X79908250Y21873735D01*
X79969778Y21898855D01*
X79982407Y21899500D01*
X84872519Y21899500D01*
X84939558Y21879815D01*
X84985313Y21827011D01*
X84995739Y21761614D01*
X84994430Y21749999D01*
X84994430Y21749997D01*
X85014625Y21570751D01*
X85014626Y21570746D01*
X85074206Y21400477D01*
X85080420Y21390588D01*
X85168755Y21250004D01*
X85170180Y21247737D01*
X85172440Y21244903D01*
X85173329Y21242725D01*
X85173884Y21241842D01*
X85173729Y21241745D01*
X85198850Y21180217D01*
X85199495Y21167588D01*
X85199495Y17086670D01*
X85199494Y17086652D01*
X85199494Y16920946D01*
X85199493Y16920946D01*
X85240418Y16768214D01*
X85240419Y16768213D01*
X85267196Y16721834D01*
X85319476Y16631283D01*
X85438344Y16512415D01*
X85438350Y16512410D01*
X85919293Y16031467D01*
X85952778Y15970144D01*
X85954832Y15957670D01*
X85964625Y15870751D01*
X86024205Y15700479D01*
X86118755Y15550004D01*
X86120179Y15547738D01*
X86247733Y15420184D01*
X86400473Y15324211D01*
X86463200Y15302262D01*
X86570740Y15264632D01*
X86570745Y15264631D01*
X86749991Y15244435D01*
X86749995Y15244435D01*
X86749999Y15244435D01*
X86929244Y15264631D01*
X86929247Y15264632D01*
X86929250Y15264632D01*
X87099517Y15324211D01*
X87252257Y15420184D01*
X87379811Y15547738D01*
X87475784Y15700478D01*
X87535363Y15870745D01*
X87535364Y15870751D01*
X87555560Y16049997D01*
X87555560Y16050004D01*
X87535364Y16229250D01*
X87535363Y16229255D01*
X87475783Y16399524D01*
X87430385Y16471774D01*
X87379811Y16552262D01*
X87252257Y16679816D01*
X87185386Y16721834D01*
X87099516Y16775790D01*
X86929244Y16835370D01*
X86842325Y16845163D01*
X86777911Y16872230D01*
X86768528Y16880702D01*
X86436814Y17212416D01*
X86403329Y17273739D01*
X86400495Y17300097D01*
X86400495Y21167588D01*
X86420180Y21234627D01*
X86427550Y21244903D01*
X86429805Y21247733D01*
X86429811Y21247738D01*
X86525784Y21400478D01*
X86585363Y21570745D01*
X86587410Y21588913D01*
X86605560Y21749997D01*
X86605560Y21749999D01*
X86604251Y21761614D01*
X86616304Y21830436D01*
X86663652Y21881816D01*
X86727471Y21899500D01*
X91249898Y21899500D01*
X91316937Y21879815D01*
X91337579Y21863181D01*
X91969293Y21231467D01*
X92002778Y21170144D01*
X92004832Y21157670D01*
X92014625Y21070751D01*
X92074205Y20900479D01*
X92157436Y20768018D01*
X92170179Y20747738D01*
X92297733Y20620184D01*
X92450473Y20524211D01*
X92620740Y20464632D01*
X92620745Y20464631D01*
X92799991Y20444435D01*
X92799995Y20444435D01*
X92799999Y20444435D01*
X92979244Y20464631D01*
X92979247Y20464632D01*
X92979250Y20464632D01*
X93149517Y20524211D01*
X93302257Y20620184D01*
X93429811Y20747738D01*
X93525784Y20900478D01*
X93585363Y21070745D01*
X93595157Y21157670D01*
X93605560Y21249997D01*
X93605560Y21250004D01*
X93585364Y21429250D01*
X93585363Y21429255D01*
X93578896Y21447737D01*
X93525784Y21599522D01*
X93525183Y21600478D01*
X93453456Y21714631D01*
X93429811Y21752262D01*
X93302257Y21879816D01*
X93225727Y21927903D01*
X93149516Y21975790D01*
X92979244Y22035370D01*
X92892325Y22045163D01*
X92827911Y22072230D01*
X92818528Y22080702D01*
X92037585Y22861645D01*
X92037583Y22861648D01*
X91918712Y22980519D01*
X91918704Y22980525D01*
X91816931Y23039283D01*
X91816929Y23039284D01*
X91781785Y23059575D01*
X91781784Y23059576D01*
X91769258Y23062933D01*
X91629052Y23100501D01*
X91470938Y23100501D01*
X91463342Y23100501D01*
X91463326Y23100500D01*
X79982407Y23100500D01*
X79915368Y23120185D01*
X79905092Y23127555D01*
X79902258Y23129815D01*
X79902257Y23129816D01*
X79845491Y23165485D01*
X79749518Y23225789D01*
X79579249Y23285369D01*
X79579244Y23285370D01*
X79399999Y23305565D01*
X79399991Y23305565D01*
X79220745Y23285370D01*
X79220740Y23285369D01*
X79050471Y23225789D01*
X78897732Y23129816D01*
X78770179Y23002263D01*
X78674206Y22849524D01*
X78614626Y22679255D01*
X78614625Y22679250D01*
X78594430Y22500004D01*
X76755069Y22500004D01*
X76652257Y22602816D01*
X76639261Y22610982D01*
X76499518Y22698789D01*
X76329249Y22758369D01*
X76329244Y22758370D01*
X76149999Y22778565D01*
X76149991Y22778565D01*
X75970745Y22758370D01*
X75970740Y22758369D01*
X75800471Y22698789D01*
X75647732Y22602816D01*
X75520179Y22475263D01*
X75424206Y22322524D01*
X75364626Y22152255D01*
X75364625Y22152251D01*
X75346919Y21995097D01*
X75334059Y21964493D01*
X75112971Y21964493D01*
X75101559Y21987587D01*
X75100479Y21995098D01*
X75085364Y22129250D01*
X75085363Y22129255D01*
X75025783Y22299524D01*
X74929810Y22452263D01*
X74802257Y22579816D01*
X74649518Y22675789D01*
X74479249Y22735369D01*
X74479244Y22735370D01*
X74299999Y22755565D01*
X74299991Y22755565D01*
X74120745Y22735370D01*
X74120732Y22735367D01*
X73950468Y22675789D01*
X73947469Y22674344D01*
X73945340Y22673994D01*
X73943901Y22673490D01*
X73943812Y22673743D01*
X73878527Y22662999D01*
X73827709Y22681076D01*
X73799520Y22698788D01*
X73629249Y22758369D01*
X73629244Y22758370D01*
X73449999Y22778565D01*
X73449991Y22778565D01*
X73270745Y22758370D01*
X73270740Y22758369D01*
X73100471Y22698789D01*
X72990967Y22629982D01*
X72923730Y22610982D01*
X72859023Y22629982D01*
X72749518Y22698789D01*
X72579249Y22758369D01*
X72579244Y22758370D01*
X72399999Y22778565D01*
X72399991Y22778565D01*
X72220745Y22758370D01*
X72220732Y22758367D01*
X72050475Y22698791D01*
X72015965Y22677107D01*
X71948728Y22658108D01*
X71884025Y22677107D01*
X71849514Y22698791D01*
X71679257Y22758367D01*
X71679244Y22758370D01*
X71499999Y22778565D01*
X71499991Y22778565D01*
X71320745Y22758370D01*
X71320740Y22758369D01*
X71150471Y22698789D01*
X70997732Y22602816D01*
X70870179Y22475263D01*
X70774206Y22322524D01*
X70714626Y22152255D01*
X70714625Y22152250D01*
X70694430Y21973004D01*
X64733239Y21973004D01*
X64624872Y21997738D01*
X64561778Y22012139D01*
X64561775Y22012140D01*
X64561763Y22012142D01*
X64221313Y22050500D01*
X64221307Y22050500D01*
X63878683Y22050500D01*
X63878676Y22050500D01*
X63538226Y22012142D01*
X63538212Y22012139D01*
X63204178Y21935898D01*
X63204176Y21935897D01*
X62880778Y21822736D01*
X62572087Y21674078D01*
X62281978Y21491790D01*
X62014102Y21278167D01*
X61771828Y21035893D01*
X61558205Y20768017D01*
X61375917Y20477908D01*
X61227259Y20169217D01*
X61114098Y19845819D01*
X61114097Y19845817D01*
X61037856Y19511783D01*
X61037853Y19511769D01*
X60999495Y19171319D01*
X30901591Y19171319D01*
X30920180Y19234627D01*
X30927550Y19244903D01*
X30929805Y19247733D01*
X30929811Y19247738D01*
X31025784Y19400478D01*
X31085363Y19570745D01*
X31085364Y19570751D01*
X31105560Y19749997D01*
X31105560Y19750004D01*
X31085364Y19929250D01*
X31085363Y19929255D01*
X31082768Y19936670D01*
X31025784Y20099522D01*
X30929811Y20252262D01*
X30929809Y20252264D01*
X30929808Y20252266D01*
X30927545Y20255104D01*
X30926654Y20257285D01*
X30926106Y20258158D01*
X30926259Y20258255D01*
X30901139Y20319791D01*
X30900495Y20332413D01*
X30900495Y21437771D01*
X30920180Y21504810D01*
X30936814Y21525452D01*
X30940472Y21529110D01*
X30984715Y21599522D01*
X31030447Y21672303D01*
X31030449Y21672306D01*
X31030449Y21672308D01*
X31030451Y21672310D01*
X31086308Y21831941D01*
X31086308Y21831942D01*
X31086309Y21831944D01*
X31105244Y21999998D01*
X31105244Y22000003D01*
X31086309Y22168057D01*
X31032259Y22322522D01*
X31030451Y22327690D01*
X31030450Y22327691D01*
X31030449Y22327695D01*
X31030447Y22327698D01*
X30940476Y22470885D01*
X30940471Y22470891D01*
X30820885Y22590477D01*
X30820879Y22590482D01*
X30677692Y22680453D01*
X30677689Y22680455D01*
X30518051Y22736315D01*
X30349998Y22755249D01*
X30349992Y22755249D01*
X30181938Y22736315D01*
X30022300Y22680455D01*
X30022297Y22680453D01*
X29879110Y22590482D01*
X29879104Y22590477D01*
X29759518Y22470891D01*
X29759513Y22470885D01*
X29669542Y22327698D01*
X29669540Y22327695D01*
X29613680Y22168057D01*
X29594746Y22000003D01*
X29594746Y21999998D01*
X29613681Y21831943D01*
X29669537Y21672313D01*
X29669543Y21672303D01*
X29680488Y21654885D01*
X29699495Y21588913D01*
X29699495Y20332413D01*
X29679810Y20265374D01*
X29672445Y20255104D01*
X29670181Y20252266D01*
X29574206Y20099524D01*
X29514626Y19929255D01*
X29514625Y19929250D01*
X29494430Y19750004D01*
X21894293Y19750004D01*
X21885364Y19829250D01*
X21885363Y19829255D01*
X21825783Y19999524D01*
X21762950Y20099522D01*
X21729811Y20152262D01*
X21602257Y20279816D01*
X21602256Y20279817D01*
X21558523Y20307296D01*
X21512232Y20359630D01*
X21500495Y20412290D01*
X21500495Y21809338D01*
X21519502Y21875311D01*
X21534701Y21899500D01*
X21580451Y21972310D01*
X21636308Y22131941D01*
X21655190Y22299522D01*
X21655244Y22299998D01*
X21655244Y22300003D01*
X21636309Y22468057D01*
X21593472Y22590477D01*
X21580451Y22627690D01*
X21580450Y22627691D01*
X21580449Y22627695D01*
X21580447Y22627698D01*
X21490476Y22770885D01*
X21490471Y22770891D01*
X21370885Y22890477D01*
X21370879Y22890482D01*
X21227692Y22980453D01*
X21227689Y22980455D01*
X21068051Y23036315D01*
X20899998Y23055249D01*
X20899992Y23055249D01*
X20731938Y23036315D01*
X20572300Y22980455D01*
X20572297Y22980453D01*
X20429110Y22890482D01*
X20429104Y22890477D01*
X20309518Y22770891D01*
X20309513Y22770885D01*
X20219542Y22627698D01*
X20219540Y22627695D01*
X20163680Y22468057D01*
X20144746Y22300003D01*
X6887115Y22300003D01*
X6919848Y32000000D01*
X59899995Y32000000D01*
X67849995Y32000000D01*
X67849995Y47000000D01*
X59899995Y47000000D01*
X59899995Y32000000D01*
X6919848Y32000000D01*
X6935709Y36700004D01*
X28194430Y36700004D01*
X28194430Y36699997D01*
X28214625Y36520751D01*
X28214626Y36520746D01*
X28274206Y36350477D01*
X28370179Y36197738D01*
X28390176Y36177741D01*
X28423661Y36116418D01*
X28426495Y36090060D01*
X28426495Y35482413D01*
X28406810Y35415374D01*
X28399445Y35405104D01*
X28397181Y35402266D01*
X28301206Y35249524D01*
X28241626Y35079255D01*
X28241625Y35079250D01*
X28221430Y34900004D01*
X28221430Y34899997D01*
X28241625Y34720751D01*
X28241626Y34720746D01*
X28301206Y34550477D01*
X28397179Y34397738D01*
X28524733Y34270184D01*
X28677473Y34174211D01*
X28847740Y34114632D01*
X28847745Y34114631D01*
X29026991Y34094435D01*
X29026995Y34094435D01*
X29026999Y34094435D01*
X29206244Y34114631D01*
X29206247Y34114632D01*
X29206250Y34114632D01*
X29376517Y34174211D01*
X29529257Y34270184D01*
X29656811Y34397738D01*
X29752784Y34550478D01*
X29812363Y34720745D01*
X29832560Y34900000D01*
X29812363Y35079255D01*
X29752784Y35249522D01*
X29656811Y35402262D01*
X29656809Y35402264D01*
X29656808Y35402266D01*
X29654545Y35405104D01*
X29653654Y35407285D01*
X29653106Y35408158D01*
X29653259Y35408255D01*
X29628139Y35469791D01*
X29627495Y35482413D01*
X29627495Y36158329D01*
X29646502Y36224302D01*
X29725783Y36350476D01*
X29785363Y36520746D01*
X29785364Y36520751D01*
X29805560Y36699997D01*
X29805560Y36700004D01*
X29785364Y36879250D01*
X29785363Y36879255D01*
X29725783Y37049524D01*
X29629810Y37202263D01*
X29502257Y37329816D01*
X29349518Y37425789D01*
X29179249Y37485369D01*
X29179244Y37485370D01*
X28999999Y37505565D01*
X28999991Y37505565D01*
X28820745Y37485370D01*
X28820740Y37485369D01*
X28650471Y37425789D01*
X28497732Y37329816D01*
X28370179Y37202263D01*
X28274206Y37049524D01*
X28214626Y36879255D01*
X28214625Y36879250D01*
X28194430Y36700004D01*
X6935709Y36700004D01*
X6960130Y43936611D01*
X53274495Y43936611D01*
X53274495Y43763389D01*
X53301593Y43592299D01*
X53355122Y43427555D01*
X53433763Y43273212D01*
X53535581Y43133072D01*
X53658067Y43010586D01*
X53658073Y43010582D01*
X53741018Y42950317D01*
X53783684Y42894987D01*
X53789662Y42825374D01*
X53757056Y42763579D01*
X53741018Y42749683D01*
X53658073Y42689419D01*
X53658064Y42689412D01*
X53535583Y42566931D01*
X53535583Y42566930D01*
X53535581Y42566928D01*
X53491854Y42506744D01*
X53433763Y42426789D01*
X53355123Y42272448D01*
X53301592Y42107698D01*
X53274495Y41936611D01*
X53274495Y41763389D01*
X53301593Y41592299D01*
X53355122Y41427555D01*
X53433763Y41273212D01*
X53535581Y41133072D01*
X53535583Y41133070D01*
X53643122Y41025531D01*
X53676607Y40964208D01*
X53671623Y40894516D01*
X53629751Y40838583D01*
X53620539Y40832312D01*
X53556339Y40792713D01*
X53432284Y40668658D01*
X53340182Y40519337D01*
X53340181Y40519334D01*
X53284996Y40352797D01*
X53284996Y40352796D01*
X53284995Y40352796D01*
X53274495Y40250017D01*
X53274495Y39449999D01*
X53274496Y39449981D01*
X53284995Y39347204D01*
X53284996Y39347201D01*
X53340180Y39180669D01*
X53340181Y39180666D01*
X53432283Y39031344D01*
X53556339Y38907288D01*
X53705661Y38815186D01*
X53872198Y38760001D01*
X53974986Y38749500D01*
X55325003Y38749501D01*
X55427792Y38760001D01*
X55594329Y38815186D01*
X55743651Y38907288D01*
X55867707Y39031344D01*
X55959809Y39180666D01*
X56014994Y39347203D01*
X56025495Y39449991D01*
X56025494Y40250008D01*
X56014994Y40352797D01*
X55959809Y40519334D01*
X55867707Y40668656D01*
X55743651Y40792712D01*
X55743647Y40792715D01*
X55679451Y40832312D01*
X55632726Y40884260D01*
X55621505Y40953223D01*
X55649348Y41017305D01*
X55656845Y41025509D01*
X55764409Y41133072D01*
X55866227Y41273212D01*
X55944868Y41427555D01*
X55998397Y41592299D01*
X56025495Y41763389D01*
X56025495Y41936611D01*
X55998397Y42107701D01*
X55944868Y42272445D01*
X55866227Y42426788D01*
X55764409Y42566928D01*
X55641923Y42689414D01*
X55558970Y42749683D01*
X55516306Y42805012D01*
X55510327Y42874626D01*
X55542933Y42936421D01*
X55558971Y42950318D01*
X55641923Y43010586D01*
X55764409Y43133072D01*
X55866227Y43273212D01*
X55944868Y43427555D01*
X55998397Y43592299D01*
X56025495Y43763389D01*
X56025495Y43936611D01*
X55998397Y44107701D01*
X55944868Y44272445D01*
X55866227Y44426788D01*
X55764409Y44566928D01*
X55641923Y44689414D01*
X55558545Y44749992D01*
X55515880Y44805323D01*
X55509901Y44874936D01*
X55542507Y44936731D01*
X55558547Y44950629D01*
X55641593Y45010964D01*
X55764027Y45133398D01*
X55865799Y45273476D01*
X55944403Y45427745D01*
X55997909Y45592416D01*
X55999110Y45600000D01*
X54930325Y45600000D01*
X54950070Y45619745D01*
X54999439Y45705255D01*
X55024995Y45800630D01*
X55024995Y45899370D01*
X54999439Y45994745D01*
X54950070Y46080255D01*
X54930325Y46100000D01*
X55999110Y46100000D01*
X55999110Y46100001D01*
X55997909Y46107585D01*
X55944403Y46272256D01*
X55865799Y46426525D01*
X55764027Y46566603D01*
X55641597Y46689033D01*
X55501519Y46790805D01*
X55347252Y46869409D01*
X55182579Y46922915D01*
X55011566Y46950000D01*
X54899995Y46950000D01*
X54899995Y46130330D01*
X54880250Y46150075D01*
X54794740Y46199444D01*
X54699365Y46225000D01*
X54600625Y46225000D01*
X54505250Y46199444D01*
X54419740Y46150075D01*
X54399995Y46130330D01*
X54399995Y46950000D01*
X54288424Y46950000D01*
X54117410Y46922915D01*
X53952737Y46869409D01*
X53798470Y46790805D01*
X53658392Y46689033D01*
X53535962Y46566603D01*
X53434190Y46426525D01*
X53355586Y46272256D01*
X53302080Y46107585D01*
X53300879Y46100001D01*
X53300880Y46100000D01*
X54369665Y46100000D01*
X54349920Y46080255D01*
X54300551Y45994745D01*
X54274995Y45899370D01*
X54274995Y45800630D01*
X54300551Y45705255D01*
X54349920Y45619745D01*
X54369665Y45600000D01*
X53300880Y45600000D01*
X53302080Y45592416D01*
X53355586Y45427745D01*
X53434190Y45273476D01*
X53535962Y45133398D01*
X53658396Y45010964D01*
X53741442Y44950629D01*
X53784109Y44895299D01*
X53790088Y44825686D01*
X53757483Y44763891D01*
X53741445Y44749993D01*
X53658067Y44689415D01*
X53535583Y44566931D01*
X53535583Y44566930D01*
X53535581Y44566928D01*
X53491854Y44506744D01*
X53433763Y44426789D01*
X53355123Y44272448D01*
X53301592Y44107698D01*
X53274495Y43936611D01*
X6960130Y43936611D01*
X6979579Y49700004D01*
X40944430Y49700004D01*
X40944430Y49699997D01*
X40964625Y49520751D01*
X40964626Y49520746D01*
X41024206Y49350477D01*
X41084510Y49254504D01*
X41107182Y49218422D01*
X41120180Y49197737D01*
X41122440Y49194903D01*
X41123329Y49192725D01*
X41123884Y49191842D01*
X41123729Y49191745D01*
X41148850Y49130217D01*
X41149495Y49117588D01*
X41149495Y47482413D01*
X41129810Y47415374D01*
X41122445Y47405104D01*
X41120181Y47402266D01*
X41024206Y47249524D01*
X40964626Y47079255D01*
X40964625Y47079250D01*
X40944430Y46900004D01*
X40944430Y46899997D01*
X40964625Y46720751D01*
X40964626Y46720746D01*
X41024206Y46550477D01*
X41102091Y46426525D01*
X41120179Y46397738D01*
X41247733Y46270184D01*
X41400473Y46174211D01*
X41469450Y46150075D01*
X41570740Y46114632D01*
X41570745Y46114631D01*
X41749991Y46094435D01*
X41749995Y46094435D01*
X41749999Y46094435D01*
X41929244Y46114631D01*
X41929247Y46114632D01*
X41929250Y46114632D01*
X42099517Y46174211D01*
X42209023Y46243019D01*
X42276259Y46262019D01*
X42340966Y46243019D01*
X42369643Y46225000D01*
X42450470Y46174212D01*
X42620740Y46114632D01*
X42620745Y46114631D01*
X42799991Y46094435D01*
X42799995Y46094435D01*
X42799999Y46094435D01*
X42979244Y46114631D01*
X42979247Y46114632D01*
X42979250Y46114632D01*
X43149517Y46174211D01*
X43302257Y46270184D01*
X43429811Y46397738D01*
X43525784Y46550478D01*
X43585363Y46720745D01*
X43599926Y46849997D01*
X43605560Y46899997D01*
X43605560Y46900004D01*
X43585364Y47079250D01*
X43585363Y47079255D01*
X43525783Y47249524D01*
X43461228Y47352262D01*
X43429811Y47402262D01*
X43429809Y47402264D01*
X43429808Y47402266D01*
X43427545Y47405104D01*
X43426654Y47407285D01*
X43426106Y47408158D01*
X43426259Y47408255D01*
X43401139Y47469791D01*
X43400495Y47482413D01*
X43400495Y49167588D01*
X43420180Y49234627D01*
X43427550Y49244903D01*
X43429805Y49247733D01*
X43429811Y49247738D01*
X43511034Y49377004D01*
X45644430Y49377004D01*
X45644430Y49376997D01*
X45664625Y49197751D01*
X45664626Y49197746D01*
X45724206Y49027477D01*
X45820180Y48874737D01*
X45822440Y48871903D01*
X45823329Y48869725D01*
X45823884Y48868842D01*
X45823729Y48868745D01*
X45848850Y48807217D01*
X45849495Y48794588D01*
X45849495Y47432413D01*
X45829810Y47365374D01*
X45822445Y47355104D01*
X45820181Y47352266D01*
X45724206Y47199524D01*
X45664626Y47029255D01*
X45664625Y47029250D01*
X45644430Y46850004D01*
X45644430Y46849997D01*
X45664625Y46670751D01*
X45664626Y46670746D01*
X45724206Y46500477D01*
X45788762Y46397738D01*
X45820179Y46347738D01*
X45947733Y46220184D01*
X46100473Y46124211D01*
X46185568Y46094435D01*
X46270740Y46064632D01*
X46270745Y46064631D01*
X46449991Y46044435D01*
X46449995Y46044435D01*
X46449999Y46044435D01*
X46629244Y46064631D01*
X46629247Y46064632D01*
X46629250Y46064632D01*
X46799517Y46124211D01*
X46952257Y46220184D01*
X47079811Y46347738D01*
X47175784Y46500478D01*
X47235363Y46670745D01*
X47240997Y46720746D01*
X47255560Y46849997D01*
X47255560Y46850004D01*
X47235364Y47029250D01*
X47235363Y47029255D01*
X47175783Y47199524D01*
X47134873Y47264632D01*
X47079811Y47352262D01*
X47079809Y47352264D01*
X47079808Y47352266D01*
X47077545Y47355104D01*
X47076654Y47357285D01*
X47076106Y47358158D01*
X47076259Y47358255D01*
X47051139Y47419791D01*
X47050495Y47432413D01*
X47050495Y48794588D01*
X47070180Y48861627D01*
X47077550Y48871903D01*
X47079805Y48874733D01*
X47079811Y48874738D01*
X47175784Y49027478D01*
X47235363Y49197745D01*
X47238913Y49229250D01*
X47255560Y49376997D01*
X47255560Y49377004D01*
X47235364Y49556250D01*
X47235363Y49556255D01*
X47202385Y49650500D01*
X47175784Y49726522D01*
X47144827Y49775789D01*
X47094701Y49855565D01*
X47079811Y49879262D01*
X46952257Y50006816D01*
X46884288Y50049524D01*
X46799518Y50102789D01*
X46629249Y50162369D01*
X46629244Y50162370D01*
X46449999Y50182565D01*
X46449991Y50182565D01*
X46270745Y50162370D01*
X46270740Y50162369D01*
X46100471Y50102789D01*
X45947732Y50006816D01*
X45820179Y49879263D01*
X45724206Y49726524D01*
X45664626Y49556255D01*
X45664625Y49556250D01*
X45644430Y49377004D01*
X43511034Y49377004D01*
X43525784Y49400478D01*
X43585363Y49570745D01*
X43597235Y49676111D01*
X43605560Y49749997D01*
X43605560Y49750004D01*
X43585364Y49929250D01*
X43585363Y49929255D01*
X43525783Y50099524D01*
X43486294Y50162370D01*
X43429811Y50252262D01*
X43302257Y50379816D01*
X43298810Y50381982D01*
X43149518Y50475789D01*
X42979249Y50535369D01*
X42979244Y50535370D01*
X42799999Y50555565D01*
X42799991Y50555565D01*
X42620745Y50535370D01*
X42620740Y50535369D01*
X42450471Y50475789D01*
X42301180Y50381982D01*
X42233943Y50362982D01*
X42169236Y50381982D01*
X42099518Y50425789D01*
X41929249Y50485369D01*
X41929244Y50485370D01*
X41749999Y50505565D01*
X41749991Y50505565D01*
X41570745Y50485370D01*
X41570740Y50485369D01*
X41400471Y50425789D01*
X41247732Y50329816D01*
X41120179Y50202263D01*
X41024206Y50049524D01*
X40964626Y49879255D01*
X40964625Y49879250D01*
X40944430Y49700004D01*
X6979579Y49700004D01*
X6987919Y52171319D01*
X60999495Y52171319D01*
X60999495Y51828682D01*
X61037853Y51488232D01*
X61037856Y51488218D01*
X61114097Y51154184D01*
X61114098Y51154182D01*
X61227259Y50830784D01*
X61375917Y50522093D01*
X61375919Y50522090D01*
X61558206Y50231982D01*
X61771829Y49964107D01*
X62014102Y49721834D01*
X62281977Y49508211D01*
X62572085Y49325924D01*
X62880780Y49177264D01*
X63204178Y49064103D01*
X63538212Y48987861D01*
X63538221Y48987860D01*
X63538226Y48987859D01*
X63765192Y48962287D01*
X63878677Y48949501D01*
X63878680Y48949500D01*
X63878683Y48949500D01*
X64221310Y48949500D01*
X64221311Y48949501D01*
X64395306Y48969105D01*
X64561763Y48987859D01*
X64561766Y48987860D01*
X64561778Y48987861D01*
X64834041Y49050004D01*
X69894430Y49050004D01*
X69894430Y49049997D01*
X69914625Y48870751D01*
X69914626Y48870746D01*
X69974206Y48700477D01*
X70052304Y48576185D01*
X70071304Y48508948D01*
X70052305Y48444243D01*
X70024204Y48399520D01*
X69964628Y48229263D01*
X69964625Y48229250D01*
X69944430Y48050004D01*
X69944430Y48049997D01*
X69964625Y47870751D01*
X69964626Y47870746D01*
X70024206Y47700477D01*
X70120179Y47547738D01*
X70247733Y47420184D01*
X70400473Y47324211D01*
X70570740Y47264632D01*
X70570745Y47264631D01*
X70749991Y47244435D01*
X70749995Y47244435D01*
X70749999Y47244435D01*
X70929244Y47264631D01*
X70929247Y47264632D01*
X70929250Y47264632D01*
X71099517Y47324211D01*
X71252257Y47420184D01*
X71252262Y47420190D01*
X71255092Y47422445D01*
X71257270Y47423335D01*
X71258153Y47423889D01*
X71258250Y47423735D01*
X71319778Y47448855D01*
X71332407Y47449500D01*
X78067583Y47449500D01*
X78134622Y47429815D01*
X78144898Y47422445D01*
X78147731Y47420186D01*
X78147733Y47420184D01*
X78300473Y47324211D01*
X78470740Y47264632D01*
X78470745Y47264631D01*
X78649991Y47244435D01*
X78649995Y47244435D01*
X78649999Y47244435D01*
X78829244Y47264631D01*
X78829247Y47264632D01*
X78829250Y47264632D01*
X78999517Y47324211D01*
X79152257Y47420184D01*
X79279811Y47547738D01*
X79375784Y47700478D01*
X79435363Y47870745D01*
X79455560Y48050000D01*
X79435363Y48229255D01*
X79375784Y48399522D01*
X79375783Y48399525D01*
X79322686Y48484027D01*
X79303685Y48551264D01*
X79322686Y48615973D01*
X79375783Y48700476D01*
X79375784Y48700478D01*
X79435363Y48870745D01*
X79435364Y48870751D01*
X79455560Y49049997D01*
X79455560Y49050004D01*
X79435364Y49229250D01*
X79435363Y49229255D01*
X79428896Y49247737D01*
X79375784Y49399522D01*
X79375183Y49400478D01*
X79330385Y49471774D01*
X79279811Y49552262D01*
X79152257Y49679816D01*
X79120139Y49699997D01*
X78999518Y49775789D01*
X78829249Y49835369D01*
X78829244Y49835370D01*
X78649999Y49855565D01*
X78649991Y49855565D01*
X78470745Y49835370D01*
X78470740Y49835369D01*
X78300471Y49775789D01*
X78147731Y49679815D01*
X78144898Y49677555D01*
X78142719Y49676666D01*
X78141837Y49676111D01*
X78141739Y49676266D01*
X78080212Y49651145D01*
X78067583Y49650500D01*
X71282407Y49650500D01*
X71215368Y49670185D01*
X71205092Y49677555D01*
X71202258Y49679815D01*
X71202257Y49679816D01*
X71090554Y49750004D01*
X71049518Y49775789D01*
X70879249Y49835369D01*
X70879244Y49835370D01*
X70699999Y49855565D01*
X70699991Y49855565D01*
X70520745Y49835370D01*
X70520740Y49835369D01*
X70350471Y49775789D01*
X70197732Y49679816D01*
X70070179Y49552263D01*
X69974206Y49399524D01*
X69914626Y49229255D01*
X69914625Y49229250D01*
X69894430Y49050004D01*
X64834041Y49050004D01*
X64895812Y49064103D01*
X65219210Y49177264D01*
X65527905Y49325924D01*
X65818013Y49508211D01*
X66085888Y49721834D01*
X66328161Y49964107D01*
X66541784Y50231982D01*
X66724071Y50522090D01*
X66872731Y50830785D01*
X66985892Y51154183D01*
X67062134Y51488217D01*
X67100495Y51828688D01*
X67100495Y52171312D01*
X67062134Y52511783D01*
X66985892Y52845817D01*
X66872731Y53169215D01*
X66724071Y53477910D01*
X66541784Y53768018D01*
X66328161Y54035893D01*
X66085888Y54278166D01*
X65818013Y54491789D01*
X65527905Y54674076D01*
X65527902Y54674078D01*
X65219211Y54822736D01*
X64895813Y54935897D01*
X64895811Y54935898D01*
X64638019Y54994738D01*
X64561778Y55012139D01*
X64561775Y55012140D01*
X64561763Y55012142D01*
X64221313Y55050500D01*
X64221307Y55050500D01*
X63878683Y55050500D01*
X63878676Y55050500D01*
X63538226Y55012142D01*
X63538212Y55012139D01*
X63204178Y54935898D01*
X63204176Y54935897D01*
X62880778Y54822736D01*
X62572087Y54674078D01*
X62281978Y54491790D01*
X62014102Y54278167D01*
X61771828Y54035893D01*
X61558205Y53768017D01*
X61375917Y53477908D01*
X61227259Y53169217D01*
X61114098Y52845819D01*
X61114097Y52845817D01*
X61037856Y52511783D01*
X61037853Y52511769D01*
X60999495Y52171319D01*
X6987919Y52171319D01*
X7029099Y64374502D01*
X7149995Y100199791D01*
X7149995Y100200000D01*
X10649995Y100200000D01*
X10649903Y100223026D01*
X22225179Y100299179D01*
X22292347Y100279936D01*
G37*
%TD.AperFunction*%
%TD*%
M02*
