%TF.GenerationSoftware,KiCad,Pcbnew,9.0.7+dfsg-1*%
%TF.CreationDate,2026-01-18T10:24:58+01:00*%
%TF.ProjectId,MainBoardMk3.1_KeepAliveMk3,4d61696e-426f-4617-9264-4d6b332e315f,rev?*%
%TF.SameCoordinates,PX61a8000PY3612c60*%
%TF.FileFunction,Copper,L1,Top*%
%TF.FilePolarity,Positive*%
%FSLAX46Y46*%
G04 Gerber Fmt 4.6, Leading zero omitted, Abs format (unit mm)*
G04 Created by KiCad (PCBNEW 9.0.7+dfsg-1) date 2026-01-18 10:24:58*
%MOMM*%
%LPD*%
G01*
G04 APERTURE LIST*
G04 Aperture macros list*
%AMRoundRect*
0 Rectangle with rounded corners*
0 $1 Rounding radius*
0 $2 $3 $4 $5 $6 $7 $8 $9 X,Y pos of 4 corners*
0 Add a 4 corners polygon primitive as box body*
4,1,4,$2,$3,$4,$5,$6,$7,$8,$9,$2,$3,0*
0 Add four circle primitives for the rounded corners*
1,1,$1+$1,$2,$3*
1,1,$1+$1,$4,$5*
1,1,$1+$1,$6,$7*
1,1,$1+$1,$8,$9*
0 Add four rect primitives between the rounded corners*
20,1,$1+$1,$2,$3,$4,$5,0*
20,1,$1+$1,$4,$5,$6,$7,0*
20,1,$1+$1,$6,$7,$8,$9,0*
20,1,$1+$1,$8,$9,$2,$3,0*%
G04 Aperture macros list end*
%TA.AperFunction,ComponentPad*%
%ADD10R,1.100000X1.800000*%
%TD*%
%TA.AperFunction,ComponentPad*%
%ADD11RoundRect,0.275000X0.275000X0.625000X-0.275000X0.625000X-0.275000X-0.625000X0.275000X-0.625000X0*%
%TD*%
%TA.AperFunction,ComponentPad*%
%ADD12R,1.800000X1.100000*%
%TD*%
%TA.AperFunction,ComponentPad*%
%ADD13RoundRect,0.275000X0.625000X-0.275000X0.625000X0.275000X-0.625000X0.275000X-0.625000X-0.275000X0*%
%TD*%
%TA.AperFunction,ComponentPad*%
%ADD14RoundRect,0.275000X-0.625000X0.275000X-0.625000X-0.275000X0.625000X-0.275000X0.625000X0.275000X0*%
%TD*%
%TA.AperFunction,ComponentPad*%
%ADD15RoundRect,0.250000X-0.825000X-0.825000X0.825000X-0.825000X0.825000X0.825000X-0.825000X0.825000X0*%
%TD*%
%TA.AperFunction,ComponentPad*%
%ADD16C,1.600000*%
%TD*%
%TA.AperFunction,ComponentPad*%
%ADD17R,1.905000X2.000000*%
%TD*%
%TA.AperFunction,ComponentPad*%
%ADD18O,1.905000X2.000000*%
%TD*%
%TA.AperFunction,ComponentPad*%
%ADD19R,1.700000X1.700000*%
%TD*%
%TA.AperFunction,ComponentPad*%
%ADD20C,1.700000*%
%TD*%
%TA.AperFunction,Conductor*%
%ADD21C,0.200000*%
%TD*%
%TA.AperFunction,Conductor*%
%ADD22C,1.000000*%
%TD*%
%TA.AperFunction,Conductor*%
%ADD23C,1.200000*%
%TD*%
G04 APERTURE END LIST*
D10*
%TO.P,Q4,1,E*%
%TO.N,GND*%
X63800000Y6000000D03*
D11*
%TO.P,Q4,2,B*%
%TO.N,Net-(Q4-B)*%
X62530000Y3930000D03*
%TO.P,Q4,3,C*%
%TO.N,Net-(Q2-B)*%
X61260000Y6000000D03*
%TD*%
D12*
%TO.P,Q3,1,E*%
%TO.N,VCC*%
X48300000Y12400000D03*
D13*
%TO.P,Q3,2,B*%
%TO.N,Net-(Q2-C)*%
X46230000Y13670000D03*
%TO.P,Q3,3,C*%
%TO.N,Net-(Q3-C)*%
X48300000Y14940000D03*
%TD*%
D12*
%TO.P,Q2,1,E*%
%TO.N,GND*%
X46700000Y20700000D03*
D14*
%TO.P,Q2,2,B*%
%TO.N,Net-(Q2-B)*%
X48770000Y19430000D03*
%TO.P,Q2,3,C*%
%TO.N,Net-(Q2-C)*%
X46700000Y18160000D03*
%TD*%
D15*
%TO.P,J6,1,Pin_1*%
%TO.N,3V3*%
X9100000Y4700000D03*
%TD*%
D16*
%TO.P,R1,1*%
%TO.N,Net-(Q4-B)*%
X60100000Y18000000D03*
%TO.P,R1,2*%
%TO.N,GPIO7*%
X52480000Y18000000D03*
%TD*%
%TO.P,R4,1*%
%TO.N,Net-(Q3-C)*%
X38600000Y8300000D03*
%TO.P,R4,2*%
%TO.N,Net-(Q1-G)*%
X30980000Y8300000D03*
%TD*%
%TO.P,R7,1*%
%TO.N,Net-(Q4-B)*%
X43290000Y8250000D03*
%TO.P,R7,2*%
%TO.N,GND*%
X50910000Y8250000D03*
%TD*%
D17*
%TO.P,Q1,1,G*%
%TO.N,Net-(Q1-G)*%
X74240000Y20300000D03*
D18*
%TO.P,Q1,2,D*%
%TO.N,GND*%
X71700000Y20300000D03*
%TO.P,Q1,3,S*%
%TO.N,GND_SUPPLY*%
X69160000Y20300000D03*
%TD*%
D16*
%TO.P,C1,1*%
%TO.N,Net-(Q1-G)*%
X63800000Y17700000D03*
%TO.P,C1,2*%
%TO.N,GND_SUPPLY*%
X63800000Y20200000D03*
%TD*%
D19*
%TO.P,J5,1,Pin_1*%
%TO.N,GND*%
X21093113Y8475828D03*
D20*
%TO.P,J5,2,Pin_2*%
%TO.N,Net-(J3-Pin_2)*%
X23633113Y8475828D03*
%TO.P,J5,3,Pin_3*%
%TO.N,GND_SUPPLY*%
X26173113Y8475828D03*
%TD*%
D16*
%TO.P,R2,1*%
%TO.N,Net-(Q2-B)*%
X32800000Y20200000D03*
%TO.P,R2,2*%
%TO.N,GND*%
X32800000Y12580000D03*
%TD*%
%TO.P,R6,1*%
%TO.N,Net-(Q2-B)*%
X38300000Y20110000D03*
%TO.P,R6,2*%
%TO.N,3V3*%
X38300000Y12490000D03*
%TD*%
%TO.P,R3,1*%
%TO.N,VCC*%
X64560000Y12100000D03*
%TO.P,R3,2*%
%TO.N,Net-(Q2-C)*%
X56940000Y12100000D03*
%TD*%
%TO.P,R5,1*%
%TO.N,Net-(Q1-G)*%
X41950000Y12700000D03*
%TO.P,R5,2*%
%TO.N,GND_SUPPLY*%
X41950000Y20320000D03*
%TD*%
D19*
%TO.P,J4,1,Pin_1*%
%TO.N,GND*%
X10143113Y8475828D03*
D20*
%TO.P,J4,2,Pin_2*%
%TO.N,Net-(J2-Pin_2)*%
X12683113Y8475828D03*
%TO.P,J4,3,Pin_3*%
%TO.N,GND_SUPPLY*%
X15223113Y8475828D03*
%TD*%
D19*
%TO.P,J2,1,Pin_1*%
%TO.N,GND*%
X10150000Y13590000D03*
D20*
%TO.P,J2,2,Pin_2*%
%TO.N,Net-(J2-Pin_2)*%
X12690000Y13590000D03*
%TO.P,J2,3,Pin_3*%
%TO.N,GND_SUPPLY*%
X15230000Y13590000D03*
%TD*%
D19*
%TO.P,J3,1,Pin_1*%
%TO.N,GND*%
X21100000Y13590000D03*
D20*
%TO.P,J3,2,Pin_2*%
%TO.N,Net-(J3-Pin_2)*%
X23640000Y13590000D03*
%TO.P,J3,3,Pin_3*%
%TO.N,GND_SUPPLY*%
X26180000Y13590000D03*
%TD*%
D19*
%TO.P,J1,1,Pin_1*%
%TO.N,GPIO7*%
X56650000Y8240000D03*
D20*
%TO.P,J1,2,Pin_2*%
%TO.N,VCC*%
X56650000Y5700000D03*
%TO.P,J1,3,Pin_3*%
%TO.N,GND*%
X56650000Y3160000D03*
%TD*%
D21*
%TO.N,3V3*%
X38300000Y12490000D02*
X37210000Y11400000D01*
X37210000Y11400000D02*
X32524365Y11400000D01*
X32524365Y11400000D02*
X28450193Y7325828D01*
X28450193Y7325828D02*
X11725828Y7325828D01*
X11725828Y7325828D02*
X9100000Y4700000D01*
X10100000Y4700000D02*
X9100000Y4700000D01*
%TO.N,Net-(Q2-C)*%
X55370000Y13670000D02*
X49600000Y13670000D01*
X47100000Y18160000D02*
X49600000Y15660000D01*
X49600000Y15660000D02*
X49600000Y13670000D01*
X49600000Y13670000D02*
X46630000Y13670000D01*
%TO.N,Net-(Q3-C)*%
X41100000Y8300000D02*
X41100000Y10262206D01*
X41100000Y10262206D02*
X45777794Y14940000D01*
X45777794Y14940000D02*
X47900000Y14940000D01*
D22*
%TO.N,GND_SUPPLY*%
X15230000Y13590000D02*
X16780000Y15140000D01*
X39070000Y23200000D02*
X41950000Y20320000D01*
X60800000Y23200000D02*
X39070000Y23200000D01*
X15230000Y13590000D02*
X15230000Y8482715D01*
X26180000Y8482715D02*
X26173113Y8475828D01*
X29500000Y21400000D02*
X31300000Y23200000D01*
X26208304Y13590000D02*
X29500000Y16881696D01*
X26180000Y13590000D02*
X26180000Y8482715D01*
X69160000Y20300000D02*
X63900000Y20300000D01*
X15230000Y8482715D02*
X15223113Y8475828D01*
X63900000Y20300000D02*
X63800000Y20200000D01*
X24630000Y15140000D02*
X26180000Y13590000D01*
X63800000Y20200000D02*
X60800000Y23200000D01*
X31300000Y23200000D02*
X39070000Y23200000D01*
D21*
X41950000Y20320000D02*
X42220000Y20320000D01*
D22*
X29500000Y16881696D02*
X29500000Y21400000D01*
X26180000Y13590000D02*
X26208304Y13590000D01*
X16780000Y15140000D02*
X24630000Y15140000D01*
D21*
%TO.N,Net-(Q1-G)*%
X38650000Y9400000D02*
X41950000Y12700000D01*
X63800000Y17700000D02*
X71640000Y17700000D01*
X32080000Y9400000D02*
X38650000Y9400000D01*
X30980000Y8300000D02*
X32080000Y9400000D01*
X71640000Y17700000D02*
X74240000Y20300000D01*
%TO.N,VCC*%
X53098528Y12400000D02*
X47900000Y12400000D01*
X54600000Y10898528D02*
X53098528Y12400000D01*
X56650000Y5700000D02*
X54600000Y7750000D01*
X54600000Y7750000D02*
X54600000Y10898528D01*
D23*
%TO.N,GND*%
X10150000Y8482715D02*
X10143113Y8475828D01*
X21100000Y8482715D02*
X21093113Y8475828D01*
D21*
%TO.N,GPIO7*%
X52600000Y18000000D02*
X52480000Y18000000D01*
X58040000Y9630000D02*
X58040000Y12560000D01*
X56650000Y8240000D02*
X58040000Y9630000D01*
X58040000Y12560000D02*
X52600000Y18000000D01*
D22*
%TO.N,Net-(J2-Pin_2)*%
X12690000Y8482715D02*
X12683113Y8475828D01*
X12690000Y13590000D02*
X12690000Y8482715D01*
%TO.N,Net-(J3-Pin_2)*%
X23640000Y8482715D02*
X23633113Y8475828D01*
X23640000Y13590000D02*
X23640000Y8482715D01*
D21*
%TO.N,Net-(Q2-B)*%
X47100000Y19430000D02*
X46870000Y19200000D01*
X47100000Y19430000D02*
X52605635Y19430000D01*
X61260000Y10775635D02*
X61260000Y5600000D01*
X52605635Y19430000D02*
X61260000Y10775635D01*
X38300000Y20110000D02*
X32890000Y20110000D01*
X46870000Y19200000D02*
X40765635Y19200000D01*
X32890000Y20110000D02*
X32800000Y20200000D01*
X39855635Y20110000D02*
X38300000Y20110000D01*
X40765635Y19200000D02*
X39855635Y20110000D01*
%TO.N,Net-(Q2-C)*%
X55370000Y13670000D02*
X56940000Y12100000D01*
%TO.N,Net-(Q3-C)*%
X38600000Y8300000D02*
X41100000Y8300000D01*
%TO.N,Net-(Q4-B)*%
X43290000Y8250000D02*
X44390000Y7150000D01*
X62530000Y15570000D02*
X60100000Y18000000D01*
X56173654Y4550000D02*
X57234314Y4550000D01*
X62730000Y15570000D02*
X62530000Y15570000D01*
X65759999Y2294313D02*
X65759999Y12540001D01*
X60084314Y1700000D02*
X65165686Y1700000D01*
X65759999Y12540001D02*
X62730000Y15570000D01*
X65165686Y1700000D02*
X65759999Y2294313D01*
X53573654Y7150000D02*
X56173654Y4550000D01*
X44390000Y7150000D02*
X53573654Y7150000D01*
X57234314Y4550000D02*
X60084314Y1700000D01*
%TO.N,VCC*%
X56650000Y5700000D02*
X60250000Y2100000D01*
X60250000Y2100000D02*
X65000000Y2100000D01*
X65000000Y2100000D02*
X65359999Y2459999D01*
X65359999Y2459999D02*
X65359999Y11300001D01*
X65359999Y11300001D02*
X64560000Y12100000D01*
%TO.N,Net-(Q4-B)*%
X62530000Y15570000D02*
X62530000Y4330000D01*
%TD*%
M02*
