M48
; DRILL file {KiCad 9.0.7+dfsg-1} date 2026-01-18T10:25:06+0100
; FORMAT={-:-/ absolute / metric / decimal}
; #@! TF.CreationDate,2026-01-18T10:25:06+01:00
; #@! TF.GenerationSoftware,Kicad,Pcbnew,9.0.7+dfsg-1
; #@! TF.FileFunction,Plated,1,2,PTH
FMAT,2
METRIC
; #@! TA.AperFunction,Plated,PTH,ComponentDrill
T1C0.750
; #@! TA.AperFunction,Plated,PTH,ComponentDrill
T2C0.800
; #@! TA.AperFunction,Plated,PTH,ComponentDrill
T3C1.000
; #@! TA.AperFunction,Plated,PTH,ComponentDrill
T4C1.100
; #@! TA.AperFunction,Plated,PTH,ComponentDrill
T5C1.150
%
G90
G05
T1
X46.63Y13.67
X47.1Y20.7
X47.1Y18.16
X47.9Y14.94
X47.9Y12.4
X48.37Y19.43
X61.26Y5.6
X62.53Y4.33
X63.8Y5.6
T2
X30.98Y8.3
X32.8Y20.2
X32.8Y12.58
X38.3Y20.11
X38.3Y12.49
X38.6Y8.3
X41.95Y20.32
X41.95Y12.7
X43.29Y8.25
X50.91Y8.25
X52.48Y18.0
X56.94Y12.1
X60.1Y18.0
X63.8Y20.2
X63.8Y17.7
X64.56Y12.1
T3
X10.143Y8.476
X10.15Y13.59
X12.683Y8.476
X12.69Y13.59
X15.223Y8.476
X15.23Y13.59
X21.093Y8.476
X21.1Y13.59
X23.633Y8.476
X23.64Y13.59
X26.173Y8.476
X26.18Y13.59
X56.65Y8.24
X56.65Y5.7
X56.65Y3.16
T4
X69.16Y20.3
X71.7Y20.3
X74.24Y20.3
T5
X9.1Y4.7
M30
