%TF.GenerationSoftware,KiCad,Pcbnew,9.0.7+dfsg-1*%
%TF.CreationDate,2026-01-18T10:24:59+01:00*%
%TF.ProjectId,MainBoardMk3.1_KeepAliveMk3,4d61696e-426f-4617-9264-4d6b332e315f,rev?*%
%TF.SameCoordinates,PX61a8000PY3612c60*%
%TF.FileFunction,Legend,Bot*%
%TF.FilePolarity,Positive*%
%FSLAX46Y46*%
G04 Gerber Fmt 4.6, Leading zero omitted, Abs format (unit mm)*
G04 Created by KiCad (PCBNEW 9.0.7+dfsg-1) date 2026-01-18 10:24:59*
%MOMM*%
%LPD*%
G01*
G04 APERTURE LIST*
%ADD10C,0.150000*%
%ADD11C,0.120000*%
G04 APERTURE END LIST*
D10*
X7554819Y13923334D02*
X8269104Y13923334D01*
X8269104Y13923334D02*
X8411961Y13970953D01*
X8411961Y13970953D02*
X8507200Y14066191D01*
X8507200Y14066191D02*
X8554819Y14209048D01*
X8554819Y14209048D02*
X8554819Y14304286D01*
X7650057Y13494762D02*
X7602438Y13447143D01*
X7602438Y13447143D02*
X7554819Y13351905D01*
X7554819Y13351905D02*
X7554819Y13113810D01*
X7554819Y13113810D02*
X7602438Y13018572D01*
X7602438Y13018572D02*
X7650057Y12970953D01*
X7650057Y12970953D02*
X7745295Y12923334D01*
X7745295Y12923334D02*
X7840533Y12923334D01*
X7840533Y12923334D02*
X7983390Y12970953D01*
X7983390Y12970953D02*
X8554819Y13542381D01*
X8554819Y13542381D02*
X8554819Y12923334D01*
X17784819Y13923334D02*
X18499104Y13923334D01*
X18499104Y13923334D02*
X18641961Y13970953D01*
X18641961Y13970953D02*
X18737200Y14066191D01*
X18737200Y14066191D02*
X18784819Y14209048D01*
X18784819Y14209048D02*
X18784819Y14304286D01*
X17784819Y13542381D02*
X17784819Y12923334D01*
X17784819Y12923334D02*
X18165771Y13256667D01*
X18165771Y13256667D02*
X18165771Y13113810D01*
X18165771Y13113810D02*
X18213390Y13018572D01*
X18213390Y13018572D02*
X18261009Y12970953D01*
X18261009Y12970953D02*
X18356247Y12923334D01*
X18356247Y12923334D02*
X18594342Y12923334D01*
X18594342Y12923334D02*
X18689580Y12970953D01*
X18689580Y12970953D02*
X18737200Y13018572D01*
X18737200Y13018572D02*
X18784819Y13113810D01*
X18784819Y13113810D02*
X18784819Y13399524D01*
X18784819Y13399524D02*
X18737200Y13494762D01*
X18737200Y13494762D02*
X18689580Y13542381D01*
X56983333Y10745181D02*
X56983333Y10030896D01*
X56983333Y10030896D02*
X57030952Y9888039D01*
X57030952Y9888039D02*
X57126190Y9792800D01*
X57126190Y9792800D02*
X57269047Y9745181D01*
X57269047Y9745181D02*
X57364285Y9745181D01*
X55983333Y9745181D02*
X56554761Y9745181D01*
X56269047Y9745181D02*
X56269047Y10745181D01*
X56269047Y10745181D02*
X56364285Y10602324D01*
X56364285Y10602324D02*
X56459523Y10507086D01*
X56459523Y10507086D02*
X56554761Y10459467D01*
D11*
%TO.C,J2*%
X11420000Y14920000D02*
X16560000Y14920000D01*
X11420000Y14920000D02*
X11420000Y12260000D01*
X16560000Y14920000D02*
X16560000Y12260000D01*
X8820000Y13590000D02*
X8820000Y12260000D01*
X8820000Y12260000D02*
X10150000Y12260000D01*
X11420000Y12260000D02*
X16560000Y12260000D01*
%TO.C,J3*%
X22370000Y14920000D02*
X27510000Y14920000D01*
X22370000Y14920000D02*
X22370000Y12260000D01*
X27510000Y14920000D02*
X27510000Y12260000D01*
X19770000Y13590000D02*
X19770000Y12260000D01*
X19770000Y12260000D02*
X21100000Y12260000D01*
X22370000Y12260000D02*
X27510000Y12260000D01*
%TO.C,J1*%
X57980000Y6970000D02*
X57980000Y1830000D01*
X57980000Y6970000D02*
X55320000Y6970000D01*
X57980000Y1830000D02*
X55320000Y1830000D01*
X56650000Y9570000D02*
X55320000Y9570000D01*
X55320000Y9570000D02*
X55320000Y8240000D01*
X55320000Y6970000D02*
X55320000Y1830000D01*
%TD*%
M02*
